<?xml version="1.0" standalone="no"?>
<!DOCTYPE svg PUBLIC "-//W3C//DTD SVG 1.1//EN" "http://www.w3.org/Graphics/SVG/1.1/DTD/svg11.dtd" >
<svg>
<metadata>
Created by FontForge 20090622 at Wed Aug 24 13:56:18 2016
 By deploy user
&#194;&#169;2003-2010 Optimo.
</metadata>
<defs>
<font id="Hermes-Regular" horiz-adv-x="696" >
  <font-face 
    font-family="Hermes Regular"
    font-weight="400"
    font-stretch="normal"
    units-per-em="1000"
    panose-1="2 15 5 5 3 0 0 2 0 4"
    ascent="796"
    descent="-204"
    x-height="537"
    cap-height="723"
    bbox="-125 -254 1340 1109"
    underline-thickness="50"
    underline-position="-100"
    unicode-range="U+0020-U+FB02"
  />
<missing-glyph horiz-adv-x="644" 
d="M50 240v49l309 309q16 -9 26 -23zM50 142v49l347 347v-15q0 -20 -13.5 -37.5t-42 -40t-36.5 -30.5q-23 -22 -36 -54zM104 0h-49l261 261h49l-93 -93h-23v-23zM321 168l273 273v-49l-224 -224h-49zM50 338v49l148 148l39 -2q0 29 20 52t55 23h8zM398 0h-49l33 33h2v2
l210 210v-49zM384 133l210 210v-49l-210 -210v49zM50 44v49l206 206v-38h11zM50 583l196 196h49l-44 -44q-53 -14 -92.5 -53.5t-54.5 -93.5l-54 -54v49zM537 482l57 57v-49l-216 -216v7q0 15 6.5 27.5t11 17.5t25.5 20t27 20q2 1 15.5 11t21.5 17.5t20 20.5t20 30t12 37z
M50 681l98 98h49l-147 -147v49zM496 0h-49l147 147v-49zM459 698l81 81h49l-104 -104q-12 13 -26 23zM50 436v49l56 56l46 -3zM506 647l88 88v-49l-70 -70q-7 15 -18 31zM202 0h-49l96 96v-49zM395 732l47 47h49l-62 -62q-17 9 -34 15zM536 579l58 58v-49l-52 -52
q0 15 -6 43zM307 742l37 37h49l-38 -38q-18 2 -28 2zM300 0h-49l33 33h49zM594 49v-49h-49zM50 779h49l-49 -49v49z" />
    <glyph glyph-name="fi" unicode="fi" horiz-adv-x="763" 
d="M678 702q0 -29 -21.5 -50.5t-50.5 -21.5t-50.5 21.5t-21.5 50.5t21.5 50.5t50.5 21.5t50.5 -21.5t21.5 -50.5zM558 47v405h-297v-405q0 -19 -13.5 -33t-33.5 -14t-33.5 14t-13.5 33v405h-104q-18 0 -30.5 12.5t-12.5 29.5q0 18 12.5 30.5t29.5 12.5h105v36
q0 75 53.5 126.5t126.5 51.5q53 0 100 -31q18 -12 18 -35q0 -17 -11 -30t-30 -13q-13 0 -27 8q-28 16 -50 16q-37 0 -61.5 -28t-24.5 -65v-36h345q19 0 32.5 -13.5t13.5 -33.5v-443q0 -19 -14 -33t-33 -14t-33 14t-14 33z" />
    <glyph glyph-name="fl" unicode="fl" horiz-adv-x="789" 
d="M162 537v36q0 75 53.5 126.5t126.5 51.5q57 0 101 -33q17 -13 17 -33q0 -17 -11.5 -30t-28.5 -13q-15 0 -29 9q-24 15 -49 15q-37 0 -61.5 -28t-24.5 -65v-36h142q18 0 30.5 -12.5t12.5 -29.5q0 -18 -12.5 -30.5t-29.5 -12.5h-143v-405q0 -19 -14 -33t-33 -14t-33 14
t-14 33v405h-104q-18 0 -30.5 12.5t-12.5 29.5q0 18 12.5 30.5t29.5 12.5h105zM674 676v-629q0 -19 -14 -33t-33 -14t-33 14t-14 33v629q0 20 14 33.5t33 13.5t33 -13.5t14 -33.5z" />
    <glyph glyph-name=".notdef" horiz-adv-x="644" 
d="M50 240v49l309 309q16 -9 26 -23zM50 142v49l347 347v-15q0 -20 -13.5 -37.5t-42 -40t-36.5 -30.5q-23 -22 -36 -54zM104 0h-49l261 261h49l-93 -93h-23v-23zM321 168l273 273v-49l-224 -224h-49zM50 338v49l148 148l39 -2q0 29 20 52t55 23h8zM398 0h-49l33 33h2v2
l210 210v-49zM384 133l210 210v-49l-210 -210v49zM50 44v49l206 206v-38h11zM50 583l196 196h49l-44 -44q-53 -14 -92.5 -53.5t-54.5 -93.5l-54 -54v49zM537 482l57 57v-49l-216 -216v7q0 15 6.5 27.5t11 17.5t25.5 20t27 20q2 1 15.5 11t21.5 17.5t20 20.5t20 30t12 37z
M50 681l98 98h49l-147 -147v49zM496 0h-49l147 147v-49zM459 698l81 81h49l-104 -104q-12 13 -26 23zM50 436v49l56 56l46 -3zM506 647l88 88v-49l-70 -70q-7 15 -18 31zM202 0h-49l96 96v-49zM395 732l47 47h49l-62 -62q-17 9 -34 15zM536 579l58 58v-49l-52 -52
q0 15 -6 43zM307 742l37 37h49l-38 -38q-18 2 -28 2zM300 0h-49l33 33h49zM594 49v-49h-49zM50 779h49l-49 -49v49z" />
    <glyph glyph-name=".null" horiz-adv-x="0" 
 />
    <glyph glyph-name="nonmarkingreturn" horiz-adv-x="333" 
 />
    <glyph glyph-name="space" unicode=" " horiz-adv-x="400" 
 />
    <glyph glyph-name="exclam" unicode="!" horiz-adv-x="459" 
d="M287 671v-2q0 -7 -6.5 -186.5t-6.5 -197.5q0 -19 -13 -32t-32 -13q-18 0 -31 13t-13 32q0 18 -7 197.5t-7 186.5v2q0 21 18 36.5t40 15.5t40 -15.5t18 -36.5zM319 84q0 -37 -26.5 -63t-63.5 -26t-63 26t-26 63t26 63.5t63 26.5t63.5 -26t26.5 -64z" />
    <glyph glyph-name="quotedbl" unicode="&#x22;" horiz-adv-x="537" 
d="M422 670q0 -7 -29 -268q-3 -26 -30 -26q-26 0 -29 26q-28 224 -28 268q0 24 17 41t41 17t41 -17t17 -41zM231 670q0 -7 -29 -268q-3 -26 -30 -26q-26 0 -29 26q-28 224 -28 268q0 24 17 41t41 17t41 -17t17 -41z" />
    <glyph glyph-name="numbersign" unicode="#" horiz-adv-x="742" 
d="M308 217h99l24 112h-99zM543 491l-19 -86h91q16 0 27 -11t11 -27t-11 -27t-27 -11h-107l-24 -112h92q16 0 27 -11t11 -27t-11 -27t-27 -11h-108l-23 -111q-7 -30 -37 -30q-16 0 -27.5 10.5t-11.5 25.5q0 4 1 10l21 95h-99l-24 -111q-7 -30 -37 -30q-16 0 -27 11t-11 27
q0 5 1 8l20 95h-86q-16 0 -27 11t-11 27t11 27t27 11h102l24 112h-87q-16 0 -27 11t-11 27t11 27t27 11h103l22 102q3 13 13.5 21.5t23.5 8.5q16 0 27 -10t11 -26q0 -6 -1 -10l-18 -86h99l22 102q3 13 13.5 21.5t23.5 8.5q16 0 27 -10t11 -26q0 -6 -1 -10z" />
    <glyph glyph-name="dollar" unicode="$" horiz-adv-x="742" 
d="M649 216q0 -102 -63.5 -159t-168.5 -66v-71q0 -17 -11.5 -28.5t-28.5 -11.5t-28.5 12t-11.5 28v71q-143 13 -230 119q-15 18 -15 39q0 19 13.5 32.5t32.5 13.5q22 0 39 -20q81 -96 197 -96q104 0 151 54q27 32 27 77q0 86 -113 111q-22 5 -88 17l-66 11q-90 17 -135.5 60
t-45.5 128q0 87 66 136.5t167 58.5v88q0 16 11.5 28t28.5 12t28.5 -11.5t11.5 -28.5v-88q95 -10 175 -68q24 -18 24 -43q0 -20 -14 -33t-32 -13q-16 0 -28 10q-74 61 -166 61q-107 0 -154 -50q-23 -26 -23 -57q0 -41 23 -64t77 -33q13 -3 44 -8.5l66.5 -12t45.5 -8.5
q194 -38 194 -197z" />
    <glyph glyph-name="percent" unicode="%" horiz-adv-x="890" 
d="M410 575q0 -65 -46 -111t-111 -46t-111.5 46t-46.5 111t46.5 111.5t111.5 46.5t111 -46.5t46 -111.5zM334 575q0 35 -23.5 59.5t-57.5 24.5q-35 0 -58.5 -24.5t-23.5 -59.5q0 -34 23.5 -59t58.5 -25q34 0 57.5 25t23.5 59zM701 823q21 -12 21 -34q0 -9 -6 -19l-467 -865
q-11 -21 -32 -21q-14 0 -25 8q-16 12 -16 30q0 11 5 20l467 865q11 21 33 21q10 0 20 -5zM795 144q0 -64 -45 -109t-109 -45t-109.5 45t-45.5 109t45 109.5t110 45.5q64 0 109 -45.5t45 -109.5zM721 144q0 34 -23.5 58.5t-56.5 24.5q-34 0 -57.5 -24.5t-23.5 -58.5
q0 -33 23.5 -57.5t57.5 -24.5q33 0 56.5 24.5t23.5 57.5z" />
    <glyph glyph-name="ampersand" unicode="&#x26;" horiz-adv-x="816" 
d="M738 71q13 -14 13 -31q0 -18 -14.5 -32t-32.5 -14q-21 0 -35 15l-79 81q-66 -50 -112 -70q-73 -30 -147 -30q-100 0 -173 51t-73 141q0 62 24 105t83 78q37 22 89 49q-91 98 -91 162q0 76 56 116.5t137 40.5q82 0 137 -42t55 -116q0 -70 -43 -116q-33 -36 -87 -65l-11 -6
l168 -175q30 29 54 57q13 16 33 16q18 0 32.5 -13.5t14.5 -31.5q0 -17 -12 -29q-12 -14 -33 -35q-3 -3 -8.5 -9t-10.5 -10.5t-9 -8.5zM477 572q0 33 -27 53.5t-67 20.5q-51 0 -74 -25q-18 -18 -18 -46q0 -38 68 -109l10 -10l29 13q38 19 58 43q21 24 21 60zM531 155
l-184 190q-73 -37 -106 -56q-56 -32 -56 -99q0 -49 36.5 -79.5t109.5 -30.5q61 0 121 27q37 17 79 48z" />
    <glyph glyph-name="quotesingle" unicode="'" horiz-adv-x="286" 
d="M201 670q0 -7 -29 -268q-3 -26 -30 -26q-26 0 -29 26q-28 224 -28 268q0 24 17 41t41 17t41 -17t17 -41z" />
    <glyph glyph-name="parenleft" unicode="(" horiz-adv-x="354" 
d="M349 -212q0 -17 -12.5 -29.5t-30.5 -12.5q-19 0 -31 14q-200 238 -200 537t200 537q12 14 31 14q18 0 30.5 -12.5t12.5 -29.5q0 -15 -10 -27q-173 -207 -173 -482t173 -482q10 -12 10 -27z" />
    <glyph glyph-name="parenright" unicode=")" horiz-adv-x="354" 
d="M279 297q0 -297 -200 -537q-12 -14 -32 -14q-17 0 -29.5 12.5t-12.5 29.5q0 16 9 27q174 206 174 482t-174 482q-9 11 -9 27q0 17 12.5 29.5t29.5 12.5q20 0 32 -14q200 -240 200 -537z" />
    <glyph glyph-name="asterisk" unicode="*" horiz-adv-x="698" 
d="M201 761q-6 9 -6 19q0 22 19 33q10 5 19 5q22 0 33 -19l83 -143l82 143q11 19 33 19q9 0 19 -5q19 -11 19 -33q0 -11 -5 -19l-82 -143h165q16 0 27 -11t11 -27t-11 -27t-27 -11h-165l82 -143q5 -7 5 -19q0 -22 -19 -33q-7 -5 -19 -5q-22 0 -33 19l-82 143l-83 -143
q-11 -19 -33 -19q-11 0 -19 5q-19 11 -19 32q0 11 6 20l82 143h-165q-16 0 -27 11t-11 27t11 27t27 11h165z" />
    <glyph glyph-name="plus" unicode="+" 
d="M626 269q0 -19 -13 -32t-32 -13h-188v-184q0 -19 -13 -32t-32 -13t-32 13t-13 32v184h-188q-19 0 -32 13t-13 31q0 19 13 32t32 13h188v184q0 19 13 32t32 13t32 -13t13 -32v-184h188q19 0 32 -13t13 -31z" />
    <glyph glyph-name="comma" unicode="," horiz-adv-x="389" 
d="M289 68q0 -83 -35 -145q-31 -54 -92 -98q-17 -12 -33 -12q-11 0 -20 9t-9 22q0 19 17 30q74 53 74 105q0 13 -15 16q-2 1 -3 1q-30 7 -48 31t-18 55q0 37 25.5 62.5t62.5 25.5q42 0 68 -29t26 -73z" />
    <glyph glyph-name="hyphen" unicode="-" horiz-adv-x="587" 
d="M482 275q0 -18 -12.5 -30.5t-29.5 -12.5h-293q-17 0 -29.5 12.5t-12.5 30.5t12.5 30.5t29.5 12.5h293q17 0 29.5 -12.5t12.5 -30.5z" />
    <glyph glyph-name="period" unicode="." horiz-adv-x="389" 
d="M284 84q0 -37 -26.5 -63t-63.5 -26t-63 26t-26 63t26 63.5t63 26.5q38 0 64 -26t26 -64z" />
    <glyph glyph-name="slash" unicode="/" horiz-adv-x="587" 
d="M566 864q0 -11 -4 -19l-462 -1013q-11 -26 -40 -26q-11 0 -19 4q-26 13 -26 41q0 10 4 18l462 1013q11 26 40 26q12 0 20 -4q25 -12 25 -40z" />
    <glyph glyph-name="zero" unicode="0" horiz-adv-x="742" 
d="M657 362q0 -155 -80 -263.5t-206 -108.5t-206 108.5t-80 263.5t80 263.5t206 108.5t206 -108.5t80 -263.5zM557 362q0 129 -55 205.5t-131 76.5t-131 -76.5t-55 -205.5t55 -205.5t131 -76.5t131 76.5t55 205.5z" />
    <glyph glyph-name="one" unicode="1" horiz-adv-x="742" 
d="M466 50q0 -21 -14.5 -35.5t-35.5 -14.5t-35.5 14.5t-14.5 35.5v568l-172 -122q-13 -8 -26 -8q-23 0 -37 19q-8 13 -8 26q0 23 19 37l205 145q13 8 26 8h43q21 0 35.5 -14.5t14.5 -35.5v-623z" />
    <glyph glyph-name="two" unicode="2" horiz-adv-x="742" 
d="M654 45q0 -19 -13 -32t-32 -13h-452q-19 0 -32 13t-13 32v4q0 28 5.5 53.5t13.5 45.5t22.5 39.5t28 33.5t35 29.5t37.5 25t42 22.5t42 20l44 19t42 19q47 22 79.5 60t32.5 85q0 65 -45 105t-108 40q-50 0 -92.5 -28.5t-59.5 -87.5q-11 -41 -49 -41q-21 0 -33.5 13.5
t-12.5 34.5q0 68 68.5 132.5t178.5 64.5q107 0 180 -65t73 -168q0 -158 -219 -245l-8 -3l-47.5 -19.5t-45 -23t-45.5 -31t-32 -38.5t-22 -51h392q19 0 32 -13t13 -32z" />
    <glyph glyph-name="three" unicode="3" horiz-adv-x="742" 
d="M646 212q0 -108 -84.5 -165t-216.5 -57q-153 0 -243 45q-28 14 -28 42q0 20 13.5 34t33.5 14q10 0 24 -6q91 -39 200 -39q58 0 100.5 13t64 34t31 42.5t9.5 42.5q0 57 -55 94.5t-172 37.5q-19 0 -33 13.5t-14 31.5q0 19 14 32t33 13q97 0 142.5 31.5t45.5 73.5
q0 40 -45 72t-142 32q-76 0 -147 -30q-16 -7 -26 -7q-20 0 -33.5 14t-13.5 34q0 29 26 42q73 37 194 37q118 0 200.5 -49t82.5 -145q0 -89 -84 -143q123 -59 123 -184z" />
    <glyph glyph-name="four" unicode="4" horiz-adv-x="742" 
d="M641 213q0 -19 -13 -32t-32 -13h-50v-118q0 -21 -14.5 -35.5t-35.5 -14.5t-35.5 14.5t-14.5 35.5v118h-326q-19 0 -32 13t-13 32v19q0 15 9 27l336 446q14 18 36 18h40q21 0 35.5 -14.5t14.5 -35.5v-415h50q19 0 32 -13t13 -32zM446 258v334l-252 -334h252z" />
    <glyph glyph-name="five" unicode="5" horiz-adv-x="742" 
d="M643 257q0 -113 -85.5 -188.5t-203.5 -75.5q-103 0 -191 31q-32 12 -32 45q0 19 13 33.5t32 14.5q10 0 22 -4q88 -30 156 -30q82 0 135.5 51t53.5 122q0 81 -48.5 128t-140.5 47q-77 0 -137 -53q-13 -12 -33 -12q-5 0 -17 3l-34 9q-27 7 -27 33q0 8 2 24l29 249
q5 39 50 39h365q19 0 32 -13t13 -32t-13 -32t-32 -13h-331l-19 -162q72 49 152 49q129 0 209 -72t80 -191z" />
    <glyph glyph-name="six" unicode="6" horiz-adv-x="742" 
d="M659 264q0 -120 -82.5 -197t-198.5 -77q-79 0 -144 36.5t-101 100.5q-38 67 -38 165q0 117 43 211.5t112 161.5q62 60 146.5 104.5t135.5 44.5q22 0 34.5 -13t12.5 -30q0 -37 -42 -48q-133 -32 -224 -123q-49 -49 -75 -104q66 42 141 42q123 0 201.5 -76.5t78.5 -197.5z
M559 264q0 76 -51 129.5t-130 53.5q-78 0 -130 -52.5t-52 -130.5q0 -79 51.5 -131.5t129.5 -52.5q79 0 130.5 52.5t51.5 131.5z" />
    <glyph glyph-name="seven" unicode="7" horiz-adv-x="742" 
d="M647 679q0 -17 -3 -26q-25 -70 -57.5 -127t-59.5 -91.5t-87 -105.5q-111 -131 -111 -279q0 -21 -14.5 -35.5t-35.5 -14.5t-35.5 14.5t-14.5 35.5q0 69 34.5 163.5t102.5 176.5q8 10 30 35t28.5 33.5l22.5 29t23.5 32t19 31t21 39t18.5 43.5h-387q-19 0 -32 13t-13 32
t13 32t32 13h460q19 0 32 -13t13 -31z" />
    <glyph glyph-name="eight" unicode="8" horiz-adv-x="742" 
d="M653 214q0 -103 -78.5 -163.5t-201.5 -60.5q-124 0 -204 60.5t-80 163.5q0 125 111 183q-70 56 -70 142q0 85 67 139.5t174 54.5t174 -54.5t67 -139.5q0 -86 -70 -142q111 -58 111 -183zM516 539q0 40 -33 72.5t-112 32.5t-112 -32.5t-33 -72.5q0 -106 145 -106t145 106z
M557 214q0 133 -184 133q-105 0 -146.5 -39t-41.5 -94q0 -63 46.5 -98.5t139.5 -35.5t139.5 35.5t46.5 98.5z" />
    <glyph glyph-name="nine" unicode="9" horiz-adv-x="742" 
d="M547 459q0 83 -51 133.5t-130 50.5q-78 0 -130 -52.5t-52 -130.5q0 -77 53.5 -130.5t127.5 -53.5q82 0 132 51t50 132zM206 1q53 11 116.5 43.5t108.5 77.5q46 46 74 105q-61 -39 -139 -39q-120 0 -201 78t-81 193t80.5 194.5t200.5 79.5q122 0 202 -79.5t80 -206.5
q0 -122 -38 -218q-37 -96 -114 -173q-55 -55 -130.5 -95t-140.5 -51q-6 -1 -13 -1q-21 0 -34 14t-13 32q0 37 42 46z" />
    <glyph glyph-name="colon" unicode=":" horiz-adv-x="389" 
d="M284 453q0 -37 -26 -63.5t-64 -26.5q-37 0 -63 26.5t-26 63.5t26 63t63 26t63.5 -26t26.5 -63zM284 84q0 -37 -26.5 -63t-63.5 -26t-63 26t-26 63t26 63.5t63 26.5q38 0 64 -26t26 -64z" />
    <glyph glyph-name="semicolon" unicode=";" horiz-adv-x="389" 
d="M284 453q0 -37 -26 -63.5t-63 -26.5t-63 26.5t-26 63.5t26 63t63 26t63 -26t26 -63zM289 68q0 -83 -35 -145q-31 -54 -92 -98q-17 -12 -33 -12q-11 0 -20 9t-9 22q0 19 17 30q74 53 74 105q0 13 -15 16q-2 1 -3 1q-30 7 -48 31t-18 55q0 37 25.5 62.5t62.5 25.5
q42 0 68 -29t26 -73z" />
    <glyph glyph-name="less" unicode="&#x3c;" 
d="M613 43q0 -9 -5 -21q-12 -26 -42 -26q-9 0 -21 5l-443 215q-27 13 -27 43v18q0 31 27 44l443 215q12 5 21 5q30 0 42 -26q5 -12 5 -21q0 -30 -26 -42l-399 -183l399 -184q26 -12 26 -42z" />
    <glyph glyph-name="equal" unicode="=" 
d="M631 364q0 -19 -13 -32.5t-32 -13.5h-476q-19 0 -32 13.5t-13 31.5q0 19 13 32.5t32 13.5h476q19 0 32 -13.5t13 -31.5zM631 187q0 -19 -13 -32t-32 -13h-476q-19 0 -32 13t-13 32t13 32t32 13h476q19 0 32 -13t13 -32z" />
    <glyph glyph-name="greater" unicode="&#x3e;" 
d="M621 260q0 -31 -27 -44l-443 -215q-12 -5 -21 -5q-30 0 -42 26q-5 12 -5 21q0 30 26 42l399 183l-399 184q-26 12 -26 42q0 9 5 21q12 26 42 26q9 0 21 -5l443 -215q27 -13 27 -43v-18z" />
    <glyph glyph-name="question" unicode="?" horiz-adv-x="670" 
d="M585 538q0 -52 -19.5 -81t-63.5 -56l-89 -53q-3 -2 -12 -6.5t-13 -7.5t-10 -8.5t-8.5 -13t-2.5 -17.5v-12q0 -20 -13 -31.5t-30 -11.5t-29 11.5t-12 30.5v30q0 52 61 89l98 59q49 30 49 77q0 46 -43 76t-111 30q-66 0 -108 -30.5t-52 -80.5q-8 -39 -48 -39
q-19 0 -31.5 13.5t-12.5 33.5q0 84 79 136t173 52q101 0 174.5 -50.5t73.5 -139.5zM414 84q0 -37 -26 -63t-63 -26t-63 26t-26 63t26 63.5t63 26.5t63 -26.5t26 -63.5z" />
    <glyph glyph-name="at" unicode="@" horiz-adv-x="776" 
d="M661 376v-266q0 -16 -11.5 -28t-28.5 -12t-28.5 12t-11.5 28v8q-38 -40 -101 -40q-88 0 -137.5 51t-49.5 138q0 107 80 162q56 38 142 38q35 0 64 -6q-7 123 -53 163q-25 21 -49.5 30t-65.5 9q-97 0 -155 -94q-54 -90 -54 -303q0 -85 21.5 -158.5t56.5 -118.5
q62 -77 146 -77q64 0 135 44q14 9 27 9q17 0 28.5 -12.5t11.5 -29.5q0 -20 -19 -33q-83 -58 -189 -58q-120 0 -203 95q-50 58 -78.5 145t-28.5 186q0 245 86 369q38 54 95.5 82t123.5 28q58 0 92.5 -13t70.5 -43q83 -68 83 -305zM581 198v192q-37 7 -57 7q-62 0 -94 -21
q-51 -34 -51 -103q0 -59 29 -88q26 -26 76 -26q62 0 97 39z" />
    <glyph glyph-name="A" unicode="A" horiz-adv-x="760" 
d="M48 69l269 622q13 32 44 32h38q30 0 43 -32l271 -622q4 -12 4 -19q0 -33 -31 -46q-8 -4 -19 -4q-34 0 -47 30l-57 136h-371l-56 -136q-12 -30 -45 -30q-11 0 -19 4q-29 12 -29 45q0 8 5 20zM526 256l-148 359l-148 -359h296z" />
    <glyph glyph-name="B" unicode="B" horiz-adv-x="828" 
d="M732 214q0 -83 -59 -140q-77 -74 -203 -74h-296q-20 0 -34.5 15t-14.5 35v623q0 21 14.5 35.5t35.5 14.5h295q112 0 174 -62q54 -54 54 -130q0 -83 -69 -139q103 -61 103 -178zM604 531q0 41 -26 67q-33 35 -108 35h-245v-203h250q129 0 129 101zM632 214
q0 59 -34.5 93.5t-123.5 34.5h-249v-252h245q83 0 129 46q33 33 33 78z" />
    <glyph glyph-name="C" unicode="C" horiz-adv-x="825" 
d="M750 556q0 -19 -13 -32.5t-32 -13.5q-23 0 -40 22q-83 113 -221 113q-118 0 -191 -79t-73 -204t73 -204t191 -79q73 0 124 28.5t98 87.5q16 19 38 19q20 0 33 -13t13 -33q0 -16 -9 -29q-106 -149 -297 -149q-157 0 -260.5 105.5t-103.5 266.5t103.5 266t260.5 105
q95 0 172.5 -40t125.5 -111q8 -12 8 -26z" />
    <glyph glyph-name="D" unicode="D" horiz-adv-x="797" 
d="M715 362q0 -77 -29 -147t-80 -121q-92 -94 -225 -94h-207q-20 0 -34.5 15t-14.5 35v623q0 20 14.5 35t34.5 15h207q132 0 226 -94q108 -108 108 -267zM612 362q0 126 -79 207q-62 64 -152 64h-156v-543h156q91 0 155 67q76 81 76 205z" />
    <glyph glyph-name="E" unicode="E" horiz-adv-x="754" 
d="M692 45q0 -19 -13 -32t-32 -13h-473q-20 0 -34.5 15t-14.5 35v623q0 20 14.5 35t34.5 15h473q19 0 32 -13t13 -32t-13 -32t-32 -13h-422v-226h268q19 0 32 -13t13 -32t-13 -32t-32 -13h-268v-227h422q19 0 32 -13t13 -32z" />
    <glyph glyph-name="F" unicode="F" horiz-adv-x="724" 
d="M692 678q0 -19 -13 -32t-32 -13h-422v-226h268q19 0 32 -13t13 -32t-13 -32t-32 -13h-268v-267q0 -21 -14.5 -35.5t-35.5 -14.5t-35.5 14.5t-14.5 35.5v623q0 20 14.5 35t34.5 15h473q19 0 32 -13t13 -32z" />
    <glyph glyph-name="G" unicode="G" horiz-adv-x="824" 
d="M724 342v-226q-49 -59 -122 -92.5t-158 -33.5q-157 0 -260.5 105.5t-103.5 266.5t103.5 266t260.5 105q181 0 256 -126q9 -16 9 -28q0 -18 -13.5 -31.5t-33.5 -13.5q-23 0 -43 29q-56 81 -175 81q-118 0 -191 -78.5t-73 -203.5t73 -204t191 -79q117 0 191 77v143h-200
q-18 0 -31 12.5t-13 30.5t13 31t31 13h244q19 0 32 -12.5t13 -31.5z" />
    <glyph glyph-name="H" unicode="H" horiz-adv-x="822" 
d="M697 673v-623q0 -21 -14.5 -35.5t-35.5 -14.5t-35.5 14.5t-14.5 35.5v267h-372v-267q0 -21 -14.5 -35.5t-35.5 -14.5t-35.5 14.5t-14.5 35.5v623q0 21 14.5 35.5t35.5 14.5t35.5 -14.5t14.5 -35.5v-266h372v266q0 21 14.5 35.5t35.5 14.5t35.5 -14.5t14.5 -35.5z" />
    <glyph glyph-name="I" unicode="I" horiz-adv-x="350" 
d="M225 673v-623q0 -21 -14.5 -35.5t-35.5 -14.5t-35.5 14.5t-14.5 35.5v623q0 21 14.5 35.5t35.5 14.5t35.5 -14.5t14.5 -35.5z" />
    <glyph glyph-name="J" unicode="J" horiz-adv-x="616" 
d="M501 673v-459q0 -100 -54 -157q-64 -67 -182 -67q-81 0 -141.5 32t-85.5 73q-8 13 -8 28q0 19 13.5 32t32.5 13q22 0 39 -21q53 -67 150 -67q73 0 107 37q29 32 29 94v462q0 21 14.5 35.5t35.5 14.5q20 0 34 -14.5t16 -35.5z" />
    <glyph glyph-name="K" unicode="K" horiz-adv-x="835" 
d="M760 50q0 -23 -17 -38q-15 -12 -33 -12q-23 0 -38 17l-277 330l-170 -164v-133q0 -21 -14.5 -35.5t-35.5 -14.5t-35.5 14.5t-14.5 35.5v623q0 21 14.5 35.5t35.5 14.5t35.5 -14.5t14.5 -35.5v-363l401 399q16 14 35 14q21 0 36 -15q14 -14 14 -35t-15 -36l-234 -225
l286 -329q12 -15 12 -33z" />
    <glyph glyph-name="L" unicode="L" horiz-adv-x="698" 
d="M673 45q0 -19 -13 -32t-32 -13h-454q-20 0 -34.5 15t-14.5 35v623q0 21 14.5 35.5t35.5 14.5t35.5 -14.5t14.5 -35.5v-583h403q19 0 32 -13t13 -32z" />
    <glyph glyph-name="M" unicode="M" horiz-adv-x="884" 
d="M759 673v-623q0 -21 -14.5 -35.5t-35.5 -14.5t-35.5 14.5t-14.5 35.5v487q0 10 4 70h-2q-12 -42 -21 -62l-159 -331q-12 -27 -39 -27q-30 0 -43 27l-157 331l-21 62h-2q4 -56 4 -70v-487q0 -21 -14 -35.5t-35 -14.5t-35 14.5t-14 35.5v623q0 21 14.5 35.5t35.5 14.5h45
q28 0 41 -25l179 -389l180 389q12 25 41 25h48q21 0 34.5 -14.5t15.5 -35.5z" />
    <glyph glyph-name="N" unicode="N" horiz-adv-x="830" 
d="M705 673v-623q0 -21 -14.5 -35.5t-35.5 -14.5h-45q-28 0 -43 25l-325 531q-16 25 -22 43h-2q5 -23 5 -54v-489q0 -22 -14.5 -39t-34.5 -17q-21 0 -35 14.5t-14 35.5v623q0 21 14.5 35.5t35.5 14.5h41q29 0 44 -25l323 -526q14 -23 24 -48h2q-4 19 -4 56v493
q0 21 14.5 35.5t35.5 14.5t35 -14.5t15 -35.5z" />
    <glyph glyph-name="O" unicode="O" horiz-adv-x="888" 
d="M808 362q0 -153 -107 -262.5t-257 -109.5t-257 109.5t-107 262.5t107 262t257 109t257 -109t107 -262zM708 362q0 118 -77 200t-187 82t-187 -82t-77 -200t77 -200.5t187 -82.5t187 82.5t77 200.5z" />
    <glyph glyph-name="P" unicode="P" horiz-adv-x="786" 
d="M710 507q0 -87 -58 -147q-71 -71 -204 -71h-223v-239q0 -21 -14.5 -35.5t-35.5 -14.5t-35.5 14.5t-14.5 35.5v623q0 20 14.5 35t34.5 15h274q125 0 203 -75q59 -59 59 -141zM610 507q0 43 -32 78q-46 48 -130 48h-223v-254h225q89 0 129 38q31 31 31 90z" />
    <glyph glyph-name="Q" unicode="Q" horiz-adv-x="888" 
d="M808 362q0 -152 -105 -260l78 -112q9 -12 9 -27q0 -22 -20 -36q-13 -8 -25 -8q-23 0 -37 19l-75 107q-86 -55 -189 -55q-150 0 -257 109.5t-107 262.5t107 262.5t257 109.5t257 -109.5t107 -262.5zM708 362q0 118 -77 200t-187 82t-187 -82t-77 -200t77 -200.5t187 -82.5
q74 0 136 41l-72 102q-8 13 -8 26q0 23 19 37q13 8 26 8q23 0 37 -19l65 -93q61 79 61 181z" />
    <glyph glyph-name="R" unicode="R" horiz-adv-x="823" 
d="M733 507q0 -88 -59 -147q-50 -49 -131 -65l168 -215q10 -12 10 -30q0 -24 -20 -40q-13 -10 -30 -10q-25 0 -40 20l-203 269h-203v-239q0 -21 -14.5 -35.5t-35.5 -14.5t-35.5 14.5t-14.5 35.5v623q0 21 14.5 35.5t35.5 14.5h294q130 0 207 -77q57 -57 57 -139zM631 507
q0 48 -35 82q-46 44 -127 44h-244v-254h247q92 0 129 39q30 30 30 89z" />
    <glyph glyph-name="S" unicode="S" horiz-adv-x="768" 
d="M688 216q0 -92 -59 -149q-80 -78 -235 -78q-188 0 -296 118q-18 18 -18 38q0 21 14.5 36.5t36.5 15.5q21 0 42 -22q90 -96 217 -96q115 0 165 54q30 33 30 77q0 86 -124 111q-25 5 -96.5 16.5t-72.5 11.5q-104 18 -144 58q-52 52 -52 130q0 65 49 114q83 83 248 83
q125 0 231 -67q32 -20 32 -45q0 -19 -13.5 -34t-33.5 -15q-17 0 -37 14q-85 59 -180 59q-119 0 -169 -50q-26 -26 -26 -57q0 -41 25.5 -64t84.5 -33q16 -3 172 -29q110 -19 161 -75q48 -53 48 -122z" />
    <glyph glyph-name="T" unicode="T" horiz-adv-x="650" 
d="M608 678q0 -19 -13 -32t-32 -13h-188v-583q0 -21 -14.5 -35.5t-35.5 -14.5t-35.5 14.5t-14.5 35.5v583h-188q-19 0 -32 13t-13 32t13 32t32 13h476q19 0 32 -13t13 -32z" />
    <glyph glyph-name="U" unicode="U" horiz-adv-x="836" 
d="M721 286q0 -127 -88.5 -211.5t-214.5 -84.5t-214.5 84.5t-88.5 211.5v387q0 21 15 35.5t36 14.5t36 -14.5t15 -35.5v-387q0 -85 58.5 -145.5t142.5 -60.5t143.5 61t59.5 145v387q0 21 14.5 35.5t35.5 14.5t35.5 -14.5t14.5 -35.5v-387z" />
    <glyph glyph-name="V" unicode="V" horiz-adv-x="747" 
d="M693 676q0 -10 -4 -21l-249 -621q-14 -34 -44 -34h-45q-30 0 -44 34l-248 618q-5 12 -5 21q0 23 15.5 36.5t34.5 13.5q35 0 48 -32l211 -552q9 -24 12 -47h2q1 23 10 46l212 553q12 32 44 32q21 0 35.5 -14t14.5 -33z" />
    <glyph glyph-name="W" unicode="W" horiz-adv-x="853" 
d="M783 674q0 -8 -3 -20l-147 -614q-5 -18 -17 -29t-28 -11h-37q-14 0 -25 10t-15 25l-78 337q-6 30 -6 68h-2q0 -46 -6 -68l-77 -337q-4 -15 -15 -25t-25 -10h-37q-16 0 -28 11t-17 29l-147 613q-3 11 -3 20q0 21 14.5 35.5t35.5 14.5q41 0 50 -42l106 -509l9 -74h2
q3 49 9 74l88 389q8 37 44 37q16 0 28 -10.5t16 -26.5l88 -389q6 -25 9 -74h2q2 42 9 74l106 509q9 42 50 42q21 0 34 -14.5t13 -34.5z" />
    <glyph glyph-name="X" unicode="X" horiz-adv-x="752" 
d="M687 50q0 -25 -19 -39q-12 -11 -31 -11q-24 0 -39 19l-222 290l-222 -290q-15 -19 -39 -19q-19 0 -31 11q-19 14 -19 39q0 17 11 31l235 292l-216 269q-11 12 -11 31q0 25 19 39q12 11 31 11q24 0 39 -19l202 -265l203 265q12 19 39 19q19 0 31 -11q19 -14 19 -39
q0 -19 -11 -31l-216 -268l236 -293q11 -14 11 -31z" />
    <glyph glyph-name="Y" unicode="Y" horiz-adv-x="678" 
d="M634 673q0 -15 -9 -28l-240 -346q4 -211 4 -249q0 -21 -14.5 -35.5t-35.5 -14.5t-35.5 14.5t-14.5 35.5l4 249l-240 346q-9 13 -9 28q0 20 15 35t35 15q27 0 41 -22l206 -314l201 314q15 22 42 22q20 0 35 -15t15 -35z" />
    <glyph glyph-name="Z" unicode="Z" horiz-adv-x="726" 
d="M666 45q0 -19 -13 -32t-32 -13h-515q-21 0 -33.5 13.5t-12.5 33.5t12 35l443 551h-385q-19 0 -32 13t-13 32t13 32t32 13h485q24 0 38 -19q8 -12 8 -31q0 -17 -15 -36l-440 -547h415q19 0 32 -13t13 -32z" />
    <glyph glyph-name="bracketleft" unicode="[" horiz-adv-x="385" 
d="M385 -212q0 -18 -12.5 -30t-30.5 -12h-203q-18 0 -31 13t-13 32v1012q0 19 13 32t31 13h203q18 0 30.5 -12.5t12.5 -29.5q0 -18 -12.5 -30.5t-30.5 -12.5h-158v-933h158q18 0 30.5 -12t12.5 -30z" />
    <glyph glyph-name="backslash" unicode="\" horiz-adv-x="581" 
d="M15 864q0 28 25 40q8 4 20 4q29 0 40 -26l462 -1013q4 -8 4 -18q0 -28 -26 -41q-8 -4 -19 -4q-29 0 -40 26l-462 1013q-4 8 -4 19z" />
    <glyph glyph-name="bracketright" unicode="]" horiz-adv-x="385" 
d="M290 803v-1012q0 -19 -13 -32t-31 -13h-203q-18 0 -30.5 12t-12.5 30t12.5 30t30.5 12h158v933h-158q-18 0 -30.5 12.5t-12.5 30.5q0 17 12.5 29.5t30.5 12.5h203q18 0 30 -13t14 -32z" />
    <glyph glyph-name="asciicircum" unicode="^" 
d="M348 742l-167 -222q-8 -10 -22 -10q-12 0 -20.5 8.5t-8.5 20.5q0 5 11 25l160 274q15 25 47 25t47 -25l160 -274q11 -20 11 -25q0 -12 -8.5 -20.5t-20.5 -8.5q-14 0 -22 10z" />
    <glyph glyph-name="underscore" unicode="_" horiz-adv-x="500" 
d="M529 -119q0 -18 -12.5 -30.5t-29.5 -12.5h-474q-17 0 -29.5 12.5t-12.5 30.5t12.5 30.5t29.5 12.5h474q17 0 29.5 -12.5t12.5 -30.5z" />
    <glyph glyph-name="grave" unicode="`" horiz-adv-x="286" 
d="M270 611q-9 -11 -23 -11q-10 0 -19 6l-198 135q-20 14 -20 44q0 24 17 41t41 17q25 0 40 -16l157 -174q11 -11 11 -25q0 -10 -6 -17z" />
    <glyph glyph-name="a" unicode="a" horiz-adv-x="722" 
d="M617 490v-443q0 -19 -13.5 -33t-33.5 -14t-33.5 14t-13.5 33v18q-72 -70 -179 -70q-115 0 -194.5 79t-79.5 194q0 114 80 194t193 80q108 0 180 -70v18q0 20 13.5 33.5t33.5 13.5q19 0 32 -13.5t15 -33.5zM523 269q0 81 -50 134.5t-129 53.5q-78 0 -129 -54.5t-51 -133.5
q0 -80 51 -134.5t128 -54.5q80 0 130 54.5t50 134.5z" />
    <glyph glyph-name="b" unicode="b" horiz-adv-x="722" 
d="M652 269q0 -114 -80 -194t-193 -80q-108 0 -180 70v-18q0 -19 -13.5 -33t-33.5 -14t-33.5 14t-13.5 33v629q0 20 13.5 33.5t33.5 13.5t33.5 -13.5t13.5 -33.5v-204q72 70 179 70q114 0 194 -80t80 -193zM558 269q0 79 -51 133.5t-128 54.5q-78 0 -129 -54.5t-51 -133.5
q0 -80 51 -134.5t128 -54.5q78 0 129 54.5t51 134.5z" />
    <glyph glyph-name="c" unicode="c" horiz-adv-x="637" 
d="M572 402q0 -18 -14 -31t-31 -13q-21 0 -38 22q-58 77 -145 77q-78 0 -129 -54.5t-51 -133.5q0 -80 51 -134.5t128 -54.5q91 0 145 77q15 22 38 22q19 0 32 -13t13 -32q0 -15 -9 -27q-37 -52 -94.5 -82t-123.5 -30q-114 0 -194 80t-80 193q0 114 79.5 194t193.5 80
q67 0 125.5 -30t94.5 -82q9 -14 9 -28z" />
    <glyph glyph-name="d" unicode="d" horiz-adv-x="722" 
d="M617 47q0 -19 -13.5 -33t-33.5 -14t-33.5 14t-13.5 33v18q-72 -70 -179 -70q-115 0 -194.5 79.5t-79.5 193.5t79 194t194 80q108 0 180 -70v204q0 20 13.5 33.5t33.5 13.5t33.5 -13.5t13.5 -33.5v-629zM523 269q0 80 -50 134t-129 54q-78 0 -129 -54.5t-51 -133.5
q0 -80 51 -134.5t128 -54.5q80 0 130 54t50 135z" />
    <glyph glyph-name="e" unicode="e" horiz-adv-x="655" 
d="M586 278q0 -18 -12 -31t-32 -13h-376q9 -66 55 -110t111 -44q80 0 141 61q18 18 35 18q18 0 30 -12.5t12 -31.5q0 -16 -13 -31q-80 -89 -200 -89q-114 0 -190.5 78t-76.5 195q0 119 75.5 196.5t188.5 77.5q108 0 180 -75t72 -189zM491 315q-7 63 -50 103.5t-106 40.5
t-110.5 -39.5t-56.5 -104.5h323z" />
    <glyph glyph-name="f" unicode="f" horiz-adv-x="494" 
d="M489 666q0 -19 -12.5 -31.5t-30.5 -12.5q-14 0 -36 18q-31 26 -63 26q-37 0 -61.5 -28t-24.5 -65v-36h142q18 0 30.5 -12.5t12.5 -29.5q0 -18 -12.5 -30.5t-29.5 -12.5h-143v-405q0 -19 -13.5 -33t-33.5 -14t-33.5 14t-13.5 33v405h-104q-18 0 -30.5 12.5t-12.5 29.5
q0 18 12.5 30.5t29.5 12.5h105v36q0 75 53.5 126.5t126.5 51.5q80 0 128 -53q14 -16 14 -32z" />
    <glyph glyph-name="g" unicode="g" horiz-adv-x="722" 
d="M617 490v-464q0 -121 -83 -180q-71 -50 -194 -50q-109 0 -193 50q-25 15 -25 41q0 18 12 31.5t30 13.5q13 0 27 -8q75 -44 149 -44q96 0 143 36q40 31 40 110v40q-73 -71 -179 -71q-116 0 -195 79t-79 194q0 114 79.5 194t193.5 80q108 0 180 -72v20q0 20 13.5 33.5
t33.5 13.5t33.5 -13.5t13.5 -33.5zM523 268q0 81 -50 135t-129 54q-78 0 -129 -54.5t-51 -133.5q0 -81 50 -135t129 -54t129.5 54.5t50.5 133.5z" />
    <glyph glyph-name="h" unicode="h" horiz-adv-x="713" 
d="M618 276v-229q0 -19 -14 -33t-33 -14t-33 14t-14 33v233q0 57 -12 90q-31 87 -137 87q-50 0 -88 -22t-58 -55q-30 -49 -30 -108v-225q0 -19 -13.5 -33t-33.5 -14t-33.5 14t-13.5 33v629q0 20 13.5 33.5t33.5 13.5t33.5 -13.5t13.5 -33.5v-217q68 83 179 83
q68 0 121 -27.5t83 -75.5q36 -60 36 -163z" />
    <glyph glyph-name="i" unicode="i" horiz-adv-x="314" 
d="M204 490v-443q0 -19 -14 -33t-33 -14t-33 14t-14 33v443q0 20 14 33.5t33 13.5t33 -13.5t14 -33.5zM229 704q0 -29 -21.5 -50.5t-50.5 -21.5t-50.5 21.5t-21.5 50.5t21.5 50.5t50.5 21.5t50.5 -21.5t21.5 -50.5z" />
    <glyph glyph-name="j" unicode="j" horiz-adv-x="456" 
d="M252 -10v500q0 20 14 33.5t33 13.5t33 -13.5t14 -33.5v-500q0 -84 -33 -128q-22 -31 -61.5 -48.5t-85.5 -17.5q-77 0 -125 50q-16 16 -16 37q0 18 12.5 30.5t31.5 12.5q17 0 42 -23t56 -23q45 0 68 33q17 25 17 77zM371 704q0 -29 -21.5 -50.5t-50.5 -21.5t-50.5 21.5
t-21.5 50.5t21.5 50.5t50.5 21.5t50.5 -21.5t21.5 -50.5z" />
    <glyph glyph-name="k" unicode="k" horiz-adv-x="657" 
d="M607 45q0 -20 -14 -33q-14 -14 -33 -14q-20 0 -33 14l-227 233l-101 -77v-121q0 -19 -13.5 -33t-33.5 -14t-33.5 14t-13.5 33v629q0 20 13.5 33.5t33.5 13.5t33.5 -13.5t13.5 -33.5v-397l315 248q13 10 29 10q23 0 37 -18q10 -13 10 -29q0 -24 -18 -37l-203 -156
l224 -219q14 -13 14 -33z" />
    <glyph glyph-name="l" unicode="l" horiz-adv-x="324" 
d="M209 676v-629q0 -19 -13.5 -33t-33.5 -14t-33.5 14t-13.5 33v629q0 20 13.5 33.5t33.5 13.5t33.5 -13.5t13.5 -33.5z" />
    <glyph glyph-name="m" unicode="m" horiz-adv-x="854" 
d="M754 47q0 -19 -14 -33t-33 -14t-33 14t-14 33v296q0 37 -6 58q-7 24 -25 40t-47 16q-61 0 -92 -56q-14 -26 -14 -66v-288q0 -19 -14 -33t-33 -14t-33 14t-14 33v298q0 37 -5 54q-17 58 -72 58q-63 0 -92 -52q-14 -24 -14 -61v-297q0 -19 -13.5 -33t-33.5 -14t-33.5 14
t-13.5 33v443q0 20 13.5 33.5t33.5 13.5t33.5 -13.5t13.5 -33.5v-15q43 67 121 67q52 0 89 -27t49 -68q19 42 54.5 68.5t83.5 26.5q101 0 139 -83q19 -42 19 -112v-300z" />
    <glyph glyph-name="n" unicode="n" horiz-adv-x="713" 
d="M618 276v-229q0 -19 -14 -33t-33 -14t-33 14t-14 33v233q0 57 -12 90q-31 87 -137 87q-50 0 -88 -22t-58 -55q-30 -49 -30 -108v-225q0 -19 -13.5 -33t-33.5 -14t-33.5 14t-13.5 33v443q0 20 13.5 33.5t33.5 13.5t33.5 -13.5t13.5 -33.5v-31q68 83 179 83q68 0 121 -27.5
t83 -75.5q36 -60 36 -163z" />
    <glyph glyph-name="o" unicode="o" horiz-adv-x="688" 
d="M618 269q0 -114 -80.5 -194t-194.5 -80t-193.5 79.5t-79.5 193.5t79.5 194t193.5 80t194.5 -79.5t80.5 -193.5zM524 269q0 79 -51.5 133.5t-129.5 54.5t-128.5 -54.5t-50.5 -133.5q0 -80 50.5 -134.5t128.5 -54.5t129.5 54.5t51.5 134.5z" />
    <glyph glyph-name="p" unicode="p" horiz-adv-x="722" 
d="M652 269q0 -115 -78.5 -194.5t-194.5 -79.5q-104 0 -180 76v-210q0 -19 -13.5 -33t-33.5 -14t-33.5 14t-13.5 33v629q0 20 13.5 33.5t33.5 13.5t33.5 -13.5t13.5 -33.5v-21q70 73 180 73q116 0 194.5 -79t78.5 -194zM558 269q0 80 -49.5 134t-128.5 54t-130 -54t-51 -134
t49.5 -134.5t129.5 -54.5q79 0 129.5 54.5t50.5 134.5z" />
    <glyph glyph-name="q" unicode="q" horiz-adv-x="722" 
d="M617 490v-629q0 -19 -13.5 -33t-33.5 -14t-33.5 14t-13.5 33v209q-77 -75 -179 -75q-116 0 -195 79t-79 194q0 116 78 195t194 79q110 0 181 -73v21q0 20 13.5 33.5t33.5 13.5q19 0 32.5 -13.5t14.5 -33.5zM523 269q0 81 -50.5 134.5t-129.5 53.5q-78 0 -128.5 -54.5
t-50.5 -133.5q0 -80 50 -134.5t129 -54.5q81 0 130.5 54t49.5 135z" />
    <glyph glyph-name="r" unicode="r" horiz-adv-x="598" 
d="M563 439q0 -19 -12 -32t-31 -13q-21 0 -37 19q-38 44 -117 44q-68 0 -115 -35q-52 -39 -52 -109v-266q0 -19 -13.5 -33t-33.5 -14t-33.5 14t-13.5 33v443q0 20 13.5 33.5t33.5 13.5t33.5 -13.5t13.5 -33.5v-22q31 29 70 47q56 27 115 27q49 0 95 -19.5t72 -53.5
q12 -16 12 -30z" />
    <glyph glyph-name="s" unicode="s" horiz-adv-x="673" 
d="M598 163q0 -95 -97 -139q-63 -29 -169 -29q-85 0 -148 26.5t-95 59.5q-15 15 -15 33q0 19 12.5 32.5t33.5 13.5q16 0 32 -14q25 -21 43 -32.5t57 -23.5t87 -12q71 0 110 16q54 23 54 67q0 30 -19 43.5t-61 21.5q-15 3 -83 11t-73 9q-172 23 -172 144q0 35 19 66
q53 86 218 86q121 0 206 -54q25 -17 25 -37q0 -17 -12 -31t-29 -14q-11 0 -31 11q-74 43 -159 43q-142 0 -142 -68q0 -29 24.5 -43.5t75.5 -20.5q9 -1 42.5 -5l62 -7.5t43.5 -6.5q33 -6 57.5 -14.5t50 -24t39 -43t13.5 -64.5z" />
    <glyph glyph-name="t" unicode="t" horiz-adv-x="546" 
d="M510 81q0 -18 -16 -34q-52 -52 -127 -52q-90 0 -143 65q-37 44 -37 121v271h-104q-18 0 -30.5 12.5t-12.5 29.5q0 18 12.5 30.5t29.5 12.5h105v150q0 19 13.5 33t33.5 14t33.5 -14t13.5 -33v-150h142q18 0 30.5 -12.5t12.5 -29.5q0 -18 -12.5 -30.5t-29.5 -12.5h-143
v-276q0 -40 17 -63q24 -33 69 -33q32 0 64 26q22 18 37 18q19 0 30.5 -12t11.5 -31z" />
    <glyph glyph-name="u" unicode="u" horiz-adv-x="708" 
d="M90 261v229q0 20 14 33.5t33 13.5t33 -13.5t14 -33.5v-233q0 -57 12 -90q31 -87 137 -87q50 0 88 22t58 55q30 49 30 108v225q0 20 13.5 33.5t33.5 13.5t33.5 -13.5t13.5 -33.5v-443q0 -19 -13.5 -33t-33.5 -14t-33.5 14t-13.5 33v31q-68 -83 -179 -83q-68 0 -121 27.5
t-83 75.5q-36 60 -36 163z" />
    <glyph glyph-name="v" unicode="v" horiz-adv-x="646" 
d="M126 511l178 -361q16 -31 18 -40h2q2 9 18 40l178 361q14 26 42 26q10 0 22 -5q25 -12 25 -42q0 -12 -5 -21l-226 -443q-14 -26 -42 -26h-26q-28 0 -42 26l-226 443q-5 10 -5 21q0 30 26 42q12 5 21 5q30 0 42 -26z" />
    <glyph glyph-name="w" unicode="w" horiz-adv-x="820" 
d="M760 490q0 -9 -2 -15l-145 -443q-4 -14 -17 -23t-28 -9h-33q-28 0 -36 26l-80 232q-4 10 -6 22.5t-2 20.5v8h-2q-1 -30 -8 -51l-80 -232q-8 -26 -36 -26h-33q-14 0 -27 9t-17 23l-146 443q-2 6 -2 15q0 20 14 33.5t33 13.5q34 0 45 -33l112 -363l7 -49h2q0 29 7 49
l94 272q8 26 36 26q27 0 36 -26l94 -272q3 -9 5 -21t2 -20v-8h2q1 29 7 49l113 363q9 33 44 33q20 0 33.5 -13.5t13.5 -33.5z" />
    <glyph glyph-name="x" unicode="x" horiz-adv-x="660" 
d="M600 47q0 -19 -14 -33t-33 -14q-20 0 -33 14l-190 207l-190 -207q-13 -14 -33 -14q-19 0 -33 14t-14 33t14 33l193 199l-175 178q-14 14 -14 33q0 18 14 34q13 13 33 13q21 0 33 -13l172 -186l172 186q12 13 33 13q20 0 33 -13q14 -16 14 -34q0 -19 -14 -33l-175 -178
l193 -199q14 -14 14 -33z" />
    <glyph glyph-name="y" unicode="y" horiz-adv-x="653" 
d="M134 511l178 -361q16 -31 18 -40h2q2 9 18 40l179 361q12 26 41 26q10 0 22 -5q26 -13 26 -42q0 -10 -6 -21l-295 -576q-24 -46 -65 -71.5t-89 -25.5q-64 0 -117 43q-17 14 -17 34q0 18 12.5 31t30.5 13q15 0 29 -11q30 -24 58 -24q56 0 83 52l44 86q-9 6 -18 23
l-218 426q-5 10 -5 21q0 29 26 42q12 5 21 5q30 0 42 -26z" />
    <glyph glyph-name="z" unicode="z" horiz-adv-x="634" 
d="M571 43q0 -18 -12.5 -30.5t-29.5 -12.5h-419q-19 0 -32 13q-15 13 -15 34q0 19 13 32l336 373h-289q-17 0 -30 12.5t-13 29.5q0 18 13 30.5t30 12.5h389q19 0 32 -13q15 -14 15 -34q0 -19 -13 -32l-336 -373h319q17 0 29.5 -12.5t12.5 -29.5z" />
    <glyph glyph-name="braceleft" unicode="{" horiz-adv-x="461" 
d="M89 341q36 0 62 25.5t26 67.5v208q0 90 51 143q60 63 169 63q19 0 31.5 -11.5t12.5 -28.5t-12.5 -28.5t-31.5 -11.5q-65 0 -101 -38q-26 -29 -26 -88v-199q0 -52 -27 -92t-68 -54q41 -13 68 -53t27 -93v-199q0 -59 26 -88q36 -38 101 -38q19 0 31.5 -11.5t12.5 -28.5
t-12.5 -28.5t-31.5 -11.5q-109 0 -169 63q-51 54 -51 143v209q0 41 -26.5 67t-61.5 26q-19 0 -31.5 12.5t-12.5 30.5q0 19 12.5 31.5t31.5 12.5z" />
    <glyph glyph-name="bar" unicode="|" horiz-adv-x="289" 
d="M189 803v-1012q0 -19 -13 -32t-31 -13q-19 0 -32 13t-13 32v1012q0 19 13 32t32 13q18 0 31 -13t13 -32z" />
    <glyph glyph-name="braceright" unicode="}" horiz-adv-x="461" 
d="M372 341q19 0 31.5 -12.5t12.5 -31.5q0 -18 -12.5 -30.5t-31.5 -12.5q-35 0 -61.5 -26t-26.5 -67v-209q0 -89 -51 -143q-60 -63 -169 -63q-19 0 -31.5 11.5t-12.5 28.5t12.5 28.5t31.5 11.5q65 0 101 38q26 29 26 88v199q0 53 27 93t68 53q-41 14 -68 54t-27 92v199
q0 59 -26 88q-36 38 -101 38q-19 0 -31.5 11.5t-12.5 28.5t12.5 28.5t31.5 11.5q109 0 169 -63q51 -53 51 -143v-208q0 -42 26 -67.5t62 -25.5z" />
    <glyph glyph-name="asciitilde" unicode="~" 
d="M674 344q0 -16 -7 -27q-64 -109 -180 -109q-100 0 -176 70q-23 21 -44.5 29.5t-57.5 8.5q-32 0 -57.5 -14.5t-33.5 -25.5t-18 -28q-10 -18 -36 -18q-17 0 -30 13t-13 31q0 14 8 26q67 109 180 109q99 0 176 -70q40 -38 102 -38q16 0 29 2.5t23.5 8t17.5 10t14 13t10 12.5
t8 13t6 10q11 17 37 17q17 0 29.5 -12.5t12.5 -30.5z" />
    <glyph glyph-name="uni00A0" unicode="&#xa0;" horiz-adv-x="400" 
 />
    <glyph glyph-name="exclamdown" unicode="&#xa1;" horiz-adv-x="459" 
d="M172 52v2q0 7 6.5 186.5t6.5 197.5q0 19 13 32t32 13q18 0 31 -13t13 -32q0 -18 7 -197.5t7 -186.5v-2q0 -21 -18 -36.5t-40 -15.5t-40 15.5t-18 36.5zM140 639q0 37 26.5 63t63.5 26t63 -26t26 -63t-26 -63.5t-63 -26.5q-38 0 -64 26.5t-26 63.5z" />
    <glyph glyph-name="cent" unicode="&#xa2;" horiz-adv-x="742" 
d="M621 403q0 -19 -13.5 -32t-31.5 -13q-24 0 -37 19q-38 59 -105 75v-367q67 16 106 77q11 17 35 17q19 0 32 -13t13 -32q0 -16 -9 -27q-66 -92 -177 -109v-90q0 -17 -12.5 -29.5t-29.5 -12.5t-29.5 12.5t-12.5 29.5v90q-99 16 -165 92.5t-66 177.5q0 102 66 178.5
t165 92.5v94q0 17 12.5 29.5t29.5 12.5t29.5 -12.5t12.5 -29.5v-94q113 -17 178 -109q9 -14 9 -27zM350 85v367q-61 -15 -99 -65.5t-38 -117.5q0 -68 38 -118.5t99 -65.5z" />
    <glyph glyph-name="sterling" unicode="&#xa3;" horiz-adv-x="742" 
d="M677 81q0 -25 -23 -39q-77 -48 -157 -48q-31 0 -84 16t-94 16q-50 0 -99.5 -13t-65.5 -13q-21 0 -33.5 12t-12.5 30q0 21 20 41q30 32 45 58q25 43 25 97q0 42 -8 78h-54q-18 0 -30 11.5t-12 29.5q0 17 12.5 28.5t29.5 11.5h36q-14 59 -14 114q0 97 55 154q65 68 182 68
q128 0 197 -105q8 -13 8 -27q0 -19 -13.5 -32.5t-31.5 -13.5q-27 0 -39 19q-43 69 -121 69q-74 0 -108 -37q-31 -34 -31 -95q0 -50 15 -114h138q17 0 29.5 -11.5t12.5 -28.5q0 -18 -12 -29.5t-30 -11.5h-120q3 -38 3 -76q0 -42 -13.5 -82t-38.5 -58q43 16 96 16
q38 0 90.5 -15.5t75.5 -15.5q27 0 47 7.5t53 28.5q12 8 26 8q25 0 37 -15q12 -14 12 -33z" />
    <glyph glyph-name="currency" unicode="&#xa4;" horiz-adv-x="742" 
d="M218 480l28 -31q55 38 124 38q67 0 124 -38l28 31q10 11 26 11t27 -11t11 -26q0 -16 -11 -27l-28 -28q43 -57 43 -130q0 -72 -42 -130l27 -27q11 -11 11 -27q0 -15 -11 -26t-27 -11t-26 11l-27 29q-57 -38 -125 -38q-69 0 -125 39l-27 -30q-10 -11 -26 -11t-27 11t-11 26
q0 16 11 27l28 28q-41 57 -41 128t42 129l-29 30q-11 11 -11 27q0 15 11 26t27 11t26 -11zM508 269q0 61 -39 102t-99 41q-59 0 -97.5 -41.5t-38.5 -101.5q0 -61 38.5 -102t97.5 -41q60 0 99 41t39 102z" />
    <glyph glyph-name="yen" unicode="&#xa5;" horiz-adv-x="742" 
d="M666 673q0 -15 -9 -28l-200 -291h92q14 0 24.5 -10t10.5 -24t-10.5 -24.5t-24.5 -10.5h-130v-63h130q14 0 24.5 -10.5t10.5 -24.5t-10.5 -24t-24.5 -10h-129q1 -89 1 -103q0 -21 -14.5 -35.5t-35.5 -14.5t-35.5 14.5t-14.5 35.5l1 103h-129q-14 0 -24 10t-10 24t10 24.5
t24 10.5h130v63h-130q-14 0 -24 10.5t-10 24.5t10 24t24 10h92l-200 291q-9 13 -9 28q0 27 22 41q13 9 28 9q27 0 41 -22l206 -314l201 314q15 22 42 22q14 0 28 -9q22 -14 22 -41z" />
    <glyph glyph-name="brokenbar" unicode="&#xa6;" horiz-adv-x="274" 
d="M184 522q0 -20 -14 -33.5t-33 -13.5t-33 13.5t-14 33.5v252q0 20 14 33.5t33 13.5t33 -13.5t14 -33.5v-252zM184 -62q0 -20 -14 -33.5t-33 -13.5t-33 13.5t-14 33.5v251q0 19 14 33t33 14t33 -14t14 -33v-251z" />
    <glyph glyph-name="section" unicode="&#xa7;" horiz-adv-x="752" 
d="M607 298q0 -44 -29 -71t-48 -30q26 -27 39 -52.5t13 -65.5q0 -35 -21 -74t-55 -61q-54 -36 -136 -36q-96 0 -165 86q-15 20 -15 39q0 15 11 26.5t27 11.5q21 0 36 -21q48 -64 106 -64t86 22q32 26 32 70q0 37 -18 62q-15 20 -59 32l-138 35q-62 15 -93 51q-35 40 -35 98
q0 28 20.5 58t53.5 45q-17 20 -23.5 29t-13 29t-6.5 47q0 75 59.5 122t145.5 47q55 0 94.5 -20.5t57.5 -43.5q16 -20 16 -37q0 -15 -11.5 -26t-26.5 -11t-30 15q-42 45 -100 45q-65 0 -96 -40q-18 -23 -18 -51q0 -33 15 -52q16 -21 54 -32l66.5 -16.5l70.5 -17.5
q71 -18 102.5 -52t31.5 -96zM522 296q0 31 -16 50q-13 16 -51 26l-168 42q-21 -2 -38.5 -19.5t-17.5 -38.5q0 -30 18 -49q14 -18 48 -26q5 -1 79.5 -18t84.5 -20q24 3 42.5 15.5t18.5 37.5z" />
    <glyph glyph-name="dieresis" unicode="&#xa8;" horiz-adv-x="433" 
d="M423 704q0 -29 -21.5 -50.5t-50.5 -21.5t-50.5 21.5t-21.5 50.5t21.5 50.5t50.5 21.5t50.5 -21.5t21.5 -50.5zM154 704q0 -29 -21.5 -50.5t-50.5 -21.5t-50.5 21.5t-21.5 50.5t21.5 50.5t50.5 21.5t50.5 -21.5t21.5 -50.5z" />
    <glyph glyph-name="copyright" unicode="&#xa9;" horiz-adv-x="868" 
d="M798 362q0 -153 -107 -262.5t-257 -109.5t-257 109.5t-107 262.5t107 262.5t257 109.5t257 -109.5t107 -262.5zM729 362q0 126 -87.5 215t-207.5 89t-207.5 -89t-87.5 -215q0 -127 87.5 -216t207.5 -89t207.5 89t87.5 216zM605 453q0 -15 -10.5 -25.5t-25.5 -10.5
q-23 0 -37 22q-30 45 -88 45q-51 0 -84.5 -35t-33.5 -87q0 -51 33.5 -86t84.5 -35q55 0 93 47q14 19 33 19q14 0 25 -10.5t11 -24.5q0 -12 -7 -22q-50 -77 -155 -77q-79 0 -135.5 55.5t-56.5 133.5q0 79 56 134t136 55q103 0 154 -76q7 -10 7 -22z" />
    <glyph glyph-name="ordfeminine" unicode="&#xaa;" horiz-adv-x="461" 
d="M389 695v-260q0 -14 -10.5 -25t-25.5 -11q-31 0 -36 32q-40 -35 -97 -35q-71 0 -120 49t-49 120q0 70 49.5 119t119.5 49q64 0 96 -36q1 15 12 24t25 9q34 0 36 -35zM317 565q0 44 -27 72.5t-70 28.5q-42 0 -69.5 -29t-27.5 -72t27.5 -72.5t69.5 -29.5q43 0 70 29.5
t27 72.5z" />
    <glyph glyph-name="guillemotleft" unicode="&#xab;" horiz-adv-x="662" 
d="M329 269q0 5 1 10t2 7.5t4 7.5t4 6.5t6 7.5t6 7l164 205q13 16 27 16q11 0 19 -7q10 -8 10 -22q0 -7 -5 -17l-122 -221l122 -222q5 -10 5 -17q0 -14 -10 -22q-8 -7 -19 -7q-14 0 -27 16l-164 205q-1 1 -7 8.5t-7 9.5t-4 7.5t-4 10.5t-1 11zM90 269q0 5 1 10t2 7.5t4 7.5
t4 6.5t6 7.5t6 7l164 205q13 16 27 16q11 0 19 -7q10 -8 10 -22q0 -7 -5 -17l-122 -221l122 -222q5 -10 5 -17q0 -14 -10 -22q-8 -7 -19 -7q-14 0 -27 16l-164 205q-1 1 -7 8.5t-7 9.5t-4 7.5t-4 10.5t-1 11z" />
    <glyph glyph-name="logicalnot" unicode="&#xac;" 
d="M629 270v-163q0 -21 -15 -35.5t-35 -14.5t-34.5 14.5t-14.5 35.5v123h-427q-19 0 -32 13t-13 32t13 32t32 13h476q20 0 34 -14t16 -36z" />
    <glyph glyph-name="uni00AD" unicode="&#xad;" horiz-adv-x="587" 
d="M482 275q0 -18 -12.5 -30.5t-29.5 -12.5h-293q-17 0 -29.5 12.5t-12.5 30.5t12.5 30.5t29.5 12.5h293q17 0 29.5 -12.5t12.5 -30.5z" />
    <glyph glyph-name="registered" unicode="&#xae;" horiz-adv-x="868" 
d="M602 433q0 -47 -31 -80q-20 -20 -54 -31l70 -88q10 -13 10 -27q0 -16 -9 -25q-10 -10 -26 -10q-18 0 -29 14l-97 129h-84v-107q0 -15 -10.5 -25t-24.5 -10q-15 0 -25.5 10t-10.5 25v307q0 15 10.5 25.5t25.5 10.5h144q69 0 110 -39q31 -29 31 -79zM530 433q0 19 -12 33
q-17 19 -57 19h-109v-104h111q38 0 56 18q11 10 11 34zM798 362q0 -153 -107 -262.5t-257 -109.5t-257 109.5t-107 262.5t107 262.5t257 109.5t257 -109.5t107 -262.5zM729 362q0 126 -87.5 215t-207.5 89t-207.5 -89t-87.5 -215q0 -127 87.5 -216t207.5 -89t207.5 89
t87.5 216z" />
    <glyph glyph-name="macron" unicode="&#xaf;" horiz-adv-x="446" 
d="M436 704q0 -19 -13 -32t-32 -13h-336q-19 0 -32 13t-13 32t13 32t32 13h336q19 0 32 -13t13 -32z" />
    <glyph glyph-name="degree" unicode="&#xb0;" horiz-adv-x="489" 
d="M414 569q0 -69 -50.5 -116.5t-119.5 -47.5t-119 47t-50 117q0 68 50 116t119 48t119.5 -47.5t50.5 -116.5zM336 569q0 37 -27 64.5t-65 27.5t-65 -27.5t-27 -64.5t27 -64.5t65 -27.5t65 27.5t27 64.5z" />
    <glyph glyph-name="plusminus" unicode="&#xb1;" 
d="M631 343q0 -19 -13 -32t-32 -13h-193v-123q0 -19 -13 -32t-32 -13t-32 13t-13 32v123h-193q-19 0 -32 13t-13 32t13 32t32 13h193v123q0 19 13 32t32 13t32 -13t13 -32v-123h193q19 0 32 -13t13 -32zM631 35q0 -19 -13 -32t-32 -13h-476q-19 0 -32 13t-13 32t13 32t32 13
h476q19 0 32 -13t13 -32z" />
    <glyph glyph-name="twosuperior" unicode="&#xb2;" horiz-adv-x="473" 
d="M411 317q0 -14 -10.5 -24.5t-24.5 -10.5h-265q-14 0 -24.5 10.5t-10.5 26.5q0 37 14 66.5t42 51t53 35t63 28.5q77 32 77 84q0 35 -21.5 55.5t-55.5 20.5q-68 0 -84 -61q-9 -31 -38 -31q-16 0 -25.5 10.5t-9.5 26.5q0 44 43.5 84t116.5 40q67 0 108.5 -39t41.5 -106
q0 -93 -122 -146q-39 -17 -55.5 -25t-37 -25t-28.5 -36h218q14 0 24.5 -10t10.5 -25z" />
    <glyph glyph-name="threesuperior" unicode="&#xb3;" horiz-adv-x="458" 
d="M391 415q0 -68 -52 -103.5t-133 -35.5q-93 0 -146 27q-21 11 -21 33q0 15 10.5 26t26.5 11q9 0 17 -4q42 -23 113 -23q111 0 111 69q0 68 -123 68q-15 0 -26 10.5t-11 24.5t11 24.5t26 10.5q101 0 101 53q0 52 -91 52q-55 0 -94 -15q-10 -4 -19 -4q-15 0 -25 9.5
t-10 24.5q0 22 23 32q55 24 125 24q76 0 120 -33.5t44 -89.5q0 -53 -46 -82q32 -13 50.5 -43t18.5 -66z" />
    <glyph glyph-name="acute" unicode="&#xb4;" horiz-adv-x="286" 
d="M276 785q0 -30 -20 -44l-198 -135q-9 -6 -19 -6q-14 0 -23 11q-6 7 -6 17q0 14 11 25l157 174q15 16 40 16q24 0 41 -17t17 -41z" />
    <glyph glyph-name="mu" unicode="&#xb5;" horiz-adv-x="723" 
d="M105 -139v629q0 20 13.5 33.5t33.5 13.5t33.5 -13.5t13.5 -33.5v-233q0 -57 12 -90q31 -87 137 -87q50 0 88 22t58 55q30 49 30 108v225q0 20 14 33.5t33 13.5t33 -13.5t14 -33.5v-443q0 -19 -14 -33t-33 -14t-33 14t-14 33v31q-68 -83 -179 -83q-90 0 -153 47l7 -181
q1 -19 -13 -33t-34 -14t-33.5 14t-13.5 33z" />
    <glyph glyph-name="paragraph" unicode="&#xb6;" horiz-adv-x="715" 
d="M295 48v284q-123 0 -188 65q-52 52 -52 132q0 76 53 127q67 67 183 67h253q19 0 32.5 -13.5t13.5 -32.5v-629q0 -19 -13.5 -32.5t-32.5 -13.5t-32.5 13.5t-13.5 32.5v587h-111v-587q0 -19 -13.5 -32.5t-32.5 -13.5t-32.5 13.5t-13.5 32.5z" />
    <glyph glyph-name="periodcentered" unicode="&#xb7;" horiz-adv-x="389" 
d="M284 356q0 -37 -26.5 -63t-63.5 -26t-63 26t-26 63t26 63t63 26t63.5 -26t26.5 -63z" />
    <glyph glyph-name="cedilla" unicode="&#xb8;" horiz-adv-x="249" 
d="M239 -117q0 -39 -25 -61q-29 -26 -81 -26q-39 0 -79 15q-25 10 -34.5 18.5t-9.5 20.5q0 11 8 19q7 7 18 7q7 0 13 -3q20 -10 28 -13q27 -10 49 -10q46 0 46 34q0 15 -12 23q-13 9 -37 9q-6 0 -12.5 -1t-7.5 -1q-12 0 -12 14v94h34v-64q16 4 36 4q33 0 55.5 -23t22.5 -56z
" />
    <glyph glyph-name="onesuperior" unicode="&#xb9;" horiz-adv-x="372" 
d="M269 320q0 -16 -11 -27t-27 -11t-27 11t-11 27v316l-87 -62q-8 -6 -20 -6q-18 0 -28 14q-7 12 -7 21q0 17 15 28l111 78q19 14 34 14h20q16 0 27 -11t11 -27v-365z" />
    <glyph glyph-name="ordmasculine" unicode="&#xba;" horiz-adv-x="441" 
d="M390 565q0 -70 -49.5 -119.5t-120.5 -49.5q-70 0 -119.5 49t-49.5 120q0 70 49.5 119t119.5 49q71 0 120.5 -49t49.5 -119zM317 565q0 43 -27.5 72t-69.5 29t-69.5 -29t-27.5 -72t27.5 -72.5t69.5 -29.5t69.5 29.5t27.5 72.5z" />
    <glyph glyph-name="guillemotright" unicode="&#xbb;" horiz-adv-x="662" 
d="M333 269q0 -6 -1 -11t-4 -10.5t-4 -7.5t-7 -9.5t-7 -8.5l-164 -205q-13 -16 -27 -16q-11 0 -19 7q-10 8 -10 22q0 7 5 17l122 222l-122 221q-5 10 -5 17q0 14 10 22q8 7 19 7q14 0 27 -16l164 -205q1 -1 6 -7t6 -7.5t4 -6.5t4 -7.5t2 -7.5t1 -10zM572 269q0 -6 -1 -11
t-4 -10.5t-4 -7.5t-7 -9.5t-7 -8.5l-164 -205q-13 -16 -27 -16q-11 0 -19 7q-10 8 -10 22q0 7 5 17l122 222l-122 221q-5 10 -5 17q0 14 10 22q8 7 19 7q14 0 27 -16l164 -205q1 -1 6 -7t6 -7.5t4 -6.5t4 -7.5t2 -7.5t1 -10z" />
    <glyph glyph-name="onequarter" unicode="&#xbc;" horiz-adv-x="1030" 
d="M269 320q0 -16 -11 -27t-27 -11t-27 11t-11 27v316l-87 -62q-8 -6 -20 -6q-18 0 -28 14q-7 12 -7 21q0 17 15 28l111 78q19 14 34 14h20q16 0 27 -11t11 -27v-365zM772 823q20 -11 20 -37q0 -8 -5 -16l-467 -865q-11 -20 -33 -20q-14 0 -24 7q-16 12 -16 30q0 11 5 20
l467 865q11 20 33 20q12 0 20 -4zM976 134q0 -15 -10.5 -25.5t-25.5 -10.5h-20v-60q0 -16 -11 -27t-27 -11t-27 11t-11 27v60h-181q-15 0 -25.5 10.5t-10.5 25.5v10q0 11 10 25l191 253q14 19 31 19h23q16 0 27 -11t11 -27v-234h20q15 0 25.5 -10.5t10.5 -24.5zM844 169v162
l-121 -162h121z" />
    <glyph glyph-name="onehalf" unicode="&#xbd;" horiz-adv-x="1084" 
d="M269 320q0 -16 -11 -27t-27 -11t-27 11t-11 27v316l-87 -62q-8 -6 -20 -6q-18 0 -28 14q-7 12 -7 21q0 17 15 28l111 78q19 14 34 14h20q16 0 27 -11t11 -27v-365zM772 823q20 -11 20 -37q0 -8 -5 -16l-467 -865q-11 -20 -33 -20q-14 0 -24 7q-16 12 -16 30q0 11 5 20
l467 865q11 20 33 20q12 0 20 -4zM1022 35q0 -14 -10.5 -24.5t-24.5 -10.5h-265q-14 0 -24.5 10.5t-10.5 26.5q0 37 14 66.5t42 51t53 35t63 28.5q77 32 77 84q0 35 -21.5 55.5t-55.5 20.5q-68 0 -84 -61q-9 -31 -38 -31q-16 0 -25.5 10.5t-9.5 26.5q0 44 43.5 84t116.5 40
q67 0 108.5 -39t41.5 -106q0 -93 -122 -146q-39 -17 -55.5 -25t-37 -25t-28.5 -36h218q14 0 24.5 -10t10.5 -25z" />
    <glyph glyph-name="threequarters" unicode="&#xbe;" horiz-adv-x="1082" 
d="M391 415q0 -68 -52 -103.5t-133 -35.5q-93 0 -146 27q-21 11 -21 33q0 15 10.5 26t26.5 11q9 0 17 -4q42 -23 113 -23q111 0 111 69q0 68 -123 68q-15 0 -26 10.5t-11 24.5t11 24.5t26 10.5q101 0 101 53q0 52 -91 52q-55 0 -94 -15q-10 -4 -19 -4q-15 0 -25 9.5
t-10 24.5q0 22 23 32q55 24 125 24q76 0 120 -33.5t44 -89.5q0 -53 -46 -82q32 -13 50.5 -43t18.5 -66zM819 823q20 -11 20 -37q0 -8 -5 -16l-467 -865q-11 -20 -33 -20q-14 0 -24 7q-16 12 -16 30q0 11 5 20l467 865q11 20 33 20q12 0 20 -4zM1028 134q0 -15 -10.5 -25.5
t-25.5 -10.5h-20v-60q0 -16 -11 -27t-27 -11t-27 11t-11 27v60h-181q-15 0 -25.5 10.5t-10.5 25.5v10q0 11 10 25l191 253q14 19 31 19h23q16 0 27 -11t11 -27v-234h20q15 0 25.5 -10.5t10.5 -24.5zM896 169v162l-121 -162h121z" />
    <glyph glyph-name="questiondown" unicode="&#xbf;" horiz-adv-x="670" 
d="M85 186q0 52 19.5 81t63.5 56l89 53q3 2 12 6.5t13 7.5t10 8.5t8.5 13t2.5 17.5v12q0 20 13 31.5t30 11.5t29 -11.5t12 -30.5v-30q0 -52 -61 -89l-98 -59q-49 -30 -49 -77q0 -46 43 -76t111 -30q65 0 109 31.5t49 76.5q2 18 15 30t32 12q20 0 33.5 -13.5t13.5 -33.5
q0 -84 -79 -136t-173 -52q-101 0 -174.5 50.5t-73.5 139.5zM256 640q0 37 26 63t63 26t63 -26t26 -63t-26 -63.5t-63 -26.5t-63 26.5t-26 63.5z" />
    <glyph glyph-name="Agrave" unicode="&#xc0;" horiz-adv-x="760" 
d="M48 69l269 622q13 32 44 32h38q30 0 43 -32l271 -622q4 -12 4 -19q0 -33 -31 -46q-8 -4 -19 -4q-34 0 -47 30l-57 136h-371l-56 -136q-12 -30 -45 -30q-11 0 -19 4q-29 12 -29 45q0 8 5 20zM526 256l-148 359l-148 -359h296zM322 957l190 -111q19 -10 19 -30
q0 -12 -7.5 -19.5t-20.5 -7.5q-9 0 -12 1l-222 67q-43 13 -43 56q0 26 16 42t37 16q19 0 43 -14z" />
    <glyph glyph-name="Aacute" unicode="&#xc1;" horiz-adv-x="760" 
d="M48 69l269 622q13 32 44 32h38q30 0 43 -32l271 -622q4 -12 4 -19q0 -33 -31 -46q-8 -4 -19 -4q-34 0 -47 30l-57 136h-371l-56 -136q-12 -30 -45 -30q-11 0 -19 4q-29 12 -29 45q0 8 5 20zM526 256l-148 359l-148 -359h296zM247 846l190 111q24 14 43 14q21 0 37 -16
t16 -42q0 -43 -43 -56l-222 -67q-3 -1 -12 -1q-12 0 -20 7.5t-8 19.5q0 20 19 30z" />
    <glyph glyph-name="Acircumflex" unicode="&#xc2;" horiz-adv-x="760" 
d="M48 69l269 622q13 32 44 32h38q30 0 43 -32l271 -622q4 -12 4 -19q0 -33 -31 -46q-8 -4 -19 -4q-34 0 -47 30l-57 136h-371l-56 -136q-12 -30 -45 -30q-11 0 -19 4q-29 12 -29 45q0 8 5 20zM526 256l-148 359l-148 -359h296zM380 976q15 0 36 -16l162 -119q18 -14 18 -28
q0 -13 -8.5 -20.5t-18.5 -7.5q-11 0 -23 5l-166 70l-166 -70q-13 -5 -23 -5t-18.5 7.5t-8.5 20.5q0 14 18 28l162 119q21 16 36 16z" />
    <glyph glyph-name="Atilde" unicode="&#xc3;" horiz-adv-x="760" 
d="M48 69l269 622q13 32 44 32h38q30 0 43 -32l271 -622q4 -12 4 -19q0 -33 -31 -46q-8 -4 -19 -4q-34 0 -47 30l-57 136h-371l-56 -136q-12 -30 -45 -30q-11 0 -19 4q-29 12 -29 45q0 8 5 20zM526 256l-148 359l-148 -359h296zM598 916q0 -29 -39 -68q-37 -36 -96 -36
q-29 0 -105 26q-53 19 -67 19q-8 0 -17 -3q-28 -9 -44 -31q-11 -15 -31 -15q-17 0 -28.5 12.5t-11.5 27.5q0 29 39 66q37 36 95 36q30 0 106 -26q50 -18 67 -18q5 0 17 2q24 8 44 33q13 14 32 14q17 0 28 -12.5t11 -26.5z" />
    <glyph glyph-name="Adieresis" unicode="&#xc4;" horiz-adv-x="760" 
d="M48 69l269 622q13 32 44 32h38q30 0 43 -32l271 -622q4 -12 4 -19q0 -33 -31 -46q-8 -4 -19 -4q-34 0 -47 30l-57 136h-371l-56 -136q-12 -30 -45 -30q-11 0 -19 4q-29 12 -29 45q0 8 5 20zM526 256l-148 359l-148 -359h296zM586 880q0 -29 -21.5 -50.5t-50.5 -21.5
t-50.5 21.5t-21.5 50.5t21.5 50.5t50.5 21.5t50.5 -21.5t21.5 -50.5zM317 880q0 -29 -21.5 -50.5t-50.5 -21.5t-50.5 21.5t-21.5 50.5t21.5 50.5t50.5 21.5t50.5 -21.5t21.5 -50.5z" />
    <glyph glyph-name="Aring" unicode="&#xc5;" horiz-adv-x="760" 
d="M48 69l269 622q13 32 44 32h38q30 0 43 -32l271 -622q4 -12 4 -19q0 -33 -31 -46q-8 -4 -19 -4q-34 0 -47 30l-57 136h-371l-56 -136q-12 -30 -45 -30q-11 0 -19 4q-29 12 -29 45q0 8 5 20zM526 256l-148 359l-148 -359h296zM513 880q0 -55 -40 -92.5t-95 -37.5
t-94.5 37.5t-39.5 92.5q0 54 39.5 92t94.5 38t95 -37.5t40 -92.5zM451 880q0 30 -21.5 51.5t-51.5 21.5t-51.5 -21.5t-21.5 -51.5t21.5 -51.5t51.5 -21.5t51.5 21.5t21.5 51.5z" />
    <glyph glyph-name="AE" unicode="&#xc6;" horiz-adv-x="816" 
d="M754 45q0 -19 -13 -32t-32 -13h-267q-20 0 -34.5 15t-14.5 35v116h-202l-56 -136q-13 -30 -46 -30q-9 0 -18 4q-28 12 -28 46q0 10 4 19l286 622q15 32 44 32h332q19 0 32 -13t13 -32t-13 -32t-32 -13h-217v-228h152q19 0 31.5 -12t12.5 -31t-12.5 -31t-31.5 -12h-152
v-229h217q19 0 32 -13t13 -32zM393 256v357l-164 -357h164z" />
    <glyph glyph-name="Ccedilla" unicode="&#xc7;" horiz-adv-x="825" 
d="M558 -117q0 -39 -25 -61q-29 -26 -81 -26q-39 0 -79 15q-25 10 -34.5 18.5t-9.5 20.5q0 11 8 19q7 7 18 7q7 0 13 -3q20 -10 28 -13q27 -10 49 -10q46 0 46 34q0 15 -12 23q-13 9 -37 9q-6 0 -12.5 -1t-7.5 -1q-12 0 -12 14v64q-145 11 -237.5 114.5t-92.5 255.5
q0 161 103.5 266t260.5 105q95 0 172.5 -40t125.5 -111q8 -12 8 -26q0 -19 -13 -32.5t-32 -13.5q-23 0 -40 22q-83 113 -221 113q-118 0 -191 -79t-73 -204t73 -204t191 -79q73 0 124 28.5t98 87.5q16 19 38 19q20 0 33 -13t13 -33q0 -16 -9 -29q-106 -149 -297 -149v-32
q16 4 36 4q33 0 55.5 -23t22.5 -56z" />
    <glyph glyph-name="Egrave" unicode="&#xc8;" horiz-adv-x="754" 
d="M692 45q0 -19 -13 -32t-32 -13h-473q-20 0 -34.5 15t-14.5 35v623q0 20 14.5 35t34.5 15h473q19 0 32 -13t13 -32t-13 -32t-32 -13h-422v-226h268q19 0 32 -13t13 -32t-13 -32t-32 -13h-268v-227h422q19 0 32 -13t13 -32zM354 957l190 -111q19 -10 19 -30
q0 -12 -7.5 -19.5t-20.5 -7.5q-9 0 -12 1l-222 67q-43 13 -43 56q0 26 16 42t37 16q19 0 43 -14z" />
    <glyph glyph-name="Eacute" unicode="&#xc9;" horiz-adv-x="754" 
d="M692 45q0 -19 -13 -32t-32 -13h-473q-20 0 -34.5 15t-14.5 35v623q0 20 14.5 35t34.5 15h473q19 0 32 -13t13 -32t-13 -32t-32 -13h-422v-226h268q19 0 32 -13t13 -32t-13 -32t-32 -13h-268v-227h422q19 0 32 -13t13 -32zM278 846l190 111q24 14 43 14q21 0 37 -16
t16 -42q0 -43 -43 -56l-222 -67q-3 -1 -12 -1q-13 0 -20.5 7.5t-7.5 19.5q0 20 19 30z" />
    <glyph glyph-name="Ecircumflex" unicode="&#xca;" horiz-adv-x="754" 
d="M692 45q0 -19 -13 -32t-32 -13h-473q-20 0 -34.5 15t-14.5 35v623q0 20 14.5 35t34.5 15h473q19 0 32 -13t13 -32t-13 -32t-32 -13h-422v-226h268q19 0 32 -13t13 -32t-13 -32t-32 -13h-268v-227h422q19 0 32 -13t13 -32zM407 976q15 0 36 -16l162 -119q18 -14 18 -28
q0 -13 -8.5 -20.5t-18.5 -7.5t-23 5l-166 70l-166 -70q-12 -5 -23 -5q-10 0 -18.5 7.5t-8.5 20.5q0 14 18 28l162 119q21 16 36 16z" />
    <glyph glyph-name="Edieresis" unicode="&#xcb;" horiz-adv-x="754" 
d="M692 45q0 -19 -13 -32t-32 -13h-473q-20 0 -34.5 15t-14.5 35v623q0 20 14.5 35t34.5 15h473q19 0 32 -13t13 -32t-13 -32t-32 -13h-422v-226h268q19 0 32 -13t13 -32t-13 -32t-32 -13h-268v-227h422q19 0 32 -13t13 -32zM613 880q0 -29 -21.5 -50.5t-50.5 -21.5
t-50.5 21.5t-21.5 50.5t21.5 50.5t50.5 21.5t50.5 -21.5t21.5 -50.5zM344 880q0 -29 -21.5 -50.5t-50.5 -21.5t-50.5 21.5t-21.5 50.5t21.5 50.5t50.5 21.5t50.5 -21.5t21.5 -50.5z" />
    <glyph glyph-name="Igrave" unicode="&#xcc;" horiz-adv-x="350" 
d="M225 673v-623q0 -21 -14.5 -35.5t-35.5 -14.5t-35.5 14.5t-14.5 35.5v623q0 21 14.5 35.5t35.5 14.5t35.5 -14.5t14.5 -35.5zM120 957l190 -111q19 -10 19 -30q0 -12 -7.5 -19.5t-20.5 -7.5q-9 0 -12 1l-222 67q-43 13 -43 56q0 26 16 42t37 16q19 0 43 -14z" />
    <glyph glyph-name="Iacute" unicode="&#xcd;" horiz-adv-x="350" 
d="M225 673v-623q0 -21 -14.5 -35.5t-35.5 -14.5t-35.5 14.5t-14.5 35.5v623q0 21 14.5 35.5t35.5 14.5t35.5 -14.5t14.5 -35.5zM42 846l190 111q24 14 43 14q21 0 37 -16t16 -42q0 -43 -43 -56l-222 -67q-3 -1 -12 -1q-13 0 -20.5 7.5t-7.5 19.5q0 20 19 30z" />
    <glyph glyph-name="Icircumflex" unicode="&#xce;" horiz-adv-x="350" 
d="M225 673v-623q0 -21 -14.5 -35.5t-35.5 -14.5t-35.5 14.5t-14.5 35.5v623q0 21 14.5 35.5t35.5 14.5t35.5 -14.5t14.5 -35.5zM176 976q15 0 36 -16l162 -119q18 -14 18 -28q0 -13 -8.5 -20.5t-18.5 -7.5q-11 0 -23 5l-166 70l-166 -70q-12 -5 -23 -5q-10 0 -18.5 7.5
t-8.5 20.5q0 14 18 28l162 119q21 16 36 16z" />
    <glyph glyph-name="Idieresis" unicode="&#xcf;" horiz-adv-x="350" 
d="M225 673v-623q0 -21 -14.5 -35.5t-35.5 -14.5t-35.5 14.5t-14.5 35.5v623q0 21 14.5 35.5t35.5 14.5t35.5 -14.5t14.5 -35.5zM381 880q0 -29 -21.5 -50.5t-50.5 -21.5t-50.5 21.5t-21.5 50.5t21.5 50.5t50.5 21.5t50.5 -21.5t21.5 -50.5zM112 880q0 -29 -21.5 -50.5
t-50.5 -21.5t-50.5 21.5t-21.5 50.5t21.5 50.5t50.5 21.5t50.5 -21.5t21.5 -50.5z" />
    <glyph glyph-name="Eth" unicode="&#xd0;" horiz-adv-x="810" 
d="M728 362q0 -77 -29 -147t-80 -121q-92 -94 -220 -94h-212q-20 0 -34.5 15t-14.5 35v285h-66q-19 0 -32 13t-13 32t13 32t32 13h66v248q0 20 14.5 35t34.5 15h212q127 0 221 -94q108 -108 108 -267zM625 362q0 126 -79 207q-62 64 -147 64h-161v-208h169q19 0 32 -13
t13 -32t-13 -32t-32 -13h-169v-245h161q86 0 150 67q76 81 76 205z" />
    <glyph glyph-name="Ntilde" unicode="&#xd1;" horiz-adv-x="830" 
d="M705 673v-623q0 -21 -14.5 -35.5t-35.5 -14.5h-45q-28 0 -43 25l-325 531q-16 25 -22 43h-2q5 -23 5 -54v-489q0 -22 -14.5 -39t-34.5 -17q-21 0 -35 14.5t-14 35.5v623q0 21 14.5 35.5t35.5 14.5h41q29 0 44 -25l323 -526q14 -23 24 -48h2q-4 19 -4 56v493
q0 21 14.5 35.5t35.5 14.5t35 -14.5t15 -35.5zM634 916q0 -29 -39 -68q-37 -36 -96 -36q-29 0 -105 26q-53 19 -67 19q-8 0 -17 -3q-28 -9 -44 -31q-11 -15 -31 -15q-17 0 -28.5 12.5t-11.5 27.5q0 29 39 66q37 36 95 36q30 0 106 -26q50 -18 67 -18q5 0 17 2q24 8 44 33
q13 14 32 14q17 0 28 -12.5t11 -26.5z" />
    <glyph glyph-name="Ograve" unicode="&#xd2;" horiz-adv-x="888" 
d="M808 362q0 -153 -107 -262.5t-257 -109.5t-257 109.5t-107 262.5t107 262t257 109t257 -109t107 -262zM708 362q0 118 -77 200t-187 82t-187 -82t-77 -200t77 -200.5t187 -82.5t187 82.5t77 200.5zM385 957l190 -111q19 -10 19 -30q0 -12 -8 -19.5t-20 -7.5q-9 0 -12 1
l-222 67q-43 13 -43 56q0 26 16 42t37 16q19 0 43 -14z" />
    <glyph glyph-name="Oacute" unicode="&#xd3;" horiz-adv-x="888" 
d="M808 362q0 -153 -107 -262.5t-257 -109.5t-257 109.5t-107 262.5t107 262t257 109t257 -109t107 -262zM708 362q0 118 -77 200t-187 82t-187 -82t-77 -200t77 -200.5t187 -82.5t187 82.5t77 200.5zM306 846l190 111q24 14 43 14q21 0 37 -16t16 -42q0 -43 -43 -56
l-222 -67q-3 -1 -12 -1q-13 0 -20.5 7.5t-7.5 19.5q0 20 19 30z" />
    <glyph glyph-name="Ocircumflex" unicode="&#xd4;" horiz-adv-x="888" 
d="M808 362q0 -153 -107 -262.5t-257 -109.5t-257 109.5t-107 262.5t107 262t257 109t257 -109t107 -262zM708 362q0 118 -77 200t-187 82t-187 -82t-77 -200t77 -200.5t187 -82.5t187 82.5t77 200.5zM441 976q15 0 36 -16l162 -119q18 -14 18 -28q0 -13 -8.5 -20.5
t-18.5 -7.5t-23 5l-166 70l-166 -70q-13 -5 -23 -5t-18.5 7.5t-8.5 20.5q0 14 18 28l162 119q21 16 36 16z" />
    <glyph glyph-name="Otilde" unicode="&#xd5;" horiz-adv-x="888" 
d="M808 362q0 -153 -107 -262.5t-257 -109.5t-257 109.5t-107 262.5t107 262t257 109t257 -109t107 -262zM708 362q0 118 -77 200t-187 82t-187 -82t-77 -200t77 -200.5t187 -82.5t187 82.5t77 200.5zM663 916q0 -29 -39 -68q-37 -36 -96 -36q-29 0 -105 26q-53 19 -67 19
q-8 0 -17 -3q-28 -9 -44 -31q-11 -15 -31 -15q-17 0 -28.5 12.5t-11.5 27.5q0 29 39 66q37 36 95 36q30 0 106 -26q50 -18 67 -18q5 0 17 2q24 8 44 33q13 14 32 14q17 0 28 -12.5t11 -26.5z" />
    <glyph glyph-name="Odieresis" unicode="&#xd6;" horiz-adv-x="888" 
d="M808 362q0 -153 -107 -262.5t-257 -109.5t-257 109.5t-107 262.5t107 262t257 109t257 -109t107 -262zM708 362q0 118 -77 200t-187 82t-187 -82t-77 -200t77 -200.5t187 -82.5t187 82.5t77 200.5zM650 880q0 -29 -21.5 -50.5t-50.5 -21.5t-50.5 21.5t-21.5 50.5
t21.5 50.5t50.5 21.5t50.5 -21.5t21.5 -50.5zM381 880q0 -29 -21.5 -50.5t-50.5 -21.5t-50.5 21.5t-21.5 50.5t21.5 50.5t50.5 21.5t50.5 -21.5t21.5 -50.5z" />
    <glyph glyph-name="multiply" unicode="&#xd7;" 
d="M590 26q-13 -13 -31 -13q-19 0 -32 13l-179 179l-179 -179q-13 -13 -32 -13t-32 13t-13 32t13 32l179 179l-179 179q-13 13 -13 32t13 32t32 13t32 -13l179 -179l179 179q13 13 32 13q18 0 31 -13q14 -14 14 -32t-14 -32l-179 -179l179 -179q14 -14 14 -32t-14 -32z" />
    <glyph glyph-name="Oslash" unicode="&#xd8;" horiz-adv-x="888" 
d="M808 362q0 -153 -107 -262.5t-257 -109.5q-93 0 -172 45l-18 -27q-12 -18 -35 -18q-12 0 -24 7q-18 13 -18 35q0 13 7 24l19 28q-58 53 -90.5 125t-32.5 153q0 153 107 262.5t257 109.5q93 0 175 -46l18 27q12 18 35 18q13 0 24 -7q18 -12 18 -38q0 -9 -7 -21l-20 -29
q121 -113 121 -276zM708 362q0 117 -75 198l-309 -450q56 -31 120 -31q110 0 187 82.5t77 200.5zM567 612q-56 32 -123 32q-110 0 -187 -82t-77 -200t77 -200z" />
    <glyph glyph-name="Ugrave" unicode="&#xd9;" horiz-adv-x="836" 
d="M721 286q0 -127 -88.5 -211.5t-214.5 -84.5t-214.5 84.5t-88.5 211.5v387q0 21 15 35.5t36 14.5t36 -14.5t15 -35.5v-387q0 -85 58.5 -145.5t142.5 -60.5t143.5 61t59.5 145v387q0 21 14.5 35.5t35.5 14.5t35.5 -14.5t14.5 -35.5v-387zM365 957l190 -111q19 -10 19 -30
q0 -12 -8 -19.5t-20 -7.5q-9 0 -12 1l-222 67q-43 13 -43 56q0 26 16 42t37 16q19 0 43 -14z" />
    <glyph glyph-name="Uacute" unicode="&#xda;" horiz-adv-x="836" 
d="M721 286q0 -127 -88.5 -211.5t-214.5 -84.5t-214.5 84.5t-88.5 211.5v387q0 21 15 35.5t36 14.5t36 -14.5t15 -35.5v-387q0 -85 58.5 -145.5t142.5 -60.5t143.5 61t59.5 145v387q0 21 14.5 35.5t35.5 14.5t35.5 -14.5t14.5 -35.5v-387zM289 846l190 111q24 14 43 14
q21 0 37 -16t16 -42q0 -43 -43 -56l-222 -67q-3 -1 -12 -1q-12 0 -20 7.5t-8 19.5q0 20 19 30z" />
    <glyph glyph-name="Ucircumflex" unicode="&#xdb;" horiz-adv-x="836" 
d="M721 286q0 -127 -88.5 -211.5t-214.5 -84.5t-214.5 84.5t-88.5 211.5v387q0 21 15 35.5t36 14.5t36 -14.5t15 -35.5v-387q0 -85 58.5 -145.5t142.5 -60.5t143.5 61t59.5 145v387q0 21 14.5 35.5t35.5 14.5t35.5 -14.5t14.5 -35.5v-387zM421 976q15 0 36 -16l162 -119
q18 -14 18 -28q0 -13 -8.5 -20.5t-18.5 -7.5t-23 5l-166 70l-166 -70q-13 -5 -23 -5t-18.5 7.5t-8.5 20.5q0 14 18 28l162 119q21 16 36 16z" />
    <glyph glyph-name="Udieresis" unicode="&#xdc;" horiz-adv-x="836" 
d="M721 286q0 -127 -88.5 -211.5t-214.5 -84.5t-214.5 84.5t-88.5 211.5v387q0 21 15 35.5t36 14.5t36 -14.5t15 -35.5v-387q0 -85 58.5 -145.5t142.5 -60.5t143.5 61t59.5 145v387q0 21 14.5 35.5t35.5 14.5t35.5 -14.5t14.5 -35.5v-387zM629 880q0 -29 -21.5 -50.5
t-50.5 -21.5t-50.5 21.5t-21.5 50.5t21.5 50.5t50.5 21.5t50.5 -21.5t21.5 -50.5zM360 880q0 -29 -21.5 -50.5t-50.5 -21.5t-50.5 21.5t-21.5 50.5t21.5 50.5t50.5 21.5t50.5 -21.5t21.5 -50.5z" />
    <glyph glyph-name="Yacute" unicode="&#xdd;" horiz-adv-x="678" 
d="M634 673q0 -15 -9 -28l-240 -346q4 -211 4 -249q0 -21 -14.5 -35.5t-35.5 -14.5t-35.5 14.5t-14.5 35.5l4 249l-240 346q-9 13 -9 28q0 20 15 35t35 15q27 0 41 -22l206 -314l201 314q15 22 42 22q20 0 35 -15t15 -35zM209 846l190 111q24 14 43 14q21 0 37 -16t16 -42
q0 -43 -43 -56l-222 -67q-3 -1 -12 -1q-12 0 -20 7.5t-8 19.5q0 20 19 30z" />
    <glyph glyph-name="Thorn" unicode="&#xde;" horiz-adv-x="834" 
d="M777 377q0 -87 -58 -147q-71 -71 -204 -71h-244v-109q0 -21 -14.5 -35.5t-35.5 -14.5t-36 14.5t-15 35.5v623q0 21 14.5 35.5t35.5 14.5t36 -14.5t15 -35.5v-80h244q125 0 203 -75q59 -59 59 -141zM677 377q0 43 -32 78q-46 48 -130 48h-244v-254h246q91 0 129 38
q31 31 31 90z" />
    <glyph glyph-name="germandbls" unicode="&#xdf;" horiz-adv-x="779" 
d="M679 207q0 -106 -79 -156.5t-206 -50.5q-42 0 -97 11q-25 5 -34 27q-3 8 -3 15q0 30 25 40q7 3 18 3q4 0 36 -4.5t55 -4.5q106 0 147 35.5t41 84.5q0 62 -48.5 99t-121.5 37q-17 0 -29 11.5t-12 28.5t12 29t29 12q53 0 89 36t36 76q0 43 -41.5 72t-130.5 29
q-50 0 -85 -14.5t-51 -38.5t-22 -45.5t-6 -44.5v-444q0 -21 -13 -35.5t-34 -14.5q-20 0 -34.5 15t-14.5 35v451q0 108 73.5 165t190.5 57q70 0 127 -17.5t97 -61t40 -108.5q0 -46 -25 -85.5t-63 -60.5q134 -54 134 -183z" />
    <glyph glyph-name="agrave" unicode="&#xe0;" horiz-adv-x="722" 
d="M617 490v-443q0 -19 -13.5 -33t-33.5 -14t-33.5 14t-13.5 33v18q-72 -70 -179 -70q-115 0 -194.5 79t-79.5 194q0 114 80 194t193 80q108 0 180 -70v18q0 20 13.5 33.5t33.5 13.5q19 0 32 -13.5t15 -33.5zM523 269q0 81 -50 134.5t-129 53.5q-78 0 -129 -54.5t-51 -133.5
q0 -80 51 -134.5t128 -54.5q80 0 130 54.5t50 134.5zM490 611q-9 -11 -23 -11q-10 0 -19 6l-198 135q-20 14 -20 44q0 24 17 41t41 17q25 0 40 -16l157 -174q11 -11 11 -25q0 -10 -6 -17z" />
    <glyph glyph-name="aacute" unicode="&#xe1;" horiz-adv-x="722" 
d="M617 490v-443q0 -19 -13.5 -33t-33.5 -14t-33.5 14t-13.5 33v18q-72 -70 -179 -70q-115 0 -194.5 79t-79.5 194q0 114 80 194t193 80q108 0 180 -70v18q0 20 13.5 33.5t33.5 13.5q19 0 32 -13.5t15 -33.5zM523 269q0 81 -50 134.5t-129 53.5q-78 0 -129 -54.5t-51 -133.5
q0 -80 51 -134.5t128 -54.5q80 0 130 54.5t50 134.5zM457 785q0 -30 -20 -44l-198 -135q-9 -6 -19 -6q-14 0 -23 11q-6 8 -6 17q0 14 11 25l157 174q15 16 40 16q24 0 41 -17t17 -41z" />
    <glyph glyph-name="acircumflex" unicode="&#xe2;" horiz-adv-x="722" 
d="M617 490v-443q0 -19 -13.5 -33t-33.5 -14t-33.5 14t-13.5 33v18q-72 -70 -179 -70q-115 0 -194.5 79t-79.5 194q0 114 80 194t193 80q108 0 180 -70v18q0 20 13.5 33.5t33.5 13.5q19 0 32 -13.5t15 -33.5zM523 269q0 81 -50 134.5t-129 53.5q-78 0 -129 -54.5t-51 -133.5
q0 -80 51 -134.5t128 -54.5q80 0 130 54.5t50 134.5zM548 611q-9 -11 -23 -11q-10 0 -19 6l-160 116l-160 -116q-9 -6 -19 -6q-14 0 -23 11q-6 8 -6 17q0 14 11 25l151 167q21 23 46 23q26 0 46 -23l151 -167q11 -11 11 -25q0 -10 -6 -17z" />
    <glyph glyph-name="atilde" unicode="&#xe3;" horiz-adv-x="722" 
d="M617 490v-443q0 -19 -13.5 -33t-33.5 -14t-33.5 14t-13.5 33v18q-72 -70 -179 -70q-115 0 -194.5 79t-79.5 194q0 114 80 194t193 80q108 0 180 -70v18q0 20 13.5 33.5t33.5 13.5q19 0 32 -13.5t15 -33.5zM523 269q0 81 -50 134.5t-129 53.5q-78 0 -129 -54.5t-51 -133.5
q0 -80 51 -134.5t128 -54.5q80 0 130 54.5t50 134.5zM566 737q0 -29 -39 -68q-37 -36 -96 -36q-29 0 -105 26q-53 19 -67 19q-8 0 -17 -3q-28 -9 -44 -31q-11 -15 -31 -15q-17 0 -28.5 12.5t-11.5 27.5q0 29 39 66q37 36 95 36q30 0 106 -26q50 -18 67 -18q5 0 17 2
q24 8 44 33q13 14 32 14q17 0 28 -12.5t11 -26.5z" />
    <glyph glyph-name="adieresis" unicode="&#xe4;" horiz-adv-x="722" 
d="M617 490v-443q0 -19 -13.5 -33t-33.5 -14t-33.5 14t-13.5 33v18q-72 -70 -179 -70q-115 0 -194.5 79t-79.5 194q0 114 80 194t193 80q108 0 180 -70v18q0 20 13.5 33.5t33.5 13.5q19 0 32 -13.5t15 -33.5zM523 269q0 81 -50 134.5t-129 53.5q-78 0 -129 -54.5t-51 -133.5
q0 -80 51 -134.5t128 -54.5q80 0 130 54.5t50 134.5zM553 704q0 -29 -21.5 -50.5t-50.5 -21.5t-50.5 21.5t-21.5 50.5t21.5 50.5t50.5 21.5t50.5 -21.5t21.5 -50.5zM284 704q0 -29 -21.5 -50.5t-50.5 -21.5t-50.5 21.5t-21.5 50.5t21.5 50.5t50.5 21.5t50.5 -21.5
t21.5 -50.5z" />
    <glyph glyph-name="aring" unicode="&#xe5;" horiz-adv-x="722" 
d="M617 490v-443q0 -19 -13.5 -33t-33.5 -14t-33.5 14t-13.5 33v18q-72 -70 -179 -70q-115 0 -194.5 79t-79.5 194q0 114 80 194t193 80q108 0 180 -70v18q0 20 13.5 33.5t33.5 13.5q19 0 32 -13.5t15 -33.5zM523 269q0 81 -50 134.5t-129 53.5q-78 0 -129 -54.5t-51 -133.5
q0 -80 51 -134.5t128 -54.5q80 0 130 54.5t50 134.5zM474 730q0 -55 -40 -92.5t-95 -37.5t-94.5 37.5t-39.5 92.5q0 54 39.5 92t94.5 38t95 -37.5t40 -92.5zM412 730q0 30 -21.5 51.5t-51.5 21.5t-51.5 -21.5t-21.5 -51.5t21.5 -51.5t51.5 -21.5t51.5 21.5t21.5 51.5z" />
    <glyph glyph-name="ae" unicode="&#xe6;" horiz-adv-x="999" 
d="M930 269q0 -18 -13 -30.5t-30 -12.5h-354q12 -66 52.5 -106.5t100.5 -40.5q71 0 129 59q14 16 34 16q18 0 29.5 -12.5t11.5 -30.5t-14 -32q-75 -84 -189 -84q-111 0 -182 85q-28 -24 -69 -46q-25 -14 -39 -20t-42.5 -12.5t-63.5 -6.5q-95 0 -158 40t-63 121q0 70 49 113
q48 42 127 42h188v49q0 58 -30 78t-91 20q-70 0 -134 -41q-9 -6 -22 -6q-17 0 -29 12t-12 30q0 20 20 34q84 55 173 55q71 0 117 -19.5t75 -65.5q63 85 185 85q108 0 176 -79t68 -194zM835 311q-9 65 -48.5 106t-99.5 41t-103 -40.5t-51 -106.5h302zM433 126l1 103h-175
q-94 0 -94 -73q0 -36 32.5 -56t93.5 -20q40 0 70.5 8.5t42 15.5t29.5 22z" />
    <glyph glyph-name="ccedilla" unicode="&#xe7;" horiz-adv-x="637" 
d="M572 403q0 -19 -13.5 -32t-31.5 -13q-21 0 -38 22q-58 77 -145 77q-78 0 -129 -54.5t-51 -133.5q0 -80 51 -134.5t128 -54.5q91 0 145 77q15 22 38 22q19 0 32 -13t13 -32q0 -15 -9 -27q-37 -52 -94.5 -82t-123.5 -30h-5v-37q16 4 36 4q33 0 55.5 -23t22.5 -56
q0 -39 -25 -61q-29 -26 -81 -26q-39 0 -79 15q-25 10 -34.5 18.5t-9.5 20.5q0 11 8 19q7 7 18 7q7 0 13 -3q20 -10 28 -13q27 -10 49 -10q46 0 46 34q0 15 -12 23q-13 9 -37 9q-6 0 -12.5 -1t-7.5 -1q-12 0 -12 14v70q-101 14 -168 90.5t-67 179.5q0 114 79.5 194t193.5 80
q67 0 125.5 -30t94.5 -82q9 -14 9 -27z" />
    <glyph glyph-name="egrave" unicode="&#xe8;" horiz-adv-x="655" 
d="M586 278q0 -18 -12 -31t-32 -13h-376q9 -66 55 -110t111 -44q80 0 141 61q18 18 35 18q18 0 30 -12.5t12 -31.5q0 -16 -13 -31q-80 -89 -200 -89q-114 0 -190.5 78t-76.5 195q0 119 75.5 196.5t188.5 77.5q108 0 180 -75t72 -189zM491 315q-7 63 -50 103.5t-106 40.5
t-110.5 -39.5t-56.5 -104.5h323zM482 611q-9 -11 -23 -11q-10 0 -19 6l-198 135q-20 14 -20 44q0 24 17 41t41 17q25 0 40 -16l157 -174q11 -11 11 -25q0 -10 -6 -17z" />
    <glyph glyph-name="eacute" unicode="&#xe9;" horiz-adv-x="655" 
d="M586 278q0 -18 -12 -31t-32 -13h-376q9 -66 55 -110t111 -44q80 0 141 61q18 18 35 18q18 0 30 -12.5t12 -31.5q0 -16 -13 -31q-80 -89 -200 -89q-114 0 -190.5 78t-76.5 195q0 119 75.5 196.5t188.5 77.5q108 0 180 -75t72 -189zM491 315q-7 63 -50 103.5t-106 40.5
t-110.5 -39.5t-56.5 -104.5h323zM449 785q0 -30 -20 -44l-198 -135q-9 -6 -19 -6q-14 0 -23 11q-6 8 -6 17q0 14 11 25l157 174q15 16 40 16q24 0 41 -17t17 -41z" />
    <glyph glyph-name="ecircumflex" unicode="&#xea;" horiz-adv-x="655" 
d="M586 278q0 -18 -12 -31t-32 -13h-376q9 -66 55 -110t111 -44q80 0 141 61q18 18 35 18q18 0 30 -12.5t12 -31.5q0 -16 -13 -31q-80 -89 -200 -89q-114 0 -190.5 78t-76.5 195q0 119 75.5 196.5t188.5 77.5q108 0 180 -75t72 -189zM491 315q-7 63 -50 103.5t-106 40.5
t-110.5 -39.5t-56.5 -104.5h323zM537 611q-9 -11 -23 -11q-10 0 -19 6l-160 116l-160 -116q-9 -6 -19 -6q-14 0 -23 11q-6 8 -6 17q0 14 11 25l151 167q21 23 46 23q26 0 46 -23l151 -167q11 -11 11 -25q0 -10 -6 -17z" />
    <glyph glyph-name="edieresis" unicode="&#xeb;" horiz-adv-x="655" 
d="M586 278q0 -18 -12 -31t-32 -13h-376q9 -66 55 -110t111 -44q80 0 141 61q18 18 35 18q18 0 30 -12.5t12 -31.5q0 -16 -13 -31q-80 -89 -200 -89q-114 0 -190.5 78t-76.5 195q0 119 75.5 196.5t188.5 77.5q108 0 180 -75t72 -189zM491 315q-7 63 -50 103.5t-106 40.5
t-110.5 -39.5t-56.5 -104.5h323zM542 704q0 -29 -21.5 -50.5t-50.5 -21.5t-50.5 21.5t-21.5 50.5t21.5 50.5t50.5 21.5t50.5 -21.5t21.5 -50.5zM273 704q0 -29 -21.5 -50.5t-50.5 -21.5t-50.5 21.5t-21.5 50.5t21.5 50.5t50.5 21.5t50.5 -21.5t21.5 -50.5z" />
    <glyph glyph-name="igrave" unicode="&#xec;" horiz-adv-x="314" 
d="M204 490v-443q0 -19 -14 -33t-33 -14t-33 14t-14 33v443q0 20 14 33.5t33 13.5t33 -13.5t14 -33.5zM284 611q-9 -11 -23 -11q-10 0 -19 6l-198 135q-20 14 -20 44q0 24 17 41t41 17q25 0 40 -16l157 -174q11 -11 11 -25q0 -10 -6 -17z" />
    <glyph glyph-name="iacute" unicode="&#xed;" horiz-adv-x="314" 
d="M204 490v-443q0 -19 -14 -33t-33 -14t-33 14t-14 33v443q0 20 14 33.5t33 13.5t33 -13.5t14 -33.5zM290 785q0 -30 -20 -44l-198 -135q-9 -6 -19 -6q-14 0 -23 11q-6 8 -6 17q0 14 11 25l157 174q15 16 40 16q24 0 41 -17t17 -41z" />
    <glyph glyph-name="icircumflex" unicode="&#xee;" horiz-adv-x="314" 
d="M204 490v-443q0 -19 -14 -33t-33 -14t-33 14t-14 33v443q0 20 14 33.5t33 13.5t33 -13.5t14 -33.5zM359 612q-9 -11 -23 -11q-10 0 -19 6l-160 116l-160 -116q-9 -6 -19 -6q-14 0 -23 11q-6 8 -6 17q0 14 11 25l151 167q21 23 46 23q26 0 46 -23l151 -167q11 -11 11 -25
q0 -9 -6 -17z" />
    <glyph glyph-name="idieresis" unicode="&#xef;" horiz-adv-x="314" 
d="M204 490v-443q0 -19 -14 -33t-33 -14t-33 14t-14 33v443q0 20 14 33.5t33 13.5t33 -13.5t14 -33.5zM364 704q0 -29 -21.5 -50.5t-50.5 -21.5t-50.5 21.5t-21.5 50.5t21.5 50.5t50.5 21.5t50.5 -21.5t21.5 -50.5zM95 704q0 -29 -21.5 -50.5t-50.5 -21.5t-50.5 21.5
t-21.5 50.5t21.5 50.5t50.5 21.5t50.5 -21.5t21.5 -50.5z" />
    <glyph glyph-name="eth" unicode="&#xf0;" horiz-adv-x="741" 
d="M643 271q0 -122 -83 -201.5t-198 -79.5q-114 0 -198 82t-84 195q0 120 81 198t200 78q80 0 140 -47q-49 102 -162 169l-90 -64q-11 -7 -21 -7q-18 0 -28 15q-7 11 -7 21q0 18 15 28l59 42q-39 15 -69 20q-17 2 -29 15.5t-12 31.5q0 19 13.5 32.5t33.5 13.5q7 0 13 -1
q59 -10 135 -50l97 69q11 7 21 7q18 0 28 -15q7 -10 7 -21q0 -18 -15 -28l-73 -52q45 -33 70 -58q156 -156 156 -393zM543 264q0 87 -51 139t-130 52t-130.5 -52t-51.5 -135q0 -79 52 -133.5t129 -54.5q79 0 130.5 52.5t51.5 131.5z" />
    <glyph glyph-name="ntilde" unicode="&#xf1;" horiz-adv-x="713" 
d="M618 276v-229q0 -19 -14 -33t-33 -14t-33 14t-14 33v233q0 57 -12 90q-31 87 -137 87q-50 0 -88 -22t-58 -55q-30 -49 -30 -108v-225q0 -19 -13.5 -33t-33.5 -14t-33.5 14t-13.5 33v443q0 20 13.5 33.5t33.5 13.5t33.5 -13.5t13.5 -33.5v-31q68 83 179 83q68 0 121 -27.5
t83 -75.5q36 -60 36 -163zM586 737q0 -29 -39 -68q-37 -36 -96 -36q-29 0 -105 26q-53 19 -67 19q-8 0 -17 -3q-28 -9 -44 -31q-11 -15 -31 -15q-17 0 -28.5 12.5t-11.5 27.5q0 29 39 66q37 36 95 36q30 0 106 -26q50 -18 67 -18q5 0 17 2q24 8 44 33q13 14 32 14
q17 0 28 -12.5t11 -26.5z" />
    <glyph glyph-name="ograve" unicode="&#xf2;" horiz-adv-x="688" 
d="M618 269q0 -114 -80.5 -194t-194.5 -80t-193.5 79.5t-79.5 193.5t79.5 194t193.5 80t194.5 -79.5t80.5 -193.5zM524 269q0 79 -51.5 133.5t-129.5 54.5t-128.5 -54.5t-50.5 -133.5q0 -80 50.5 -134.5t128.5 -54.5t129.5 54.5t51.5 134.5zM490 611q-9 -11 -23 -11
q-10 0 -19 6l-198 135q-20 14 -20 44q0 24 17 41t41 17q25 0 40 -16l157 -174q11 -11 11 -25q0 -10 -6 -17z" />
    <glyph glyph-name="oacute" unicode="&#xf3;" horiz-adv-x="688" 
d="M618 269q0 -114 -80.5 -194t-194.5 -80t-193.5 79.5t-79.5 193.5t79.5 194t193.5 80t194.5 -79.5t80.5 -193.5zM524 269q0 79 -51.5 133.5t-129.5 54.5t-128.5 -54.5t-50.5 -133.5q0 -80 50.5 -134.5t128.5 -54.5t129.5 54.5t51.5 134.5zM457 785q0 -30 -20 -44
l-198 -135q-9 -6 -19 -6q-14 0 -23 11q-6 8 -6 17q0 14 11 25l157 174q15 16 40 16q24 0 41 -17t17 -41z" />
    <glyph glyph-name="ocircumflex" unicode="&#xf4;" horiz-adv-x="688" 
d="M618 269q0 -114 -80.5 -194t-194.5 -80t-193.5 79.5t-79.5 193.5t79.5 194t193.5 80t194.5 -79.5t80.5 -193.5zM524 269q0 79 -51.5 133.5t-129.5 54.5t-128.5 -54.5t-50.5 -133.5q0 -80 50.5 -134.5t128.5 -54.5t129.5 54.5t51.5 134.5zM546 611q-9 -11 -23 -11
q-10 0 -19 6l-160 116l-160 -116q-9 -6 -19 -6q-14 0 -23 11q-6 8 -6 17q0 14 11 25l151 167q21 23 46 23q26 0 46 -23l151 -167q11 -11 11 -25q0 -10 -6 -17z" />
    <glyph glyph-name="otilde" unicode="&#xf5;" horiz-adv-x="688" 
d="M618 269q0 -114 -80.5 -194t-194.5 -80t-193.5 79.5t-79.5 193.5t79.5 194t193.5 80t194.5 -79.5t80.5 -193.5zM524 269q0 79 -51.5 133.5t-129.5 54.5t-128.5 -54.5t-50.5 -133.5q0 -80 50.5 -134.5t128.5 -54.5t129.5 54.5t51.5 134.5zM563 737q0 -29 -39 -68
q-37 -36 -96 -36q-29 0 -105 26q-53 19 -67 19q-8 0 -17 -3q-28 -9 -44 -31q-11 -15 -31 -15q-17 0 -28.5 12.5t-11.5 27.5q0 29 39 66q37 36 95 36q30 0 106 -26q50 -18 67 -18q5 0 17 2q24 8 44 33q13 14 32 14q17 0 28 -12.5t11 -26.5z" />
    <glyph glyph-name="odieresis" unicode="&#xf6;" horiz-adv-x="688" 
d="M618 269q0 -114 -80.5 -194t-194.5 -80t-193.5 79.5t-79.5 193.5t79.5 194t193.5 80t194.5 -79.5t80.5 -193.5zM524 269q0 79 -51.5 133.5t-129.5 54.5t-128.5 -54.5t-50.5 -133.5q0 -80 50.5 -134.5t128.5 -54.5t129.5 54.5t51.5 134.5zM550 704q0 -29 -21.5 -50.5
t-50.5 -21.5t-50.5 21.5t-21.5 50.5t21.5 50.5t50.5 21.5t50.5 -21.5t21.5 -50.5zM281 704q0 -29 -21.5 -50.5t-50.5 -21.5t-50.5 21.5t-21.5 50.5t21.5 50.5t50.5 21.5t50.5 -21.5t21.5 -50.5z" />
    <glyph glyph-name="divide" unicode="&#xf7;" 
d="M434 463q0 -35 -25 -60t-60 -25t-60 25t-25 60t25 60t60 25t60 -25t25 -60zM631 275q0 -19 -13 -32t-32 -13h-476q-19 0 -32 13t-13 32t13 32t32 13h476q19 0 32 -13t13 -32zM434 87q0 -35 -25 -60t-60 -25t-60 25t-25 60t25 60t60 25t60 -25t25 -60z" />
    <glyph glyph-name="oslash" unicode="&#xf8;" horiz-adv-x="688" 
d="M537 476l-6 -8q87 -81 87 -199q0 -114 -80.5 -194t-194.5 -80q-66 0 -120 27l-5 -8q-12 -18 -30 -18q-13 0 -26 8q-17 11 -17 32q0 15 7 24l5 7q-87 81 -87 201q0 114 79.5 194t193.5 80q65 0 121 -28l6 8q14 19 33 19q10 0 23 -8q20 -15 20 -33q0 -10 -9 -24zM164 269
q0 -75 44 -127l207 300q-33 15 -72 15q-78 0 -128.5 -54.5t-50.5 -133.5zM524 269q0 73 -44 125l-207 -300q33 -14 70 -14q78 0 129.5 54.5t51.5 134.5z" />
    <glyph glyph-name="ugrave" unicode="&#xf9;" horiz-adv-x="708" 
d="M90 261v229q0 20 14 33.5t33 13.5t33 -13.5t14 -33.5v-233q0 -57 12 -90q31 -87 137 -87q50 0 88 22t58 55q30 49 30 108v225q0 20 13.5 33.5t33.5 13.5t33.5 -13.5t13.5 -33.5v-443q0 -19 -13.5 -33t-33.5 -14t-33.5 14t-13.5 33v31q-68 -83 -179 -83q-68 0 -121 27.5
t-83 75.5q-36 60 -36 163zM482 611q-9 -11 -23 -11q-10 0 -19 6l-198 135q-20 14 -20 44q0 24 17 41t41 17q25 0 40 -16l157 -174q11 -11 11 -25q0 -10 -6 -17z" />
    <glyph glyph-name="uacute" unicode="&#xfa;" horiz-adv-x="708" 
d="M90 261v229q0 20 14 33.5t33 13.5t33 -13.5t14 -33.5v-233q0 -57 12 -90q31 -87 137 -87q50 0 88 22t58 55q30 49 30 108v225q0 20 13.5 33.5t33.5 13.5t33.5 -13.5t13.5 -33.5v-443q0 -19 -13.5 -33t-33.5 -14t-33.5 14t-13.5 33v31q-68 -83 -179 -83q-68 0 -121 27.5
t-83 75.5q-36 60 -36 163zM457 785q0 -30 -20 -44l-198 -135q-9 -6 -19 -6q-14 0 -23 11q-6 8 -6 17q0 14 11 25l157 174q15 16 40 16q24 0 41 -17t17 -41z" />
    <glyph glyph-name="ucircumflex" unicode="&#xfb;" horiz-adv-x="708" 
d="M90 261v229q0 20 14 33.5t33 13.5t33 -13.5t14 -33.5v-233q0 -57 12 -90q31 -87 137 -87q50 0 88 22t58 55q30 49 30 108v225q0 20 13.5 33.5t33.5 13.5t33.5 -13.5t13.5 -33.5v-443q0 -19 -13.5 -33t-33.5 -14t-33.5 14t-13.5 33v31q-68 -83 -179 -83q-68 0 -121 27.5
t-83 75.5q-36 60 -36 163zM546 611q-9 -11 -23 -11q-10 0 -19 6l-160 116l-160 -116q-9 -6 -19 -6q-14 0 -23 11q-6 8 -6 17q0 14 11 25l151 167q21 23 46 23q26 0 46 -23l151 -167q11 -11 11 -25q0 -10 -6 -17z" />
    <glyph glyph-name="udieresis" unicode="&#xfc;" horiz-adv-x="708" 
d="M90 261v229q0 20 14 33.5t33 13.5t33 -13.5t14 -33.5v-233q0 -57 12 -90q31 -87 137 -87q50 0 88 22t58 55q30 49 30 108v225q0 20 13.5 33.5t33.5 13.5t33.5 -13.5t13.5 -33.5v-443q0 -19 -13.5 -33t-33.5 -14t-33.5 14t-13.5 33v31q-68 -83 -179 -83q-68 0 -121 27.5
t-83 75.5q-36 60 -36 163zM552 704q0 -29 -21.5 -50.5t-50.5 -21.5t-50.5 21.5t-21.5 50.5t21.5 50.5t50.5 21.5t50.5 -21.5t21.5 -50.5zM283 704q0 -29 -21.5 -50.5t-50.5 -21.5t-50.5 21.5t-21.5 50.5t21.5 50.5t50.5 21.5t50.5 -21.5t21.5 -50.5z" />
    <glyph glyph-name="yacute" unicode="&#xfd;" horiz-adv-x="653" 
d="M134 511l178 -361q16 -31 18 -40h2q2 9 18 40l179 361q12 26 41 26q10 0 22 -5q26 -13 26 -42q0 -10 -6 -21l-295 -576q-24 -46 -65 -71.5t-89 -25.5q-64 0 -117 43q-17 14 -17 34q0 18 12.5 31t30.5 13q15 0 29 -11q30 -24 58 -24q56 0 83 52l44 86q-9 6 -18 23
l-218 426q-5 10 -5 21q0 29 26 42q12 5 21 5q30 0 42 -26zM443 785q0 -30 -20 -44l-198 -135q-9 -6 -19 -6q-14 0 -23 11q-6 8 -6 17q0 14 11 25l157 174q15 16 40 16q24 0 41 -17t17 -41z" />
    <glyph glyph-name="thorn" unicode="&#xfe;" horiz-adv-x="732" 
d="M662 269q0 -114 -80 -194t-193 -80q-108 0 -180 70v-204q0 -19 -13.5 -33t-33.5 -14t-33.5 14t-13.5 33v815q0 20 13.5 33.5t33.5 13.5t33.5 -13.5t13.5 -33.5v-204q72 70 179 70q114 0 194 -80t80 -193zM388 80q79 0 129.5 55t50.5 133q0 80 -51 134.5t-128 54.5
q-78 0 -129 -54.5t-51 -133.5q0 -80 51 -134.5t128 -54.5z" />
    <glyph glyph-name="ydieresis" unicode="&#xff;" horiz-adv-x="653" 
d="M134 511l178 -361q16 -31 18 -40h2q2 9 18 40l179 361q12 26 41 26q10 0 22 -5q26 -13 26 -42q0 -10 -6 -21l-295 -576q-24 -46 -65 -71.5t-89 -25.5q-64 0 -117 43q-17 14 -17 34q0 18 12.5 31t30.5 13q15 0 29 -11q30 -24 58 -24q56 0 83 52l44 86q-9 6 -18 23
l-218 426q-5 10 -5 21q0 29 26 42q12 5 21 5q30 0 42 -26zM539 704q0 -29 -21.5 -50.5t-50.5 -21.5t-50.5 21.5t-21.5 50.5t21.5 50.5t50.5 21.5t50.5 -21.5t21.5 -50.5zM270 704q0 -29 -21.5 -50.5t-50.5 -21.5t-50.5 21.5t-21.5 50.5t21.5 50.5t50.5 21.5t50.5 -21.5
t21.5 -50.5z" />
    <glyph glyph-name="Amacron" unicode="&#x100;" horiz-adv-x="760" 
d="M48 69l269 622q13 32 44 32h38q30 0 43 -32l271 -622q4 -12 4 -19q0 -33 -31 -46q-8 -4 -19 -4q-34 0 -47 30l-57 136h-371l-56 -136q-12 -30 -45 -30q-11 0 -19 4q-29 12 -29 45q0 8 5 20zM526 256l-148 359l-148 -359h296zM592 880q0 -19 -13 -32t-32 -13h-336
q-19 0 -32 13t-13 32t13 32t32 13h336q19 0 32 -13t13 -32z" />
    <glyph glyph-name="amacron" unicode="&#x101;" horiz-adv-x="722" 
d="M617 490v-443q0 -19 -13.5 -33t-33.5 -14t-33.5 14t-13.5 33v18q-72 -70 -179 -70q-115 0 -194.5 79t-79.5 194q0 114 80 194t193 80q108 0 180 -70v18q0 20 13.5 33.5t33.5 13.5q19 0 32 -13.5t15 -33.5zM523 269q0 81 -50 134.5t-129 53.5q-78 0 -129 -54.5t-51 -133.5
q0 -80 51 -134.5t128 -54.5q80 0 130 54.5t50 134.5zM565 704q0 -19 -13 -32t-32 -13h-336q-19 0 -32 13t-13 32t13 32t32 13h336q19 0 32 -13t13 -32z" />
    <glyph glyph-name="Abreve" unicode="&#x102;" horiz-adv-x="760" 
d="M48 69l269 622q13 32 44 32h38q30 0 43 -32l271 -622q4 -12 4 -19q0 -33 -31 -46q-8 -4 -19 -4q-34 0 -47 30l-57 136h-371l-56 -136q-12 -30 -45 -30q-11 0 -19 4q-29 12 -29 45q0 8 5 20zM526 256l-148 359l-148 -359h296zM377 789q-91 0 -146 43t-55 104q0 16 10 27.5
t26 11.5q30 0 40 -34q10 -32 37 -50t88 -18t88 18t37 50q10 34 40 34q16 0 26 -11.5t10 -27.5q0 -61 -55 -104t-146 -43z" />
    <glyph glyph-name="abreve" unicode="&#x103;" horiz-adv-x="722" 
d="M617 490v-443q0 -19 -13.5 -33t-33.5 -14t-33.5 14t-13.5 33v18q-72 -70 -179 -70q-115 0 -194.5 79t-79.5 194q0 114 80 194t193 80q108 0 180 -70v18q0 20 13.5 33.5t33.5 13.5q19 0 32 -13.5t15 -33.5zM523 269q0 81 -50 134.5t-129 53.5q-78 0 -129 -54.5t-51 -133.5
q0 -80 51 -134.5t128 -54.5q80 0 130 54.5t50 134.5zM557 817q0 -69 -54.5 -118t-151.5 -49t-151.5 49t-54.5 118q0 16 11.5 27.5t27.5 11.5t27.5 -11.5t11.5 -27.5q0 -14 4.5 -26t17 -26t40 -22.5t66.5 -8.5q74 0 101 25.5t27 57.5q0 16 11.5 27.5t27.5 11.5t27.5 -11.5
t11.5 -27.5z" />
    <glyph glyph-name="Aogonek" unicode="&#x104;" horiz-adv-x="760" 
d="M724 -158q0 -16 -16 -25q-36 -20 -80 -20q-50 0 -76.5 27t-26.5 69q0 44 35 82q23 25 65 46q-4 7 -5 9l-57 136h-371l-56 -136q-12 -30 -45 -30q-11 0 -19 4q-29 12 -29 45q0 8 5 20l269 622q13 32 44 32h38q30 0 43 -32l271 -622q4 -12 4 -19q0 -33 -31 -46
q-8 -4 -19 -4t-18 3q-17 -13 -38 -38q-23 -27 -23 -60q0 -23 12.5 -36.5t34.5 -13.5t50 12q9 3 15 3q9 0 16.5 -9t7.5 -19zM526 256l-148 359l-148 -359h296z" />
    <glyph glyph-name="aogonek" unicode="&#x105;" horiz-adv-x="722" 
d="M629 -158q0 -16 -16 -25q-36 -20 -80 -20q-50 0 -76.5 27t-26.5 69q0 44 35 82q23 25 65 46q-7 10 -7 26v18q-72 -70 -179 -70q-115 0 -194.5 79t-79.5 194q0 114 80 194t193 80q108 0 180 -70v18q0 20 13.5 33.5t33.5 13.5q19 0 32 -13.5t15 -33.5v-443q0 -19 -13.5 -33
t-33.5 -14q-11 0 -16 2q-18 -14 -38 -37q-23 -27 -23 -60q0 -23 12.5 -36.5t34.5 -13.5t50 12q9 3 15 3q9 0 16.5 -9t7.5 -19zM523 269q0 81 -50 134.5t-129 53.5q-78 0 -129 -54.5t-51 -133.5q0 -80 51 -134.5t128 -54.5q80 0 130 54.5t50 134.5z" />
    <glyph glyph-name="Cacute" unicode="&#x106;" horiz-adv-x="825" 
d="M750 556q0 -19 -13 -32.5t-32 -13.5q-23 0 -40 22q-83 113 -221 113q-118 0 -191 -79t-73 -204t73 -204t191 -79q73 0 124 28.5t98 87.5q16 19 38 19q20 0 33 -13t13 -33q0 -16 -9 -29q-106 -149 -297 -149q-157 0 -260.5 105.5t-103.5 266.5t103.5 266t260.5 105
q95 0 172.5 -40t125.5 -111q8 -12 8 -26zM306 846l190 111q24 14 43 14q21 0 37 -16t16 -42q0 -43 -43 -56l-222 -67q-3 -1 -12 -1q-13 0 -20.5 7.5t-7.5 19.5q0 20 19 30z" />
    <glyph glyph-name="cacute" unicode="&#x107;" horiz-adv-x="637" 
d="M572 402q0 -18 -14 -31t-31 -13q-21 0 -38 22q-58 77 -145 77q-78 0 -129 -54.5t-51 -133.5q0 -80 51 -134.5t128 -54.5q91 0 145 77q15 22 38 22q19 0 32 -13t13 -32q0 -15 -9 -27q-37 -52 -94.5 -82t-123.5 -30q-114 0 -194 80t-80 193q0 114 79.5 194t193.5 80
q67 0 125.5 -30t94.5 -82q9 -14 9 -28zM469 785q0 -30 -20 -44l-198 -135q-9 -6 -19 -6q-14 0 -23 11q-6 8 -6 17q0 14 11 25l157 174q15 16 40 16q24 0 41 -17t17 -41z" />
    <glyph glyph-name="Ccircumflex" unicode="&#x108;" horiz-adv-x="825" 
d="M750 556q0 -19 -13 -32.5t-32 -13.5q-23 0 -40 22q-83 113 -221 113q-118 0 -191 -79t-73 -204t73 -204t191 -79q73 0 124 28.5t98 87.5q16 19 38 19q20 0 33 -13t13 -33q0 -16 -9 -29q-106 -149 -297 -149q-157 0 -260.5 105.5t-103.5 266.5t103.5 266t260.5 105
q95 0 172.5 -40t125.5 -111q8 -12 8 -26zM437 976q15 0 36 -16l162 -119q18 -14 18 -28q0 -13 -8.5 -20.5t-18.5 -7.5t-23 5l-166 70l-166 -70q-12 -5 -23 -5q-10 0 -18.5 7.5t-8.5 20.5q0 14 18 28l162 119q21 16 36 16z" />
    <glyph glyph-name="ccircumflex" unicode="&#x109;" horiz-adv-x="637" 
d="M572 402q0 -18 -14 -31t-31 -13q-21 0 -38 22q-58 77 -145 77q-78 0 -129 -54.5t-51 -133.5q0 -80 51 -134.5t128 -54.5q91 0 145 77q15 22 38 22q19 0 32 -13t13 -32q0 -15 -9 -27q-37 -52 -94.5 -82t-123.5 -30q-114 0 -194 80t-80 193q0 114 79.5 194t193.5 80
q67 0 125.5 -30t94.5 -82q9 -14 9 -28zM542 611q-9 -11 -23 -11q-10 0 -19 6l-160 116l-160 -116q-9 -6 -19 -6q-14 0 -23 11q-6 8 -6 17q0 14 11 25l151 167q21 23 46 23q26 0 46 -23l151 -167q11 -11 11 -25q0 -10 -6 -17z" />
    <glyph glyph-name="Cdotaccent" unicode="&#x10a;" horiz-adv-x="825" 
d="M750 556q0 -19 -13 -32.5t-32 -13.5q-23 0 -40 22q-83 113 -221 113q-118 0 -191 -79t-73 -204t73 -204t191 -79q73 0 124 28.5t98 87.5q16 19 38 19q20 0 33 -13t13 -33q0 -16 -9 -29q-106 -149 -297 -149q-157 0 -260.5 105.5t-103.5 266.5t103.5 266t260.5 105
q95 0 172.5 -40t125.5 -111q8 -12 8 -26zM509 880q0 -29 -21.5 -50.5t-50.5 -21.5t-50.5 21.5t-21.5 50.5t21.5 50.5t50.5 21.5t50.5 -21.5t21.5 -50.5z" />
    <glyph glyph-name="cdotaccent" unicode="&#x10b;" horiz-adv-x="637" 
d="M572 402q0 -18 -14 -31t-31 -13q-21 0 -38 22q-58 77 -145 77q-78 0 -129 -54.5t-51 -133.5q0 -80 51 -134.5t128 -54.5q91 0 145 77q15 22 38 22q19 0 32 -13t13 -32q0 -15 -9 -27q-37 -52 -94.5 -82t-123.5 -30q-114 0 -194 80t-80 193q0 114 79.5 194t193.5 80
q67 0 125.5 -30t94.5 -82q9 -14 9 -28zM409 704q0 -29 -21.5 -50.5t-50.5 -21.5t-50.5 21.5t-21.5 50.5t21.5 50.5t50.5 21.5t50.5 -21.5t21.5 -50.5z" />
    <glyph glyph-name="Ccaron" unicode="&#x10c;" horiz-adv-x="825" 
d="M750 556q0 -19 -13 -32.5t-32 -13.5q-23 0 -40 22q-83 113 -221 113q-118 0 -191 -79t-73 -204t73 -204t191 -79q73 0 124 28.5t98 87.5q16 19 38 19q20 0 33 -13t13 -33q0 -16 -9 -29q-106 -149 -297 -149q-157 0 -260.5 105.5t-103.5 266.5t103.5 266t260.5 105
q95 0 172.5 -40t125.5 -111q8 -12 8 -26zM441 784q-15 0 -36 16l-162 119q-18 14 -18 28q0 13 8.5 20.5t18.5 7.5t23 -5l166 -70l166 70q12 5 23 5q10 0 18.5 -7.5t8.5 -20.5q0 -14 -18 -28l-162 -119q-21 -16 -36 -16z" />
    <glyph glyph-name="ccaron" unicode="&#x10d;" horiz-adv-x="637" 
d="M572 402q0 -18 -14 -31t-31 -13q-21 0 -38 22q-58 77 -145 77q-78 0 -129 -54.5t-51 -133.5q0 -80 51 -134.5t128 -54.5q91 0 145 77q15 22 38 22q19 0 32 -13t13 -32q0 -15 -9 -27q-37 -52 -94.5 -82t-123.5 -30q-114 0 -194 80t-80 193q0 114 79.5 194t193.5 80
q67 0 125.5 -30t94.5 -82q9 -14 9 -28zM543 832q6 -7 6 -17q0 -14 -11 -25l-151 -167q-21 -23 -46 -23q-26 0 -46 23l-151 167q-11 11 -11 25q0 10 6 17q9 11 23 11q10 0 19 -6l160 -116l160 116q9 6 19 6q14 0 23 -11z" />
    <glyph glyph-name="Dcaron" unicode="&#x10e;" horiz-adv-x="797" 
d="M715 362q0 -77 -29 -147t-80 -121q-92 -94 -225 -94h-207q-20 0 -34.5 15t-14.5 35v623q0 20 14.5 35t34.5 15h207q132 0 226 -94q108 -108 108 -267zM612 362q0 126 -79 207q-62 64 -152 64h-156v-543h156q91 0 155 67q76 81 76 205zM377 784q-15 0 -36 16l-162 119
q-18 14 -18 28q0 13 8.5 20.5t18.5 7.5t23 -5l166 -70l166 70q13 5 23 5t18.5 -7.5t8.5 -20.5q0 -14 -18 -28l-162 -119q-21 -16 -36 -16z" />
    <glyph glyph-name="dcaron" unicode="&#x10f;" horiz-adv-x="808" 
d="M617 47q0 -19 -13.5 -33t-33.5 -14t-33.5 14t-13.5 33v18q-72 -70 -179 -70q-115 0 -194.5 79.5t-79.5 193.5t79 194t194 80q108 0 180 -70v204q0 20 13.5 33.5t33.5 13.5t33.5 -13.5t13.5 -33.5v-629zM523 269q0 80 -50 134t-129 54q-78 0 -129 -54.5t-51 -133.5
q0 -80 51 -134.5t128 -54.5q80 0 130 54t50 135zM828 652q0 -40 -30 -66q-23 -21 -55 -37q-13 -7 -25 -7q-8 0 -15 6t-7 15q0 14 14 22q32 22 32 31q0 8 -10 12q-32 12 -32 43q0 21 18 36.5t44 15.5q29 0 47.5 -20t18.5 -51z" />
    <glyph glyph-name="Dcroat" unicode="&#x110;" horiz-adv-x="810" 
d="M728 362q0 -77 -29 -147t-80 -121q-92 -94 -220 -94h-212q-20 0 -34.5 15t-14.5 35v285h-66q-19 0 -32 13t-13 32t13 32t32 13h66v248q0 20 14.5 35t34.5 15h212q127 0 221 -94q108 -108 108 -267zM625 362q0 126 -79 207q-62 64 -147 64h-161v-208h169q19 0 32 -13
t13 -32t-13 -32t-32 -13h-169v-245h161q86 0 150 67q76 81 76 205z" />
    <glyph glyph-name="dcroat" unicode="&#x111;" horiz-adv-x="722" 
d="M617 47q0 -19 -13.5 -33t-33.5 -14t-33.5 14t-13.5 33v18q-72 -70 -179 -70q-115 0 -194.5 79t-79.5 191q0 113 79 191t194 78q108 0 180 -70v109h-161q-17 0 -29.5 12t-12.5 30q0 17 12.5 29.5t29.5 12.5h161v19q0 20 13.5 33.5t33.5 13.5t33.5 -13.5t13.5 -33.5v-19h61
q17 0 29.5 -12.5t12.5 -29.5q0 -18 -12.5 -30t-29.5 -12h-61v-526zM523 266q0 77 -50.5 130t-128.5 53t-129 -53t-51 -131q0 -77 51 -131t128 -54q80 0 130 53.5t50 132.5z" />
    <glyph glyph-name="Emacron" unicode="&#x112;" horiz-adv-x="754" 
d="M692 45q0 -19 -13 -32t-32 -13h-473q-20 0 -34.5 15t-14.5 35v623q0 20 14.5 35t34.5 15h473q19 0 32 -13t13 -32t-13 -32t-32 -13h-422v-226h268q19 0 32 -13t13 -32t-13 -32t-32 -13h-268v-227h422q19 0 32 -13t13 -32zM627 880q0 -19 -13 -32t-32 -13h-336
q-19 0 -32 13t-13 32t13 32t32 13h336q19 0 32 -13t13 -32z" />
    <glyph glyph-name="emacron" unicode="&#x113;" horiz-adv-x="655" 
d="M586 278q0 -18 -12 -31t-32 -13h-376q9 -66 55 -110t111 -44q80 0 141 61q18 18 35 18q18 0 30 -12.5t12 -31.5q0 -16 -13 -31q-80 -89 -200 -89q-114 0 -190.5 78t-76.5 195q0 119 75.5 196.5t188.5 77.5q108 0 180 -75t72 -189zM491 315q-7 63 -50 103.5t-106 40.5
t-110.5 -39.5t-56.5 -104.5h323zM546 704q0 -19 -13 -32t-32 -13h-336q-19 0 -32 13t-13 32t13 32t32 13h336q19 0 32 -13t13 -32z" />
    <glyph glyph-name="Ebreve" unicode="&#x114;" horiz-adv-x="754" 
d="M692 45q0 -19 -13 -32t-32 -13h-473q-20 0 -34.5 15t-14.5 35v623q0 20 14.5 35t34.5 15h473q19 0 32 -13t13 -32t-13 -32t-32 -13h-422v-226h268q19 0 32 -13t13 -32t-13 -32t-32 -13h-268v-227h422q19 0 32 -13t13 -32zM411 789q-91 0 -146 43t-55 104q0 16 10 27.5
t26 11.5q30 0 40 -34q10 -32 37 -50t88 -18t88 18t37 50q10 34 40 34q16 0 26 -11.5t10 -27.5q0 -61 -55 -104t-146 -43z" />
    <glyph glyph-name="ebreve" unicode="&#x115;" horiz-adv-x="655" 
d="M586 278q0 -18 -12 -31t-32 -13h-376q9 -66 55 -110t111 -44q80 0 141 61q18 18 35 18q18 0 30 -12.5t12 -31.5q0 -16 -13 -31q-80 -89 -200 -89q-114 0 -190.5 78t-76.5 195q0 119 75.5 196.5t188.5 77.5q108 0 180 -75t72 -189zM491 315q-7 63 -50 103.5t-106 40.5
t-110.5 -39.5t-56.5 -104.5h323zM541 817q0 -69 -54.5 -118t-151.5 -49t-151.5 49t-54.5 118q0 16 11.5 27.5t27.5 11.5t27.5 -11.5t11.5 -27.5q0 -14 4.5 -26t17 -26t40 -22.5t66.5 -8.5q74 0 101 25.5t27 57.5q0 16 11.5 27.5t27.5 11.5t27.5 -11.5t11.5 -27.5z" />
    <glyph glyph-name="Edotaccent" unicode="&#x116;" horiz-adv-x="754" 
d="M692 45q0 -19 -13 -32t-32 -13h-473q-20 0 -34.5 15t-14.5 35v623q0 20 14.5 35t34.5 15h473q19 0 32 -13t13 -32t-13 -32t-32 -13h-422v-226h268q19 0 32 -13t13 -32t-13 -32t-32 -13h-268v-227h422q19 0 32 -13t13 -32zM485 880q0 -29 -21.5 -50.5t-50.5 -21.5
t-50.5 21.5t-21.5 50.5t21.5 50.5t50.5 21.5t50.5 -21.5t21.5 -50.5z" />
    <glyph glyph-name="edotaccent" unicode="&#x117;" horiz-adv-x="655" 
d="M586 278q0 -18 -12 -31t-32 -13h-376q9 -66 55 -110t111 -44q80 0 141 61q18 18 35 18q18 0 30 -12.5t12 -31.5q0 -16 -13 -31q-80 -89 -200 -89q-114 0 -190.5 78t-76.5 195q0 119 75.5 196.5t188.5 77.5q108 0 180 -75t72 -189zM491 315q-7 63 -50 103.5t-106 40.5
t-110.5 -39.5t-56.5 -104.5h323zM404 704q0 -29 -21.5 -50.5t-50.5 -21.5t-50.5 21.5t-21.5 50.5t21.5 50.5t50.5 21.5t50.5 -21.5t21.5 -50.5z" />
    <glyph glyph-name="Eogonek" unicode="&#x118;" horiz-adv-x="754" 
d="M523 -158q0 -16 -16 -25q-36 -20 -80 -20q-50 0 -76.5 27t-26.5 69q0 44 35 82q10 11 28 25h-213q-20 0 -34.5 15t-14.5 35v623q0 20 14.5 35t34.5 15h473q19 0 32 -13t13 -32t-13 -32t-32 -13h-422v-226h268q19 0 32 -13t13 -32t-13 -32t-32 -13h-268v-227h422
q19 0 32 -13t13 -32t-13 -32t-32 -13h-203q-17 -15 -34 -35q-23 -27 -23 -60q0 -23 12.5 -36.5t34.5 -13.5t50 12q9 3 15 3q9 0 16.5 -9t7.5 -19z" />
    <glyph glyph-name="eogonek" unicode="&#x119;" horiz-adv-x="655" 
d="M423 -158q0 -16 -16 -25q-36 -20 -80 -20q-50 0 -76.5 27t-26.5 69q0 44 35 82q13 15 28 25q-96 17 -156.5 90.5t-60.5 177.5q0 119 75.5 196.5t188.5 77.5q108 0 180 -75t72 -189q0 -18 -12 -31t-32 -13h-376q9 -66 55 -110t111 -44q80 0 141 61q18 18 35 18
q18 0 30 -12.5t12 -31.5q0 -16 -13 -31q-78 -87 -198 -89q-14 -12 -29 -30q-23 -27 -23 -60q0 -23 12.5 -36.5t34.5 -13.5t50 12q9 3 15 3q9 0 16.5 -9t7.5 -19zM491 315q-7 63 -50 103.5t-106 40.5t-110.5 -39.5t-56.5 -104.5h323z" />
    <glyph glyph-name="Ecaron" unicode="&#x11a;" horiz-adv-x="754" 
d="M692 45q0 -19 -13 -32t-32 -13h-473q-20 0 -34.5 15t-14.5 35v623q0 20 14.5 35t34.5 15h473q19 0 32 -13t13 -32t-13 -32t-32 -13h-422v-226h268q19 0 32 -13t13 -32t-13 -32t-32 -13h-268v-227h422q19 0 32 -13t13 -32zM405 784q-15 0 -36 16l-162 119q-18 14 -18 28
q0 13 8.5 20.5t18.5 7.5t23 -5l166 -70l166 70q13 5 23 5t18.5 -7.5t8.5 -20.5q0 -14 -18 -28l-162 -119q-21 -16 -36 -16z" />
    <glyph glyph-name="ecaron" unicode="&#x11b;" horiz-adv-x="655" 
d="M586 278q0 -18 -12 -31t-32 -13h-376q9 -66 55 -110t111 -44q80 0 141 61q18 18 35 18q18 0 30 -12.5t12 -31.5q0 -16 -13 -31q-80 -89 -200 -89q-114 0 -190.5 78t-76.5 195q0 119 75.5 196.5t188.5 77.5q108 0 180 -75t72 -189zM491 315q-7 63 -50 103.5t-106 40.5
t-110.5 -39.5t-56.5 -104.5h323zM533 832q6 -7 6 -17q0 -14 -11 -25l-151 -167q-21 -23 -46 -23q-26 0 -46 23l-151 167q-11 11 -11 25q0 10 6 17q9 11 23 11q10 0 19 -6l160 -116l160 116q9 6 19 6q14 0 23 -11z" />
    <glyph glyph-name="Gcircumflex" unicode="&#x11c;" horiz-adv-x="824" 
d="M724 342v-226q-49 -59 -122 -92.5t-158 -33.5q-157 0 -260.5 105.5t-103.5 266.5t103.5 266t260.5 105q181 0 256 -126q9 -16 9 -28q0 -18 -13.5 -31.5t-33.5 -13.5q-23 0 -43 29q-56 81 -175 81q-118 0 -191 -78.5t-73 -203.5t73 -204t191 -79q117 0 191 77v143h-200
q-18 0 -31 12.5t-13 30.5t13 31t31 13h244q19 0 32 -12.5t13 -31.5zM442 976q15 0 36 -16l162 -119q18 -14 18 -28q0 -13 -8.5 -20.5t-18.5 -7.5q-11 0 -23 5l-166 70l-166 -70q-12 -5 -23 -5q-10 0 -18.5 7.5t-8.5 20.5q0 14 18 28l162 119q21 16 36 16z" />
    <glyph glyph-name="gcircumflex" unicode="&#x11d;" horiz-adv-x="722" 
d="M617 490v-464q0 -121 -83 -180q-71 -50 -194 -50q-109 0 -193 50q-25 15 -25 41q0 18 12 31.5t30 13.5q13 0 27 -8q75 -44 149 -44q96 0 143 36q40 31 40 110v40q-73 -71 -179 -71q-116 0 -195 79t-79 194q0 114 79.5 194t193.5 80q108 0 180 -72v20q0 20 13.5 33.5
t33.5 13.5t33.5 -13.5t13.5 -33.5zM523 268q0 81 -50 135t-129 54q-78 0 -129 -54.5t-51 -133.5q0 -81 50 -135t129 -54t129.5 54.5t50.5 133.5zM541 611q-9 -11 -23 -11q-10 0 -19 6l-160 116l-160 -116q-9 -6 -19 -6q-14 0 -23 11q-6 8 -6 17q0 14 11 25l151 167
q21 23 46 23q26 0 46 -23l151 -167q11 -11 11 -25q0 -10 -6 -17z" />
    <glyph glyph-name="Gbreve" unicode="&#x11e;" horiz-adv-x="824" 
d="M724 342v-226q-49 -59 -122 -92.5t-158 -33.5q-157 0 -260.5 105.5t-103.5 266.5t103.5 266t260.5 105q181 0 256 -126q9 -16 9 -28q0 -18 -13.5 -31.5t-33.5 -13.5q-23 0 -43 29q-56 81 -175 81q-118 0 -191 -78.5t-73 -203.5t73 -204t191 -79q117 0 191 77v143h-200
q-18 0 -31 12.5t-13 30.5t13 31t31 13h244q19 0 32 -12.5t13 -31.5zM446 789q-91 0 -146 43t-55 104q0 16 10 27.5t26 11.5q30 0 40 -34q10 -32 37 -50t88 -18t88 18t37 50q10 34 40 34q16 0 26 -11.5t10 -27.5q0 -61 -55 -104t-146 -43z" />
    <glyph glyph-name="gbreve" unicode="&#x11f;" horiz-adv-x="722" 
d="M617 490v-464q0 -121 -83 -180q-71 -50 -194 -50q-109 0 -193 50q-25 15 -25 41q0 18 12 31.5t30 13.5q13 0 27 -8q75 -44 149 -44q96 0 143 36q40 31 40 110v40q-73 -71 -179 -71q-116 0 -195 79t-79 194q0 114 79.5 194t193.5 80q108 0 180 -72v20q0 20 13.5 33.5
t33.5 13.5t33.5 -13.5t13.5 -33.5zM523 268q0 81 -50 135t-129 54q-78 0 -129 -54.5t-51 -133.5q0 -81 50 -135t129 -54t129.5 54.5t50.5 133.5zM548 817q0 -69 -54.5 -118t-151.5 -49t-151.5 49t-54.5 118q0 16 11.5 27.5t27.5 11.5t27.5 -11.5t11.5 -27.5q0 -14 4.5 -26
t17 -26t40 -22.5t66.5 -8.5q74 0 101 25.5t27 57.5q0 16 11.5 27.5t27.5 11.5t27.5 -11.5t11.5 -27.5z" />
    <glyph glyph-name="Gdotaccent" unicode="&#x120;" horiz-adv-x="824" 
d="M724 342v-226q-49 -59 -122 -92.5t-158 -33.5q-157 0 -260.5 105.5t-103.5 266.5t103.5 266t260.5 105q181 0 256 -126q9 -16 9 -28q0 -18 -13.5 -31.5t-33.5 -13.5q-23 0 -43 29q-56 81 -175 81q-118 0 -191 -78.5t-73 -203.5t73 -204t191 -79q117 0 191 77v143h-200
q-18 0 -31 12.5t-13 30.5t13 31t31 13h244q19 0 32 -12.5t13 -31.5zM514 880q0 -29 -21.5 -50.5t-50.5 -21.5t-50.5 21.5t-21.5 50.5t21.5 50.5t50.5 21.5t50.5 -21.5t21.5 -50.5z" />
    <glyph glyph-name="gdotaccent" unicode="&#x121;" horiz-adv-x="722" 
d="M617 490v-464q0 -121 -83 -180q-71 -50 -194 -50q-109 0 -193 50q-25 15 -25 41q0 18 12 31.5t30 13.5q13 0 27 -8q75 -44 149 -44q96 0 143 36q40 31 40 110v40q-73 -71 -179 -71q-116 0 -195 79t-79 194q0 114 79.5 194t193.5 80q108 0 180 -72v20q0 20 13.5 33.5
t33.5 13.5t33.5 -13.5t13.5 -33.5zM523 268q0 81 -50 135t-129 54q-78 0 -129 -54.5t-51 -133.5q0 -81 50 -135t129 -54t129.5 54.5t50.5 133.5zM415 704q0 -29 -21.5 -50.5t-50.5 -21.5t-50.5 21.5t-21.5 50.5t21.5 50.5t50.5 21.5t50.5 -21.5t21.5 -50.5z" />
    <glyph glyph-name="Gcommaaccent" unicode="&#x122;" horiz-adv-x="824" 
d="M724 342v-226q-49 -59 -122 -92.5t-158 -33.5q-157 0 -260.5 105.5t-103.5 266.5t103.5 266t260.5 105q181 0 256 -126q9 -16 9 -28q0 -18 -13.5 -31.5t-33.5 -13.5q-23 0 -43 29q-56 81 -175 81q-118 0 -191 -78.5t-73 -203.5t73 -204t191 -79q117 0 191 77v143h-200
q-18 0 -31 12.5t-13 30.5t13 31t31 13h244q19 0 32 -12.5t13 -31.5zM502 -94q0 -40 -30 -66q-23 -21 -55 -37q-13 -7 -25 -7q-8 0 -15 6t-7 15q0 14 14 22q32 22 32 31q0 8 -10 12q-32 12 -32 43q0 21 18 36.5t44 15.5q29 0 47.5 -20t18.5 -51z" />
    <glyph glyph-name="gcommaaccent" unicode="&#x123;" horiz-adv-x="722" 
d="M617 490v-464q0 -121 -83 -180q-71 -50 -194 -50q-109 0 -193 50q-25 15 -25 41q0 18 12 31.5t30 13.5q13 0 27 -8q75 -44 149 -44q96 0 143 36q40 31 40 110v40q-73 -71 -179 -71q-116 0 -195 79t-79 194q0 114 79.5 194t193.5 80q108 0 180 -72v20q0 20 13.5 33.5
t33.5 13.5t33.5 -13.5t13.5 -33.5zM523 268q0 81 -50 135t-129 54q-78 0 -129 -54.5t-51 -133.5q0 -81 50 -135t129 -54t129.5 54.5t50.5 133.5zM267 667q0 48 35 78q27 25 65 44q15 8 30 8q10 0 18 -7t8 -18q0 -16 -17 -26q-38 -25 -38 -36q0 -10 12 -14q38 -15 38 -51
q0 -25 -21 -43.5t-52 -18.5q-34 0 -56 23.5t-22 60.5z" />
    <glyph glyph-name="Hcircumflex" unicode="&#x124;" horiz-adv-x="822" 
d="M757 673v-623q0 -21 -14.5 -35.5t-35.5 -14.5t-35.5 14.5t-14.5 35.5v267h-372v-267q0 -21 -14.5 -35.5t-35.5 -14.5t-35.5 14.5t-14.5 35.5v623q0 21 14.5 35.5t35.5 14.5t35.5 -14.5t14.5 -35.5v-266h372v266q0 21 14.5 35.5t35.5 14.5t35.5 -14.5t14.5 -35.5zM413 976
q15 0 36 -16l162 -119q18 -14 18 -28q0 -13 -8.5 -20.5t-18.5 -7.5t-23 5l-166 70l-166 -70q-13 -5 -23 -5t-18.5 7.5t-8.5 20.5q0 14 18 28l162 119q21 16 36 16z" />
    <glyph glyph-name="hcircumflex" unicode="&#x125;" horiz-adv-x="713" 
d="M618 276v-229q0 -19 -14 -33t-33 -14t-33 14t-14 33v233q0 57 -12 90q-31 87 -137 87q-50 0 -88 -22t-58 -55q-30 -49 -30 -108v-225q0 -19 -13.5 -33t-33.5 -14t-33.5 14t-13.5 33v629q0 20 13.5 33.5t33.5 13.5t33.5 -13.5t13.5 -33.5v-217q68 83 179 83
q68 0 121 -27.5t83 -75.5q36 -60 36 -163zM149 976q15 0 36 -16l162 -119q18 -14 18 -28q0 -13 -8.5 -20.5t-18.5 -7.5t-23 5l-166 70l-166 -70q-12 -5 -23 -5q-10 0 -18.5 7.5t-8.5 20.5q0 14 18 28l162 119q21 16 36 16z" />
    <glyph glyph-name="Hbar" unicode="&#x126;" horiz-adv-x="848" 
d="M138 577v96q0 21 14.5 35.5t35.5 14.5t35.5 -14.5t14.5 -35.5v-96h372v96q0 21 14.5 35.5t35.5 14.5t35.5 -14.5t14.5 -35.5v-96h66q19 0 32 -13t13 -32t-13 -32t-32 -13h-66v-437q0 -21 -14.5 -35.5t-35.5 -14.5t-35.5 14.5t-14.5 35.5v247h-372v-247q0 -21 -14.5 -35.5
t-35.5 -14.5t-35.5 14.5t-14.5 35.5v437h-66q-19 0 -32 13t-13 32t13 32t32 13h66zM238 387h372v100h-372v-100z" />
    <glyph glyph-name="hbar" unicode="&#x127;" horiz-adv-x="713" 
d="M360 573h-161v-134q68 83 179 83q68 0 121 -27.5t83 -75.5q36 -60 36 -163v-209q0 -19 -14 -33t-33 -14t-33 14t-14 33v213q0 57 -12 90q-31 87 -137 87q-50 0 -88 -22t-58 -55q-30 -49 -30 -108v-205q0 -19 -13.5 -33t-33.5 -14t-33.5 14t-13.5 33v526h-61
q-17 0 -29.5 12t-12.5 30q0 17 12.5 29.5t29.5 12.5h61v19q0 20 13.5 33.5t33.5 13.5t33.5 -13.5t13.5 -33.5v-19h161q17 0 29.5 -12.5t12.5 -29.5q0 -18 -12.5 -30t-29.5 -12z" />
    <glyph glyph-name="Itilde" unicode="&#x128;" horiz-adv-x="350" 
d="M225 673v-623q0 -21 -14.5 -35.5t-35.5 -14.5t-35.5 14.5t-14.5 35.5v623q0 21 14.5 35.5t35.5 14.5t35.5 -14.5t14.5 -35.5zM395 916q0 -29 -39 -68q-37 -36 -96 -36q-29 0 -105 26q-53 19 -67 19q-8 0 -17 -3q-28 -9 -44 -31q-11 -15 -31 -15q-17 0 -28.5 12.5
t-11.5 27.5q0 29 39 66q37 36 95 36q30 0 106 -26q50 -18 67 -18q5 0 17 2q24 8 44 33q13 14 32 14q17 0 28 -12.5t11 -26.5z" />
    <glyph glyph-name="itilde" unicode="&#x129;" horiz-adv-x="314" 
d="M204 490v-443q0 -19 -14 -33t-33 -14t-33 14t-14 33v443q0 20 14 33.5t33 13.5t33 -13.5t14 -33.5zM377 737q0 -29 -39 -68q-37 -36 -96 -36q-29 0 -105 26q-53 19 -67 19q-8 0 -17 -3q-28 -9 -44 -31q-11 -15 -31 -15q-17 0 -28.5 12.5t-11.5 27.5q0 29 39 66
q37 36 95 36q30 0 106 -26q50 -18 67 -18q5 0 17 2q24 8 44 33q13 14 32 14q17 0 28 -12.5t11 -26.5z" />
    <glyph glyph-name="Imacron" unicode="&#x12a;" horiz-adv-x="350" 
d="M225 673v-623q0 -21 -14.5 -35.5t-35.5 -14.5t-35.5 14.5t-14.5 35.5v623q0 21 14.5 35.5t35.5 14.5t35.5 -14.5t14.5 -35.5zM388 880q0 -19 -13 -32t-32 -13h-336q-19 0 -32 13t-13 32t13 32t32 13h336q19 0 32 -13t13 -32z" />
    <glyph glyph-name="imacron" unicode="&#x12b;" horiz-adv-x="314" 
d="M204 490v-443q0 -19 -14 -33t-33 -14t-33 14t-14 33v443q0 20 14 33.5t33 13.5t33 -13.5t14 -33.5zM370 704q0 -19 -13 -32t-32 -13h-336q-19 0 -32 13t-13 32t13 32t32 13h336q19 0 32 -13t13 -32z" />
    <glyph glyph-name="Ibreve" unicode="&#x12c;" horiz-adv-x="350" 
d="M225 673v-623q0 -21 -14.5 -35.5t-35.5 -14.5t-35.5 14.5t-14.5 35.5v623q0 21 14.5 35.5t35.5 14.5t35.5 -14.5t14.5 -35.5zM174 789q-91 0 -146 43t-55 104q0 16 10 27.5t26 11.5q30 0 40 -34q10 -32 37 -50t88 -18t88 18t37 50q10 34 40 34q16 0 26 -11.5t10 -27.5
q0 -61 -55 -104t-146 -43z" />
    <glyph glyph-name="ibreve" unicode="&#x12d;" horiz-adv-x="314" 
d="M204 490v-443q0 -19 -14 -33t-33 -14t-33 14t-14 33v443q0 20 14 33.5t33 13.5t33 -13.5t14 -33.5zM363 817q0 -69 -54.5 -118t-151.5 -49t-151.5 49t-54.5 118q0 16 11.5 27.5t27.5 11.5t27.5 -11.5t11.5 -27.5q0 -14 4.5 -26t17 -26t40 -22.5t66.5 -8.5q74 0 101 25.5
t27 57.5q0 16 11.5 27.5t27.5 11.5t27.5 -11.5t11.5 -27.5z" />
    <glyph glyph-name="Iogonek" unicode="&#x12e;" horiz-adv-x="350" 
d="M255 -158q0 -16 -16 -25q-36 -20 -80 -20q-50 0 -76.5 27t-26.5 69q0 44 35 82q20 23 49 38q-15 15 -15 37v623q0 21 14.5 35.5t35.5 14.5t35.5 -14.5t14.5 -35.5v-623q0 -21 -14 -35t-35 -15q-17 -15 -34 -35q-23 -27 -23 -60q0 -23 12.5 -36.5t34.5 -13.5t50 12
q9 3 15 3q9 0 16.5 -9t7.5 -19z" />
    <glyph glyph-name="iogonek" unicode="&#x12f;" horiz-adv-x="314" 
d="M239 -158q0 -16 -16 -25q-36 -20 -80 -20q-50 0 -76.5 27t-26.5 69q0 44 35 82q17 19 49 38q-14 12 -14 34v443q0 20 14 33.5t33 13.5t33 -13.5t14 -33.5v-443q0 -19 -12.5 -32.5t-31.5 -14.5q-17 -15 -34 -35q-23 -27 -23 -60q0 -23 12.5 -36.5t34.5 -13.5t50 12
q9 3 15 3q9 0 16.5 -9t7.5 -19zM229 704q0 -29 -21.5 -50.5t-50.5 -21.5t-50.5 21.5t-21.5 50.5t21.5 50.5t50.5 21.5t50.5 -21.5t21.5 -50.5z" />
    <glyph glyph-name="Idotaccent" unicode="&#x130;" horiz-adv-x="350" 
d="M225 673v-623q0 -21 -14.5 -35.5t-35.5 -14.5t-35.5 14.5t-14.5 35.5v623q0 21 14.5 35.5t35.5 14.5t35.5 -14.5t14.5 -35.5zM247 880q0 -29 -21.5 -50.5t-50.5 -21.5t-50.5 21.5t-21.5 50.5t21.5 50.5t50.5 21.5t50.5 -21.5t21.5 -50.5z" />
    <glyph glyph-name="dotlessi" unicode="&#x131;" horiz-adv-x="314" 
d="M204 490v-443q0 -19 -14 -33t-33 -14t-33 14t-14 33v443q0 20 14 33.5t33 13.5t33 -13.5t14 -33.5z" />
    <glyph glyph-name="IJ" unicode="&#x132;" horiz-adv-x="966" 
d="M225 673v-623q0 -21 -14.5 -35.5t-35.5 -14.5t-35.5 14.5t-14.5 35.5v623q0 21 14.5 35.5t35.5 14.5t35.5 -14.5t14.5 -35.5zM851 673v-459q0 -100 -54 -157q-64 -67 -182 -67q-81 0 -141.5 32t-85.5 73q-8 13 -8 28q0 19 13.5 32t32.5 13q22 0 39 -21q53 -67 150 -67
q73 0 107 37q29 32 29 94v462q0 21 14.5 35.5t35.5 14.5q20 0 34 -14.5t16 -35.5z" />
    <glyph glyph-name="ij" unicode="&#x133;" horiz-adv-x="683" 
d="M204 490v-443q0 -19 -14 -33t-33 -14t-33 14t-14 33v443q0 20 14 33.5t33 13.5t33 -13.5t14 -33.5zM229 704q0 -29 -21.5 -50.5t-50.5 -21.5t-50.5 21.5t-21.5 50.5t21.5 50.5t50.5 21.5t50.5 -21.5t21.5 -50.5zM479 -10v500q0 20 13.5 33.5t33.5 13.5t33.5 -13.5
t13.5 -33.5v-500q0 -84 -33 -128q-22 -31 -61.5 -48.5t-85.5 -17.5q-77 0 -125 50q-16 16 -16 37q0 18 12.5 30.5t31.5 12.5q17 0 42 -23t56 -23q45 0 68 33q17 25 17 77zM598 704q0 -29 -21.5 -50.5t-50.5 -21.5t-50.5 21.5t-21.5 50.5t21.5 50.5t50.5 21.5t50.5 -21.5
t21.5 -50.5z" />
    <glyph glyph-name="Jcircumflex" unicode="&#x134;" horiz-adv-x="616" 
d="M501 673v-459q0 -100 -54 -157q-64 -67 -182 -67q-81 0 -141.5 32t-85.5 73q-8 13 -8 28q0 19 13.5 32t32.5 13q22 0 39 -21q53 -67 150 -67q73 0 107 37q29 32 29 94v462q0 21 14.5 35.5t35.5 14.5q20 0 34 -14.5t16 -35.5zM450 976q15 0 36 -16l162 -119q18 -14 18 -28
q0 -13 -8.5 -20.5t-18.5 -7.5q-11 0 -23 5l-166 70l-166 -70q-13 -5 -23 -5t-18.5 7.5t-8.5 20.5q0 14 18 28l162 119q21 16 36 16z" />
    <glyph glyph-name="jcircumflex" unicode="&#x135;" horiz-adv-x="456" 
d="M252 -10v500q0 20 14 33.5t33 13.5t33 -13.5t14 -33.5v-500q0 -84 -33 -128q-22 -31 -61.5 -48.5t-85.5 -17.5q-77 0 -125 50q-16 16 -16 37q0 18 12.5 30.5t31.5 12.5q17 0 42 -23t56 -23q45 0 68 33q17 25 17 77zM500 611q-9 -11 -23 -11q-10 0 -19 6l-160 116
l-160 -116q-9 -6 -19 -6q-14 0 -23 11q-6 8 -6 17q0 14 11 25l151 167q21 23 46 23q26 0 46 -23l151 -167q11 -11 11 -25q0 -10 -6 -17z" />
    <glyph glyph-name="Kcommaaccent" unicode="&#x136;" horiz-adv-x="835" 
d="M760 50q0 -23 -17 -38q-15 -12 -33 -12q-23 0 -38 17l-277 330l-170 -164v-133q0 -21 -14.5 -35.5t-35.5 -14.5t-35.5 14.5t-14.5 35.5v623q0 21 14.5 35.5t35.5 14.5t35.5 -14.5t14.5 -35.5v-363l401 399q16 14 35 14q21 0 36 -15q14 -14 14 -35t-15 -36l-234 -225
l286 -329q12 -15 12 -33zM474 -94q0 -40 -30 -66q-23 -21 -55 -37q-13 -7 -25 -7q-8 0 -15 6t-7 15q0 14 14 22q32 22 32 31q0 8 -10 12q-32 12 -32 43q0 21 18 36.5t44 15.5q29 0 47.5 -20t18.5 -51z" />
    <glyph glyph-name="kcommaaccent" unicode="&#x137;" horiz-adv-x="657" 
d="M607 45q0 -20 -14 -33q-14 -14 -33 -14q-20 0 -33 14l-227 233l-101 -77v-121q0 -19 -13.5 -33t-33.5 -14t-33.5 14t-13.5 33v629q0 20 13.5 33.5t33.5 13.5t33.5 -13.5t13.5 -33.5v-397l315 248q13 10 29 10q23 0 37 -18q10 -13 10 -29q0 -24 -18 -37l-203 -156
l224 -219q14 -13 14 -33zM400 -94q0 -40 -30 -66q-23 -21 -55 -37q-13 -7 -25 -7q-8 0 -15 6t-7 15q0 14 14 22q32 22 32 31q0 8 -10 12q-32 12 -32 43q0 21 18 36.5t44 15.5q29 0 47.5 -20t18.5 -51z" />
    <glyph glyph-name="kgreenlandic" unicode="&#x138;" horiz-adv-x="657" 
d="M105 47v443q0 20 13.5 33.5t33.5 13.5t33.5 -13.5t13.5 -33.5v-211l315 248q13 10 29 10q23 0 37 -18q10 -13 10 -29q0 -24 -18 -37l-203 -156l224 -219q14 -13 14 -33t-14 -33q-14 -14 -33 -14q-20 0 -33 14l-227 233l-101 -77v-121q0 -19 -13.5 -33t-33.5 -14t-33.5 14
t-13.5 33z" />
    <glyph glyph-name="Lacute" unicode="&#x139;" horiz-adv-x="698" 
d="M673 45q0 -19 -13 -32t-32 -13h-454q-20 0 -34.5 15t-14.5 35v623q0 21 14.5 35.5t35.5 14.5t35.5 -14.5t14.5 -35.5v-583h403q19 0 32 -13t13 -32zM42 846l190 111q24 14 43 14q21 0 37 -16t16 -42q0 -43 -43 -56l-222 -67q-3 -1 -12 -1q-13 0 -20.5 7.5t-7.5 19.5
q0 20 19 30z" />
    <glyph glyph-name="lacute" unicode="&#x13a;" horiz-adv-x="324" 
d="M209 676v-629q0 -19 -13.5 -33t-33.5 -14t-33.5 14t-13.5 33v629q0 20 13.5 33.5t33.5 13.5t33.5 -13.5t13.5 -33.5zM26 846l190 111q24 14 43 14q21 0 37 -16t16 -42q0 -43 -43 -56l-222 -67q-3 -1 -12 -1q-13 0 -20.5 7.5t-7.5 19.5q0 20 19 30z" />
    <glyph glyph-name="Lcommaaccent" unicode="&#x13b;" horiz-adv-x="698" 
d="M673 45q0 -19 -13 -32t-32 -13h-454q-20 0 -34.5 15t-14.5 35v623q0 21 14.5 35.5t35.5 14.5t35.5 -14.5t14.5 -35.5v-583h403q19 0 32 -13t13 -32zM450 -94q0 -40 -30 -66q-23 -21 -55 -37q-13 -7 -25 -7q-8 0 -15 6t-7 15q0 14 14 22q32 22 32 31q0 8 -10 12
q-32 12 -32 43q0 21 18 36.5t44 15.5q29 0 47.5 -20t18.5 -51z" />
    <glyph glyph-name="lcommaaccent" unicode="&#x13c;" horiz-adv-x="324" 
d="M209 676v-629q0 -19 -13.5 -33t-33.5 -14t-33.5 14t-13.5 33v629q0 20 13.5 33.5t33.5 13.5t33.5 -13.5t13.5 -33.5zM226 -94q0 -40 -30 -66q-23 -21 -55 -37q-13 -7 -25 -7q-8 0 -15 6t-7 15q0 14 14 22q32 22 32 31q0 8 -10 12q-32 12 -32 43q0 21 18 36.5t44 15.5
q29 0 47.5 -20t18.5 -51z" />
    <glyph glyph-name="Lcaron" unicode="&#x13d;" horiz-adv-x="698" 
d="M673 45q0 -19 -13 -32t-32 -13h-454q-20 0 -34.5 15t-14.5 35v623q0 21 14.5 35.5t35.5 14.5t35.5 -14.5t14.5 -35.5v-583h403q19 0 32 -13t13 -32zM501 652q0 -40 -30 -66q-23 -21 -55 -37q-13 -7 -25 -7q-8 0 -15 6t-7 15q0 14 14 22q32 22 32 31q0 8 -10 12
q-32 12 -32 43q0 21 18 36.5t44 15.5q29 0 47.5 -20t18.5 -51z" />
    <glyph glyph-name="lcaron" unicode="&#x13e;" horiz-adv-x="401" 
d="M209 676v-629q0 -19 -13.5 -33t-33.5 -14t-33.5 14t-13.5 33v629q0 20 13.5 33.5t33.5 13.5t33.5 -13.5t13.5 -33.5zM421 652q0 -40 -30 -66q-23 -21 -55 -37q-13 -7 -25 -7q-8 0 -15 6t-7 15q0 14 14 22q32 22 32 31q0 8 -10 12q-32 12 -32 43q0 21 18 36.5t44 15.5
q29 0 47.5 -20t18.5 -51z" />
    <glyph glyph-name="Ldot" unicode="&#x13f;" horiz-adv-x="698" 
d="M673 45q0 -19 -13 -32t-32 -13h-454q-20 0 -34.5 15t-14.5 35v623q0 21 14.5 35.5t35.5 14.5t35.5 -14.5t14.5 -35.5v-583h403q19 0 32 -13t13 -32zM536 385q0 -29 -21.5 -50.5t-50.5 -21.5t-50.5 21.5t-21.5 50.5t21.5 50.5t50.5 21.5t50.5 -21.5t21.5 -50.5z" />
    <glyph glyph-name="ldot" unicode="&#x140;" horiz-adv-x="495" 
d="M209 676v-629q0 -19 -13.5 -33t-33.5 -14t-33.5 14t-13.5 33v629q0 20 13.5 33.5t33.5 13.5t33.5 -13.5t13.5 -33.5zM475 294q0 -29 -21.5 -50.5t-50.5 -21.5t-50.5 21.5t-21.5 50.5t21.5 50.5t50.5 21.5t50.5 -21.5t21.5 -50.5z" />
    <glyph glyph-name="Lslash" unicode="&#x141;" horiz-adv-x="841" 
d="M816 45q0 -18 -13 -30.5t-32 -14.5h-454q-21 0 -35 14.5t-14 35.5v240l-74 -39q-12 -4 -17 -4q-12 0 -23 8q-5 4 -10 12q-4 8 -4 17q0 12 8 23q4 5 12 10l108 56v300q0 21 14.5 35.5t35.5 14.5q20 0 35 -14.5t15 -35.5v-248l163 85q7 4 17 4q14 0 22 -7q8 -8 10 -12
q4 -8 4 -17q0 -15 -7 -23q-4 -4 -12 -10l-197 -103v-252h403q18 0 31.5 -13t13.5 -32z" />
    <glyph glyph-name="lslash" unicode="&#x142;" horiz-adv-x="571" 
d="M236 47v271l-127 -67q-12 -4 -17 -4q-12 0 -23 8q-5 4 -10 12q-4 8 -4 17q0 12 8 23q4 5 12 10l161 84v275q0 20 14 33.5t33 13.5t33 -13.5t14 -33.5v-226l116 60q7 4 17 4q14 0 22 -7q8 -8 10 -12q4 -8 4 -17q0 -15 -7 -23q-4 -4 -12 -10l-150 -78v-320q0 -19 -14 -33
t-33 -14t-33 14t-14 33z" />
    <glyph glyph-name="Nacute" unicode="&#x143;" horiz-adv-x="830" 
d="M705 673v-623q0 -21 -14.5 -35.5t-35.5 -14.5h-45q-28 0 -43 25l-325 531q-16 25 -22 43h-2q5 -23 5 -54v-489q0 -22 -14.5 -39t-34.5 -17q-21 0 -35 14.5t-14 35.5v623q0 21 14.5 35.5t35.5 14.5h41q29 0 44 -25l323 -526q14 -23 24 -48h2q-4 19 -4 56v493
q0 21 14.5 35.5t35.5 14.5t35 -14.5t15 -35.5zM292 846l190 111q24 14 43 14q21 0 37 -16t16 -42q0 -43 -43 -56l-222 -67q-3 -1 -12 -1q-13 0 -20.5 7.5t-7.5 19.5q0 20 19 30z" />
    <glyph glyph-name="nacute" unicode="&#x144;" horiz-adv-x="713" 
d="M618 276v-229q0 -19 -14 -33t-33 -14t-33 14t-14 33v233q0 57 -12 90q-31 87 -137 87q-50 0 -88 -22t-58 -55q-30 -49 -30 -108v-225q0 -19 -13.5 -33t-33.5 -14t-33.5 14t-13.5 33v443q0 20 13.5 33.5t33.5 13.5t33.5 -13.5t13.5 -33.5v-31q68 83 179 83q68 0 121 -27.5
t83 -75.5q36 -60 36 -163zM508 785q0 -30 -20 -44l-198 -135q-9 -6 -19 -6q-14 0 -23 11q-6 8 -6 17q0 14 11 25l157 174q15 16 40 16q24 0 41 -17t17 -41z" />
    <glyph glyph-name="Ncommaaccent" unicode="&#x145;" horiz-adv-x="830" 
d="M705 673v-623q0 -21 -14.5 -35.5t-35.5 -14.5h-45q-28 0 -43 25l-325 531q-16 25 -22 43h-2q5 -23 5 -54v-489q0 -22 -14.5 -39t-34.5 -17q-21 0 -35 14.5t-14 35.5v623q0 21 14.5 35.5t35.5 14.5h41q29 0 44 -25l323 -526q14 -23 24 -48h2q-4 19 -4 56v493
q0 21 14.5 35.5t35.5 14.5t35 -14.5t15 -35.5zM473 -94q0 -40 -30 -66q-23 -21 -55 -37q-13 -7 -25 -7q-8 0 -15 6t-7 15q0 14 14 22q32 22 32 31q0 8 -10 12q-32 12 -32 43q0 21 18 36.5t44 15.5q29 0 47.5 -20t18.5 -51z" />
    <glyph glyph-name="ncommaaccent" unicode="&#x146;" horiz-adv-x="713" 
d="M618 276v-229q0 -19 -14 -33t-33 -14t-33 14t-14 33v233q0 57 -12 90q-31 87 -137 87q-50 0 -88 -22t-58 -55q-30 -49 -30 -108v-225q0 -19 -13.5 -33t-33.5 -14t-33.5 14t-13.5 33v443q0 20 13.5 33.5t33.5 13.5t33.5 -13.5t13.5 -33.5v-31q68 83 179 83q68 0 121 -27.5
t83 -75.5q36 -60 36 -163zM424 -94q0 -40 -30 -66q-23 -21 -55 -37q-13 -7 -25 -7q-8 0 -15 6t-7 15q0 14 14 22q32 22 32 31q0 8 -10 12q-32 12 -32 43q0 21 18 36.5t44 15.5q29 0 47.5 -20t18.5 -51z" />
    <glyph glyph-name="Ncaron" unicode="&#x147;" horiz-adv-x="830" 
d="M705 673v-623q0 -21 -14.5 -35.5t-35.5 -14.5h-45q-28 0 -43 25l-325 531q-16 25 -22 43h-2q5 -23 5 -54v-489q0 -22 -14.5 -39t-34.5 -17q-21 0 -35 14.5t-14 35.5v623q0 21 14.5 35.5t35.5 14.5h41q29 0 44 -25l323 -526q14 -23 24 -48h2q-4 19 -4 56v493
q0 21 14.5 35.5t35.5 14.5t35 -14.5t15 -35.5zM427 784q-15 0 -36 16l-162 119q-18 14 -18 28q0 13 8.5 20.5t18.5 7.5t23 -5l166 -70l166 70q13 5 23 5t18.5 -7.5t8.5 -20.5q0 -14 -18 -28l-162 -119q-21 -16 -36 -16z" />
    <glyph glyph-name="ncaron" unicode="&#x148;" horiz-adv-x="713" 
d="M618 276v-229q0 -19 -14 -33t-33 -14t-33 14t-14 33v233q0 57 -12 90q-31 87 -137 87q-50 0 -88 -22t-58 -55q-30 -49 -30 -108v-225q0 -19 -13.5 -33t-33.5 -14t-33.5 14t-13.5 33v443q0 20 13.5 33.5t33.5 13.5t33.5 -13.5t13.5 -33.5v-31q68 83 179 83q68 0 121 -27.5
t83 -75.5q36 -60 36 -163zM583 832q6 -7 6 -17q0 -14 -11 -25l-151 -167q-21 -23 -46 -23q-26 0 -46 23l-151 167q-11 11 -11 25q0 10 6 17q9 11 23 11q10 0 19 -6l160 -116l160 116q9 6 19 6q14 0 23 -11z" />
    <glyph glyph-name="napostrophe" unicode="&#x149;" horiz-adv-x="713" 
d="M618 276v-229q0 -19 -14 -33t-33 -14t-33 14t-14 33v233q0 57 -12 90q-31 87 -137 87q-50 0 -88 -22t-58 -55q-30 -49 -30 -108v-225q0 -19 -13.5 -33t-33.5 -14t-33.5 14t-13.5 33v443q0 20 13.5 33.5t33.5 13.5t33.5 -13.5t13.5 -33.5v-31q68 83 179 83q68 0 121 -27.5
t83 -75.5q36 -60 36 -163zM216 703q0 -40 -30 -66q-23 -21 -55 -37q-13 -7 -25 -7q-8 0 -15 6t-7 15q0 14 14 22q32 22 32 31q0 8 -10 12q-32 12 -32 43q0 21 18 36.5t44 15.5q29 0 47.5 -20t18.5 -51z" />
    <glyph glyph-name="Eng" unicode="&#x14a;" horiz-adv-x="830" 
d="M705 673v-658q0 -100 -54 -157q-64 -67 -176 -67q-75 0 -130.5 31.5t-80.5 73.5q-8 13 -8 28q0 19 13.5 32t32.5 13q22 0 39 -21q53 -67 134 -67q67 0 101 37q22 25 26 56l-360 582q-16 25 -22 43h-2q5 -23 5 -54v-489q0 -22 -14.5 -39t-34.5 -17q-21 0 -35 14.5
t-14 35.5v623q0 21 14.5 35.5t35.5 14.5h41q29 0 44 -25l323 -526q14 -23 24 -48h2q-4 19 -4 56v493q0 21 14.5 35.5t35.5 14.5t35 -14.5t15 -35.5z" />
    <glyph glyph-name="eng" unicode="&#x14b;" horiz-adv-x="713" 
d="M618 276v-286q0 -84 -33 -128q-22 -31 -61.5 -48.5t-85.5 -17.5q-77 0 -125 50q-16 16 -16 37q0 18 12.5 30.5t31.5 12.5q17 0 42 -23t56 -23q45 0 68 33q17 25 17 77v290q0 57 -12 90q-31 87 -137 87q-50 0 -88 -22t-58 -55q-30 -49 -30 -108v-225q0 -19 -13.5 -33
t-33.5 -14t-33.5 14t-13.5 33v443q0 20 13.5 33.5t33.5 13.5t33.5 -13.5t13.5 -33.5v-31q68 83 179 83q68 0 121 -27.5t83 -75.5q36 -60 36 -163z" />
    <glyph glyph-name="Omacron" unicode="&#x14c;" horiz-adv-x="888" 
d="M808 362q0 -153 -107 -262.5t-257 -109.5t-257 109.5t-107 262.5t107 262t257 109t257 -109t107 -262zM708 362q0 118 -77 200t-187 82t-187 -82t-77 -200t77 -200.5t187 -82.5t187 82.5t77 200.5zM657 880q0 -19 -13 -32t-32 -13h-336q-19 0 -32 13t-13 32t13 32t32 13
h336q19 0 32 -13t13 -32z" />
    <glyph glyph-name="omacron" unicode="&#x14d;" horiz-adv-x="688" 
d="M618 269q0 -114 -80.5 -194t-194.5 -80t-193.5 79.5t-79.5 193.5t79.5 194t193.5 80t194.5 -79.5t80.5 -193.5zM524 269q0 79 -51.5 133.5t-129.5 54.5t-128.5 -54.5t-50.5 -133.5q0 -80 50.5 -134.5t128.5 -54.5t129.5 54.5t51.5 134.5zM557 704q0 -19 -13 -32t-32 -13
h-336q-19 0 -32 13t-13 32t13 32t32 13h336q19 0 32 -13t13 -32z" />
    <glyph glyph-name="Obreve" unicode="&#x14e;" horiz-adv-x="888" 
d="M808 362q0 -153 -107 -262.5t-257 -109.5t-257 109.5t-107 262.5t107 262t257 109t257 -109t107 -262zM708 362q0 118 -77 200t-187 82t-187 -82t-77 -200t77 -200.5t187 -82.5t187 82.5t77 200.5zM445 789q-91 0 -146 43t-55 104q0 16 10 27.5t26 11.5q30 0 40 -34
q10 -32 37 -50t88 -18t88 18t37 50q10 34 40 34q16 0 26 -11.5t10 -27.5q0 -61 -55 -104t-146 -43z" />
    <glyph glyph-name="obreve" unicode="&#x14f;" horiz-adv-x="688" 
d="M618 269q0 -114 -80.5 -194t-194.5 -80t-193.5 79.5t-79.5 193.5t79.5 194t193.5 80t194.5 -79.5t80.5 -193.5zM524 269q0 79 -51.5 133.5t-129.5 54.5t-128.5 -54.5t-50.5 -133.5q0 -80 50.5 -134.5t128.5 -54.5t129.5 54.5t51.5 134.5zM549 817q0 -69 -54.5 -118
t-151.5 -49t-151.5 49t-54.5 118q0 16 11.5 27.5t27.5 11.5t27.5 -11.5t11.5 -27.5q0 -14 4.5 -26t17 -26t40 -22.5t66.5 -8.5q74 0 101 25.5t27 57.5q0 16 11.5 27.5t27.5 11.5t27.5 -11.5t11.5 -27.5z" />
    <glyph glyph-name="Ohungarumlaut" unicode="&#x150;" horiz-adv-x="888" 
d="M808 362q0 -153 -107 -262.5t-257 -109.5t-257 109.5t-107 262.5t107 262t257 109t257 -109t107 -262zM708 362q0 118 -77 200t-187 82t-187 -82t-77 -200t77 -200.5t187 -82.5t187 82.5t77 200.5zM198 855l150 93q24 14 43 14q21 0 37 -16t16 -42q0 -44 -43 -56
l-182 -49q-3 -1 -12 -1q-13 0 -20.5 8t-7.5 19q0 20 19 30zM462 855l150 93q24 14 43 14q21 0 37 -16t16 -42q0 -44 -43 -56l-182 -49q-3 -1 -12 -1q-13 0 -20.5 8t-7.5 19q0 20 19 30z" />
    <glyph glyph-name="ohungarumlaut" unicode="&#x151;" horiz-adv-x="688" 
d="M618 269q0 -114 -80.5 -194t-194.5 -80t-193.5 79.5t-79.5 193.5t79.5 194t193.5 80t194.5 -79.5t80.5 -193.5zM524 269q0 79 -51.5 133.5t-129.5 54.5t-128.5 -54.5t-50.5 -133.5q0 -80 50.5 -134.5t128.5 -54.5t129.5 54.5t51.5 134.5zM368 779q0 -32 -22 -46
l-202 -128q-8 -5 -19 -5q-14 0 -23 12q-4 7 -4 16q0 12 11 25l163 169q14 14 36 14q27 0 43.5 -17t16.5 -40zM591 779q0 -32 -22 -46l-202 -128q-7 -5 -19 -5q-14 0 -23 12q-4 7 -4 16q0 12 11 25l163 169q14 14 36 14q27 0 43.5 -17t16.5 -40z" />
    <glyph glyph-name="OE" unicode="&#x152;" horiz-adv-x="874" 
d="M812 45q0 -19 -13 -32t-32 -13h-396q-127 0 -206.5 104t-79.5 258t79.5 257.5t206.5 103.5h396q19 0 32 -13t13 -32t-13 -32t-32 -13h-240v-226h147q19 0 32 -13t13 -32t-13 -32t-32 -13h-147v-227h240q19 0 32 -13t13 -32zM427 90v543h-56q-77 0 -131.5 -71.5
t-54.5 -199.5t54.5 -200t131.5 -72h56z" />
    <glyph glyph-name="oe" unicode="&#x153;" horiz-adv-x="1088" 
d="M765 80q80 0 141 61q18 18 35 18q18 0 30 -12.5t12 -31.5q0 -16 -13 -31q-80 -89 -200 -89q-70 0 -127 30.5t-93 84.5q-36 -54 -92 -84.5t-124 -30.5q-112 0 -188 79.5t-76 193.5q0 115 76 194.5t187 79.5q68 0 124.5 -30.5t92.5 -84.5q36 54 92.5 84.5t124.5 30.5
q108 0 180 -75t72 -189q0 -18 -12 -31t-32 -13h-376q9 -66 55 -110t111 -44zM503 268q0 81 -46.5 135t-122.5 54t-123 -54t-47 -134q0 -81 46.5 -135t122.5 -54t123 54t47 134zM924 315q-7 63 -50 103.5t-106 40.5t-110.5 -39.5t-56.5 -104.5h323z" />
    <glyph glyph-name="Racute" unicode="&#x154;" horiz-adv-x="823" 
d="M733 507q0 -88 -59 -147q-50 -49 -131 -65l168 -215q10 -12 10 -30q0 -24 -20 -40q-13 -10 -30 -10q-25 0 -40 20l-203 269h-203v-239q0 -21 -14.5 -35.5t-35.5 -14.5t-35.5 14.5t-14.5 35.5v623q0 21 14.5 35.5t35.5 14.5h294q130 0 207 -77q57 -57 57 -139zM631 507
q0 48 -35 82q-46 44 -127 44h-244v-254h247q92 0 129 39q30 30 30 89zM289 846l190 111q24 14 43 14q21 0 37 -16t16 -42q0 -43 -43 -56l-222 -67q-3 -1 -12 -1q-12 0 -20 7.5t-8 19.5q0 20 19 30z" />
    <glyph glyph-name="racute" unicode="&#x155;" horiz-adv-x="598" 
d="M563 439q0 -19 -12 -32t-31 -13q-21 0 -37 19q-38 44 -117 44q-68 0 -115 -35q-52 -39 -52 -109v-266q0 -19 -13.5 -33t-33.5 -14t-33.5 14t-13.5 33v443q0 20 13.5 33.5t33.5 13.5t33.5 -13.5t13.5 -33.5v-22q31 29 70 47q56 27 115 27q49 0 95 -19.5t72 -53.5
q12 -16 12 -30zM483 785q0 -30 -20 -44l-198 -135q-9 -6 -19 -6q-14 0 -23 11q-6 8 -6 17q0 14 11 25l157 174q15 16 40 16q24 0 41 -17t17 -41z" />
    <glyph glyph-name="Rcommaaccent" unicode="&#x156;" horiz-adv-x="823" 
d="M733 507q0 -88 -59 -147q-50 -49 -131 -65l168 -215q10 -12 10 -30q0 -24 -20 -40q-13 -10 -30 -10q-25 0 -40 20l-203 269h-203v-239q0 -21 -14.5 -35.5t-35.5 -14.5t-35.5 14.5t-14.5 35.5v623q0 21 14.5 35.5t35.5 14.5h294q130 0 207 -77q57 -57 57 -139zM631 507
q0 48 -35 82q-46 44 -127 44h-244v-254h247q92 0 129 39q30 30 30 89zM472 -94q0 -40 -30 -66q-23 -21 -55 -37q-13 -7 -25 -7q-8 0 -15 6t-7 15q0 14 14 22q32 22 32 31q0 8 -10 12q-32 12 -32 43q0 21 18 36.5t44 15.5q29 0 47.5 -20t18.5 -51z" />
    <glyph glyph-name="rcommaaccent" unicode="&#x157;" horiz-adv-x="598" 
d="M563 439q0 -19 -12 -32t-31 -13q-21 0 -37 19q-38 44 -117 44q-68 0 -115 -35q-52 -39 -52 -109v-266q0 -19 -13.5 -33t-33.5 -14t-33.5 14t-13.5 33v443q0 20 13.5 33.5t33.5 13.5t33.5 -13.5t13.5 -33.5v-22q31 29 70 47q56 27 115 27q49 0 95 -19.5t72 -53.5
q12 -16 12 -30zM218 -94q0 -40 -30 -66q-23 -21 -55 -37q-13 -7 -25 -7q-8 0 -15 6t-7 15q0 14 14 22q32 22 32 31q0 8 -10 12q-32 12 -32 43q0 21 18 36.5t44 15.5q29 0 47.5 -20t18.5 -51z" />
    <glyph glyph-name="Rcaron" unicode="&#x158;" horiz-adv-x="823" 
d="M733 507q0 -88 -59 -147q-50 -49 -131 -65l168 -215q10 -12 10 -30q0 -24 -20 -40q-13 -10 -30 -10q-25 0 -40 20l-203 269h-203v-239q0 -21 -14.5 -35.5t-35.5 -14.5t-35.5 14.5t-14.5 35.5v623q0 21 14.5 35.5t35.5 14.5h294q130 0 207 -77q57 -57 57 -139zM631 507
q0 48 -35 82q-46 44 -127 44h-244v-254h247q92 0 129 39q30 30 30 89zM413 784q-15 0 -36 16l-162 119q-18 14 -18 28q0 13 8.5 20.5t18.5 7.5t23 -5l166 -70l166 70q12 5 23 5q10 0 18.5 -7.5t8.5 -20.5q0 -14 -18 -28l-162 -119q-21 -16 -36 -16z" />
    <glyph glyph-name="rcaron" unicode="&#x159;" horiz-adv-x="598" 
d="M563 439q0 -19 -12 -32t-31 -13q-21 0 -37 19q-38 44 -117 44q-68 0 -115 -35q-52 -39 -52 -109v-266q0 -19 -13.5 -33t-33.5 -14t-33.5 14t-13.5 33v443q0 20 13.5 33.5t33.5 13.5t33.5 -13.5t13.5 -33.5v-22q31 29 70 47q56 27 115 27q49 0 95 -19.5t72 -53.5
q12 -16 12 -30zM509 832q6 -7 6 -17q0 -14 -11 -25l-151 -167q-21 -23 -46 -23q-26 0 -46 23l-151 167q-11 11 -11 25q0 10 6 17q9 11 23 11q10 0 19 -6l160 -116l160 116q9 6 19 6q14 0 23 -11z" />
    <glyph glyph-name="Sacute" unicode="&#x15a;" horiz-adv-x="768" 
d="M688 216q0 -92 -59 -149q-80 -78 -235 -78q-188 0 -296 118q-18 18 -18 38q0 21 14.5 36.5t36.5 15.5q21 0 42 -22q90 -96 217 -96q115 0 165 54q30 33 30 77q0 86 -124 111q-25 5 -96.5 16.5t-72.5 11.5q-104 18 -144 58q-52 52 -52 130q0 65 49 114q83 83 248 83
q125 0 231 -67q32 -20 32 -45q0 -19 -13.5 -34t-33.5 -15q-17 0 -37 14q-85 59 -180 59q-119 0 -169 -50q-26 -26 -26 -57q0 -41 25.5 -64t84.5 -33q16 -3 172 -29q110 -19 161 -75q48 -53 48 -122zM249 846l190 111q24 14 43 14q21 0 37 -16t16 -42q0 -43 -43 -56l-222 -67
q-3 -1 -12 -1q-12 0 -20 7.5t-8 19.5q0 20 19 30z" />
    <glyph glyph-name="sacute" unicode="&#x15b;" horiz-adv-x="673" 
d="M598 163q0 -95 -97 -139q-63 -29 -169 -29q-85 0 -148 26.5t-95 59.5q-15 15 -15 33q0 19 12.5 32.5t33.5 13.5q16 0 32 -14q25 -21 43 -32.5t57 -23.5t87 -12q71 0 110 16q54 23 54 67q0 30 -19 43.5t-61 21.5q-15 3 -83 11t-73 9q-172 23 -172 144q0 35 19 66
q53 86 218 86q121 0 206 -54q25 -17 25 -37q0 -17 -12 -31t-29 -14q-11 0 -31 11q-74 43 -159 43q-142 0 -142 -68q0 -29 24.5 -43.5t75.5 -20.5q9 -1 42.5 -5l62 -7.5t43.5 -6.5q33 -6 57.5 -14.5t50 -24t39 -43t13.5 -64.5zM458 785q0 -30 -20 -44l-198 -135q-9 -6 -19 -6
q-14 0 -23 11q-6 8 -6 17q0 14 11 25l157 174q15 16 40 16q24 0 41 -17t17 -41z" />
    <glyph glyph-name="Scircumflex" unicode="&#x15c;" horiz-adv-x="768" 
d="M688 216q0 -92 -59 -149q-80 -78 -235 -78q-188 0 -296 118q-18 18 -18 38q0 21 14.5 36.5t36.5 15.5q21 0 42 -22q90 -96 217 -96q115 0 165 54q30 33 30 77q0 86 -124 111q-25 5 -96.5 16.5t-72.5 11.5q-104 18 -144 58q-52 52 -52 130q0 65 49 114q83 83 248 83
q125 0 231 -67q32 -20 32 -45q0 -19 -13.5 -34t-33.5 -15q-17 0 -37 14q-85 59 -180 59q-119 0 -169 -50q-26 -26 -26 -57q0 -41 25.5 -64t84.5 -33q16 -3 172 -29q110 -19 161 -75q48 -53 48 -122zM379 976q15 0 36 -16l162 -119q18 -14 18 -28q0 -13 -8.5 -20.5
t-18.5 -7.5t-23 5l-166 70l-166 -70q-12 -5 -23 -5q-10 0 -18.5 7.5t-8.5 20.5q0 14 18 28l162 119q21 16 36 16z" />
    <glyph glyph-name="scircumflex" unicode="&#x15d;" horiz-adv-x="673" 
d="M598 163q0 -95 -97 -139q-63 -29 -169 -29q-85 0 -148 26.5t-95 59.5q-15 15 -15 33q0 19 12.5 32.5t33.5 13.5q16 0 32 -14q25 -21 43 -32.5t57 -23.5t87 -12q71 0 110 16q54 23 54 67q0 30 -19 43.5t-61 21.5q-15 3 -83 11t-73 9q-172 23 -172 144q0 35 19 66
q53 86 218 86q121 0 206 -54q25 -17 25 -37q0 -17 -12 -31t-29 -14q-11 0 -31 11q-74 43 -159 43q-142 0 -142 -68q0 -29 24.5 -43.5t75.5 -20.5q9 -1 42.5 -5l62 -7.5t43.5 -6.5q33 -6 57.5 -14.5t50 -24t39 -43t13.5 -64.5zM532 611q-9 -11 -23 -11q-10 0 -19 6l-160 116
l-160 -116q-9 -6 -19 -6q-14 0 -23 11q-6 8 -6 17q0 14 11 25l151 167q21 23 46 23q26 0 46 -23l151 -167q11 -11 11 -25q0 -10 -6 -17z" />
    <glyph glyph-name="Scedilla" unicode="&#x15e;" horiz-adv-x="768" 
d="M492 -117q0 -39 -25 -61q-29 -26 -81 -26q-39 0 -79 15q-25 10 -34.5 18.5t-9.5 20.5q0 11 8 19q7 7 18 7q7 0 13 -3q20 -10 28 -13q27 -10 49 -10q46 0 46 34q0 15 -12 23q-13 9 -37 9q-6 0 -12.5 -1t-7.5 -1q-12 0 -12 14v63q-154 15 -246 116q-18 18 -18 38
q0 21 14.5 36.5t36.5 15.5q21 0 42 -22q90 -96 217 -96q115 0 165 54q30 33 30 77q0 86 -124 111q-25 5 -96.5 16.5t-72.5 11.5q-104 18 -144 58q-52 52 -52 130q0 65 49 114q83 83 248 83q125 0 231 -67q32 -20 32 -45q0 -19 -13.5 -34t-33.5 -15q-17 0 -37 14
q-85 59 -180 59q-119 0 -169 -50q-26 -26 -26 -57q0 -41 25.5 -64t84.5 -33q16 -3 172 -29q110 -19 161 -75q48 -53 48 -122q0 -92 -59 -149q-80 -78 -235 -78h-16v-31q16 4 36 4q33 0 55.5 -23t22.5 -56z" />
    <glyph glyph-name="scedilla" unicode="&#x15f;" horiz-adv-x="673" 
d="M440 -117q0 -39 -25 -61q-29 -26 -81 -26q-39 0 -79 15q-25 10 -34.5 18.5t-9.5 20.5q0 11 8 19q7 7 18 7q7 0 13 -3q20 -10 28 -13q27 -10 49 -10q46 0 46 34q0 15 -12 23q-13 9 -37 9q-6 0 -12.5 -1t-7.5 -1q-12 0 -12 14v69q-70 6 -122.5 30.5t-80.5 53.5
q-15 15 -15 33q0 19 12.5 32.5t33.5 13.5q16 0 32 -14q25 -21 43 -32.5t57 -23.5t87 -12q71 0 110 16q54 23 54 67q0 30 -19 43.5t-61 21.5q-15 3 -83 11t-73 9q-172 23 -172 144q0 35 19 66q53 86 218 86q121 0 206 -54q25 -17 25 -37q0 -17 -12 -31t-29 -14q-11 0 -31 11
q-74 43 -159 43q-142 0 -142 -68q0 -29 24.5 -43.5t75.5 -20.5q9 -1 42.5 -5l62 -7.5t43.5 -6.5q33 -6 57.5 -14.5t50 -24t39 -43t13.5 -64.5q0 -95 -97 -139q-63 -29 -169 -29h-6v-37q16 4 36 4q33 0 55.5 -23t22.5 -56z" />
    <glyph glyph-name="Scaron" unicode="&#x160;" horiz-adv-x="768" 
d="M688 216q0 -92 -59 -149q-80 -78 -235 -78q-188 0 -296 118q-18 18 -18 38q0 21 14.5 36.5t36.5 15.5q21 0 42 -22q90 -96 217 -96q115 0 165 54q30 33 30 77q0 86 -124 111q-25 5 -96.5 16.5t-72.5 11.5q-104 18 -144 58q-52 52 -52 130q0 65 49 114q83 83 248 83
q125 0 231 -67q32 -20 32 -45q0 -19 -13.5 -34t-33.5 -15q-17 0 -37 14q-85 59 -180 59q-119 0 -169 -50q-26 -26 -26 -57q0 -41 25.5 -64t84.5 -33q16 -3 172 -29q110 -19 161 -75q48 -53 48 -122zM394 784q-15 0 -36 16l-162 119q-18 14 -18 28q0 13 8.5 20.5t18.5 7.5
q11 0 23 -5l166 -70l166 70q12 5 23 5q10 0 18.5 -7.5t8.5 -20.5q0 -14 -18 -28l-162 -119q-21 -16 -36 -16z" />
    <glyph glyph-name="scaron" unicode="&#x161;" horiz-adv-x="673" 
d="M598 163q0 -95 -97 -139q-63 -29 -169 -29q-85 0 -148 26.5t-95 59.5q-15 15 -15 33q0 19 12.5 32.5t33.5 13.5q16 0 32 -14q25 -21 43 -32.5t57 -23.5t87 -12q71 0 110 16q54 23 54 67q0 30 -19 43.5t-61 21.5q-15 3 -83 11t-73 9q-172 23 -172 144q0 35 19 66
q53 86 218 86q121 0 206 -54q25 -17 25 -37q0 -17 -12 -31t-29 -14q-11 0 -31 11q-74 43 -159 43q-142 0 -142 -68q0 -29 24.5 -43.5t75.5 -20.5q9 -1 42.5 -5l62 -7.5t43.5 -6.5q33 -6 57.5 -14.5t50 -24t39 -43t13.5 -64.5zM541 832q6 -7 6 -17q0 -14 -11 -25l-151 -167
q-21 -23 -46 -23q-26 0 -46 23l-151 167q-11 11 -11 25q0 10 6 17q9 11 23 11q10 0 19 -6l160 -116l160 116q9 6 19 6q14 0 23 -11z" />
    <glyph glyph-name="uni0162" unicode="&#x162;" horiz-adv-x="650" 
d="M458 -117q0 -39 -25 -61q-29 -26 -81 -26q-39 0 -79 15q-25 10 -34.5 18.5t-9.5 20.5q0 11 8 19q7 7 18 7q7 0 13 -3q20 -10 28 -13q27 -10 49 -10q46 0 46 34q0 15 -12 23q-13 9 -37 9q-6 0 -12.5 -1t-7.5 -1q-12 0 -12 14v74q-35 10 -35 48v583h-188q-19 0 -32 13
t-13 32t13 32t32 13h476q19 0 32 -13t13 -32t-13 -32t-32 -13h-188v-583q0 -33 -31 -47v-45q16 4 36 4q33 0 55.5 -23t22.5 -56z" />
    <glyph glyph-name="uni0163" unicode="&#x163;" horiz-adv-x="546" 
d="M467 -117q0 -39 -25 -61q-29 -26 -81 -26q-39 0 -79 15q-25 10 -34.5 18.5t-9.5 20.5q0 11 8 19q7 7 18 7q7 0 13 -3q20 -10 28 -13q27 -10 49 -10q46 0 46 34q0 15 -12 23q-13 9 -37 9q-6 0 -12.5 -1t-7.5 -1q-12 0 -12 14v72q-58 12 -95 60q-37 44 -37 121v271h-104
q-18 0 -30.5 12.5t-12.5 29.5q0 18 12.5 30.5t29.5 12.5h105v150q0 19 13.5 33t33.5 14t33.5 -14t13.5 -33v-150h142q18 0 30.5 -12.5t12.5 -29.5q0 -18 -12.5 -30.5t-29.5 -12.5h-143v-276q0 -40 17 -63q24 -33 69 -33q32 0 64 26q22 18 37 18q19 0 30.5 -12t11.5 -31
q0 -18 -16 -34q-52 -52 -127 -52q-10 0 -14 1v-38q16 4 36 4q33 0 55.5 -23t22.5 -56z" />
    <glyph glyph-name="Tcaron" unicode="&#x164;" horiz-adv-x="650" 
d="M608 678q0 -19 -13 -32t-32 -13h-188v-583q0 -21 -14.5 -35.5t-35.5 -14.5t-35.5 14.5t-14.5 35.5v583h-188q-19 0 -32 13t-13 32t13 32t32 13h476q19 0 32 -13t13 -32zM327 784q-15 0 -36 16l-162 119q-18 14 -18 28q0 13 8.5 20.5t18.5 7.5t23 -5l166 -70l166 70
q13 5 23 5t18.5 -7.5t8.5 -20.5q0 -14 -18 -28l-162 -119q-21 -16 -36 -16z" />
    <glyph glyph-name="tcaron" unicode="&#x165;" horiz-adv-x="546" 
d="M510 81q0 -18 -16 -34q-52 -52 -127 -52q-90 0 -143 65q-37 44 -37 121v271h-104q-18 0 -30.5 12.5t-12.5 29.5q0 18 12.5 30.5t29.5 12.5h105v150q0 19 13.5 33t33.5 14t33.5 -14t13.5 -33v-150h142q18 0 30.5 -12.5t12.5 -29.5q0 -18 -12.5 -30.5t-29.5 -12.5h-143
v-276q0 -40 17 -63q24 -33 69 -33q32 0 64 26q22 18 37 18q19 0 30.5 -12t11.5 -31zM495 725q0 -40 -30 -66q-23 -21 -55 -37q-13 -7 -25 -7q-8 0 -15 6t-7 15q0 14 14 22q32 22 32 31q0 8 -10 12q-32 12 -32 43q0 21 18 36.5t44 15.5q29 0 47.5 -20t18.5 -51z" />
    <glyph glyph-name="Tbar" unicode="&#x166;" horiz-adv-x="650" 
d="M146 425h129v208h-188q-19 0 -32 13t-13 32t13 32t32 13h476q19 0 32 -13t13 -32t-13 -32t-32 -13h-188v-208h129q19 0 32 -13t13 -32t-13 -32t-32 -13h-129v-285q0 -21 -14.5 -35.5t-35.5 -14.5t-35.5 14.5t-14.5 35.5v285h-129q-19 0 -32 13t-13 32t13 32t32 13z" />
    <glyph glyph-name="tbar" unicode="&#x167;" horiz-adv-x="546" 
d="M187 332v120h-104q-18 0 -30.5 12.5t-12.5 29.5q0 18 12.5 30.5t29.5 12.5h105v150q0 19 13.5 33t33.5 14t33.5 -14t13.5 -33v-150h142q18 0 30.5 -12.5t12.5 -29.5q0 -18 -12.5 -30.5t-29.5 -12.5h-143v-120h142q17 0 29.5 -12.5t12.5 -29.5q0 -18 -12.5 -30t-29.5 -12
h-142v-72q0 -40 17 -63q24 -33 69 -33q32 0 64 26q22 18 37 18q19 0 30.5 -12t11.5 -31q0 -18 -16 -34q-52 -52 -127 -52q-90 0 -143 65q-37 44 -37 121v67h-106q-17 0 -29.5 12t-12.5 30q0 17 12.5 29.5t29.5 12.5h106z" />
    <glyph glyph-name="Utilde" unicode="&#x168;" horiz-adv-x="836" 
d="M721 286q0 -127 -88.5 -211.5t-214.5 -84.5t-214.5 84.5t-88.5 211.5v387q0 21 15 35.5t36 14.5t36 -14.5t15 -35.5v-387q0 -85 58.5 -145.5t142.5 -60.5t143.5 61t59.5 145v387q0 21 14.5 35.5t35.5 14.5t35.5 -14.5t14.5 -35.5v-387zM638 916q0 -29 -39 -68
q-37 -36 -96 -36q-29 0 -105 26q-53 19 -67 19q-8 0 -17 -3q-28 -9 -44 -31q-11 -15 -31 -15q-17 0 -28.5 12.5t-11.5 27.5q0 29 39 66q37 36 95 36q30 0 106 -26q50 -18 67 -18q5 0 17 2q24 8 44 33q13 14 32 14q17 0 28 -12.5t11 -26.5z" />
    <glyph glyph-name="utilde" unicode="&#x169;" horiz-adv-x="708" 
d="M90 261v229q0 20 14 33.5t33 13.5t33 -13.5t14 -33.5v-233q0 -57 12 -90q31 -87 137 -87q50 0 88 22t58 55q30 49 30 108v225q0 20 13.5 33.5t33.5 13.5t33.5 -13.5t13.5 -33.5v-443q0 -19 -13.5 -33t-33.5 -14t-33.5 14t-13.5 33v31q-68 -83 -179 -83q-68 0 -121 27.5
t-83 75.5q-36 60 -36 163zM561 737q0 -29 -39 -68q-37 -36 -96 -36q-29 0 -105 26q-53 19 -67 19q-8 0 -17 -3q-28 -9 -44 -31q-11 -15 -31 -15q-17 0 -28.5 12.5t-11.5 27.5q0 29 39 66q37 36 95 36q30 0 106 -26q50 -18 67 -18q5 0 17 2q24 8 44 33q13 14 32 14
q17 0 28 -12.5t11 -26.5z" />
    <glyph glyph-name="Umacron" unicode="&#x16a;" horiz-adv-x="836" 
d="M721 286q0 -127 -88.5 -211.5t-214.5 -84.5t-214.5 84.5t-88.5 211.5v387q0 21 15 35.5t36 14.5t36 -14.5t15 -35.5v-387q0 -85 58.5 -145.5t142.5 -60.5t143.5 61t59.5 145v387q0 21 14.5 35.5t35.5 14.5t35.5 -14.5t14.5 -35.5v-387zM631 880q0 -19 -13 -32t-32 -13
h-336q-19 0 -32 13t-13 32t13 32t32 13h336q19 0 32 -13t13 -32z" />
    <glyph glyph-name="umacron" unicode="&#x16b;" horiz-adv-x="708" 
d="M90 261v229q0 20 14 33.5t33 13.5t33 -13.5t14 -33.5v-233q0 -57 12 -90q31 -87 137 -87q50 0 88 22t58 55q30 49 30 108v225q0 20 13.5 33.5t33.5 13.5t33.5 -13.5t13.5 -33.5v-443q0 -19 -13.5 -33t-33.5 -14t-33.5 14t-13.5 33v31q-68 -83 -179 -83q-68 0 -121 27.5
t-83 75.5q-36 60 -36 163zM555 704q0 -19 -13 -32t-32 -13h-336q-19 0 -32 13t-13 32t13 32t32 13h336q19 0 32 -13t13 -32z" />
    <glyph glyph-name="Ubreve" unicode="&#x16c;" horiz-adv-x="836" 
d="M721 286q0 -127 -88.5 -211.5t-214.5 -84.5t-214.5 84.5t-88.5 211.5v387q0 21 15 35.5t36 14.5t36 -14.5t15 -35.5v-387q0 -85 58.5 -145.5t142.5 -60.5t143.5 61t59.5 145v387q0 21 14.5 35.5t35.5 14.5t35.5 -14.5t14.5 -35.5v-387zM416 789q-91 0 -146 43t-55 104
q0 16 10 27.5t26 11.5q30 0 40 -34q10 -32 37 -50t88 -18t88 18t37 50q10 34 40 34q16 0 26 -11.5t10 -27.5q0 -61 -55 -104t-146 -43z" />
    <glyph glyph-name="ubreve" unicode="&#x16d;" horiz-adv-x="708" 
d="M90 261v229q0 20 14 33.5t33 13.5t33 -13.5t14 -33.5v-233q0 -57 12 -90q31 -87 137 -87q50 0 88 22t58 55q30 49 30 108v225q0 20 13.5 33.5t33.5 13.5t33.5 -13.5t13.5 -33.5v-443q0 -19 -13.5 -33t-33.5 -14t-33.5 14t-13.5 33v31q-68 -83 -179 -83q-68 0 -121 27.5
t-83 75.5q-36 60 -36 163zM544 817q0 -69 -54.5 -118t-151.5 -49t-151.5 49t-54.5 118q0 16 11.5 27.5t27.5 11.5t27.5 -11.5t11.5 -27.5q0 -14 4.5 -26t17 -26t40 -22.5t66.5 -8.5q74 0 101 25.5t27 57.5q0 16 11.5 27.5t27.5 11.5t27.5 -11.5t11.5 -27.5z" />
    <glyph glyph-name="Uring" unicode="&#x16e;" horiz-adv-x="836" 
d="M721 286q0 -127 -88.5 -211.5t-214.5 -84.5t-214.5 84.5t-88.5 211.5v387q0 21 15 35.5t36 14.5t36 -14.5t15 -35.5v-387q0 -85 58.5 -145.5t142.5 -60.5t143.5 61t59.5 145v387q0 21 14.5 35.5t35.5 14.5t35.5 -14.5t14.5 -35.5v-387zM553 880q0 -55 -40 -92.5
t-95 -37.5t-94.5 37.5t-39.5 92.5q0 54 39.5 92t94.5 38t95 -37.5t40 -92.5zM491 880q0 30 -21.5 51.5t-51.5 21.5t-51.5 -21.5t-21.5 -51.5t21.5 -51.5t51.5 -21.5t51.5 21.5t21.5 51.5z" />
    <glyph glyph-name="uring" unicode="&#x16f;" horiz-adv-x="708" 
d="M90 261v229q0 20 14 33.5t33 13.5t33 -13.5t14 -33.5v-233q0 -57 12 -90q31 -87 137 -87q50 0 88 22t58 55q30 49 30 108v225q0 20 13.5 33.5t33.5 13.5t33.5 -13.5t13.5 -33.5v-443q0 -19 -13.5 -33t-33.5 -14t-33.5 14t-13.5 33v31q-68 -83 -179 -83q-68 0 -121 27.5
t-83 75.5q-36 60 -36 163zM473 730q0 -55 -40 -92.5t-95 -37.5t-94.5 37.5t-39.5 92.5q0 54 39.5 92t94.5 38t95 -37.5t40 -92.5zM411 730q0 30 -21.5 51.5t-51.5 21.5t-51.5 -21.5t-21.5 -51.5t21.5 -51.5t51.5 -21.5t51.5 21.5t21.5 51.5z" />
    <glyph glyph-name="Uhungarumlaut" unicode="&#x170;" horiz-adv-x="836" 
d="M721 286q0 -127 -88.5 -211.5t-214.5 -84.5t-214.5 84.5t-88.5 211.5v387q0 21 15 35.5t36 14.5t36 -14.5t15 -35.5v-387q0 -85 58.5 -145.5t142.5 -60.5t143.5 61t59.5 145v387q0 21 14.5 35.5t35.5 14.5t35.5 -14.5t14.5 -35.5v-387zM172 855l150 93q24 14 43 14
q21 0 37 -16t16 -42q0 -44 -43 -56l-182 -49q-3 -1 -12 -1q-13 0 -20.5 8t-7.5 19q0 20 19 30zM436 855l150 93q24 14 43 14q21 0 37 -16t16 -42q0 -44 -43 -56l-182 -49q-3 -1 -12 -1q-13 0 -20.5 8t-7.5 19q0 20 19 30z" />
    <glyph glyph-name="uhungarumlaut" unicode="&#x171;" horiz-adv-x="708" 
d="M90 261v229q0 20 14 33.5t33 13.5t33 -13.5t14 -33.5v-233q0 -57 12 -90q31 -87 137 -87q50 0 88 22t58 55q30 49 30 108v225q0 20 13.5 33.5t33.5 13.5t33.5 -13.5t13.5 -33.5v-443q0 -19 -13.5 -33t-33.5 -14t-33.5 14t-13.5 33v31q-68 -83 -179 -83q-68 0 -121 27.5
t-83 75.5q-36 60 -36 163zM366 779q0 -32 -22 -46l-202 -128q-7 -5 -19 -5q-14 0 -23 12q-4 7 -4 16q0 12 11 25l163 169q14 14 36 14q27 0 43.5 -17t16.5 -40zM589 779q0 -32 -22 -46l-202 -128q-7 -5 -19 -5q-14 0 -23 12q-4 7 -4 16q0 12 11 25l163 169q14 14 36 14
q27 0 43.5 -17t16.5 -40z" />
    <glyph glyph-name="Uogonek" unicode="&#x172;" horiz-adv-x="836" 
d="M511 -158q0 -16 -16 -25q-36 -20 -80 -20q-50 0 -76.5 27t-26.5 69q0 44 35 82q17 17 20 19q-108 17 -180 98t-72 194v387q0 21 15 35.5t36 14.5t36 -14.5t15 -35.5v-387q0 -85 58.5 -145.5t142.5 -60.5t143.5 61t59.5 145v387q0 21 14.5 35.5t35.5 14.5t35.5 -14.5
t14.5 -35.5v-387q0 -126 -87.5 -210t-212.5 -86q-12 -10 -23 -25q-23 -27 -23 -60q0 -23 12.5 -36.5t34.5 -13.5t50 12q9 3 15 3q9 0 16.5 -9t7.5 -19z" />
    <glyph glyph-name="uogonek" unicode="&#x173;" horiz-adv-x="708" 
d="M622 -158q0 -16 -16 -25q-36 -20 -80 -20q-50 0 -76.5 27t-26.5 69q0 44 35 82q25 27 60 44q-9 12 -9 28v31q-68 -83 -179 -83q-68 0 -121 27.5t-83 75.5q-36 60 -36 163v229q0 20 14 33.5t33 13.5t33 -13.5t14 -33.5v-233q0 -57 12 -90q31 -87 137 -87q50 0 88 22t58 55
q30 49 30 108v225q0 20 13.5 33.5t33.5 13.5t33.5 -13.5t13.5 -33.5v-443q0 -19 -13.5 -33t-33.5 -14q-7 0 -11 1q-22 -17 -36 -36q-23 -27 -23 -60q0 -23 12.5 -36.5t34.5 -13.5t50 12q9 3 15 3q9 0 16.5 -9t7.5 -19z" />
    <glyph glyph-name="Wcircumflex" unicode="&#x174;" horiz-adv-x="853" 
d="M783 674q0 -8 -3 -20l-147 -614q-5 -18 -17 -29t-28 -11h-37q-14 0 -25 10t-15 25l-78 337q-6 30 -6 68h-2q0 -46 -6 -68l-77 -337q-4 -15 -15 -25t-25 -10h-37q-16 0 -28 11t-17 29l-147 613q-3 11 -3 20q0 21 14.5 35.5t35.5 14.5q41 0 50 -42l106 -509l9 -74h2
q3 49 9 74l88 389q8 37 44 37q16 0 28 -10.5t16 -26.5l88 -389q6 -25 9 -74h2q2 42 9 74l106 509q9 42 50 42q21 0 34 -14.5t13 -34.5zM425 976q15 0 36 -16l162 -119q18 -14 18 -28q0 -13 -8.5 -20.5t-18.5 -7.5t-23 5l-166 70l-166 -70q-13 -5 -23 -5t-18.5 7.5t-8.5 20.5
q0 14 18 28l162 119q21 16 36 16z" />
    <glyph glyph-name="wcircumflex" unicode="&#x175;" horiz-adv-x="820" 
d="M760 490q0 -9 -2 -15l-145 -443q-4 -14 -17 -23t-28 -9h-33q-28 0 -36 26l-80 232q-4 10 -6 22.5t-2 20.5v8h-2q-1 -30 -8 -51l-80 -232q-8 -26 -36 -26h-33q-14 0 -27 9t-17 23l-146 443q-2 6 -2 15q0 20 14 33.5t33 13.5q34 0 45 -33l112 -363l7 -49h2q0 29 7 49
l94 272q8 26 36 26q27 0 36 -26l94 -272q3 -9 5 -21t2 -20v-8h2q1 29 7 49l113 363q9 33 44 33q20 0 33.5 -13.5t13.5 -33.5zM613 611q-9 -11 -23 -11q-10 0 -19 6l-160 116l-160 -116q-9 -6 -19 -6q-14 0 -23 11q-6 8 -6 17q0 14 11 25l151 167q21 23 46 23q26 0 46 -23
l151 -167q11 -11 11 -25q0 -10 -6 -17z" />
    <glyph glyph-name="Ycircumflex" unicode="&#x176;" horiz-adv-x="678" 
d="M634 673q0 -15 -9 -28l-240 -346q4 -211 4 -249q0 -21 -14.5 -35.5t-35.5 -14.5t-35.5 14.5t-14.5 35.5l4 249l-240 346q-9 13 -9 28q0 20 15 35t35 15q27 0 41 -22l206 -314l201 314q15 22 42 22q20 0 35 -15t15 -35zM341 976q15 0 36 -16l162 -119q18 -14 18 -28
q0 -13 -8.5 -20.5t-18.5 -7.5t-23 5l-166 70l-166 -70q-13 -5 -23 -5t-18.5 7.5t-8.5 20.5q0 14 18 28l162 119q21 16 36 16z" />
    <glyph glyph-name="ycircumflex" unicode="&#x177;" horiz-adv-x="653" 
d="M134 511l178 -361q16 -31 18 -40h2q2 9 18 40l179 361q12 26 41 26q10 0 22 -5q26 -13 26 -42q0 -10 -6 -21l-295 -576q-24 -46 -65 -71.5t-89 -25.5q-64 0 -117 43q-17 14 -17 34q0 18 12.5 31t30.5 13q15 0 29 -11q30 -24 58 -24q56 0 83 52l44 86q-9 6 -18 23
l-218 426q-5 10 -5 21q0 29 26 42q12 5 21 5q30 0 42 -26zM533 611q-9 -11 -23 -11q-10 0 -19 6l-160 116l-160 -116q-9 -6 -19 -6q-14 0 -23 11q-6 8 -6 17q0 14 11 25l151 167q21 23 46 23q26 0 46 -23l151 -167q11 -11 11 -25q0 -10 -6 -17z" />
    <glyph glyph-name="Ydieresis" unicode="&#x178;" horiz-adv-x="678" 
d="M634 673q0 -15 -9 -28l-240 -346q4 -211 4 -249q0 -21 -14.5 -35.5t-35.5 -14.5t-35.5 14.5t-14.5 35.5l4 249l-240 346q-9 13 -9 28q0 20 15 35t35 15q27 0 41 -22l206 -314l201 314q15 22 42 22q20 0 35 -15t15 -35zM548 890q0 -29 -21.5 -50.5t-50.5 -21.5t-50.5 21.5
t-21.5 50.5t21.5 50.5t50.5 21.5t50.5 -21.5t21.5 -50.5zM279 890q0 -29 -21.5 -50.5t-50.5 -21.5t-50.5 21.5t-21.5 50.5t21.5 50.5t50.5 21.5t50.5 -21.5t21.5 -50.5z" />
    <glyph glyph-name="Zacute" unicode="&#x179;" horiz-adv-x="726" 
d="M666 45q0 -19 -13 -32t-32 -13h-515q-21 0 -33.5 13.5t-12.5 33.5t12 35l443 551h-385q-19 0 -32 13t-13 32t13 32t32 13h485q24 0 38 -19q8 -12 8 -31q0 -17 -15 -36l-440 -547h415q19 0 32 -13t13 -32zM232 846l190 111q24 14 43 14q21 0 37 -16t16 -42q0 -43 -43 -56
l-222 -67q-3 -1 -12 -1q-13 0 -20.5 7.5t-7.5 19.5q0 20 19 30z" />
    <glyph glyph-name="zacute" unicode="&#x17a;" horiz-adv-x="634" 
d="M571 43q0 -18 -12.5 -30.5t-29.5 -12.5h-419q-19 0 -32 13q-15 13 -15 34q0 19 13 32l336 373h-289q-17 0 -30 12.5t-13 29.5q0 18 13 30.5t30 12.5h389q19 0 32 -13q15 -14 15 -34q0 -19 -13 -32l-336 -373h319q17 0 29.5 -12.5t12.5 -29.5zM452 785q0 -30 -20 -44
l-198 -135q-9 -6 -19 -6q-14 0 -23 11q-6 8 -6 17q0 14 11 25l157 174q15 16 40 16q24 0 41 -17t17 -41z" />
    <glyph glyph-name="Zdotaccent" unicode="&#x17b;" horiz-adv-x="726" 
d="M666 45q0 -19 -13 -32t-32 -13h-515q-21 0 -33.5 13.5t-12.5 33.5t12 35l443 551h-385q-19 0 -32 13t-13 32t13 32t32 13h485q24 0 38 -19q8 -12 8 -31q0 -17 -15 -36l-440 -547h415q19 0 32 -13t13 -32zM436 880q0 -29 -21.5 -50.5t-50.5 -21.5t-50.5 21.5t-21.5 50.5
t21.5 50.5t50.5 21.5t50.5 -21.5t21.5 -50.5z" />
    <glyph glyph-name="zdotaccent" unicode="&#x17c;" horiz-adv-x="634" 
d="M571 43q0 -18 -12.5 -30.5t-29.5 -12.5h-419q-19 0 -32 13q-15 13 -15 34q0 19 13 32l336 373h-289q-17 0 -30 12.5t-13 29.5q0 18 13 30.5t30 12.5h389q19 0 32 -13q15 -14 15 -34q0 -19 -13 -32l-336 -373h319q17 0 29.5 -12.5t12.5 -29.5zM390 704q0 -29 -21.5 -50.5
t-50.5 -21.5t-50.5 21.5t-21.5 50.5t21.5 50.5t50.5 21.5t50.5 -21.5t21.5 -50.5z" />
    <glyph glyph-name="Zcaron" unicode="&#x17d;" horiz-adv-x="726" 
d="M666 45q0 -19 -13 -32t-32 -13h-515q-21 0 -33.5 13.5t-12.5 33.5t12 35l443 551h-385q-19 0 -32 13t-13 32t13 32t32 13h485q24 0 38 -19q8 -12 8 -31q0 -17 -15 -36l-440 -547h415q19 0 32 -13t13 -32zM372 784q-15 0 -36 16l-162 119q-18 14 -18 28q0 13 8.5 20.5
t18.5 7.5q11 0 23 -5l166 -70l166 70q12 5 23 5q10 0 18.5 -7.5t8.5 -20.5q0 -14 -18 -28l-162 -119q-21 -16 -36 -16z" />
    <glyph glyph-name="zcaron" unicode="&#x17e;" horiz-adv-x="634" 
d="M571 43q0 -18 -12.5 -30.5t-29.5 -12.5h-419q-19 0 -32 13q-15 13 -15 34q0 19 13 32l336 373h-289q-17 0 -30 12.5t-13 29.5q0 18 13 30.5t30 12.5h389q19 0 32 -13q15 -14 15 -34q0 -19 -13 -32l-336 -373h319q17 0 29.5 -12.5t12.5 -29.5zM520 832q6 -7 6 -17
q0 -14 -11 -25l-151 -167q-21 -23 -46 -23q-26 0 -46 23l-151 167q-11 11 -11 25q0 10 6 17q9 11 23 11q10 0 19 -6l160 -116l160 116q9 6 19 6q14 0 23 -11z" />
    <glyph glyph-name="florin" unicode="&#x192;" horiz-adv-x="742" 
d="M718 650q0 -20 -12.5 -32.5t-32.5 -12.5q-17 1 -34 17q-10 9 -16.5 13.5t-17 8t-25.5 3.5q-31 0 -55 -21.5t-31 -53.5l-25 -118h99q16 0 28 -12t12 -29t-12 -29t-28 -12h-116l-79 -378q-17 -82 -62 -127t-115 -45q-25 0 -45 5q-46 12 -81.5 41t-35.5 63q0 19 12.5 31
t31.5 12q22 0 39 -24q29 -42 72 -42q31 0 55.5 21.5t31.5 53.5l80 389h-104q-16 0 -28 12t-12 29t12 29t28 12h121l24 118q15 74 66.5 117.5t114.5 43.5q78 0 127 -54q13 -15 13 -29z" />
    <glyph glyph-name="Aringacute" unicode="&#x1fa;" horiz-adv-x="760" 
d="M48 69l266 616q-70 38 -70 115q0 54 39.5 92t94.5 38t95 -37.5t40 -92.5q0 -36 -19 -66.5t-50 -47.5l269 -617q4 -12 4 -19q0 -33 -31 -46q-8 -4 -19 -4q-34 0 -47 30l-57 136h-371l-56 -136q-12 -30 -45 -30q-11 0 -19 4q-29 12 -29 45q0 8 5 20zM526 256l-148 359
l-148 -359h296zM247 984l190 111q24 14 43 14q21 0 37 -16t16 -42q0 -43 -43 -56l-222 -67q-3 -1 -12 -1q-12 0 -20 7.5t-8 19.5q0 20 19 30zM451 800q0 30 -21.5 51.5t-51.5 21.5t-51.5 -21.5t-21.5 -51.5t21.5 -51.5t51.5 -21.5t51.5 21.5t21.5 51.5z" />
    <glyph glyph-name="aringacute" unicode="&#x1fb;" horiz-adv-x="722" 
d="M617 490v-443q0 -19 -13.5 -33t-33.5 -14t-33.5 14t-13.5 33v18q-72 -70 -179 -70q-115 0 -194.5 79t-79.5 194q0 114 80 194t193 80q108 0 180 -70v18q0 20 13.5 33.5t33.5 13.5q19 0 32 -13.5t15 -33.5zM523 269q0 81 -50 134.5t-129 53.5q-78 0 -129 -54.5t-51 -133.5
q0 -80 51 -134.5t128 -54.5q80 0 130 54.5t50 134.5zM474 720q0 -55 -40 -92.5t-95 -37.5t-94.5 37.5t-39.5 92.5q0 54 39.5 92t94.5 38t95 -37.5t40 -92.5zM412 720q0 30 -21.5 51.5t-51.5 21.5t-51.5 -21.5t-21.5 -51.5t21.5 -51.5t51.5 -21.5t51.5 21.5t21.5 51.5z
M206 926l190 111q24 14 43 14q21 0 37 -16t16 -42q0 -43 -43 -56l-222 -67q-3 -1 -12 -1q-13 0 -20.5 7.5t-7.5 19.5q0 20 19 30z" />
    <glyph glyph-name="AEacute" unicode="&#x1fc;" horiz-adv-x="816" 
d="M754 45q0 -19 -13 -32t-32 -13h-267q-20 0 -34.5 15t-14.5 35v116h-202l-56 -136q-13 -30 -46 -30q-9 0 -18 4q-28 12 -28 46q0 10 4 19l286 622q15 32 44 32h332q19 0 32 -13t13 -32t-13 -32t-32 -13h-217v-228h152q19 0 31.5 -12t12.5 -31t-12.5 -31t-31.5 -12h-152
v-229h217q19 0 32 -13t13 -32zM393 256v357l-164 -357h164zM339 846l190 111q24 14 43 14q21 0 37 -16t16 -42q0 -43 -43 -56l-222 -67q-3 -1 -12 -1q-12 0 -20 7.5t-8 19.5q0 20 19 30z" />
    <glyph glyph-name="aeacute" unicode="&#x1fd;" horiz-adv-x="999" 
d="M930 269q0 -18 -13 -30.5t-30 -12.5h-354q12 -66 52.5 -106.5t100.5 -40.5q71 0 129 59q14 16 34 16q18 0 29.5 -12.5t11.5 -30.5t-14 -32q-75 -84 -189 -84q-111 0 -182 85q-28 -24 -69 -46q-25 -14 -39 -20t-42.5 -12.5t-63.5 -6.5q-95 0 -158 40t-63 121q0 70 49 113
q48 42 127 42h188v49q0 58 -30 78t-91 20q-70 0 -134 -41q-9 -6 -22 -6q-17 0 -29 12t-12 30q0 20 20 34q84 55 173 55q71 0 117 -19.5t75 -65.5q63 85 185 85q108 0 176 -79t68 -194zM835 311q-9 65 -48.5 106t-99.5 41t-103 -40.5t-51 -106.5h302zM433 126l1 103h-175
q-94 0 -94 -73q0 -36 32.5 -56t93.5 -20q40 0 70.5 8.5t42 15.5t29.5 22zM632 785q0 -30 -20 -44l-198 -135q-9 -6 -19 -6q-14 0 -23 11q-6 8 -6 17q0 14 11 25l157 174q15 16 40 16q24 0 41 -17t17 -41z" />
    <glyph glyph-name="Oslashacute" unicode="&#x1fe;" horiz-adv-x="888" 
d="M808 362q0 -153 -107 -262.5t-257 -109.5q-93 0 -172 45l-18 -27q-12 -18 -35 -18q-12 0 -24 7q-18 13 -18 35q0 13 7 24l19 28q-58 53 -90.5 125t-32.5 153q0 153 107 262.5t257 109.5q93 0 175 -46l18 27q12 18 35 18q13 0 24 -7q18 -12 18 -38q0 -9 -7 -21l-20 -29
q121 -113 121 -276zM708 362q0 117 -75 198l-309 -450q56 -31 120 -31q110 0 187 82.5t77 200.5zM567 612q-56 32 -123 32q-110 0 -187 -82t-77 -200t77 -200zM311 846l190 111q24 14 43 14q21 0 37 -16t16 -42q0 -43 -43 -56l-222 -67q-3 -1 -12 -1q-12 0 -20 7.5t-8 19.5
q0 20 19 30z" />
    <glyph glyph-name="oslashacute" unicode="&#x1ff;" horiz-adv-x="688" 
d="M537 476l-6 -8q87 -81 87 -199q0 -114 -80.5 -194t-194.5 -80q-66 0 -120 27l-5 -8q-12 -18 -30 -18q-13 0 -26 8q-17 11 -17 32q0 15 7 24l5 7q-87 81 -87 201q0 114 79.5 194t193.5 80q65 0 121 -28l6 8q14 19 33 19q10 0 23 -8q20 -15 20 -33q0 -10 -9 -24zM164 269
q0 -75 44 -127l207 300q-33 15 -72 15q-78 0 -128.5 -54.5t-50.5 -133.5zM524 269q0 73 -44 125l-207 -300q33 -14 70 -14q78 0 129.5 54.5t51.5 134.5zM457 785q0 -30 -20 -44l-198 -135q-9 -6 -19 -6q-14 0 -23 11q-6 8 -6 17q0 14 11 25l157 174q15 16 40 16q24 0 41 -17
t17 -41z" />
    <glyph glyph-name="uni0218" unicode="&#x218;" horiz-adv-x="768" 
d="M688 216q0 -92 -59 -149q-80 -78 -235 -78q-188 0 -296 118q-18 18 -18 38q0 21 14.5 36.5t36.5 15.5q21 0 42 -22q90 -96 217 -96q115 0 165 54q30 33 30 77q0 86 -124 111q-25 5 -96.5 16.5t-72.5 11.5q-104 18 -144 58q-52 52 -52 130q0 65 49 114q83 83 248 83
q125 0 231 -67q32 -20 32 -45q0 -19 -13.5 -34t-33.5 -15q-17 0 -37 14q-85 59 -180 59q-119 0 -169 -50q-26 -26 -26 -57q0 -41 25.5 -64t84.5 -33q16 -3 172 -29q110 -19 161 -75q48 -53 48 -122zM460 -94q0 -40 -30 -66q-23 -21 -55 -37q-13 -7 -25 -7q-8 0 -15 6t-7 15
q0 14 14 22q32 22 32 31q0 8 -10 12q-32 12 -32 43q0 21 18 36.5t44 15.5q29 0 47.5 -20t18.5 -51z" />
    <glyph glyph-name="uni0219" unicode="&#x219;" horiz-adv-x="673" 
d="M598 163q0 -95 -97 -139q-63 -29 -169 -29q-85 0 -148 26.5t-95 59.5q-15 15 -15 33q0 19 12.5 32.5t33.5 13.5q16 0 32 -14q25 -21 43 -32.5t57 -23.5t87 -12q71 0 110 16q54 23 54 67q0 30 -19 43.5t-61 21.5q-15 3 -83 11t-73 9q-172 23 -172 144q0 35 19 66
q53 86 218 86q121 0 206 -54q25 -17 25 -37q0 -17 -12 -31t-29 -14q-11 0 -31 11q-74 43 -159 43q-142 0 -142 -68q0 -29 24.5 -43.5t75.5 -20.5q9 -1 42.5 -5l62 -7.5t43.5 -6.5q33 -6 57.5 -14.5t50 -24t39 -43t13.5 -64.5zM403 -94q0 -40 -30 -66q-23 -21 -55 -37
q-13 -7 -25 -7q-8 0 -15 6t-7 15q0 14 14 22q32 22 32 31q0 8 -10 12q-32 12 -32 43q0 21 18 36.5t44 15.5q29 0 47.5 -20t18.5 -51z" />
    <glyph glyph-name="uni021A" unicode="&#x21a;" horiz-adv-x="650" 
d="M608 678q0 -19 -13 -32t-32 -13h-188v-583q0 -21 -14.5 -35.5t-35.5 -14.5t-35.5 14.5t-14.5 35.5v583h-188q-19 0 -32 13t-13 32t13 32t32 13h476q19 0 32 -13t13 -32zM390 -94q0 -40 -30 -66q-23 -21 -55 -37q-13 -7 -25 -7q-8 0 -15 6t-7 15q0 14 14 22q32 22 32 31
q0 8 -10 12q-32 12 -32 43q0 21 18 36.5t44 15.5q29 0 47.5 -20t18.5 -51z" />
    <glyph glyph-name="uni021B" unicode="&#x21b;" horiz-adv-x="546" 
d="M510 81q0 -18 -16 -34q-52 -52 -127 -52q-90 0 -143 65q-37 44 -37 121v271h-104q-18 0 -30.5 12.5t-12.5 29.5q0 18 12.5 30.5t29.5 12.5h105v150q0 19 13.5 33t33.5 14t33.5 -14t13.5 -33v-150h142q18 0 30.5 -12.5t12.5 -29.5q0 -18 -12.5 -30.5t-29.5 -12.5h-143
v-276q0 -40 17 -63q24 -33 69 -33q32 0 64 26q22 18 37 18q19 0 30.5 -12t11.5 -31zM427 -94q0 -40 -30 -66q-23 -21 -55 -37q-13 -7 -25 -7q-8 0 -15 6t-7 15q0 14 14 22q32 22 32 31q0 8 -10 12q-32 12 -32 43q0 21 18 36.5t44 15.5q29 0 47.5 -20t18.5 -51z" />
    <glyph glyph-name="circumflex" unicode="&#x2c6;" horiz-adv-x="436" 
d="M420 611q-9 -11 -23 -11q-10 0 -19 6l-160 116l-160 -116q-9 -6 -19 -6q-14 0 -23 11q-6 7 -6 17q0 14 11 25l151 167q21 23 46 23q26 0 46 -23l151 -167q11 -11 11 -25q0 -10 -6 -17z" />
    <glyph glyph-name="caron" unicode="&#x2c7;" horiz-adv-x="436" 
d="M420 832q6 -7 6 -17q0 -14 -11 -25l-151 -167q-21 -23 -46 -23q-26 0 -46 23l-151 167q-11 11 -11 25q0 10 6 17q9 11 23 11q10 0 19 -6l160 -116l160 116q9 6 19 6q14 0 23 -11z" />
    <glyph glyph-name="breve" unicode="&#x2d8;" horiz-adv-x="432" 
d="M422 817q0 -69 -54.5 -118t-151.5 -49t-151.5 49t-54.5 118q0 16 11.5 27.5t27.5 11.5t27.5 -11.5t11.5 -27.5q0 -14 4.5 -26t17 -26t40 -22.5t66.5 -8.5q74 0 101 25.5t27 57.5q0 16 11.5 27.5t27.5 11.5t27.5 -11.5t11.5 -27.5z" />
    <glyph glyph-name="dotaccent" unicode="&#x2d9;" horiz-adv-x="314" 
d="M229 704q0 -29 -21.5 -50.5t-50.5 -21.5t-50.5 21.5t-21.5 50.5t21.5 50.5t50.5 21.5t50.5 -21.5t21.5 -50.5z" />
    <glyph glyph-name="ring" unicode="&#x2da;" horiz-adv-x="289" 
d="M279 730q0 -55 -40 -92.5t-95 -37.5t-94.5 37.5t-39.5 92.5q0 54 39.5 92t94.5 38t95 -37.5t40 -92.5zM217 730q0 30 -21.5 51.5t-51.5 21.5t-51.5 -21.5t-21.5 -51.5t21.5 -51.5t51.5 -21.5t51.5 21.5t21.5 51.5z" />
    <glyph glyph-name="ogonek" unicode="&#x2db;" horiz-adv-x="216" 
d="M209 -158q0 -16 -16 -25q-36 -20 -80 -20q-50 0 -76.5 27t-26.5 69q0 44 35 82q26 27 67 47h49q-39 -26 -65 -57q-23 -27 -23 -60q0 -23 12.5 -36.5t34.5 -13.5t50 12q9 3 15 3q9 0 16.5 -9t7.5 -19z" />
    <glyph glyph-name="tilde" unicode="&#x2dc;" horiz-adv-x="459" 
d="M449 737q0 -29 -39 -68q-37 -36 -96 -36q-29 0 -105 26q-53 19 -67 19q-8 0 -17 -3q-28 -9 -44 -31q-11 -15 -31 -15q-17 0 -28.5 12.5t-11.5 27.5q0 29 39 66q37 36 95 36q30 0 106 -26q50 -18 67 -18q5 0 17 2q24 8 44 33q13 14 32 14q17 0 28 -12.5t11 -26.5z" />
    <glyph glyph-name="hungarumlaut" unicode="&#x2dd;" horiz-adv-x="513" 
d="M280 779q0 -32 -22 -46l-202 -128q-8 -5 -19 -5q-14 0 -23 12q-4 7 -4 16q0 12 11 25l163 169q14 14 36 14q27 0 43.5 -17t16.5 -40zM503 779q0 -32 -22 -46l-202 -128q-7 -5 -19 -5q-14 0 -23 12q-4 7 -4 16q0 12 11 25l163 169q14 14 36 14q27 0 43.5 -17t16.5 -40z
" />
    <glyph glyph-name="uni0394" unicode="&#x394;" horiz-adv-x="783" 
d="M728 50q0 -33 -31 -46q-8 -4 -19 -4h-577q-7 0 -16 4q-30 13 -30 46q0 11 4 19l269 622q13 32 44 32h38q30 0 43 -32l271 -622q4 -12 4 -19zM609 87l-220 533l-220 -533h440z" />
    <glyph glyph-name="uni03A9" unicode="&#x3a9;" horiz-adv-x="801" 
d="M706 441q0 -82 -45 -152t-120 -106v-102h117q17 0 29 -12t12 -29q0 -16 -12 -28t-29 -12h-148q-19 0 -32 13t-13 32v150q0 30 27 40q56 24 89 79t33 123q0 92 -59.5 154t-154.5 62q-94 0 -153.5 -62t-59.5 -154q0 -68 32.5 -123t88.5 -78q27 -12 27 -41v-150
q0 -19 -12.5 -32t-31.5 -13h-148q-17 0 -29 11.5t-12 28.5t12 29t29 12h116v102q-75 36 -119.5 106t-44.5 152q0 120 88 206t217 86q130 0 218 -86t88 -206z" />
    <glyph glyph-name="uni03BC" unicode="&#x3bc;" horiz-adv-x="723" 
d="M105 -139v629q0 20 13.5 33.5t33.5 13.5t33.5 -13.5t13.5 -33.5v-233q0 -57 12 -90q31 -87 137 -87q50 0 88 22t58 55q30 49 30 108v225q0 20 14 33.5t33 13.5t33 -13.5t14 -33.5v-443q0 -19 -14 -33t-33 -14t-33 14t-14 33v31q-68 -83 -179 -83q-90 0 -153 47l7 -181
q1 -19 -13 -33t-34 -14t-33.5 14t-13.5 33z" />
    <glyph glyph-name="pi" unicode="&#x3c0;" horiz-adv-x="781" 
d="M706 43q0 -18 -13 -30.5t-30 -12.5q-73 0 -126.5 51.5t-53.5 126.5v274h-195v-409q0 -18 -13 -30.5t-30 -12.5t-29.5 12.5t-12.5 29.5v410h-95q-18 0 -30.5 12.5t-12.5 29.5q0 18 12.5 30.5t29.5 12.5h556q17 0 30 -12.5t13 -29.5q0 -18 -13 -30.5t-30 -12.5h-86v-274
q0 -37 24.5 -65t61.5 -28q17 0 30 -12.5t13 -29.5z" />
    <glyph glyph-name="Wgrave" unicode="&#x1e80;" horiz-adv-x="853" 
d="M783 674q0 -8 -3 -20l-147 -614q-5 -18 -17 -29t-28 -11h-37q-14 0 -25 10t-15 25l-78 337q-6 30 -6 68h-2q0 -46 -6 -68l-77 -337q-4 -15 -15 -25t-25 -10h-37q-16 0 -28 11t-17 29l-147 613q-3 11 -3 20q0 21 14.5 35.5t35.5 14.5q41 0 50 -42l106 -509l9 -74h2
q3 49 9 74l88 389q8 37 44 37q16 0 28 -10.5t16 -26.5l88 -389q6 -25 9 -74h2q2 42 9 74l106 509q9 42 50 42q21 0 34 -14.5t13 -34.5zM372 957l190 -111q19 -10 19 -30q0 -12 -7.5 -19.5t-20.5 -7.5q-9 0 -12 1l-222 67q-43 13 -43 56q0 26 16 42t37 16q19 0 43 -14z" />
    <glyph glyph-name="wgrave" unicode="&#x1e81;" horiz-adv-x="820" 
d="M760 490q0 -9 -2 -15l-145 -443q-4 -14 -17 -23t-28 -9h-33q-28 0 -36 26l-80 232q-4 10 -6 22.5t-2 20.5v8h-2q-1 -30 -8 -51l-80 -232q-8 -26 -36 -26h-33q-14 0 -27 9t-17 23l-146 443q-2 6 -2 15q0 20 14 33.5t33 13.5q34 0 45 -33l112 -363l7 -49h2q0 29 7 49
l94 272q8 26 36 26q27 0 36 -26l94 -272q3 -9 5 -21t2 -20v-8h2q1 29 7 49l113 363q9 33 44 33q20 0 33.5 -13.5t13.5 -33.5zM539 611q-9 -11 -23 -11q-10 0 -19 6l-198 135q-20 14 -20 44q0 24 17 41t41 17q25 0 40 -16l157 -174q11 -11 11 -25q0 -10 -6 -17z" />
    <glyph glyph-name="Wacute" unicode="&#x1e82;" horiz-adv-x="853" 
d="M783 674q0 -8 -3 -20l-147 -614q-5 -18 -17 -29t-28 -11h-37q-14 0 -25 10t-15 25l-78 337q-6 30 -6 68h-2q0 -46 -6 -68l-77 -337q-4 -15 -15 -25t-25 -10h-37q-16 0 -28 11t-17 29l-147 613q-3 11 -3 20q0 21 14.5 35.5t35.5 14.5q41 0 50 -42l106 -509l9 -74h2
q3 49 9 74l88 389q8 37 44 37q16 0 28 -10.5t16 -26.5l88 -389q6 -25 9 -74h2q2 42 9 74l106 509q9 42 50 42q21 0 34 -14.5t13 -34.5zM294 846l190 111q24 14 43 14q21 0 37 -16t16 -42q0 -43 -43 -56l-222 -67q-3 -1 -12 -1q-13 0 -20.5 7.5t-7.5 19.5q0 20 19 30z" />
    <glyph glyph-name="wacute" unicode="&#x1e83;" horiz-adv-x="820" 
d="M760 490q0 -9 -2 -15l-145 -443q-4 -14 -17 -23t-28 -9h-33q-28 0 -36 26l-80 232q-4 10 -6 22.5t-2 20.5v8h-2q-1 -30 -8 -51l-80 -232q-8 -26 -36 -26h-33q-14 0 -27 9t-17 23l-146 443q-2 6 -2 15q0 20 14 33.5t33 13.5q34 0 45 -33l112 -363l7 -49h2q0 29 7 49
l94 272q8 26 36 26q27 0 36 -26l94 -272q3 -9 5 -21t2 -20v-8h2q1 29 7 49l113 363q9 33 44 33q20 0 33.5 -13.5t13.5 -33.5zM545 785q0 -30 -20 -44l-198 -135q-9 -6 -19 -6q-14 0 -23 11q-6 8 -6 17q0 14 11 25l157 174q15 16 40 16q24 0 41 -17t17 -41z" />
    <glyph glyph-name="Wdieresis" unicode="&#x1e84;" horiz-adv-x="853" 
d="M783 674q0 -8 -3 -20l-147 -614q-5 -18 -17 -29t-28 -11h-37q-14 0 -25 10t-15 25l-78 337q-6 30 -6 68h-2q0 -46 -6 -68l-77 -337q-4 -15 -15 -25t-25 -10h-37q-16 0 -28 11t-17 29l-147 613q-3 11 -3 20q0 21 14.5 35.5t35.5 14.5q41 0 50 -42l106 -509l9 -74h2
q3 49 9 74l88 389q8 37 44 37q16 0 28 -10.5t16 -26.5l88 -389q6 -25 9 -74h2q2 42 9 74l106 509q9 42 50 42q21 0 34 -14.5t13 -34.5zM635 880q0 -29 -21.5 -50.5t-50.5 -21.5t-50.5 21.5t-21.5 50.5t21.5 50.5t50.5 21.5t50.5 -21.5t21.5 -50.5zM366 880
q0 -29 -21.5 -50.5t-50.5 -21.5t-50.5 21.5t-21.5 50.5t21.5 50.5t50.5 21.5t50.5 -21.5t21.5 -50.5z" />
    <glyph glyph-name="wdieresis" unicode="&#x1e85;" horiz-adv-x="820" 
d="M760 490q0 -9 -2 -15l-145 -443q-4 -14 -17 -23t-28 -9h-33q-28 0 -36 26l-80 232q-4 10 -6 22.5t-2 20.5v8h-2q-1 -30 -8 -51l-80 -232q-8 -26 -36 -26h-33q-14 0 -27 9t-17 23l-146 443q-2 6 -2 15q0 20 14 33.5t33 13.5q34 0 45 -33l112 -363l7 -49h2q0 29 7 49
l94 272q8 26 36 26q27 0 36 -26l94 -272q3 -9 5 -21t2 -20v-8h2q1 29 7 49l113 363q9 33 44 33q20 0 33.5 -13.5t13.5 -33.5zM617 704q0 -29 -21.5 -50.5t-50.5 -21.5t-50.5 21.5t-21.5 50.5t21.5 50.5t50.5 21.5t50.5 -21.5t21.5 -50.5zM348 704q0 -29 -21.5 -50.5
t-50.5 -21.5t-50.5 21.5t-21.5 50.5t21.5 50.5t50.5 21.5t50.5 -21.5t21.5 -50.5z" />
    <glyph glyph-name="Ygrave" unicode="&#x1ef2;" horiz-adv-x="678" 
d="M634 673q0 -15 -9 -28l-240 -346q4 -211 4 -249q0 -21 -14.5 -35.5t-35.5 -14.5t-35.5 14.5t-14.5 35.5l4 249l-240 346q-9 13 -9 28q0 20 15 35t35 15q27 0 41 -22l206 -314l201 314q15 22 42 22q20 0 35 -15t15 -35zM285 957l190 -111q19 -10 19 -30q0 -12 -8 -19.5
t-20 -7.5q-9 0 -12 1l-222 67q-43 13 -43 56q0 26 16 42t37 16q19 0 43 -14z" />
    <glyph glyph-name="ygrave" unicode="&#x1ef3;" horiz-adv-x="653" 
d="M134 511l178 -361q16 -31 18 -40h2q2 9 18 40l179 361q12 26 41 26q10 0 22 -5q26 -13 26 -42q0 -10 -6 -21l-295 -576q-24 -46 -65 -71.5t-89 -25.5q-64 0 -117 43q-17 14 -17 34q0 18 12.5 31t30.5 13q15 0 29 -11q30 -24 58 -24q56 0 83 52l44 86q-9 6 -18 23
l-218 426q-5 10 -5 21q0 29 26 42q12 5 21 5q30 0 42 -26zM458 611q-9 -11 -23 -11q-10 0 -19 6l-198 135q-20 14 -20 44q0 24 17 41t41 17q25 0 40 -16l157 -174q11 -11 11 -25q0 -10 -6 -17z" />
    <glyph glyph-name="enspace" unicode="&#x2002;" horiz-adv-x="500" 
 />
    <glyph glyph-name="emspace" unicode="&#x2003;" horiz-adv-x="1000" 
 />
    <glyph glyph-name="threeperemspace" unicode="&#x2004;" horiz-adv-x="333" 
 />
    <glyph glyph-name="fourperemspace" unicode="&#x2005;" horiz-adv-x="250" 
 />
    <glyph glyph-name="thinspace" unicode="&#x2009;" horiz-adv-x="133" 
 />
    <glyph glyph-name="hairspace" unicode="&#x200a;" horiz-adv-x="75" 
 />
    <glyph glyph-name="endash" unicode="&#x2013;" horiz-adv-x="626" 
d="M563 232h-500q-18 0 -30.5 12.5t-12.5 30.5t12.5 30.5t30.5 12.5h500q18 0 30.5 -12.5t12.5 -30.5t-12.5 -30.5t-30.5 -12.5z" />
    <glyph glyph-name="emdash" unicode="&#x2014;" horiz-adv-x="1450" 
d="M1297 232h-1144q-18 0 -30.5 12.5t-12.5 30.5t12.5 30.5t30.5 12.5h1144q18 0 30.5 -12.5t12.5 -30.5t-12.5 -30.5t-30.5 -12.5z" />
    <glyph glyph-name="quoteleft" unicode="&#x2018;" horiz-adv-x="362" 
d="M90 482q0 83 35 145q33 59 78 90q20 13 35 13t24 -8.5t9 -22.5q0 -17 -15 -28q-68 -49 -68 -100q0 -13 15 -16q2 -1 3 -1q30 -7 48 -31t18 -55q0 -37 -25.5 -62.5t-62.5 -25.5q-42 0 -68 29t-26 73z" />
    <glyph glyph-name="quoteright" unicode="&#x2019;" horiz-adv-x="362" 
d="M272 624q0 -83 -35 -145q-33 -59 -78 -90q-20 -13 -35 -13t-24 8.5t-9 22.5q0 17 15 28q68 49 68 100q0 13 -15 16q-2 1 -3 1q-30 7 -48 31t-18 55q0 37 25.5 62.5t62.5 25.5q42 0 68 -29t26 -73z" />
    <glyph glyph-name="quotesinglbase" unicode="&#x201a;" horiz-adv-x="362" 
d="M272 68q0 -83 -35 -145q-33 -59 -78 -90q-20 -13 -35 -13t-24 8.5t-9 22.5q0 17 15 28q68 49 68 100q0 13 -15 16q-2 1 -3 1q-30 7 -48 31t-18 55q0 37 25.5 62.5t62.5 25.5q42 0 68 -29t26 -73z" />
    <glyph glyph-name="quotedblleft" unicode="&#x201c;" horiz-adv-x="591" 
d="M319 482q0 83 35 145q33 59 78 90q20 13 35 13t24 -8.5t9 -22.5q0 -17 -15 -28q-68 -49 -68 -100q0 -13 15 -16q2 -1 3 -1q30 -7 48 -31t18 -55q0 -37 -25.5 -62.5t-62.5 -25.5q-42 0 -68 29t-26 73zM90 482q0 83 35 145q33 59 78 90q20 13 35 13t24 -8.5t9 -22.5
q0 -17 -15 -28q-68 -49 -68 -100q0 -13 15 -16q2 -1 3 -1q30 -7 48 -31t18 -55q0 -37 -25.5 -62.5t-62.5 -25.5q-42 0 -68 29t-26 73z" />
    <glyph glyph-name="quotedblright" unicode="&#x201d;" horiz-adv-x="591" 
d="M272 624q0 -83 -35 -145q-33 -59 -78 -90q-20 -13 -35 -13t-24 8.5t-9 22.5q0 17 15 28q68 49 68 100q0 13 -15 16q-2 1 -3 1q-30 7 -48 31t-18 55q0 37 25.5 62.5t62.5 25.5q42 0 68 -29t26 -73zM501 624q0 -83 -35 -145q-33 -59 -78 -90q-20 -13 -35 -13t-24 8.5
t-9 22.5q0 17 15 28q68 49 68 100q0 13 -15 16q-2 1 -3 1q-30 7 -48 31t-18 55q0 37 25.5 62.5t62.5 25.5q42 0 68 -29t26 -73z" />
    <glyph glyph-name="quotedblbase" unicode="&#x201e;" horiz-adv-x="591" 
d="M272 68q0 -83 -35 -145q-33 -59 -78 -90q-20 -13 -35 -13t-24 8.5t-9 22.5q0 17 15 28q68 49 68 100q0 13 -15 16q-2 1 -3 1q-30 7 -48 31t-18 55q0 37 25.5 62.5t62.5 25.5q42 0 68 -29t26 -73zM501 68q0 -83 -35 -145q-33 -59 -78 -90q-20 -13 -35 -13t-24 8.5t-9 22.5
q0 17 15 28q68 49 68 100q0 13 -15 16q-2 1 -3 1q-30 7 -48 31t-18 55q0 37 25.5 62.5t62.5 25.5q42 0 68 -29t26 -73z" />
    <glyph glyph-name="dagger" unicode="&#x2020;" horiz-adv-x="686" 
d="M581 494q0 -17 -12.5 -29.5t-30.5 -12.5h-148v-405q0 -19 -14 -33t-33 -14q-20 0 -33.5 13.5t-13.5 33.5v405h-149q-17 0 -29.5 12.5t-12.5 29.5q0 18 12.5 30.5t29.5 12.5h149v138q0 20 13.5 33.5t33.5 13.5q19 0 33 -14t14 -33v-138h148q18 0 30.5 -12.5t12.5 -30.5z
" />
    <glyph glyph-name="daggerdbl" unicode="&#x2021;" horiz-adv-x="686" 
d="M390 270h148q18 0 30.5 -12.5t12.5 -29.5q0 -18 -12.5 -30.5t-30.5 -12.5h-148v-138q0 -19 -14 -33t-33 -14q-20 0 -33.5 13.5t-13.5 33.5v138h-149q-17 0 -29.5 12.5t-12.5 30.5q0 17 12.5 29.5t29.5 12.5h149v182h-149q-17 0 -29.5 12.5t-12.5 29.5q0 18 12.5 30.5
t29.5 12.5h149v138q0 20 13.5 33.5t33.5 13.5q19 0 33 -14t14 -33v-138h148q18 0 30.5 -12.5t12.5 -30.5q0 -17 -12.5 -29.5t-30.5 -12.5h-148v-182z" />
    <glyph glyph-name="bullet" unicode="&#x2022;" horiz-adv-x="544" 
d="M439 361q0 -70 -48.5 -118.5t-118.5 -48.5q-69 0 -118 48.5t-49 118.5q0 69 49 118t118 49q70 0 118.5 -49t48.5 -118z" />
    <glyph glyph-name="ellipsis" unicode="&#x2026;" horiz-adv-x="942" 
d="M874 84q0 -37 -26 -63t-63 -26t-63 26t-26 63t26 63.5t63 26.5t63 -26.5t26 -63.5zM560 84q0 -37 -26 -63t-63 -26t-63 26t-26 63t26 63.5t63 26.5t63 -26.5t26 -63.5zM246 84q0 -37 -26 -63t-63 -26t-63 26t-26 63t26 63.5t63 26.5t63 -26.5t26 -63.5z" />
    <glyph glyph-name="perthousand" unicode="&#x2030;" horiz-adv-x="1251" 
d="M1156 144q0 -64 -45.5 -109t-109.5 -45t-109 45t-45 109t45 109.5t109 45.5q65 0 110 -45.5t45 -109.5zM1082 144q0 34 -23.5 58.5t-57.5 24.5q-33 0 -56.5 -24.5t-23.5 -58.5q0 -33 23.5 -57.5t56.5 -24.5q34 0 57.5 24.5t23.5 57.5zM410 575q0 -65 -46 -111t-111 -46
t-111.5 46t-46.5 111t46.5 111.5t111.5 46.5t111 -46.5t46 -111.5zM334 575q0 35 -23.5 59.5t-57.5 24.5q-35 0 -58.5 -24.5t-23.5 -59.5q0 -34 23.5 -59t58.5 -25q34 0 57.5 25t23.5 59zM795 144q0 -64 -45 -109t-109 -45t-109.5 45t-45.5 109t45 109.5t110 45.5
q64 0 109 -45.5t45 -109.5zM721 144q0 34 -23.5 58.5t-56.5 24.5q-34 0 -57.5 -24.5t-23.5 -58.5q0 -33 23.5 -57.5t57.5 -24.5q33 0 56.5 24.5t23.5 57.5zM700 823q21 -12 21 -34q0 -9 -6 -19l-467 -865q-11 -21 -32 -21q-14 0 -25 8q-16 12 -16 30q0 11 5 20l467 865
q11 21 33 21q10 0 20 -5z" />
    <glyph glyph-name="guilsinglleft" unicode="&#x2039;" horiz-adv-x="383" 
d="M70 269q0 5 1 10t2 7.5t4 7.5t4 6.5t6 7.5t6 7l164 205q13 16 27 16q11 0 19 -7q10 -8 10 -22q0 -7 -5 -17l-122 -221l122 -222q5 -10 5 -17q0 -14 -10 -22q-8 -7 -19 -7q-14 0 -27 16l-164 205q-1 1 -7 8.5t-7 9.5t-4 7.5t-4 10.5t-1 11z" />
    <glyph glyph-name="guilsinglright" unicode="&#x203a;" horiz-adv-x="383" 
d="M313 269q0 -6 -1 -11t-4 -10.5t-4 -7.5t-7 -9.5t-7 -8.5l-164 -205q-13 -16 -27 -16q-11 0 -19 7q-10 8 -10 22q0 7 5 17l122 222l-122 221q-5 10 -5 17q0 14 10 22q8 7 19 7q14 0 27 -16l164 -205q1 -1 6 -7t6 -7.5t4 -6.5t4 -7.5t2 -7.5t1 -10z" />
    <glyph glyph-name="fraction" unicode="&#x2044;" horiz-adv-x="295" 
d="M400 823q20 -11 20 -37q0 -8 -5 -16l-467 -865q-11 -20 -33 -20q-14 0 -24 7q-16 12 -16 30q0 11 5 20l467 865q11 20 33 20q12 0 20 -4z" />
    <glyph glyph-name="parenleft.sup" unicode="&#x207d;" horiz-adv-x="240" 
d="M230 319q0 -13 -10 -23t-23 -10q-16 0 -31 16q-114 134 -114 314q0 177 119 320q10 12 26 12q13 0 23 -10t10 -23t-8 -23q-99 -118 -99 -276t98 -275q9 -11 9 -22z" />
    <glyph glyph-name="Euro" unicode="&#x20ac;" horiz-adv-x="846" 
d="M480 259h-264q27 -83 92.5 -131.5t156.5 -48.5q73 0 124 28.5t98 87.5q16 19 38 19q19 0 32.5 -13t13.5 -33q0 -16 -9 -29q-106 -149 -297 -149q-130 0 -225.5 74t-126.5 195h-39q-17 0 -28.5 11.5t-11.5 27.5t10.5 27t26.5 11h31q-1 8 -1 26q0 32 2 48h-29
q-17 0 -28.5 11.5t-11.5 27.5t10.5 27t26.5 11h49q36 112 128.5 179t216.5 67q95 0 172.5 -40t125.5 -111q8 -12 8 -26q0 -19 -13 -32.5t-32 -13.5q-23 0 -40 22q-83 113 -221 113q-85 0 -148 -42t-93 -116h253q17 0 28.5 -11t11.5 -27q0 -17 -10.5 -28t-26.5 -11h-276
q-3 -24 -3 -48q0 -18 1 -26h275q17 0 28.5 -11t11.5 -27q0 -17 -10.5 -28t-26.5 -11z" />
    <glyph glyph-name="trademark" unicode="&#x2122;" horiz-adv-x="864" 
d="M694 695v-280q0 -11 -9 -19.5t-20 -8.5q-12 0 -20 8.5t-8 19.5v222q-11 -29 -37 -79t-31 -62q-7 -15 -24 -15t-23 15q-10 22 -34 68.5t-35 72.5v-222q0 -12 -7.5 -20t-19.5 -8q-11 0 -20 8.5t-9 19.5v280q0 11 8 19.5t20 8.5h22q17 0 23 -15l75 -162l75 162q8 15 24 15
h22q11 0 19.5 -8.5t8.5 -19.5zM351 697q0 -11 -8 -18.5t-19 -7.5h-78v-256q0 -11 -8.5 -19.5t-19.5 -8.5q-12 0 -20.5 8.5t-8.5 19.5v256h-78q-11 0 -18.5 7.5t-7.5 18.5t7.5 18.5t18.5 7.5h213q11 0 19 -7.5t8 -18.5z" />
    <glyph glyph-name="Omega" unicode="&#x2126;" horiz-adv-x="801" 
d="M706 441q0 -82 -45 -152t-120 -106v-102h117q17 0 29 -12t12 -29q0 -16 -12 -28t-29 -12h-148q-19 0 -32 13t-13 32v150q0 30 27 40q56 24 89 79t33 123q0 92 -59.5 154t-154.5 62q-94 0 -153.5 -62t-59.5 -154q0 -68 32.5 -123t88.5 -78q27 -12 27 -41v-150
q0 -19 -12.5 -32t-31.5 -13h-148q-17 0 -29 11.5t-12 28.5t12 29t29 12h116v102q-75 36 -119.5 106t-44.5 152q0 120 88 206t217 86q130 0 218 -86t88 -206z" />
    <glyph glyph-name="onethird" unicode="&#x2153;" horiz-adv-x="1110" 
d="M772 823q20 -11 20 -37q0 -8 -5 -16l-467 -865q-11 -20 -33 -20q-14 0 -24 7q-16 12 -16 30q0 11 5 20l467 865q11 20 33 20q12 0 20 -4zM269 320q0 -16 -11 -27t-27 -11t-27 11t-11 27v316l-87 -62q-8 -6 -20 -6q-18 0 -28 14q-7 12 -7 21q0 17 15 28l111 78
q19 14 34 14h20q16 0 27 -11t11 -27v-365zM1043 133q0 -68 -52 -103.5t-133 -35.5q-93 0 -146 27q-21 11 -21 33q0 15 10.5 26t26.5 11q9 0 17 -4q42 -23 113 -23q111 0 111 69q0 68 -123 68q-15 0 -26 10.5t-11 24.5t11 24.5t26 10.5q101 0 101 53q0 52 -91 52
q-55 0 -94 -15q-10 -4 -19 -4q-15 0 -25 9.5t-10 24.5q0 22 23 32q55 24 125 24q76 0 120 -33.5t44 -89.5q0 -53 -46 -82q32 -13 50.5 -43t18.5 -66z" />
    <glyph glyph-name="twothirds" unicode="&#x2154;" horiz-adv-x="1165" 
d="M845 823q20 -11 20 -37q0 -8 -5 -16l-467 -865q-11 -20 -33 -20q-14 0 -24 7q-16 12 -16 30q0 11 5 20l467 865q11 20 33 20q12 0 20 -4zM411 317q0 -14 -10.5 -24.5t-24.5 -10.5h-265q-14 0 -24.5 10.5t-10.5 26.5q0 37 14 66.5t42 51t53 35t63 28.5q77 32 77 84
q0 35 -21.5 55.5t-55.5 20.5q-68 0 -84 -61q-9 -31 -38 -31q-16 0 -25.5 10.5t-9.5 26.5q0 44 43.5 84t116.5 40q67 0 108.5 -39t41.5 -106q0 -93 -122 -146q-39 -17 -55.5 -25t-37 -25t-28.5 -36h218q14 0 24.5 -10t10.5 -25zM1098 133q0 -68 -52 -103.5t-133 -35.5
q-93 0 -146 27q-21 11 -21 33q0 15 10.5 26t26.5 11q9 0 17 -4q42 -23 113 -23q111 0 111 69q0 68 -123 68q-15 0 -26 10.5t-11 24.5t11 24.5t26 10.5q101 0 101 53q0 52 -91 52q-55 0 -94 -15q-10 -4 -19 -4q-15 0 -25 9.5t-10 24.5q0 22 23 32q55 24 125 24
q76 0 120 -33.5t44 -89.5q0 -53 -46 -82q32 -13 50.5 -43t18.5 -66z" />
    <glyph glyph-name="oneeighth" unicode="&#x215b;" horiz-adv-x="1081" 
d="M743 823q20 -11 20 -37q0 -8 -5 -16l-467 -865q-11 -20 -33 -20q-14 0 -24 7q-16 12 -16 30q0 11 5 20l467 865q11 20 33 20q12 0 20 -4zM269 320q0 -16 -11 -27t-27 -11t-27 11t-11 27v316l-87 -62q-8 -6 -20 -6q-18 0 -28 14q-7 12 -7 21q0 17 15 28l111 78
q19 14 34 14h20q16 0 27 -11t11 -27v-365zM1019 134q0 -64 -49 -102t-124 -38q-76 0 -126 38t-50 102q0 72 64 108q-39 33 -39 82q0 54 41.5 88.5t108.5 34.5q66 0 107.5 -34.5t41.5 -88.5q0 -48 -38 -81q63 -33 63 -109zM944 134q0 29 -22.5 49t-75.5 20q-54 0 -77.5 -20
t-23.5 -49q0 -70 100 -70q99 0 99 70zM921 324q0 21 -19 36.5t-57 15.5q-39 0 -57.5 -15.5t-18.5 -36.5q0 -53 76 -53q42 0 59 16t17 37z" />
    <glyph glyph-name="threeeighths" unicode="&#x215c;" horiz-adv-x="1146" 
d="M819 823q20 -11 20 -37q0 -8 -5 -16l-467 -865q-11 -20 -33 -20q-14 0 -24 7q-16 12 -16 30q0 11 5 20l467 865q11 20 33 20q12 0 20 -4zM391 415q0 -68 -52 -103.5t-133 -35.5q-93 0 -146 27q-21 11 -21 33q0 15 10.5 26t26.5 11q9 0 17 -4q42 -23 113 -23q111 0 111 69
q0 68 -123 68q-15 0 -26 10.5t-11 24.5t11 24.5t26 10.5q101 0 101 53q0 52 -91 52q-55 0 -94 -15q-10 -4 -19 -4q-15 0 -25 9.5t-10 24.5q0 22 23 32q55 24 125 24q76 0 120 -33.5t44 -89.5q0 -53 -46 -82q32 -13 50.5 -43t18.5 -66zM1084 134q0 -64 -49 -102t-124 -38
q-76 0 -126 38t-50 102q0 72 64 108q-39 33 -39 82q0 54 41.5 88.5t108.5 34.5q66 0 107.5 -34.5t41.5 -88.5q0 -48 -38 -81q63 -33 63 -109zM1009 134q0 29 -22.5 49t-75.5 20q-54 0 -77.5 -20t-23.5 -49q0 -70 100 -70q99 0 99 70zM986 324q0 21 -19 36.5t-57 15.5
q-39 0 -57.5 -15.5t-18.5 -36.5q0 -53 76 -53q42 0 59 16t17 37z" />
    <glyph glyph-name="fiveeighths" unicode="&#x215d;" horiz-adv-x="1131" 
d="M823 823q20 -11 20 -37q0 -8 -5 -16l-467 -865q-11 -20 -33 -20q-14 0 -24 7q-16 12 -16 30q0 11 5 20l467 865q11 20 33 20q12 0 20 -4zM405 441q0 -71 -51.5 -117t-127.5 -46q-70 0 -109 18q-29 13 -29 35q0 15 10 26t25 11q11 0 40.5 -10t62.5 -10q49 0 76 26.5
t27 66.5q0 43 -25.5 68.5t-71.5 25.5q-44 0 -80 -29q-13 -10 -25 -10q-7 0 -32 7h1q-23 7 -23 29q0 10 1 15l17 144q3 32 38 32h213q15 0 25 -10.5t10 -24.5q0 -15 -10 -25.5t-25 -10.5h-185l-8 -72q44 24 89 24q72 0 119.5 -45.5t47.5 -117.5zM1069 134q0 -64 -49 -102
t-124 -38q-76 0 -126 38t-50 102q0 72 64 108q-39 33 -39 82q0 54 41.5 88.5t108.5 34.5q66 0 107.5 -34.5t41.5 -88.5q0 -48 -38 -81q63 -33 63 -109zM994 134q0 29 -22.5 49t-75.5 20q-54 0 -77.5 -20t-23.5 -49q0 -70 100 -70q99 0 99 70zM971 324q0 21 -19 36.5
t-57 15.5q-39 0 -57.5 -15.5t-18.5 -36.5q0 -53 76 -53q42 0 59 16t17 37z" />
    <glyph glyph-name="seveneighths" unicode="&#x215e;" horiz-adv-x="1109" 
d="M765 823q20 -11 20 -37q0 -8 -5 -16l-467 -865q-11 -20 -33 -20q-14 0 -24 7q-16 12 -16 30q0 11 5 20l467 865q11 20 33 20q12 0 20 -4zM387 688v-13q0 -21 -30.5 -74.5t-75.5 -104.5q-44 -49 -62 -89.5t-18 -86.5q0 -16 -11 -27t-27 -11t-27 11t-11 27q0 112 93 216
q67 74 79 116h-215q-14 0 -24.5 10.5t-10.5 25.5q0 14 10.5 24.5t24.5 10.5h270q14 0 24.5 -10.5t10.5 -24.5zM1047 134q0 -64 -49 -102t-124 -38q-76 0 -126 38t-50 102q0 72 64 108q-39 33 -39 82q0 54 41.5 88.5t108.5 34.5q66 0 107.5 -34.5t41.5 -88.5q0 -48 -38 -81
q63 -33 63 -109zM972 134q0 29 -22.5 49t-75.5 20q-54 0 -77.5 -20t-23.5 -49q0 -70 100 -70q99 0 99 70zM949 324q0 21 -19 36.5t-57 15.5q-39 0 -57.5 -15.5t-18.5 -36.5q0 -53 76 -53q42 0 59 16t17 37z" />
    <glyph glyph-name="arrowleft" unicode="&#x2190;" horiz-adv-x="980" 
d="M343 55l-237 262q-11 13 -11 28q0 14 11 27l237 263h-1q11 12 29 12q15 0 26 -11.5t11 -26.5t-10 -26l-125 -140q-19 -22 -61 -62q65 2 195 2h440q15 0 26.5 -11.5t11.5 -26.5t-11.5 -26.5t-26.5 -11.5h-440q-120 0 -195 2q42 -40 61 -62l125 -140q10 -11 10 -26
t-11 -26.5t-26 -11.5q-18 0 -29 12h1z" />
    <glyph glyph-name="arrowup" unicode="&#x2191;" horiz-adv-x="980" 
d="M200 501l262 236q14 12 28 12q13 0 27 -12l263 -236v1q12 -11 12 -29q0 -15 -11.5 -26t-26.5 -11t-26 10l-140 125q-22 19 -62 61q2 -65 2 -195v-440q0 -15 -11.5 -26.5t-26.5 -11.5t-26.5 11.5t-11.5 26.5v440q0 120 2 195q-40 -42 -62 -61l-140 -125q-11 -10 -26 -10
t-26.5 11t-11.5 26q0 18 12 29v-1z" />
    <glyph glyph-name="arrowright" unicode="&#x2192;" horiz-adv-x="980" 
d="M637 635l236 -263q12 -14 12 -27q0 -14 -12 -28l-236 -262h1q-11 -12 -29 -12q-15 0 -26 11.5t-11 26.5t10 26l125 140q19 22 61 62q-65 -2 -195 -2h-440q-15 0 -26.5 11.5t-11.5 26.5t11.5 26.5t26.5 11.5h440q120 0 195 -2q-42 40 -61 62l-125 140q-10 11 -10 26
t11 26.5t26 11.5q18 0 29 -12h-1z" />
    <glyph glyph-name="arrowdown" unicode="&#x2193;" horiz-adv-x="980" 
d="M780 192l-263 -237q-13 -11 -27 -11q-15 0 -28 11l-262 237v-1q-12 11 -12 29q0 15 11.5 26t26.5 11t26 -10l140 -125q22 -19 62 -61q-2 65 -2 195v440q0 15 11.5 26.5t26.5 11.5t26.5 -11.5t11.5 -26.5v-440q0 -120 -2 -195q40 42 62 61l140 125q11 10 26 10t26.5 -11
t11.5 -26q0 -18 -12 -29v1z" />
    <glyph glyph-name="uni2196" unicode="&#x2196;" horiz-adv-x="980" 
d="M181 233l18 353q2 19 11 28t28 11l352 18q16 0 29 -11q11 -11 11 -26q0 -14 -10.5 -26.5t-26.5 -12.5l-186 -10q-14 -1 -49 -1h-40l140 -137l311 -311q11 -11 11 -27q0 -13 -10 -25q-9 -12 -28 -12q-15 0 -26 11l-311 311l-137 140v-40q0 -33 -1 -49l-10 -186
q0 -14 -12 -26q-11 -11 -27 -11q-15 0 -26 11q-11 9 -11 28z" />
    <glyph glyph-name="uni2197" unicode="&#x2197;" horiz-adv-x="980" 
d="M762 586l18 -356q0 -14 -11 -25t-26 -11q-16 0 -27 11q-12 12 -12 26l-10 186q-1 14 -1 49v40l-137 -140l-310 -310q-9 -12 -27 -12q-19 0 -28 12q-10 10 -10 25q0 16 11 27l311 311l140 137h-40q-33 0 -49 1l-186 10q-16 0 -26.5 12.5t-10.5 26.5q0 15 11 26t28 11
l353 -18q19 -2 28 -11t11 -28z" />
    <glyph glyph-name="uni2198" unicode="&#x2198;" horiz-adv-x="980" 
d="M780 453l-18 -352q-2 -19 -11 -28t-28 -11l-353 -18q-19 0 -28 11q-11 11 -11 26q0 14 10.5 26.5t26.5 12.5l186 10q14 1 49 1h40l-140 137l-311 311q-11 11 -11 27q0 15 10 25q9 12 28 12q15 0 26 -11l311 -311l137 -140v40q0 33 1 49l10 186q0 14 12 26q11 11 27 11
q15 0 26 -11q11 -13 11 -29z" />
    <glyph glyph-name="uni2199" unicode="&#x2199;" horiz-adv-x="980" 
d="M199 101l-18 355q0 15 11 26t26 11q16 0 27 -11q12 -12 12 -26l10 -186q1 -14 1 -49v-40l137 140l310 310q9 12 27 12q19 0 28 -12q10 -12 10 -25q0 -16 -11 -27l-311 -311l-140 -137h40q33 0 49 -1l186 -10q16 0 26.5 -12.5t10.5 -26.5q0 -15 -11 -26t-29 -11l-352 18
q-19 2 -28 11t-11 28z" />
    <glyph glyph-name="partialdiff" unicode="&#x2202;" horiz-adv-x="669" 
d="M579 254q0 -118 -73 -191t-177 -73q-102 0 -175.5 70.5t-73.5 171.5q0 104 66 172.5t178 68.5q29 0 64.5 -9.5t56.5 -25.5q-3 19 -21 55t-38 55q-77 73 -192 93q-17 3 -28.5 15.5t-11.5 30.5q0 19 13.5 32.5t32.5 13.5q16 0 44 -8q119 -32 204 -115q58 -55 94.5 -146.5
t36.5 -209.5zM482 247q0 65 -42.5 103t-110.5 38q-76 0 -114 -43t-38 -113q0 -66 43 -110.5t109 -44.5q72 0 112.5 47.5t40.5 122.5z" />
    <glyph glyph-name="Delta" unicode="&#x2206;" horiz-adv-x="783" 
d="M728 50q0 -33 -31 -46q-8 -4 -19 -4h-577q-7 0 -16 4q-30 13 -30 46q0 11 4 19l269 622q13 32 44 32h38q30 0 43 -32l271 -622q4 -12 4 -19zM609 87l-220 533l-220 -533h440z" />
    <glyph glyph-name="product" unicode="&#x220f;" horiz-adv-x="803" 
d="M688 863v-1012q0 -19 -13 -32t-31 -13q-19 0 -32 13t-13 32v968h-395v-968q0 -19 -13 -32t-31 -13q-19 0 -32 13t-13 32v1012q0 19 13 32t32 13h484q18 0 30.5 -13t13.5 -32z" />
    <glyph glyph-name="summation" unicode="&#x2211;" horiz-adv-x="677" 
d="M624 -148q0 -19 -13 -32.5t-32 -13.5h-485q-20 0 -30 7q-21 12 -21 38q0 13 12 31l315 476l-305 475q-12 18 -12 31q0 26 21 38q9 6 30 6h465q19 0 32 -13t13 -32t-13 -32t-32 -13h-387l279 -436q7 -12 7 -24t-7 -24l-289 -437h407q19 0 32 -13t13 -32z" />
    <glyph glyph-name="minus" unicode="&#x2212;" 
d="M626 269q0 -19 -13 -32t-32 -13h-466q-19 0 -32 12.5t-13 31.5t13 32t32 13h466q19 0 32 -12.5t13 -31.5z" />
    <glyph glyph-name="uni2219" unicode="&#x2219;" horiz-adv-x="389" 
d="M284 356q0 -37 -26.5 -63t-63.5 -26t-63 26t-26 63t26 63t63 26t63.5 -26t26.5 -63z" />
    <glyph glyph-name="radical" unicode="&#x221a;" 
d="M671 858l-3 -18l-269 -1000q-4 -15 -16.5 -24.5t-27.5 -9.5h-32q-29 0 -44 34l-148 331l-45 -21q-8 -4 -18 -4q-27 0 -39 25q-4 8 -4 18q0 27 25 39l81 40q12 6 23 6q31 0 44 -31l136 -330l244 963q4 14 17.5 23t29.5 9q8 0 18 -4q28 -11 28 -46z" />
    <glyph glyph-name="infinity" unicode="&#x221e;" horiz-adv-x="822" 
d="M742 269q0 -64 -45 -109.5t-109 -45.5q-58 0 -100 36l-77 65l-79 -66q-43 -35 -97 -35q-64 0 -109.5 45t-45.5 109t45 109.5t110 45.5q56 0 101 -37l75 -64l78 66q41 35 99 35q64 0 109 -45t45 -109zM667 269v-1q0 35 -22.5 59t-56.5 24q-31 0 -49 -17l-79 -65l78 -66
q22 -17 50 -17q34 0 56.5 24t22.5 59zM362 269l-78 65q-22 17 -49 17q-35 0 -57.5 -24t-22.5 -58q0 -35 23 -59t57 -24q27 0 51 19z" />
    <glyph glyph-name="uni2224" unicode="&#x2224;" horiz-adv-x="389" 
d="M284 356q0 -37 -26.5 -63t-63.5 -26t-63 26t-26 63t26 63t63 26t63.5 -26t26.5 -63z" />
    <glyph glyph-name="logicaland" unicode="&#x2227;" horiz-adv-x="389" 
d="M284 356q0 -37 -26.5 -63t-63.5 -26t-63 26t-26 63t26 63t63 26t63.5 -26t26.5 -63z" />
    <glyph glyph-name="integral" unicode="&#x222b;" horiz-adv-x="744" 
d="M251 -117q63 0 73 73q4 38 4 71v640q0 112 41 176.5t129 64.5q77 0 119 -60q12 -17 12 -34q0 -20 -13 -33.5t-33 -13.5q-30 0 -40 24q-16 40 -50 40q-62 0 -72 -74q-4 -36 -4 -71v-640q0 -112 -41.5 -176t-129.5 -64q-77 0 -119 60q-12 17 -12 34q0 20 13 33.5t33 13.5
q30 0 40 -24q16 -40 50 -40z" />
    <glyph glyph-name="approxequal" unicode="&#x2248;" 
d="M674 409q0 -13 -7 -26q-72 -109 -180 -109q-101 0 -176 70q-23 21 -44.5 29.5t-57.5 8.5q-16 0 -29.5 -2.5t-23.5 -8l-17.5 -10t-14.5 -13t-10 -13l-8 -12.5t-6 -10q-11 -17 -36 -17q-17 0 -30 13t-13 31q0 14 8 26q69 109 180 109q99 0 176 -70q39 -38 102 -38
q18 0 33.5 4t25 8.5t19.5 14.5t13 14t10 16l7 11q11 18 37 18q17 0 29.5 -13t12.5 -31zM674 209q0 -13 -7 -26q-72 -109 -180 -109q-101 0 -176 70q-23 21 -44.5 29.5t-57.5 8.5q-18 0 -33.5 -4t-25 -8.5t-19 -14t-13.5 -14.5t-10.5 -15.5t-7.5 -12.5q-11 -17 -36 -17
q-17 0 -30 13t-13 31q0 14 8 26q69 109 180 109q99 0 176 -70q39 -38 102 -38q16 0 29 2.5t23.5 8t17.5 10t14 13t10 12.5t8 13t6 10q11 17 37 17q17 0 29.5 -13t12.5 -31z" />
    <glyph glyph-name="notequal" unicode="&#x2260;" 
d="M631 187q0 -19 -13 -32t-32 -13h-250l-59 -128q-11 -24 -37 -24q-9 0 -17 4q-23 10 -23 36q0 8 3 17l44 95h-137q-19 0 -32 13t-13 32t13 32t32 13h179l40 86h-219q-19 0 -32 13.5t-13 31.5q0 19 13 32t32 13h260l52 113q11 24 37 24q9 0 17 -4q23 -10 23 -36
q0 -8 -3 -17l-37 -79h127q19 0 32 -13.5t13 -31.5q0 -19 -13 -32t-32 -13h-169l-40 -87h209q19 0 32 -13t13 -32z" />
    <glyph glyph-name="lessequal" unicode="&#x2264;" 
d="M100 327v31q0 14 11 26t25 17l407 150q6 2 14 2q22 0 36 -18q11 -14 11 -31q0 -13 -9 -26t-23 -17l-362 -119l362 -119q14 -4 23 -17t9 -26q0 -17 -11 -31q-14 -18 -36 -18q-8 0 -14 2l-407 150q-14 5 -25 17.5t-11 26.5zM100 35q0 19 13 32t32 13h416q19 0 32 -13
t13 -32t-13 -32t-32 -13h-416q-19 0 -32 13t-13 32z" />
    <glyph glyph-name="greaterequal" unicode="&#x2265;" 
d="M90 35q0 19 13 32t32 13h416q19 0 32 -13t13 -32t-13 -32t-32 -13h-416q-19 0 -32 13t-13 32zM596 358v-31q0 -14 -11 -26.5t-25 -17.5l-407 -150q-6 -2 -14 -2q-22 0 -36 18q-11 14 -11 31q0 13 9 26t23 17l362 119l-362 119q-14 4 -23 17t-9 26q0 17 11 31q14 18 36 18
q8 0 14 -2l407 -150q14 -5 25 -17t11 -26z" />
    <glyph glyph-name="dotmath" unicode="&#x22c5;" horiz-adv-x="389" 
d="M284 356q0 -37 -26.5 -63t-63.5 -26t-63 26t-26 63t26 63t63 26t63.5 -26t26.5 -63z" />
    <glyph glyph-name="lozenge" unicode="&#x25ca;" horiz-adv-x="675" 
d="M519 360l-181 302l-182 -302l182 -302zM620 361q0 -9 -6 -20l-218 -360q-20 -31 -58 -31t-58 31l-218 360q-7 12 -7 20t7 20l218 360q20 31 58 31t58 -31l218 -360q6 -11 6 -20z" />
    <glyph glyph-name="commaaccent" unicode="&#xf6c3;" horiz-adv-x="300" 
d="M216 -94q0 -40 -30 -66q-23 -21 -55 -37q-13 -7 -25 -7q-8 0 -15 6t-7 15q0 14 14 22q32 22 32 31q0 8 -10 12q-32 12 -32 43q0 21 18 36.5t44 15.5q29 0 47.5 -20t18.5 -51z" />
    <glyph glyph-name="uniF8FF" unicode="&#xf8ff;" horiz-adv-x="823" 
d="M40 361q0 154 108.5 263t262.5 109t263 -109t109 -263t-109 -262.5t-263 -108.5t-262.5 108.5t-108.5 262.5z" />
    <glyph glyph-name="guillemotright.case" horiz-adv-x="662" 
d="M333 349q0 -6 -1 -11t-4 -10.5t-4 -7.5t-7 -9.5t-7 -8.5l-164 -205q-13 -16 -27 -16q-11 0 -19 7q-10 8 -10 22q0 7 5 17l122 222l-122 221q-5 10 -5 17q0 14 10 22q8 7 19 7q14 0 27 -16l164 -205q1 -1 6 -7t6 -7.5t4 -6.5t4 -7.5t2 -7.5t1 -10zM572 349q0 -6 -1 -11
t-4 -10.5t-4 -7.5t-7 -9.5t-7 -8.5l-164 -205q-13 -16 -27 -16q-11 0 -19 7q-10 8 -10 22q0 7 5 17l122 222l-122 221q-5 10 -5 17q0 14 10 22q8 7 19 7q14 0 27 -16l164 -205q1 -1 6 -7t6 -7.5t4 -6.5t4 -7.5t2 -7.5t1 -10z" />
    <glyph glyph-name="guilsinglright.case" horiz-adv-x="383" 
d="M313 349q0 -6 -1 -11t-4 -10.5t-4 -7.5t-7 -9.5t-7 -8.5l-164 -205q-13 -16 -27 -16q-11 0 -19 7q-10 8 -10 22q0 7 5 17l122 222l-122 221q-5 10 -5 17q0 14 10 22q8 7 19 7q14 0 27 -16l164 -205q1 -1 6 -7t6 -7.5t4 -6.5t4 -7.5t2 -7.5t1 -10z" />
    <glyph glyph-name="guillemotleft.case" horiz-adv-x="662" 
d="M329 349q0 5 1 10t2 7.5t4 7.5t4 6.5t6 7.5t6 7l164 205q13 16 27 16q11 0 19 -7q10 -8 10 -22q0 -7 -5 -17l-122 -221l122 -222q5 -10 5 -17q0 -14 -10 -22q-8 -7 -19 -7q-14 0 -27 16l-164 205q-1 1 -7 8.5t-7 9.5t-4 7.5t-4 10.5t-1 11zM90 349q0 5 1 10t2 7.5t4 7.5
t4 6.5t6 7.5t6 7l164 205q13 16 27 16q11 0 19 -7q10 -8 10 -22q0 -7 -5 -17l-122 -221l122 -222q5 -10 5 -17q0 -14 -10 -22q-8 -7 -19 -7q-14 0 -27 16l-164 205q-1 1 -7 8.5t-7 9.5t-4 7.5t-4 10.5t-1 11z" />
    <glyph glyph-name="guilsinglleft.case" horiz-adv-x="383" 
d="M70 349q0 5 1 10t2 7.5t4 7.5t4 6.5t6 7.5t6 7l164 205q13 16 27 16q11 0 19 -7q10 -8 10 -22q0 -7 -5 -17l-122 -221l122 -222q5 -10 5 -17q0 -14 -10 -22q-8 -7 -19 -7q-14 0 -27 16l-164 205q-1 1 -7 8.5t-7 9.5t-4 7.5t-4 10.5t-1 11z" />
    <glyph glyph-name="bracketleft.case" horiz-adv-x="385" 
d="M385 -152q0 -18 -12.5 -30t-30.5 -12h-203q-18 0 -31 13t-13 32v1012q0 19 13 32t31 13h203q18 0 30.5 -12.5t12.5 -29.5q0 -18 -12.5 -30.5t-30.5 -12.5h-158v-933h158q18 0 30.5 -12t12.5 -30z" />
    <glyph glyph-name="braceleft.case" horiz-adv-x="461" 
d="M89 401q36 0 62 25.5t26 67.5v208q0 90 51 143q60 63 169 63q19 0 31.5 -11.5t12.5 -28.5t-12.5 -28.5t-31.5 -11.5q-65 0 -101 -38q-26 -29 -26 -88v-199q0 -52 -27 -92t-68 -54q41 -13 68 -53t27 -93v-199q0 -59 26 -88q36 -38 101 -38q19 0 31.5 -11.5t12.5 -28.5
t-12.5 -28.5t-31.5 -11.5q-109 0 -169 63q-51 54 -51 143v209q0 41 -26.5 67t-61.5 26q-19 0 -31.5 12.5t-12.5 30.5q0 19 12.5 31.5t31.5 12.5z" />
    <glyph glyph-name="parenleft.case" horiz-adv-x="354" 
d="M349 -152q0 -17 -12.5 -29.5t-30.5 -12.5q-19 0 -31 14q-200 238 -200 537t200 537q12 14 31 14q18 0 30.5 -12.5t12.5 -29.5q0 -15 -10 -27q-173 -207 -173 -482t173 -482q10 -12 10 -27z" />
    <glyph glyph-name="bracketright.case" horiz-adv-x="385" 
d="M290 863v-1012q0 -19 -13 -32t-31 -13h-203q-18 0 -30.5 12t-12.5 30t12.5 30t30.5 12h158v933h-158q-18 0 -30.5 12.5t-12.5 30.5q0 17 12.5 29.5t30.5 12.5h203q18 0 30 -13t14 -32z" />
    <glyph glyph-name="braceright.case" horiz-adv-x="461" 
d="M372 401q19 0 31.5 -12.5t12.5 -31.5q0 -18 -12.5 -30.5t-31.5 -12.5q-35 0 -61.5 -26t-26.5 -67v-209q0 -89 -51 -143q-60 -63 -169 -63q-19 0 -31.5 11.5t-12.5 28.5t12.5 28.5t31.5 11.5q65 0 101 38q26 29 26 88v199q0 53 27 93t68 53q-41 14 -68 54t-27 92v199
q0 59 -26 88q-36 38 -101 38q-19 0 -31.5 11.5t-12.5 28.5t12.5 28.5t31.5 11.5q109 0 169 -63q51 -53 51 -143v-208q0 -42 26 -67.5t62 -25.5z" />
    <glyph glyph-name="parenright.case" horiz-adv-x="354" 
d="M279 357q0 -297 -200 -537q-12 -14 -32 -14q-17 0 -29.5 12.5t-12.5 29.5q0 16 9 27q174 206 174 482t-174 482q-9 11 -9 27q0 17 12.5 29.5t29.5 12.5q20 0 32 -14q200 -240 200 -537z" />
    <glyph glyph-name="uni00AD.case" horiz-adv-x="587" 
d="M482 355q0 -18 -12.5 -30.5t-29.5 -12.5h-293q-17 0 -29.5 12.5t-12.5 30.5t12.5 30.5t29.5 12.5h293q17 0 29.5 -12.5t12.5 -30.5z" />
    <glyph glyph-name="endash.case" horiz-adv-x="626" 
d="M563 312h-500q-18 0 -30.5 12.5t-12.5 30.5t12.5 30.5t30.5 12.5h500q18 0 30.5 -12.5t12.5 -30.5t-12.5 -30.5t-30.5 -12.5z" />
    <glyph glyph-name="emdash.case" horiz-adv-x="1450" 
d="M1297 312h-1144q-18 0 -30.5 12.5t-12.5 30.5t12.5 30.5t30.5 12.5h1144q18 0 30.5 -12.5t12.5 -30.5t-12.5 -30.5t-30.5 -12.5z" />
    <glyph glyph-name="hyphen.case" horiz-adv-x="587" 
d="M482 355q0 -18 -12.5 -30.5t-29.5 -12.5h-293q-17 0 -29.5 12.5t-12.5 30.5t12.5 30.5t29.5 12.5h293q17 0 29.5 -12.5t12.5 -30.5z" />
    <glyph glyph-name="zero.plf" horiz-adv-x="742" 
d="M657 362q0 -155 -80 -263.5t-206 -108.5t-206 108.5t-80 263.5t80 263.5t206 108.5t206 -108.5t80 -263.5zM557 362q0 129 -55 205.5t-131 76.5t-131 -76.5t-55 -205.5t55 -205.5t131 -76.5t131 76.5t55 205.5z" />
    <glyph glyph-name="one.plf" horiz-adv-x="574" 
d="M415 50q0 -21 -14.5 -35.5t-35.5 -14.5t-35.5 14.5t-14.5 35.5v568l-172 -122q-13 -8 -26 -8q-23 0 -37 19q-8 13 -8 26q0 23 19 37l205 145q13 8 26 8h43q21 0 35.5 -14.5t14.5 -35.5v-623z" />
    <glyph glyph-name="two.plf" horiz-adv-x="742" 
d="M654 45q0 -19 -13 -32t-32 -13h-452q-19 0 -32 13t-13 32v4q0 28 5.5 53.5t13.5 45.5t22.5 39.5t28 33.5t35 29.5t37.5 25t42 22.5t42 20l44 19t42 19q47 22 79.5 60t32.5 85q0 65 -45 105t-108 40q-50 0 -92.5 -28.5t-59.5 -87.5q-11 -41 -49 -41q-21 0 -33.5 13.5
t-12.5 34.5q0 68 68.5 132.5t178.5 64.5q107 0 180 -65t73 -168q0 -158 -219 -245l-8 -3l-47.5 -19.5t-45 -23t-45.5 -31t-32 -38.5t-22 -51h392q19 0 32 -13t13 -32z" />
    <glyph glyph-name="three.plf" horiz-adv-x="717" 
d="M621 212q0 -108 -84.5 -165t-216.5 -57q-153 0 -243 45q-28 14 -28 42q0 20 13.5 34t33.5 14q10 0 24 -6q91 -39 200 -39q58 0 100.5 13t64 34t31 42.5t9.5 42.5q0 57 -55 94.5t-172 37.5q-19 0 -33 13.5t-14 31.5q0 19 14 32t33 13q97 0 142.5 31.5t45.5 73.5
q0 40 -45 72t-142 32q-76 0 -147 -30q-16 -7 -26 -7q-20 0 -33.5 14t-13.5 34q0 29 26 42q73 37 194 37q118 0 200.5 -49t82.5 -145q0 -89 -84 -143q123 -59 123 -184z" />
    <glyph glyph-name="four.plf" horiz-adv-x="691" 
d="M617 213q0 -19 -13 -32t-32 -13h-50v-118q0 -21 -14.5 -35.5t-35.5 -14.5t-35.5 14.5t-14.5 35.5v118h-326q-19 0 -32 13t-13 32v19q0 15 9 27l336 446q14 18 36 18h40q21 0 35.5 -14.5t14.5 -35.5v-415h50q19 0 32 -13t13 -32zM422 258v334l-252 -334h252z" />
    <glyph glyph-name="five.plf" horiz-adv-x="742" 
d="M643 257q0 -113 -85.5 -188.5t-203.5 -75.5q-103 0 -191 31q-32 12 -32 45q0 19 13 33.5t32 14.5q10 0 22 -4q88 -30 156 -30q82 0 135.5 51t53.5 122q0 81 -48.5 128t-140.5 47q-77 0 -137 -53q-13 -12 -33 -12q-5 0 -17 3l-34 9q-27 7 -27 33q0 8 2 24l29 249
q5 39 50 39h365q19 0 32 -13t13 -32t-13 -32t-32 -13h-331l-19 -162q72 49 152 49q129 0 209 -72t80 -191z" />
    <glyph glyph-name="six.plf" horiz-adv-x="742" 
d="M659 264q0 -120 -82.5 -197t-198.5 -77q-79 0 -144 36.5t-101 100.5q-38 67 -38 165q0 117 43 211.5t112 161.5q62 60 146.5 104.5t135.5 44.5q22 0 34.5 -13t12.5 -30q0 -37 -42 -48q-133 -32 -224 -123q-49 -49 -75 -104q66 42 141 42q123 0 201.5 -76.5t78.5 -197.5z
M559 264q0 76 -51 129.5t-130 53.5q-78 0 -130 -52.5t-52 -130.5q0 -79 51.5 -131.5t129.5 -52.5q79 0 130.5 52.5t51.5 131.5z" />
    <glyph glyph-name="seven.plf" horiz-adv-x="658" 
d="M614 679q0 -17 -3 -26q-25 -70 -57.5 -127t-59.5 -91.5t-87 -105.5q-111 -131 -111 -279q0 -21 -14.5 -35.5t-35.5 -14.5t-35.5 14.5t-14.5 35.5q0 69 34.5 163.5t102.5 176.5q8 10 30 35t28.5 33.5l22.5 29t23.5 32t19 31t21 39t18.5 43.5h-387q-19 0 -32 13t-13 32
t13 32t32 13h460q19 0 32 -13t13 -31z" />
    <glyph glyph-name="eight.plf" horiz-adv-x="742" 
d="M653 214q0 -103 -78.5 -163.5t-201.5 -60.5q-124 0 -204 60.5t-80 163.5q0 125 111 183q-70 56 -70 142q0 85 67 139.5t174 54.5t174 -54.5t67 -139.5q0 -86 -70 -142q111 -58 111 -183zM516 539q0 40 -33 72.5t-112 32.5t-112 -32.5t-33 -72.5q0 -106 145 -106t145 106z
M557 214q0 133 -184 133q-105 0 -146.5 -39t-41.5 -94q0 -63 46.5 -98.5t139.5 -35.5t139.5 35.5t46.5 98.5z" />
    <glyph glyph-name="nine.plf" horiz-adv-x="742" 
d="M547 459q0 83 -51 133.5t-130 50.5q-78 0 -130 -52.5t-52 -130.5q0 -77 53.5 -130.5t127.5 -53.5q82 0 132 51t50 132zM206 1q53 11 116.5 43.5t108.5 77.5q46 46 74 105q-61 -39 -139 -39q-120 0 -201 78t-81 193t80.5 194.5t200.5 79.5q122 0 202 -79.5t80 -206.5
q0 -122 -38 -218q-37 -96 -114 -173q-55 -55 -130.5 -95t-140.5 -51q-6 -1 -13 -1q-21 0 -34 14t-13 32q0 37 42 46z" />
    <glyph glyph-name="bar.case" horiz-adv-x="289" 
d="M189 863v-1012q0 -19 -13 -32t-31 -13q-19 0 -32 13t-13 32v1012q0 19 13 32t32 13q18 0 31 -13t13 -32z" />
    <glyph glyph-name="minus.case" 
d="M626 349q0 -19 -13 -32t-32 -13h-466q-19 0 -32 12.5t-13 31.5t13 32t32 13h466q19 0 32 -12.5t13 -31.5z" />
    <glyph glyph-name="multiply.case" 
d="M590 106q-13 -13 -31 -13q-19 0 -32 13l-179 179l-179 -179q-13 -13 -32 -13t-32 13t-13 32t13 32l179 179l-179 179q-13 13 -13 32t13 32t32 13t32 -13l179 -179l179 179q13 13 32 13q18 0 31 -13q14 -14 14 -32t-14 -32l-179 -179l179 -179q14 -14 14 -32t-14 -32z" />
    <glyph glyph-name="plus.case" 
d="M626 349q0 -19 -13 -32t-32 -13h-188v-184q0 -19 -13 -32t-32 -13t-32 13t-13 32v184h-188q-19 0 -32 13t-13 31q0 19 13 32t32 13h188v184q0 19 13 32t32 13t32 -13t13 -32v-184h188q19 0 32 -13t13 -31z" />
    <glyph glyph-name="less.case" 
d="M613 123q0 -9 -5 -21q-12 -26 -42 -26q-9 0 -21 5l-443 215q-27 13 -27 43v18q0 31 27 44l443 215q12 5 21 5q30 0 42 -26q5 -12 5 -21q0 -30 -26 -42l-399 -183l399 -184q26 -12 26 -42z" />
    <glyph glyph-name="equal.case" 
d="M631 444q0 -19 -13 -32.5t-32 -13.5h-476q-19 0 -32 13.5t-13 31.5q0 19 13 32.5t32 13.5h476q19 0 32 -13.5t13 -31.5zM631 267q0 -19 -13 -32t-32 -13h-476q-19 0 -32 13t-13 32t13 32t32 13h476q19 0 32 -13t13 -32z" />
    <glyph glyph-name="greater.case" 
d="M621 340q0 -31 -27 -44l-443 -215q-12 -5 -21 -5q-30 0 -42 26q-5 12 -5 21q0 30 26 42l399 183l-399 184q-26 12 -26 42q0 9 5 21q12 26 42 26q9 0 21 -5l443 -215q27 -13 27 -43v-18z" />
    <glyph glyph-name="at.case" horiz-adv-x="776" 
d="M661 425v-266q0 -17 -11.5 -28.5t-28.5 -11.5t-28.5 11.5t-11.5 28.5v8q-38 -40 -101 -40q-88 0 -137.5 51t-49.5 138q0 107 80 162q56 38 142 38q35 0 64 -6q-7 123 -53 163q-25 21 -49.5 30t-65.5 9q-97 0 -155 -94q-54 -90 -54 -303q0 -85 21.5 -158.5t56.5 -118.5
q62 -77 146 -77q64 0 135 44q14 9 27 9q17 0 28.5 -12.5t11.5 -29.5q0 -20 -19 -33q-83 -58 -189 -58q-120 0 -203 95q-50 58 -78.5 145t-28.5 186q0 245 86 369q38 54 95.5 82t123.5 28q58 0 92.5 -13t70.5 -43q83 -68 83 -305zM581 247v192q-37 7 -57 7q-62 0 -94 -21
q-51 -34 -51 -103q0 -59 29 -88q26 -26 76 -26q62 0 97 39z" />
    <glyph glyph-name="notequal.case" 
d="M631 267q0 -19 -13 -32t-32 -13h-250l-59 -128q-11 -24 -37 -24q-9 0 -17 4q-23 10 -23 36q0 8 3 17l44 95h-137q-19 0 -32 13t-13 32t13 32t32 13h179l40 86h-219q-19 0 -32 13.5t-13 31.5q0 19 13 32t32 13h260l52 113q11 24 37 24q9 0 17 -4q23 -10 23 -36
q0 -8 -3 -17l-37 -79h127q19 0 32 -13.5t13 -31.5q0 -19 -13 -32t-32 -13h-169l-40 -87h209q19 0 32 -13t13 -32z" />
    <glyph glyph-name="plusminus.case" 
d="M631 423q0 -19 -13 -32t-32 -13h-193v-123q0 -19 -13 -32t-32 -13t-32 13t-13 32v123h-193q-19 0 -32 13t-13 32t13 32t32 13h193v123q0 19 13 32t32 13t32 -13t13 -32v-123h193q19 0 32 -13t13 -32zM631 115q0 -19 -13 -32t-32 -13h-476q-19 0 -32 13t-13 32t13 32
t32 13h476q19 0 32 -13t13 -32z" />
    <glyph glyph-name="lessequal.case" 
d="M100 407v31q0 14 11 26t25 17l407 150q6 2 14 2q22 0 36 -18q11 -14 11 -31q0 -13 -9 -26t-23 -17l-362 -119l362 -119q14 -4 23 -17t9 -26q0 -17 -11 -31q-14 -18 -36 -18q-8 0 -14 2l-407 150q-14 5 -25 17.5t-11 26.5zM100 115q0 19 13 32t32 13h416q19 0 32 -13
t13 -32t-13 -32t-32 -13h-416q-19 0 -32 13t-13 32z" />
    <glyph glyph-name="greaterequal.case" 
d="M90 115q0 19 13 32t32 13h416q19 0 32 -13t13 -32t-13 -32t-32 -13h-416q-19 0 -32 13t-13 32zM596 438v-31q0 -14 -11 -26.5t-25 -17.5l-407 -150q-6 -2 -14 -2q-22 0 -36 18q-11 14 -11 31q0 13 9 26t23 17l362 119l-362 119q-14 4 -23 17t-9 26q0 17 11 31
q14 18 36 18q8 0 14 -2l407 -150q14 -5 25 -17t11 -26z" />
    <glyph glyph-name="logicalnot.case" 
d="M629 350v-163q0 -21 -15 -35.5t-35 -14.5t-34.5 14.5t-14.5 35.5v123h-427q-19 0 -32 13t-13 32t13 32t32 13h476q20 0 34 -14t16 -36z" />
    <glyph glyph-name="approxequal.case" 
d="M674 489q0 -13 -7 -26q-72 -109 -180 -109q-101 0 -176 70q-23 21 -44.5 29.5t-57.5 8.5q-16 0 -29.5 -2.5t-23.5 -8l-17.5 -10t-14.5 -13t-10 -13l-8 -12.5t-6 -10q-11 -17 -36 -17q-17 0 -30 13t-13 31q0 14 8 26q69 109 180 109q99 0 176 -70q39 -38 102 -38
q18 0 33.5 4t25 8.5t19.5 14.5t13 14t10 16l7 11q11 18 37 18q17 0 29.5 -13t12.5 -31zM674 289q0 -13 -7 -26q-72 -109 -180 -109q-101 0 -176 70q-23 21 -44.5 29.5t-57.5 8.5q-18 0 -33.5 -4t-25 -8.5t-19 -14t-13.5 -14.5t-10.5 -15.5t-7.5 -12.5q-11 -17 -36 -17
q-17 0 -30 13t-13 31q0 14 8 26q69 109 180 109q99 0 176 -70q39 -38 102 -38q16 0 29 2.5t23.5 8t17.5 10t14 13t10 12.5t8 13t6 10q11 17 37 17q17 0 29.5 -13t12.5 -31z" />
    <glyph glyph-name="acute.cap" horiz-adv-x="286" 
d="M6 846l190 111q24 14 43 14q21 0 37 -16t16 -42q0 -43 -43 -56l-222 -67q-3 -1 -12 -1q-13 0 -20.5 7.5t-7.5 19.5q0 20 19 30z" />
    <glyph glyph-name="grave.cap" horiz-adv-x="286" 
d="M84 957l190 -111q19 -10 19 -30q0 -12 -7.5 -19.5t-20.5 -7.5q-9 0 -12 1l-222 67q-43 13 -43 56q0 26 16 42t37 16q19 0 43 -14z" />
    <glyph glyph-name="dieresis.cap" horiz-adv-x="433" 
d="M423 880q0 -29 -21.5 -50.5t-50.5 -21.5t-50.5 21.5t-21.5 50.5t21.5 50.5t50.5 21.5t50.5 -21.5t21.5 -50.5zM154 880q0 -29 -21.5 -50.5t-50.5 -21.5t-50.5 21.5t-21.5 50.5t21.5 50.5t50.5 21.5t50.5 -21.5t21.5 -50.5z" />
    <glyph glyph-name="circumflex.cap" horiz-adv-x="436" 
d="M218 976q15 0 36 -16l162 -119q18 -14 18 -28q0 -13 -8.5 -20.5t-18.5 -7.5q-11 0 -23 5l-166 70l-166 -70q-13 -5 -23 -5t-18.5 7.5t-8.5 20.5q0 14 18 28l162 119q21 16 36 16z" />
    <glyph glyph-name="tilde.cap" horiz-adv-x="459" 
d="M449 916q0 -29 -39 -68q-37 -36 -96 -36q-29 0 -105 26q-53 19 -67 19q-8 0 -17 -3q-28 -9 -44 -31q-11 -15 -31 -15q-17 0 -28.5 12.5t-11.5 27.5q0 29 39 66q37 36 95 36q30 0 106 -26q50 -18 67 -18q5 0 17 2q24 8 44 33q13 14 32 14q17 0 28 -12.5t11 -26.5z" />
    <glyph glyph-name="macron.cap" horiz-adv-x="446" 
d="M436 880q0 -19 -13 -32t-32 -13h-336q-19 0 -32 13t-13 32t13 32t32 13h336q19 0 32 -13t13 -32z" />
    <glyph glyph-name="breve.cap" horiz-adv-x="432" 
d="M216 789q-91 0 -146 43t-55 104q0 16 10 27.5t26 11.5q30 0 40 -34q10 -32 37 -50t88 -18t88 18t37 50q10 34 40 34q16 0 26 -11.5t10 -27.5q0 -61 -55 -104t-146 -43z" />
    <glyph glyph-name="dotaccent.cap" horiz-adv-x="314" 
d="M229 880q0 -29 -21.5 -50.5t-50.5 -21.5t-50.5 21.5t-21.5 50.5t21.5 50.5t50.5 21.5t50.5 -21.5t21.5 -50.5z" />
    <glyph glyph-name="ring.cap" horiz-adv-x="289" 
d="M279 880q0 -55 -40 -92.5t-95 -37.5t-94.5 37.5t-39.5 92.5q0 54 39.5 92t94.5 38t95 -37.5t40 -92.5zM217 880q0 30 -21.5 51.5t-51.5 21.5t-51.5 -21.5t-21.5 -51.5t21.5 -51.5t51.5 -21.5t51.5 21.5t21.5 51.5z" />
    <glyph glyph-name="hungarumlaut.cap" horiz-adv-x="513" 
d="M46 855l150 93q24 14 43 14q21 0 37 -16t16 -42q0 -44 -43 -56l-182 -49q-3 -1 -12 -1q-13 0 -20.5 8t-7.5 19q0 20 19 30zM310 855l150 93q24 14 43 14q21 0 37 -16t16 -42q0 -44 -43 -56l-182 -49q-3 -1 -12 -1q-13 0 -20.5 8t-7.5 19q0 20 19 30z" />
    <glyph glyph-name="caron.cap" horiz-adv-x="436" 
d="M218 784q-15 0 -36 16l-162 119q-18 14 -18 28q0 13 8.5 20.5t18.5 7.5q11 0 23 -5l166 -70l166 70q12 5 23 5q10 0 18.5 -7.5t8.5 -20.5q0 -14 -18 -28l-162 -119q-21 -16 -36 -16z" />
    <glyph glyph-name="zero.sup" horiz-adv-x="473" 
d="M412 619q0 -94 -49 -160t-126 -66q-78 0 -127 66t-49 160q0 95 49 161t127 66q77 0 126 -66t49 -161zM336 619q0 72 -29 114t-70 42t-70.5 -42t-29.5 -114q0 -71 29.5 -113.5t70.5 -42.5q40 0 69.5 42.5t29.5 113.5z" />
    <glyph glyph-name="four.sup" horiz-adv-x="443" 
d="M389 533q0 -15 -10.5 -25.5t-25.5 -10.5h-20v-60q0 -16 -11 -27t-27 -11t-27 11t-11 27v60h-181q-15 0 -25.5 10.5t-10.5 25.5v10q0 11 10 25l191 253q14 19 31 19h23q16 0 27 -11t11 -27v-234h20q15 0 25.5 -10.5t10.5 -24.5zM257 568v162l-121 -162h121z" />
    <glyph glyph-name="five.sup" horiz-adv-x="473" 
d="M405 558q0 -71 -51.5 -117t-127.5 -46q-70 0 -109 18q-29 13 -29 35q0 15 10 26t25 11q11 0 40.5 -10t62.5 -10q49 0 76 26.5t27 66.5q0 43 -25.5 68.5t-71.5 25.5q-44 0 -80 -29q-13 -10 -25 -10q-7 0 -32 7h1q-23 7 -23 29q0 10 1 15l17 144q3 32 38 32h213
q15 0 25 -10.5t10 -24.5q0 -15 -10 -25.5t-25 -10.5h-185l-8 -72q44 24 89 24q72 0 119.5 -45.5t47.5 -117.5z" />
    <glyph glyph-name="six.sup" horiz-adv-x="473" 
d="M414 562q0 -73 -51 -121t-122 -48q-103 0 -151 83q-24 40 -24 102q0 136 94 225q38 37 88.5 63t82.5 26q17 0 26.5 -9.5t9.5 -23.5q0 -26 -31 -36q-79 -25 -127 -70q-18 -16 -32 -38q30 15 67 15q74 0 122 -47t48 -121zM337 562q0 41 -27 69.5t-69 28.5q-43 0 -70.5 -28
t-27.5 -70q0 -43 27.5 -71t69.5 -28q43 0 70 28t27 71z" />
    <glyph glyph-name="seven.sup" horiz-adv-x="423" 
d="M387 805v-13q0 -21 -30.5 -74.5t-75.5 -104.5q-44 -49 -62 -89.5t-18 -86.5q0 -16 -11 -27t-27 -11t-27 11t-11 27q0 112 93 216q67 74 79 116h-215q-14 0 -24.5 10.5t-10.5 25.5q0 14 10.5 24.5t24.5 10.5h270q14 0 24.5 -10.5t10.5 -24.5z" />
    <glyph glyph-name="eight.sup" horiz-adv-x="473" 
d="M411 533q0 -64 -49 -102t-124 -38q-76 0 -126 38t-50 102q0 72 64 108q-39 33 -39 82q0 54 41.5 88.5t108.5 34.5q66 0 107.5 -34.5t41.5 -88.5q0 -48 -38 -81q63 -33 63 -109zM336 533q0 29 -22.5 49t-75.5 20q-54 0 -77.5 -20t-23.5 -49q0 -70 100 -70q99 0 99 70z
M313 723q0 21 -19 36.5t-57 15.5q-39 0 -57.5 -15.5t-18.5 -36.5q0 -53 76 -53q42 0 59 16t17 37z" />
    <glyph glyph-name="nine.sup" horiz-adv-x="473" 
d="M59 677q0 73 51 121t122 48q103 0 151 -83q24 -40 24 -102q0 -136 -94 -225q-38 -37 -88.5 -63t-82.5 -26q-17 0 -26.5 9.5t-9.5 23.5q0 26 31 36q79 25 127 70q18 16 32 38q-30 -15 -67 -15q-74 0 -122 47t-48 121zM136 677q0 -41 27 -69.5t69 -28.5q43 0 70.5 28
t27.5 70q0 43 -27.5 71t-69.5 28q-43 0 -70 -28t-27 -71z" />
    <glyph glyph-name="plus.sup" horiz-adv-x="446" 
d="M395 612q0 -15 -10.5 -25.5t-25.5 -10.5h-101v-98q0 -15 -10.5 -25t-24.5 -10t-24.5 10t-10.5 25v98h-101q-15 0 -25.5 10.5t-10.5 25.5q0 14 10.5 24.5t25.5 10.5h101v98q0 15 10.5 25t24.5 10t24.5 -10t10.5 -25v-98h101q15 0 25.5 -10.5t10.5 -24.5z" />
    <glyph glyph-name="minus.sup" horiz-adv-x="446" 
d="M395 612q0 -15 -10.5 -25.5t-25.5 -10.5h-272q-15 0 -25.5 10.5t-10.5 25.5q0 14 10.5 24.5t25.5 10.5h272q15 0 25.5 -10.5t10.5 -24.5z" />
    <glyph glyph-name="equal.sup" horiz-adv-x="446" 
d="M398 667q0 -14 -10.5 -24.5t-25.5 -10.5h-278q-15 0 -25.5 10.5t-10.5 24.5q0 15 10.5 25t25.5 10h278q15 0 25.5 -10t10.5 -25zM398 564q0 -15 -10.5 -25t-25.5 -10h-278q-15 0 -25.5 10t-10.5 25q0 14 10.5 24.5t25.5 10.5h278q15 0 25.5 -10.5t10.5 -24.5z" />
    <glyph glyph-name="parenright.sup" horiz-adv-x="240" 
d="M10 319q0 11 9 22q98 117 98 275t-99 276q-8 10 -8 23t10 23t23 10q16 0 26 -12q119 -143 119 -320q0 -180 -114 -314q-15 -16 -31 -16q-13 0 -23 10t-10 23z" />
    <glyph glyph-name="n.sup" horiz-adv-x="456" 
d="M384 573v-138q0 -14 -10.5 -25t-25.5 -11t-26 11t-11 25v137q0 34 -5 49q-16 45 -73 45q-54 0 -78 -41q-16 -26 -16 -58v-132q0 -14 -10.5 -25t-25.5 -11t-25.5 11t-10.5 25v259q0 16 10.5 26t25.5 10q14 0 24.5 -9.5t11.5 -26.5q37 39 103 39q82 0 119 -59
q23 -37 23 -101z" />
    <glyph glyph-name="zero.sub" horiz-adv-x="473" 
d="M412 82q0 -94 -49 -160t-126 -66q-78 0 -127 66t-49 160q0 95 49 161t127 66q77 0 126 -66t49 -161zM336 82q0 72 -29 114t-70 42t-70.5 -42t-29.5 -114q0 -71 29.5 -113.5t70.5 -42.5q40 0 69.5 42.5t29.5 113.5z" />
    <glyph glyph-name="one.sub" horiz-adv-x="372" 
d="M269 -100q0 -16 -11 -27t-27 -11t-27 11t-11 27v316l-87 -62q-8 -6 -20 -6q-18 0 -28 14q-7 12 -7 21q0 17 15 28l111 78q19 14 34 14h20q16 0 27 -11t11 -27v-365z" />
    <glyph glyph-name="two.sub" horiz-adv-x="473" 
d="M411 -103q0 -14 -10.5 -24.5t-24.5 -10.5h-265q-14 0 -24.5 10.5t-10.5 26.5q0 37 14 66.5t42 51t53 35t63 28.5q77 32 77 84q0 35 -21.5 55.5t-55.5 20.5q-68 0 -84 -61q-9 -31 -38 -31q-16 0 -25.5 10.5t-9.5 26.5q0 44 43.5 84t116.5 40q67 0 108.5 -39t41.5 -106
q0 -93 -122 -146q-39 -17 -55.5 -25t-37 -25t-28.5 -36h218q14 0 24.5 -10t10.5 -25z" />
    <glyph glyph-name="three.sub" horiz-adv-x="458" 
d="M391 -5q0 -68 -52 -103.5t-133 -35.5q-93 0 -146 27q-21 11 -21 33q0 15 10.5 26t26.5 11q9 0 17 -4q42 -23 113 -23q111 0 111 69q0 68 -123 68q-15 0 -26 10.5t-11 24.5t11 24.5t26 10.5q101 0 101 53q0 52 -91 52q-55 0 -94 -15q-10 -4 -19 -4q-15 0 -25 9.5t-10 24.5
q0 22 23 32q55 24 125 24q76 0 120 -33.5t44 -89.5q0 -53 -46 -82q32 -13 50.5 -43t18.5 -66z" />
    <glyph glyph-name="four.sub" horiz-adv-x="443" 
d="M389 -4q0 -15 -10.5 -25.5t-25.5 -10.5h-20v-60q0 -16 -11 -27t-27 -11t-27 11t-11 27v60h-181q-15 0 -25.5 10.5t-10.5 25.5v10q0 11 10 25l191 253q14 19 31 19h23q16 0 27 -11t11 -27v-234h20q15 0 25.5 -10.5t10.5 -24.5zM257 31v162l-121 -162h121z" />
    <glyph glyph-name="five.sub" horiz-adv-x="473" 
d="M405 21q0 -71 -51.5 -117t-127.5 -46q-70 0 -109 18q-29 13 -29 35q0 15 10 26t25 11q11 0 40.5 -10t62.5 -10q49 0 76 26.5t27 66.5q0 43 -25.5 68.5t-71.5 25.5q-44 0 -80 -29q-13 -10 -25 -10q-7 0 -32 7h1q-23 7 -23 29q0 10 1 15l17 144q3 32 38 32h213
q15 0 25 -10.5t10 -24.5q0 -15 -10 -25.5t-25 -10.5h-185l-8 -72q44 24 89 24q72 0 119.5 -45.5t47.5 -117.5z" />
    <glyph glyph-name="six.sub" horiz-adv-x="473" 
d="M414 25q0 -73 -51 -121t-122 -48q-103 0 -151 83q-24 41 -24 102q0 136 94 225q38 37 88.5 63t82.5 26q17 0 26.5 -9.5t9.5 -23.5q0 -26 -31 -36q-79 -25 -127 -70q-18 -16 -32 -38q30 15 67 15q74 0 122 -47t48 -121zM337 25q0 41 -27 69.5t-69 28.5q-43 0 -70.5 -28
t-27.5 -70q0 -43 27.5 -71t69.5 -28q43 0 70 28t27 71z" />
    <glyph glyph-name="seven.sub" horiz-adv-x="423" 
d="M387 268v-13q0 -21 -30.5 -74.5t-75.5 -104.5q-44 -49 -62 -89.5t-18 -86.5q0 -16 -11 -27t-27 -11t-27 11t-11 27q0 112 93 216q67 74 79 116h-215q-14 0 -24.5 10.5t-10.5 25.5q0 14 10.5 24.5t24.5 10.5h270q14 0 24.5 -10.5t10.5 -24.5z" />
    <glyph glyph-name="eight.sub" horiz-adv-x="473" 
d="M411 -4q0 -64 -49 -102t-124 -38q-76 0 -126 38t-50 102q0 72 64 108q-39 33 -39 82q0 54 41.5 88.5t108.5 34.5q66 0 107.5 -34.5t41.5 -88.5q0 -48 -38 -81q63 -33 63 -109zM336 -4q0 29 -22.5 49t-75.5 20q-54 0 -77.5 -20t-23.5 -49q0 -70 100 -70q99 0 99 70z
M313 186q0 21 -19 36.5t-57 15.5q-39 0 -57.5 -15.5t-18.5 -36.5q0 -53 76 -53q42 0 59 16t17 37z" />
    <glyph glyph-name="nine.sub" horiz-adv-x="473" 
d="M59 140q0 73 51 121t122 48q103 0 151 -83q24 -41 24 -102q0 -136 -94 -225q-38 -37 -88.5 -63t-82.5 -26q-17 0 -26.5 9.5t-9.5 23.5q0 26 31 36q79 25 127 70q18 16 32 38q-30 -15 -67 -15q-74 0 -122 47t-48 121zM136 140q0 -41 27 -69.5t69 -28.5q43 0 70.5 28
t27.5 70q0 43 -27.5 71t-69.5 28q-43 0 -70 -28t-27 -71z" />
    <glyph glyph-name="plus.sub" horiz-adv-x="446" 
d="M395 75q0 -15 -10.5 -25.5t-25.5 -10.5h-101v-98q0 -15 -10.5 -25t-24.5 -10t-24.5 10t-10.5 25v98h-101q-15 0 -25.5 10.5t-10.5 25.5q0 14 10.5 24.5t25.5 10.5h101v98q0 15 10.5 25t24.5 10t24.5 -10t10.5 -25v-98h101q15 0 25.5 -10.5t10.5 -24.5z" />
    <glyph glyph-name="minus.sub" horiz-adv-x="446" 
d="M395 75q0 -15 -10.5 -25.5t-25.5 -10.5h-272q-15 0 -25.5 10.5t-10.5 25.5q0 14 10.5 24.5t25.5 10.5h272q15 0 25.5 -10.5t10.5 -24.5z" />
    <glyph glyph-name="equal.sub" horiz-adv-x="446" 
d="M398 130q0 -14 -10.5 -24.5t-25.5 -10.5h-278q-15 0 -25.5 10.5t-10.5 24.5q0 15 10.5 25t25.5 10h278q15 0 25.5 -10t10.5 -25zM398 27q0 -15 -10.5 -25t-25.5 -10h-278q-15 0 -25.5 10t-10.5 25q0 14 10.5 24.5t25.5 10.5h278q15 0 25.5 -10.5t10.5 -24.5z" />
    <glyph glyph-name="parenleft.sub" horiz-adv-x="240" 
d="M230 -218q0 -14 -10 -23.5t-23 -9.5q-16 0 -31 16q-114 134 -114 314q0 177 119 320q10 12 26 12q13 0 23 -10t10 -23t-8 -23q-99 -118 -99 -276t98 -275q9 -11 9 -22z" />
    <glyph glyph-name="parenright.sub" horiz-adv-x="240" 
d="M10 -218q0 11 9 22q98 117 98 275t-99 276q-8 10 -8 23t10 23t23 10q16 0 26 -12q119 -143 119 -320q0 -180 -114 -314q-15 -16 -31 -16q-13 0 -23 9.5t-10 23.5z" />
    <glyph glyph-name="I.alt" horiz-adv-x="570" 
d="M490 44q0 -19 -13 -31.5t-32 -12.5h-320q-19 0 -32 12.5t-13 31.5t13 31.5t32 12.5h110v547h-110q-19 0 -32 12.5t-13 31.5t13 31.5t32 12.5h320q19 0 32 -12.5t13 -31.5t-13 -31.5t-32 -12.5h-110v-547h110q19 0 32 -12.5t13 -31.5z" />
    <glyph glyph-name="J.alt" horiz-adv-x="616" 
d="M401 211v422h-215q-19 0 -32 13t-13 32t13 32t32 13h266q20 0 34.5 -15t14.5 -35v-459q0 -102 -54 -159q-62 -65 -182 -65q-81 0 -141.5 32t-85.5 73q-8 13 -8 28q0 19 13.5 32t32.5 13q22 0 39 -21q53 -67 150 -67q73 0 107 37q29 32 29 94z" />
    <glyph glyph-name="i.alt" horiz-adv-x="566" 
d="M369 701q0 -35 -25 -60t-60 -25t-60 25t-25 60t25 60t60 25t60 -25t25 -60zM521 43q0 -18 -12.5 -30.5t-29.5 -12.5h-381q-18 0 -30.5 13t-12.5 30q0 18 12.5 30t29.5 12h144v367h-126q-18 0 -30.5 12.5t-12.5 29.5q0 18 12.5 30.5t29.5 12.5h174q20 0 33.5 -13.5
t13.5 -33.5v-405h143q18 0 30.5 -12t12.5 -30z" />
    <glyph glyph-name="j.alt" horiz-adv-x="489" 
d="M380 701q0 -35 -25 -60t-60 -25t-60 25t-25 60t25 60t60 25t60 -25t25 -60zM346 490v-500q0 -84 -33 -128q-22 -31 -61.5 -48.5t-85.5 -17.5q-77 0 -125 50q-16 16 -16 37q0 18 12.5 30.5t31.5 12.5q17 0 42 -23t56 -23q45 0 68 33q17 25 17 77v462h-126
q-18 0 -30.5 12.5t-12.5 29.5q0 18 12.5 30.5t29.5 12.5h174q19 0 33 -13.5t14 -33.5z" />
    <glyph glyph-name="l.alt" horiz-adv-x="566" 
d="M521 43q0 -18 -12.5 -30.5t-29.5 -12.5h-381q-18 0 -30.5 12.5t-12.5 29.5q0 18 12.5 30.5t29.5 12.5h144v553h-126q-18 0 -30.5 12.5t-12.5 29.5q0 18 12.5 30.5t29.5 12.5h174q20 0 33.5 -13.5t13.5 -33.5v-591h143q18 0 30.5 -12.5t12.5 -29.5z" />
    <glyph glyph-name="lslash.alt" horiz-adv-x="571" 
d="M521 43q0 -18 -12.5 -30.5t-29.5 -12.5h-381q-18 0 -30.5 12.5t-12.5 29.5q0 18 12.5 30.5t29.5 12.5h144v233l-127 -67q-12 -4 -17 -4q-12 0 -23 8q-5 4 -10 12q-4 8 -4 17q0 12 8 23q4 5 12 10l161 84v237h-126q-18 0 -30.5 12.5t-12.5 29.5q0 18 12.5 30.5t29.5 12.5
h174q20 0 33.5 -13.5t13.5 -33.5v-226l116 60q7 4 17 4q14 0 22 -7q8 -8 10 -12q4 -8 4 -17q0 -15 -7 -23q-4 -4 -12 -10l-150 -78v-282h143q18 0 30.5 -12.5t12.5 -29.5z" />
    <glyph glyph-name="iacute.alt" horiz-adv-x="566" 
d="M521 43q0 -18 -12.5 -30.5t-29.5 -12.5h-381q-18 0 -30.5 12.5t-12.5 29.5q0 18 12.5 30.5t29.5 12.5h144v367h-126q-18 0 -30.5 12.5t-12.5 29.5q0 18 12.5 30.5t29.5 12.5h174q20 0 33.5 -13.5t13.5 -33.5v-405h143q18 0 30.5 -12.5t12.5 -29.5zM418 785q0 -30 -20 -44
l-198 -135q-9 -6 -19 -6q-14 0 -23 11q-6 8 -6 17q0 14 11 25l157 174q15 16 40 16q24 0 41 -17t17 -41z" />
    </font>
</defs>
</svg>
