<?xml version="1.0" standalone="no"?>
<!DOCTYPE svg PUBLIC "-//W3C//DTD SVG 1.1//EN" "http://www.w3.org/Graphics/SVG/1.1/DTD/svg11.dtd" >
<svg>
<metadata>
Created by FontForge 20090622 at Wed Aug 24 13:56:02 2016
 By deploy user
&#194;&#169;2003-2010 Optimo.
</metadata>
<defs>
<font id="Hermes-Bold" horiz-adv-x="696" >
  <font-face 
    font-family="Hermes Bold"
    font-weight="700"
    font-stretch="normal"
    units-per-em="1000"
    panose-1="2 15 8 5 3 0 0 2 0 4"
    ascent="796"
    descent="-204"
    x-height="536"
    cap-height="723"
    bbox="-137 -254 1340 1119"
    underline-thickness="50"
    underline-position="-100"
    unicode-range="U+0020-U+FB02"
  />
<missing-glyph horiz-adv-x="644" 
d="M50 240v49l309 309q16 -9 26 -23zM50 142v49l347 347v-15q0 -20 -13.5 -37.5t-42 -40t-36.5 -30.5q-23 -22 -36 -54zM104 0h-49l261 261h49l-93 -93h-23v-23zM321 168l273 273v-49l-224 -224h-49zM50 338v49l148 148l39 -2q0 29 20 52t55 23h8zM398 0h-49l33 33h2v2
l210 210v-49zM384 133l210 210v-49l-210 -210v49zM50 44v49l206 206v-38h11zM50 583l196 196h49l-44 -44q-53 -14 -92.5 -53.5t-54.5 -93.5l-54 -54v49zM537 482l57 57v-49l-216 -216v7q0 15 6.5 27.5t11 17.5t25.5 20t27 20q2 1 15.5 11t21.5 17.5t20 20.5t20 30t12 37z
M50 681l98 98h49l-147 -147v49zM496 0h-49l147 147v-49zM459 698l81 81h49l-104 -104q-12 13 -26 23zM50 436v49l56 56l46 -3zM506 647l88 88v-49l-70 -70q-7 15 -18 31zM202 0h-49l96 96v-49zM395 732l47 47h49l-62 -62q-17 9 -34 15zM536 579l58 58v-49l-52 -52
q0 15 -6 43zM307 742l37 37h49l-38 -38q-18 2 -28 2zM300 0h-49l33 33h49zM594 49v-49h-49zM50 779h49l-49 -49v49z" />
    <glyph glyph-name="fi" unicode="fi" horiz-adv-x="810" 
d="M566 65v350h-275v-349q0 -27 -19 -46.5t-47 -19.5q-27 0 -46.5 19.5t-19.5 46.5v349h-73q-26 0 -43.5 17.5t-17.5 43.5t17.5 43.5t43.5 17.5h73v42q0 73 54.5 125.5t126.5 52.5q43 0 86.5 -23t43.5 -63q0 -21 -16.5 -39.5t-41.5 -18.5q-12 0 -34 12.5t-37 12.5
q-50 0 -50 -59v-42h341q27 0 46.5 -19.5t19.5 -46.5v-406q0 -27 -19 -46.5t-47 -19.5q-27 0 -46.5 19.5t-19.5 46.5zM725 720q0 -38 -26.5 -64.5t-64.5 -26.5t-64.5 26.5t-26.5 64.5t26.5 64.5t64.5 26.5t64.5 -26.5t26.5 -64.5z" />
    <glyph glyph-name="fl" unicode="fl" horiz-adv-x="823" 
d="M85 538h74v41q0 73 54.5 125.5t126.5 52.5q43 0 86.5 -23t43.5 -63q0 -21 -16.5 -39.5t-41.5 -18.5q-12 0 -34 12.5t-37 12.5q-50 0 -50 -59v-41h110q25 0 42.5 -17.5t17.5 -42.5t-17.5 -42.5t-42.5 -17.5h-110v-352q0 -27 -19 -46.5t-47 -19.5q-27 0 -46.5 19.5
t-19.5 46.5v352h-74q-25 0 -42.5 17.5t-17.5 42.5t17.5 42.5t42.5 17.5zM708 657v-591q0 -27 -19 -46.5t-47 -19.5q-27 0 -46.5 19.5t-19.5 46.5v591q0 27 19.5 46.5t46.5 19.5q28 0 47 -19.5t19 -46.5z" />
    <glyph glyph-name=".notdef" horiz-adv-x="644" 
d="M50 240v49l309 309q16 -9 26 -23zM50 142v49l347 347v-15q0 -20 -13.5 -37.5t-42 -40t-36.5 -30.5q-23 -22 -36 -54zM104 0h-49l261 261h49l-93 -93h-23v-23zM321 168l273 273v-49l-224 -224h-49zM50 338v49l148 148l39 -2q0 29 20 52t55 23h8zM398 0h-49l33 33h2v2
l210 210v-49zM384 133l210 210v-49l-210 -210v49zM50 44v49l206 206v-38h11zM50 583l196 196h49l-44 -44q-53 -14 -92.5 -53.5t-54.5 -93.5l-54 -54v49zM537 482l57 57v-49l-216 -216v7q0 15 6.5 27.5t11 17.5t25.5 20t27 20q2 1 15.5 11t21.5 17.5t20 20.5t20 30t12 37z
M50 681l98 98h49l-147 -147v49zM496 0h-49l147 147v-49zM459 698l81 81h49l-104 -104q-12 13 -26 23zM50 436v49l56 56l46 -3zM506 647l88 88v-49l-70 -70q-7 15 -18 31zM202 0h-49l96 96v-49zM395 732l47 47h49l-62 -62q-17 9 -34 15zM536 579l58 58v-49l-52 -52
q0 15 -6 43zM307 742l37 37h49l-38 -38q-18 2 -28 2zM300 0h-49l33 33h49zM594 49v-49h-49zM50 779h49l-49 -49v49z" />
    <glyph glyph-name=".null" horiz-adv-x="0" 
 />
    <glyph glyph-name="nonmarkingreturn" horiz-adv-x="333" 
 />
    <glyph glyph-name="space" unicode=" " horiz-adv-x="400" 
 />
    <glyph glyph-name="exclam" unicode="!" horiz-adv-x="483" 
d="M317 659q0 -7 -1 -22t-2 -39t-2 -38l-14 -242q-2 -23 -17.5 -39t-38.5 -16t-38 16t-17 39l-15 242q-5 95 -5 97q0 30 22.5 51t52.5 21t52.5 -20t22.5 -50zM343 97q0 -43 -29.5 -72.5t-71.5 -29.5t-72 29.5t-30 72.5q0 42 30 71.5t72 29.5t71.5 -29.5t29.5 -71.5z" />
    <glyph glyph-name="quotedbl" unicode="&#x22;" horiz-adv-x="589" 
d="M257 663q0 -5 -5 -52l-20 -194q-5 -41 -45 -41q-18 0 -32 11.5t-15 29.5l-20 194q-5 43 -5 52q0 29 21 49.5t50 20.5t50 -20.5t21 -49.5zM474 663q0 -5 -5 -52l-20 -194q-5 -41 -45 -41q-18 0 -32 11.5t-15 29.5l-20 194q-5 43 -5 52q0 29 21 49.5t50 20.5t50 -20.5
t21 -49.5z" />
    <glyph glyph-name="numbersign" unicode="#" horiz-adv-x="742" 
d="M110 223h76l31 98h-37q-22 0 -37.5 15.5t-15.5 37.5q0 23 15.5 38.5t37.5 15.5h71l24 71q13 40 52 40q4 0 14 -2q38 -13 38 -55q0 -5 -2 -15l-13 -39h108l24 71q13 40 52 40q4 0 14 -2q38 -13 38 -55q0 -10 -2 -15l-13 -39h45q22 0 38 -16t16 -38t-15.5 -37.5
t-38.5 -15.5h-79l-31 -98h40q22 0 38 -15.5t16 -38.5q0 -22 -15.5 -37.5t-38.5 -15.5h-74l-24 -76q-12 -39 -54 -39q-9 0 -14 1q-37 12 -37 53q0 11 2 17l14 44h-108l-24 -76q-12 -39 -54 -39q-9 0 -14 1q-38 13 -38 52q0 9 3 18l14 44h-42q-22 0 -37.5 15t-15.5 38
t15.5 38.5t37.5 15.5zM330 321l-31 -98h108l31 98h-108z" />
    <glyph glyph-name="dollar" unicode="$" horiz-adv-x="768" 
d="M696 218q0 -95 -66 -155t-184 -70v-65q0 -24 -17 -41.5t-42 -17.5t-42 17.5t-17 41.5v68q-152 18 -236 112q-16 19 -16 46q0 28 18.5 45t46.5 17q23 0 47 -24q84 -83 213 -83q65 0 108.5 30.5t43.5 73.5q0 35 -26.5 57.5t-90.5 34.5q-15 3 -67 11t-74 12
q-203 44 -203 195q0 76 62.5 134t176.5 71v63q0 24 17 41.5t42 17.5t42 -17.5t17 -41.5v-63q105 -12 181 -64q35 -24 35 -61q0 -24 -18 -41.5t-42 -17.5q-21 0 -53 22q-73 50 -155 50q-79 0 -121.5 -25.5t-42.5 -60.5q0 -59 87 -77q16 -4 52.5 -10l74.5 -12t47 -8
q96 -18 149 -70t53 -135z" />
    <glyph glyph-name="percent" unicode="%" horiz-adv-x="932" 
d="M848 163q0 -70 -49 -119t-119 -49t-119 49t-49 119t49 119t119 49t119 -49t49 -119zM426 562q0 -70 -50 -120.5t-121 -50.5t-121 50.5t-50 120.5q0 71 50 121t121 50t121 -50t50 -121zM187 562q0 -31 19.5 -53.5t48.5 -22.5t48.5 22.5t19.5 53.5t-19.5 53.5t-48.5 22.5
t-48.5 -22.5t-19.5 -53.5zM612 163q0 -31 19.5 -53.5t48.5 -22.5t48.5 22.5t19.5 53.5t-19.5 53.5t-48.5 22.5t-48.5 -22.5t-19.5 -53.5zM738 742l-459 -827q-14 -26 -45 -26q-16 0 -27 7q-27 15 -27 47q0 13 6 25l459 827q14 26 45 26q16 0 27 -7q27 -15 27 -47
q0 -13 -6 -25z" />
    <glyph glyph-name="ampersand" unicode="&#x26;" horiz-adv-x="816" 
d="M755 59q0 -27 -19 -46q-21 -19 -46 -19q-28 0 -46 19l-59 64q-118 -86 -251 -86q-121 0 -185 56.5t-64 140.5q0 75 39 128t139 99q-40 46 -59 78t-19 63q0 81 55 128.5t149 47.5q93 0 148 -48t55 -123q0 -112 -117 -180l120 -126q23 23 33 35q20 22 48 22q26 0 43 -15
q22 -20 22 -50q0 -25 -16 -42l-41 -43l52 -57q19 -21 19 -46zM456 559q0 27 -17 43.5t-50 16.5q-27 0 -44.5 -16t-17.5 -42q0 -29 55 -85q17 8 26.5 14t22.5 16.5t19 23.5t6 29zM495 170l-141 147q-51 -24 -67 -33q-60 -36 -60 -90q0 -79 110 -79q47 0 81.5 13.5t76.5 41.5z
" />
    <glyph glyph-name="quotesingle" unicode="'" horiz-adv-x="312" 
d="M227 663q0 -5 -5 -52l-20 -194q-5 -41 -45 -41q-18 0 -32 11.5t-15 29.5l-20 194q-5 43 -5 52q0 29 21 49.5t50 20.5t50 -20.5t21 -49.5z" />
    <glyph glyph-name="parenleft" unicode="(" horiz-adv-x="354" 
d="M197 297q0 -128 41.5 -249t113.5 -207q15 -19 15 -37q0 -24 -15 -41t-39 -17q-27 0 -43 19q-88 101 -141.5 243t-53.5 289t53.5 289t141.5 243q16 19 43 19q24 0 39 -17t15 -41q0 -18 -15 -37q-72 -86 -113.5 -207t-41.5 -249z" />
    <glyph glyph-name="parenright" unicode=")" horiz-adv-x="354" 
d="M157 297q0 128 -41.5 249t-113.5 207q-15 19 -15 37q0 24 15 41t39 17q27 0 43 -19q88 -101 141.5 -243t53.5 -289t-53.5 -289t-141.5 -243q-16 -19 -43 -19q-24 0 -39 17t-15 41q0 18 15 37q72 86 113.5 207t41.5 249z" />
    <glyph glyph-name="asterisk" unicode="*" horiz-adv-x="698" 
d="M137 640l124 -8l-70 103q-7 11 -7 28q0 33 29 51q15 9 32 9q33 0 48 -29l54 -111l54 111q14 28 50 28q16 0 29 -7q31 -20 31 -51q0 -17 -8 -29l-71 -103l125 7q24 1 41 -16t17 -42q0 -24 -17 -41.5t-41 -16.5l-122 8l67 -101q8 -12 8 -29q0 -34 -29 -51q-13 -7 -28 -7
q-37 0 -52 29l-54 110l-55 -110q-15 -29 -51 -29q-16 0 -29 7q-28 17 -28 52q0 18 7 29l68 100l-122 -8q-23 -1 -40 16.5t-17 41.5q0 26 16 43t41 16z" />
    <glyph glyph-name="plus" unicode="+" 
d="M411 212v-141q0 -26 -18.5 -44.5t-44.5 -18.5t-44.5 18.5t-18.5 44.5v141h-159q-23 0 -39.5 16.5t-16.5 39.5t16.5 39.5t39.5 16.5h159v142q0 26 18.5 44.5t44.5 18.5t44.5 -18.5t18.5 -44.5v-142h159q23 0 39.5 -16.5t16.5 -39.5t-16.5 -39.5t-39.5 -16.5h-159z" />
    <glyph glyph-name="comma" unicode="," horiz-adv-x="426" 
d="M215 201q49 0 79 -40q28 -37 28 -95q0 -37 -17.5 -81.5t-43.5 -76.5q-46 -57 -90 -86q-19 -12 -34 -12q-17 0 -28.5 12t-11.5 28q0 22 24 38q25 16 48.5 44.5t23.5 51.5q0 13 -12 16q-29 9 -50 36t-21 62q0 43 30.5 73t74.5 30z" />
    <glyph glyph-name="hyphen" unicode="-" horiz-adv-x="631" 
d="M470 226h-309q-23 0 -39.5 16.5t-16.5 39.5t16.5 39.5t39.5 16.5h309q23 0 39.5 -16.5t16.5 -39.5t-16.5 -39.5t-39.5 -16.5z" />
    <glyph glyph-name="period" unicode="." horiz-adv-x="426" 
d="M110 98q0 43 30 73t73 30t73 -30t30 -73t-30 -73t-73 -30t-73 30t-30 73z" />
    <glyph glyph-name="slash" unicode="/" horiz-adv-x="587" 
d="M17 -118l454 998q14 29 47 29q13 0 22 -4q30 -15 30 -48q0 -10 -5 -23l-454 -998q-14 -29 -47 -29q-13 0 -22 4q-30 15 -30 48q0 10 5 23z" />
    <glyph glyph-name="zero" unicode="0" horiz-adv-x="742" 
d="M662 362q0 -151 -80.5 -261t-210.5 -110t-210.5 110t-80.5 261t80.5 261t210.5 110t210.5 -110t80.5 -261zM522 362q0 121 -43.5 187.5t-107.5 66.5t-107.5 -66.5t-43.5 -187.5t43.5 -187.5t107.5 -66.5t107.5 66.5t43.5 187.5z" />
    <glyph glyph-name="one" unicode="1" horiz-adv-x="742" 
d="M486 653v-583q0 -29 -20.5 -49.5t-49.5 -20.5t-49.5 20.5t-20.5 49.5v443q0 32 5 48l-2 1q-17 -17 -50 -39l-76 -54q-18 -12 -38 -12q-34 0 -54 28q-12 18 -12 38q0 34 28 54l191 134q18 12 38 12h40q29 0 49.5 -20.5t20.5 -49.5z" />
    <glyph glyph-name="two" unicode="2" horiz-adv-x="742" 
d="M595 0h-426q-27 0 -46.5 19t-19.5 47v3q0 52 19.5 96.5t45 73t73.5 57.5t79 43.5t88 37.5q42 17 68 47t26 68q0 57 -32.5 90t-89.5 33q-60 0 -89 -31.5t-35 -70.5q-8 -50 -64 -50q-29 0 -48 17t-19 46q0 84 76 145.5t182 61.5q114 0 185.5 -64.5t71.5 -176.5
q0 -91 -51 -147t-150 -93q-101 -38 -149 -79q-30 -26 -35 -48h340q25 0 43.5 -19t18.5 -45q0 -25 -18 -43t-44 -18z" />
    <glyph glyph-name="three" unicode="3" horiz-adv-x="742" 
d="M650 215q0 -100 -76.5 -162.5t-233.5 -62.5q-114 0 -235 56q-36 17 -36 59q0 26 18 43.5t44 17.5q14 0 30 -8q96 -51 179 -51q79 0 122.5 30t43.5 80q0 55 -42.5 81.5t-147.5 28.5q-26 1 -44 18t-18 43q0 25 18 42t44 18q81 2 117 20t36 59t-34.5 64.5t-103.5 23.5
q-72 0 -136 -35q-16 -9 -33 -9q-27 0 -44.5 16t-17.5 41q0 43 40 61q95 44 191 44q129 0 204.5 -55t75.5 -148q0 -42 -26 -78.5t-70 -56.5q62 -17 98.5 -68t36.5 -112z" />
    <glyph glyph-name="four" unicode="4" horiz-adv-x="742" 
d="M559 280h27q26 0 44 -18t18 -44q0 -25 -18 -43t-44 -18h-27v-87q0 -29 -20.5 -49.5t-49.5 -20.5t-49.5 20.5t-20.5 49.5v87h-282q-27 0 -46 19t-19 47v17q0 23 21 50l306 407q20 26 53 26h37q29 0 49.5 -20.5t20.5 -49.5v-373zM419 280v199q0 27 4 50l-3 1
q-10 -20 -27 -42l-126 -167q-18 -24 -39 -42l2 -3q17 4 45 4h144z" />
    <glyph glyph-name="five" unicode="5" horiz-adv-x="742" 
d="M650 243q0 -112 -79 -182.5t-204 -70.5q-100 0 -188 45q-46 23 -46 65q0 26 16 42.5t42 16.5q15 0 27 -6q5 -2 22.5 -11.5t26.5 -13l25.5 -9.5t34 -8.5t37.5 -2.5q143 0 143 139q0 60 -36.5 98t-93.5 38q-85 0 -137 -63q-15 -19 -38 -19q-11 0 -22 4l-59 20q-23 8 -23 39
q0 15 3 36l30 265q3 28 22.5 43t48.5 15h341q27 0 46 -19t19 -46q0 -26 -18 -42t-46 -16h-291l-9 -78q-7 -56 -12 -75l2 -1q56 51 156 51q112 0 186 -68.5t74 -185.5z" />
    <glyph glyph-name="six" unicode="6" horiz-adv-x="742" 
d="M667 270q0 -124 -84.5 -200.5t-202.5 -76.5q-122 0 -204 79t-82 202q0 121 38 218t112 171q49 50 135.5 98t146.5 48q28 0 46.5 -18t18.5 -46q0 -48 -55 -63q-193 -51 -260 -173l2 -2q53 38 126 38q109 0 186 -75t77 -200zM527 270q0 68 -41 113.5t-106 45.5
q-66 0 -106 -44t-40 -115q0 -65 41 -112t105 -47q65 0 106 45.5t41 113.5z" />
    <glyph glyph-name="seven" unicode="7" horiz-adv-x="742" 
d="M650 624q-24 -76 -66 -139.5t-123 -160.5q-98 -118 -106 -254q-2 -30 -20.5 -50t-47.5 -20t-48.5 20.5t-19.5 49.5q0 162 132 330l37 45.5l41.5 51t35 49t32.5 56.5l-1 2q-23 -4 -52 -4h-289q-25 0 -43 18t-18 43q0 26 18 44t43 18h435q29 0 47.5 -18t18.5 -44
q0 -21 -6 -37z" />
    <glyph glyph-name="eight" unicode="8" horiz-adv-x="742" 
d="M658 224q0 -108 -81.5 -170.5t-204.5 -62.5q-122 0 -205 62.5t-83 170.5q0 58 31.5 105t81.5 70q-74 49 -74 128q0 92 69.5 148.5t178.5 56.5t178.5 -56.5t69.5 -148.5q0 -80 -76 -128q52 -20 83.5 -67.5t31.5 -107.5zM483 530q0 12 -4 24.5t-14 28t-34.5 25.5t-59.5 10
t-59.5 -10t-34.5 -25.5t-14 -28t-4 -24.5q0 -13 2.5 -23.5t11.5 -27.5t34 -27t63 -10q113 0 113 88zM521 224q0 109 -149 109q-46 0 -78 -10.5t-46.5 -28t-20.5 -34.5t-6 -36q0 -50 36 -83.5t114 -33.5t114 33.5t36 83.5z" />
    <glyph glyph-name="nine" unicode="9" horiz-adv-x="742" 
d="M79 456q0 124 84.5 200.5t202.5 76.5q122 0 204 -79t82 -202q0 -121 -38 -218t-112 -171q-49 -50 -135.5 -98t-146.5 -48q-28 0 -46.5 18t-18.5 46q0 48 55 63q193 51 260 173l-2 2q-53 -38 -126 -38q-109 0 -186 75t-77 200zM219 456q0 -68 41 -113.5t106 -45.5
q66 0 106 44t40 115q0 65 -41 112t-105 47q-65 0 -106 -45.5t-41 -113.5z" />
    <glyph glyph-name="colon" unicode=":" horiz-adv-x="426" 
d="M110 439q0 43 30 73t73 30t73 -30t30 -73t-30 -73t-73 -30t-73 30t-30 73zM110 98q0 43 30 73t73 30t73 -30t30 -73t-30 -73t-73 -30t-73 30t-30 73z" />
    <glyph glyph-name="semicolon" unicode=";" horiz-adv-x="426" 
d="M215 201q49 0 79 -40q28 -37 28 -95q0 -37 -17.5 -81.5t-43.5 -76.5q-46 -57 -90 -86q-19 -12 -34 -12q-17 0 -28.5 12t-11.5 28q0 22 24 38q25 16 48.5 44.5t23.5 51.5q0 13 -12 16q-29 9 -50 36t-21 62q0 43 30.5 73t74.5 30zM110 439q0 43 30 73t73 30t73 -30t30 -73
t-30 -73t-73 -30t-73 30t-30 73z" />
    <glyph glyph-name="less" unicode="&#x3c;" 
d="M332 226l240 -110q34 -16 34 -59q0 -25 -18 -43t-43 -18q-19 0 -32 7l-397 192q-46 22 -46 65v17q0 43 46 65l397 192q13 7 33 7q25 0 42.5 -18t17.5 -43q0 -43 -34 -59l-240 -111q-23 -11 -65 -25.5t-55 -15.5v-2q12 -1 55 -16t65 -25z" />
    <glyph glyph-name="equal" unicode="=" 
d="M570 326h-444q-23 0 -39.5 16.5t-16.5 39.5t16.5 39.5t39.5 16.5h444q23 0 39.5 -16.5t16.5 -39.5t-16.5 -39.5t-39.5 -16.5zM570 112h-444q-23 0 -39.5 16.5t-16.5 39.5t16.5 39.5t39.5 16.5h444q23 0 39.5 -16.5t16.5 -39.5t-16.5 -39.5t-39.5 -16.5z" />
    <glyph glyph-name="greater" unicode="&#x3e;" 
d="M124 116l240 110q22 10 65 25t55 16v2q-13 1 -55 15.5t-65 25.5l-240 111q-34 16 -34 59q0 25 17.5 43t42.5 18q20 0 33 -7l397 -192q46 -22 46 -65v-17q0 -43 -46 -65l-397 -192q-13 -7 -32 -7q-25 0 -43 18t-18 43q0 43 34 59z" />
    <glyph glyph-name="question" unicode="?" horiz-adv-x="670" 
d="M600 548q0 -54 -29.5 -89t-89.5 -65l-45 -22q-22 -11 -31.5 -23t-13.5 -34q-10 -54 -58 -54q-24 0 -41 16.5t-17 42.5v12q0 33 22 64.5t63 51.5l48 23q29 14 43 29.5t14 41.5q0 31 -28 55.5t-88 24.5q-71 0 -104.5 -26t-36.5 -59q-2 -26 -19.5 -41.5t-43.5 -15.5
q-27 0 -43.5 17.5t-16.5 45.5q0 88 82.5 139t181.5 51q114 0 182.5 -54t68.5 -131zM432 95q0 -41 -29 -70.5t-70 -29.5t-70.5 29.5t-29.5 70.5q0 40 29.5 69.5t70.5 29.5t70 -29t29 -70z" />
    <glyph glyph-name="at" unicode="@" horiz-adv-x="776" 
d="M698 370v-252q0 -26 -16.5 -42.5t-38.5 -16.5q-49 0 -57 51q-33 -45 -94 -45q-78 0 -127.5 53t-49.5 145q0 113 85 176q51 38 172 38q-7 77 -37 110.5t-94 33.5q-200 0 -200 -342q0 -137 58.5 -230.5t156.5 -93.5q20 0 40 5t28.5 9t29.5 15.5t22 12.5q16 9 32 9
q25 0 41.5 -17.5t16.5 -40.5q0 -32 -26 -49q-89 -61 -184 -61q-155 0 -250.5 123t-95.5 321q0 220 91 334.5t245 114.5q126 0 189 -85.5t63 -275.5zM577 210v165q-18 2 -27 2q-46 0 -79 -28t-33 -81q0 -39 19 -61t55 -22t65 25z" />
    <glyph glyph-name="A" unicode="A" horiz-adv-x="760" 
d="M718 68q0 -30 -19.5 -49t-48.5 -19q-49 0 -67 43l-48 115h-314l-48 -115q-18 -43 -65 -43q-28 0 -47 19t-19 49q0 16 6 30l251 578q21 47 63 47h36q42 0 63 -47l252 -578q5 -11 5 -30zM342 455l-72 -177h216l-72 177q-33 77 -34 116h-3q-1 -31 -35 -116z" />
    <glyph glyph-name="B" unicode="B" horiz-adv-x="828" 
d="M741 218q0 -104 -69.5 -161t-180.5 -57h-297q-29 0 -49 20.5t-20 49.5v583q0 29 20.5 49.5t48.5 20.5h290q97 0 161 -52.5t64 -144.5q0 -53 -24.5 -86t-57.5 -48q42 -14 78 -62t36 -112zM573 519q0 38 -24 58t-69 20h-215v-155h216q92 0 92 77zM599 226q0 101 -115 101
h-219v-201h206q128 0 128 100z" />
    <glyph glyph-name="C" unicode="C" horiz-adv-x="825" 
d="M698 641l31.5 -33.5t18 -28t8.5 -35.5q0 -26 -17.5 -43.5t-41.5 -17.5q-16 0 -28 6.5t-19 14.5t-18.5 22.5t-21.5 24.5q-61 61 -164 61q-98 0 -161.5 -71.5t-63.5 -178.5t64 -180t161 -73q37 0 70 11t59.5 33t38.5 34t30 33q21 24 49 24q26 0 44 -17.5t18 -44.5
q0 -26 -13 -44q-49 -70 -126 -109t-170 -39q-152 0 -259 109t-107 263t107 262.5t259 108.5q162 0 252 -92z" />
    <glyph glyph-name="D" unicode="D" horiz-adv-x="797" 
d="M729 362q0 -149 -93 -255.5t-235 -106.5h-207q-28 0 -48.5 20.5t-20.5 49.5v583q0 29 20.5 49.5t48.5 20.5h207q143 0 235.5 -105.5t92.5 -255.5zM585 362q0 104 -53 172.5t-152 68.5h-115v-483h120q96 0 148 69t52 173z" />
    <glyph glyph-name="E" unicode="E" horiz-adv-x="754" 
d="M702 65q0 -27 -19 -46t-46 -19h-442q-29 0 -49.5 21t-20.5 49v583q0 29 20.5 49.5t48.5 20.5h443q27 0 46 -19t19 -46q0 -28 -19 -47t-46 -19h-372v-166h228q27 0 46 -18.5t19 -45.5t-19 -46t-46 -19h-228v-166h372q27 0 46 -19t19 -47z" />
    <glyph glyph-name="F" unicode="F" horiz-adv-x="724" 
d="M702 658q0 -28 -19 -47t-46 -19h-372v-166h228q27 0 46 -18.5t19 -45.5t-19 -46t-46 -19h-228v-227q0 -29 -20.5 -49.5t-49.5 -20.5t-49.5 20.5t-20.5 49.5v583q0 29 20.5 49.5t48.5 20.5h443q27 0 46 -19t19 -46z" />
    <glyph glyph-name="G" unicode="G" horiz-adv-x="824" 
d="M604 285h-171q-25 0 -42.5 17.5t-17.5 42.5q0 26 17.5 43.5t42.5 17.5h232q28 0 47 -17.5t19 -44.5v-221q-111 -133 -286 -133q-159 0 -262 105t-103 267q0 160 104 265.5t263 105.5q153 0 233 -89q33 -35 33 -65q0 -29 -17.5 -45t-42.5 -16q-7 0 -12.5 1t-11 3.5t-9 4.5
t-9 7t-7.5 7t-8.5 9t-7.5 9q-48 53 -143 53q-99 0 -161 -69t-62 -181t62 -182t161 -70q94 0 159 60v115z" />
    <glyph glyph-name="H" unicode="H" horiz-adv-x="832" 
d="M707 70q0 -29 -20.5 -49.5t-49.5 -20.5t-49.5 20.5t-20.5 49.5v230h-302v-230q0 -29 -20.5 -49.5t-49.5 -20.5t-49.5 20.5t-20.5 49.5v583q0 29 20.5 49.5t49.5 20.5t49.5 -20.5t20.5 -49.5v-230h302v230q0 29 20.5 49.5t49.5 20.5t49.5 -20.5t20.5 -49.5v-583z" />
    <glyph glyph-name="I" unicode="I" horiz-adv-x="390" 
d="M125 70v583q0 29 20.5 49.5t49.5 20.5t49.5 -20.5t20.5 -49.5v-583q0 -29 -20.5 -49.5t-49.5 -20.5t-49.5 20.5t-20.5 49.5z" />
    <glyph glyph-name="J" unicode="J" horiz-adv-x="616" 
d="M516 653v-431q0 -111 -65 -171.5t-179 -60.5q-85 0 -143 33t-88 79q-11 16 -11 38q0 27 16 44t42 17q24 0 48 -24q23 -23 35.5 -33.5t40 -22t60.5 -11.5q55 0 79.5 27.5t24.5 84.5v431q0 29 20.5 49.5t49.5 20.5t49.5 -20.5t20.5 -49.5z" />
    <glyph glyph-name="K" unicode="K" horiz-adv-x="835" 
d="M766 70q0 -32 -24 -53q-22 -17 -46 -17q-34 0 -53 24l-246 294l-132 -121v-127q0 -29 -20.5 -49.5t-49.5 -20.5t-49.5 20.5t-20.5 49.5v583q0 29 20.5 49.5t49.5 20.5t49.5 -20.5t20.5 -49.5v-297q34 43 81 88l258 257q21 21 47 21t48 -22q20 -22 20 -46q0 -26 -22 -48
l-204 -196l256 -294q17 -20 17 -46z" />
    <glyph glyph-name="L" unicode="L" horiz-adv-x="698" 
d="M685 65q0 -27 -19.5 -46t-46.5 -19h-424q-29 0 -49.5 21t-20.5 49v583q0 29 20.5 49.5t49.5 20.5t50 -20.5t21 -49.5v-522h353q27 0 46.5 -19t19.5 -47z" />
    <glyph glyph-name="M" unicode="M" horiz-adv-x="876" 
d="M751 653v-583q0 -30 -21 -50t-50 -20t-49 21t-20 49v310q0 81 8 119l-2 1q-9 -36 -39 -96l-90 -180q-18 -36 -52 -36q-38 0 -56 36l-90 180q-30 60 -39 96l-2 -1q7 -34 7 -119v-311q0 -29 -18.5 -49t-47.5 -20t-47 20t-18 49v584q0 29 20.5 49.5t49.5 20.5h33
q42 0 59 -37l117 -253q7 -15 15 -37l13 -36l4 -14h2q15 53 31 87l114 253q17 37 59 37h39q29 0 49.5 -20.5t20.5 -49.5z" />
    <glyph glyph-name="N" unicode="N" horiz-adv-x="840" 
d="M715 653v-583q0 -29 -21 -49.5t-50 -20.5h-41q-40 0 -61 34l-228 372q-44 74 -58 115l-2 -1q10 -40 10 -124v-326q0 -29 -20 -49.5t-49 -20.5q-30 0 -50 20.5t-20 49.5v583q0 29 21 49.5t50 20.5h38q39 0 61 -35l228 -370q14 -23 33.5 -62.5t24.5 -55.5l2 1q-9 40 -9 126
v326q0 29 20.5 49.5t49.5 20.5t50 -20.5t21 -49.5z" />
    <glyph glyph-name="O" unicode="O" horiz-adv-x="888" 
d="M809 362q0 -154 -107 -263t-258 -109q-152 0 -258.5 109t-106.5 263t107 262.5t258 108.5t258 -108.5t107 -262.5zM668 362q0 107 -63.5 179t-160.5 72t-160.5 -72t-63.5 -179t63.5 -180t160.5 -73t160.5 73t63.5 180z" />
    <glyph glyph-name="P" unicode="P" horiz-adv-x="786" 
d="M739 497q0 -108 -75.5 -167.5t-193.5 -59.5h-204v-200q0 -29 -21 -49.5t-50 -20.5t-49.5 20.5t-20.5 49.5v583q0 29 20.5 49.5t49.5 20.5h275q109 0 189 -60t80 -166zM598 496q0 101 -128 101h-204v-201h206q66 0 96 22.5t30 77.5z" />
    <glyph glyph-name="Q" unicode="Q" horiz-adv-x="888" 
d="M810 362q0 -150 -101 -257l61 -88q9 -14 9 -29q0 -30 -24 -46q-13 -9 -30 -9q-28 0 -45 23l-56 82q-82 -48 -179 -48q-152 0 -258.5 109t-106.5 263q0 155 106.5 263t258.5 108q151 0 258 -108.5t107 -262.5zM580 295l52 -76q37 64 37 143q0 107 -63.5 179t-160.5 72
t-160.5 -72t-63.5 -179t63.5 -180t160.5 -73q62 0 110 30l-65 95q-9 14 -9 29q0 27 24 44q14 10 32 10q27 0 43 -22z" />
    <glyph glyph-name="R" unicode="R" horiz-adv-x="823" 
d="M741 499q0 -79 -45 -134t-124 -74l141 -183q14 -18 14 -42q0 -30 -18.5 -48t-47.5 -18q-34 0 -56 28l-182 242h-157v-200q0 -29 -21 -49.5t-50 -20.5t-49.5 20.5t-20.5 49.5v583q0 29 20.5 49.5t49.5 20.5h283q113 0 188 -58t75 -166zM598 496q0 101 -128 101h-204v-201
h209q123 0 123 100z" />
    <glyph glyph-name="S" unicode="S" horiz-adv-x="768" 
d="M696 218q0 -104 -78 -165.5t-216 -61.5q-203 0 -310 117q-16 19 -16 46q0 28 18.5 45t46.5 17q23 0 47 -24q84 -83 213 -83q65 0 108.5 30.5t43.5 73.5q0 35 -26.5 57.5t-90.5 34.5q-15 3 -67 11t-74 12q-203 44 -203 195q0 87 78.5 148t220.5 61t239 -68q35 -24 35 -61
q0 -24 -18 -41.5t-42 -17.5q-21 0 -53 22q-73 50 -155 50q-79 0 -121.5 -25.5t-42.5 -60.5q0 -59 87 -77q16 -4 52.5 -10l74.5 -12t47 -8q96 -18 149 -70t53 -135z" />
    <glyph glyph-name="T" unicode="T" horiz-adv-x="650" 
d="M99 723h452q25 0 43.5 -18.5t18.5 -43.5t-18 -43t-44 -18h-156v-530q0 -29 -20.5 -49.5t-49.5 -20.5t-49.5 20.5t-20.5 49.5v530h-156q-26 0 -44 18t-18 43t18.5 43.5t43.5 18.5z" />
    <glyph glyph-name="U" unicode="U" horiz-adv-x="836" 
d="M723 653v-370q0 -127 -89 -210t-218 -83t-218 83t-89 210v370q0 29 21 49.5t50 20.5t50 -20.5t21 -49.5v-360q0 -81 44 -130.5t121 -49.5t121.5 50t44.5 130v360q0 29 21 49.5t50 20.5t49.5 -20.5t20.5 -49.5z" />
    <glyph glyph-name="V" unicode="V" horiz-adv-x="747" 
d="M695 653q0 -11 -5 -26l-233 -581q-18 -46 -62 -46h-43q-44 0 -62 46l-233 581q-5 15 -5 26q0 29 21 49.5t49 20.5q48 0 66 -45l154 -401q30 -78 32 -127h2q2 45 32 126l155 402q18 45 65 45q27 0 47 -21.5t20 -48.5z" />
    <glyph glyph-name="W" unicode="W" horiz-adv-x="853" 
d="M780 653q0 -4 -2 -16l-140 -582q-6 -23 -23 -39t-41 -16h-26q-23 0 -39.5 14.5t-20.5 36.5l-36 186q-15 73 -19 118h-2q-2 -30 -21 -118l-41 -186q-5 -21 -21 -36t-39 -15h-32q-24 0 -41 16t-23 39l-138 581q-2 12 -2 16q0 31 19.5 51t48.5 20q27 0 46 -15t24 -40
l72 -368q16 -87 20 -134h2q1 51 18 134l54 251q5 20 19.5 32.5t35.5 12.5q43 0 53 -45l59 -250q17 -71 19 -135h2q4 72 16 134l70 368q4 25 22 40t42 15q29 0 47 -20t18 -50z" />
    <glyph glyph-name="X" unicode="X" horiz-adv-x="752" 
d="M693 70q0 -34 -27 -55q-20 -15 -43 -15q-35 0 -55 27l-189 247l-189 -247q-21 -27 -55 -27q-29 0 -49.5 20.5t-20.5 49.5q0 26 15 44l209 259l-191 236q-15 18 -15 44q0 29 20.5 49.5t49.5 20.5q34 0 55 -27l170 -223l171 223q21 27 55 27q29 0 49.5 -20.5t20.5 -49.5
q0 -26 -15 -44l-190 -236l209 -259q15 -18 15 -44z" />
    <glyph glyph-name="Y" unicode="Y" horiz-adv-x="686" 
d="M172 692l116 -179q40 -62 56 -101h2q16 41 53 99l115 181q19 31 58 31q29 0 49.5 -20.5t20.5 -49.5q0 -22 -12 -40l-220 -320q3 -173 3 -223q0 -29 -20.5 -49.5t-49.5 -20.5t-49.5 20.5t-20.5 49.5l3 223l-220 320q-12 17 -12 40q0 29 20.5 49.5t49.5 20.5q38 0 58 -31z
" />
    <glyph glyph-name="Z" unicode="Z" horiz-adv-x="726" 
d="M653 609l-335 -416q-38 -47 -78 -74l1 -2q62 12 118 12h249q27 0 46 -18.5t19 -46.5q0 -27 -19 -45.5t-46 -18.5h-483q-30 0 -47.5 20.5t-17.5 48.5q0 25 15 45l336 416q39 48 75 72l-1 2q-52 -10 -115 -10h-221q-27 0 -46.5 19t-19.5 46t19.5 45.5t46.5 18.5h450
q29 0 49.5 -20t20.5 -49q0 -26 -16 -45z" />
    <glyph glyph-name="bracketleft" unicode="[" horiz-adv-x="385" 
d="M388 -197q0 -24 -17 -40.5t-41 -16.5h-181q-23 0 -38.5 16t-15.5 38v994q0 22 15.5 38t38.5 16h181q24 0 41 -16t17 -40t-17 -40t-41 -16h-127v-878h127q24 0 41 -15t17 -40z" />
    <glyph glyph-name="backslash" unicode="\" horiz-adv-x="581" 
d="M112 880l454 -998q5 -13 5 -23q0 -33 -30 -48q-9 -4 -22 -4q-33 0 -47 29l-454 998q-5 13 -5 23q0 33 30 48q9 4 22 4q33 0 47 -29z" />
    <glyph glyph-name="bracketright" unicode="]" horiz-adv-x="385" 
d="M-3 -197q0 25 17 40t41 15h127v878h-127q-24 0 -41 16t-17 40t17 40t41 16h181q22 0 38 -16t16 -38v-994q0 -22 -16 -38t-38 -16h-181q-24 0 -41 16.5t-17 40.5z" />
    <glyph glyph-name="asciicircum" unicode="^" 
d="M499 519l-151 189l-151 -189q-13 -17 -36 -17q-19 0 -33 13.5t-14 33.5q0 14 12 33l161 251q20 31 61 31t61 -31l161 -251q12 -19 12 -33q0 -20 -14 -33.5t-33 -13.5q-23 0 -36 17z" />
    <glyph glyph-name="underscore" unicode="_" horiz-adv-x="500" 
d="M473 -175h-446q-23 0 -39.5 16.5t-16.5 39.5t16.5 39.5t39.5 16.5h446q23 0 39.5 -16.5t16.5 -39.5t-16.5 -39.5t-39.5 -16.5z" />
    <glyph glyph-name="grave" unicode="`" horiz-adv-x="286" 
d="M-5 793q0 29 21 50.5t50 21.5q32 0 53 -24l147 -173q12 -14 12 -30q0 -18 -11.5 -28t-29.5 -10q-13 0 -23 7l-190 129q-29 20 -29 57z" />
    <glyph glyph-name="a" unicode="a" horiz-adv-x="722" 
d="M333 -5q-114 0 -188.5 78.5t-74.5 194.5q0 115 74.5 194.5t188.5 79.5q50 0 92.5 -19.5t64.5 -54.5q0 28 15 49t48 21q29 0 46.5 -19t17.5 -47v-407q0 -28 -17.5 -47t-46.5 -19q-34 0 -48.5 22t-14.5 51q-22 -35 -63.5 -56t-93.5 -21zM485 268q0 70 -38.5 116.5
t-103.5 46.5q-64 0 -102.5 -46t-38.5 -117t38 -116.5t103 -45.5q66 0 104 46t38 116z" />
    <glyph glyph-name="b" unicode="b" horiz-adv-x="722" 
d="M652 268q0 -117 -75 -195t-189 -78q-101 0 -157 76q0 -35 -19 -53.5t-43 -18.5q-27 0 -45.5 19t-18.5 47v592q0 27 19 46.5t47 19.5q27 0 46.5 -19.5t19.5 -46.5v-188q54 74 151 74q115 0 189.5 -77.5t74.5 -197.5zM520 269q0 71 -38 117t-104 46q-65 0 -103 -46.5
t-38 -116.5t38 -116.5t103 -46.5q66 0 104 46t38 117z" />
    <glyph glyph-name="c" unicode="c" horiz-adv-x="637" 
d="M344 431q-64 0 -103 -46.5t-39 -116.5t38.5 -115.5t103.5 -45.5q76 0 125 78q18 28 46 28q26 0 42 -17t16 -40q0 -18 -14 -43q-69 -118 -225 -118q-114 0 -189 79t-75 194t75 194.5t189 79.5q145 0 219 -107q16 -22 16 -44q0 -24 -17.5 -39.5t-40.5 -15.5q-27 0 -46 26
q-51 69 -121 69z" />
    <glyph glyph-name="d" unicode="d" horiz-adv-x="722" 
d="M485 473v184q0 27 19.5 46.5t46.5 19.5t46.5 -19.5t19.5 -46.5v-592q0 -28 -17 -47t-46 -19q-62 0 -62 74q-55 -78 -162 -78q-113 0 -186.5 79t-73.5 195q0 117 73 195.5t187 78.5q100 0 155 -70zM485 269q0 70 -38.5 116.5t-103.5 46.5q-66 0 -103.5 -46t-37.5 -117
t37.5 -117t103.5 -46q65 0 103.5 46.5t38.5 116.5z" />
    <glyph glyph-name="e" unicode="e" horiz-adv-x="655" 
d="M588 278q0 -22 -17 -38t-43 -16h-327q0 -46 37 -85t99 -39q13 0 25 1.5t22 5l17 6t15.5 9t11.5 8.5t11.5 9.5t9.5 8.5q18 16 41 16q24 0 40 -15.5t16 -41.5q0 -21 -14 -38q-63 -74 -192 -74q-118 0 -194 78t-76 195q0 119 75.5 196.5t190.5 77.5q108 0 180 -76t72 -188z
M203 319h258q0 44 -35.5 81.5t-88.5 37.5q-60 0 -97 -37t-37 -82z" />
    <glyph glyph-name="f" unicode="f" horiz-adv-x="492" 
d="M159 421h-77q-23 0 -40 17t-17 40t17 40t40 17h77v44q0 73 54.5 125.5t126.5 52.5q61 0 100 -31q27 -21 27 -57q0 -22 -15 -40t-40 -18q-12 0 -31 13q-19 14 -40 14q-50 0 -50 -59v-44h113q23 0 40 -17t17 -40t-17 -40t-40 -17h-113v-355q0 -27 -19 -46.5t-47 -19.5
q-27 0 -46.5 19.5t-19.5 46.5v355z" />
    <glyph glyph-name="g" unicode="g" horiz-adv-x="722" 
d="M617 471v-446q0 -117 -77 -173t-205 -56q-32 0 -77.5 9.5t-89.5 35.5t-44 62q0 26 16 41.5t42 15.5q15 0 36.5 -13t53.5 -26.5t71 -13.5q73 0 107.5 31t34.5 83v68q-20 -33 -61.5 -53.5t-90.5 -20.5q-115 0 -189 74.5t-74 188.5q0 108 75.5 186t191.5 78q51 0 91.5 -20.5
t61.5 -56.5q0 36 18.5 54t45.5 18t45 -19t18 -47zM485 278q0 63 -38.5 108t-103.5 45t-103 -45t-38 -108t38 -107.5t103 -44.5t103.5 44.5t38.5 107.5z" />
    <glyph glyph-name="h" unicode="h" horiz-adv-x="724" 
d="M634 293v-227q0 -27 -19.5 -46.5t-46.5 -19.5q-28 0 -47 19.5t-19 46.5v206q0 72 -31.5 115.5t-95.5 43.5q-62 0 -100 -46.5t-38 -112.5v-206q0 -27 -19 -46.5t-47 -19.5q-27 0 -46.5 19.5t-19.5 46.5v591q0 27 19.5 46.5t46.5 19.5q28 0 47 -19.5t19 -46.5v-184
q59 69 164 69q109 0 171 -68t62 -181z" />
    <glyph glyph-name="i" unicode="i" horiz-adv-x="352" 
d="M267 720q0 -38 -26.5 -64.5t-64.5 -26.5t-64.5 26.5t-26.5 64.5t26.5 64.5t64.5 26.5t64.5 -26.5t26.5 -64.5zM242 471v-405q0 -27 -19 -46.5t-47 -19.5q-27 0 -46.5 19.5t-19.5 46.5v405q0 27 19.5 46.5t46.5 19.5q28 0 47 -19.5t19 -46.5z" />
    <glyph glyph-name="j" unicode="j" horiz-adv-x="456" 
d="M391 720q0 -38 -26.5 -64.5t-63.5 -26.5t-64 26.5t-27 64.5t27 64.5t64 26.5t63.5 -26.5t26.5 -64.5zM235 -23v494q0 27 19.5 46.5t46.5 19.5q28 0 47 -19.5t19 -46.5v-478q0 -93 -48.5 -145t-136.5 -52q-29 0 -63.5 10t-64 34.5t-29.5 57.5q0 26 17.5 42.5t40.5 16.5
q19 0 42.5 -21.5t49.5 -21.5q27 0 43.5 16.5t16.5 46.5z" />
    <glyph glyph-name="k" unicode="k" horiz-adv-x="657" 
d="M605 64q0 -28 -19 -47q-21 -19 -47 -19q-28 0 -47 20l-189 201l-66 -52v-101q0 -27 -19.5 -46.5t-46.5 -19.5t-46.5 19.5t-19.5 46.5v591q0 27 19.5 46.5t46.5 19.5t46.5 -19.5t19.5 -46.5v-334l254 200q16 13 39 13q33 0 51 -24q13 -16 13 -38q0 -32 -25 -51l-168 -129
l185 -183q19 -19 19 -47z" />
    <glyph glyph-name="l" unicode="l" horiz-adv-x="362" 
d="M247 657v-591q0 -27 -19 -46.5t-47 -19.5q-27 0 -46.5 19.5t-19.5 46.5v591q0 27 19.5 46.5t46.5 19.5q28 0 47 -19.5t19 -46.5z" />
    <glyph glyph-name="m" unicode="m" horiz-adv-x="854" 
d="M743 349v-283q0 -27 -18.5 -46.5t-45.5 -19.5q-28 0 -47 19.5t-19 46.5v280q0 74 -57 74q-37 0 -52 -25.5t-15 -59.5v-269q0 -27 -19.5 -46.5t-46.5 -19.5t-45.5 19.5t-18.5 46.5v280q0 74 -57 74q-37 0 -52 -27t-15 -61v-266q0 -27 -18.5 -46.5t-45.5 -19.5t-46.5 19
t-19.5 47v407q0 28 19 47t46 19q23 0 41 -16t18 -48q40 67 109 67q86 0 122 -77q45 77 124 77q76 0 117.5 -54.5t41.5 -138.5z" />
    <glyph glyph-name="n" unicode="n" horiz-adv-x="724" 
d="M634 301v-235q0 -27 -19.5 -46.5t-46.5 -19.5t-46.5 19.5t-19.5 46.5v222q0 66 -30.5 104.5t-92.5 38.5t-102 -46.5t-40 -112.5v-206q0 -27 -19.5 -46.5t-46.5 -19.5t-46.5 19.5t-19.5 46.5v402q0 27 19.5 47.5t46.5 20.5q28 0 47 -17.5t19 -46.5q55 70 168 70
q105 0 167 -64.5t62 -176.5z" />
    <glyph glyph-name="o" unicode="o" horiz-adv-x="688" 
d="M617 268q0 -113 -80 -193t-194 -80q-113 0 -193 80t-80 193q0 114 80 194t193 80q114 0 194 -80t80 -194zM485 268q0 70 -38.5 116.5t-103.5 46.5t-103 -46.5t-38 -116.5t38 -116t103 -46q66 0 104 46t38 116z" />
    <glyph glyph-name="p" unicode="p" horiz-adv-x="722" 
d="M237 67v-197q0 -27 -19.5 -46.5t-46.5 -19.5t-46.5 19.5t-19.5 46.5v602q0 28 17 47t46 19q34 0 48 -21.5t14 -50.5q56 76 162 76q113 0 186.5 -79t73.5 -195q0 -117 -73 -195.5t-187 -78.5q-105 0 -155 73zM237 268q0 -70 38.5 -116.5t103.5 -46.5q66 0 103.5 46
t37.5 117t-37.5 117t-103.5 46q-65 0 -103.5 -46.5t-38.5 -116.5z" />
    <glyph glyph-name="q" unicode="q" horiz-adv-x="722" 
d="M485 -130v195q-55 -71 -155 -71q-114 0 -187 78.5t-73 195.5q0 116 73.5 195t186.5 79q110 0 162 -76q0 29 14 50.5t48 21.5q29 0 46 -19t17 -47v-602q0 -27 -19.5 -46.5t-46.5 -19.5t-46.5 19.5t-19.5 46.5zM485 268q0 70 -38.5 116.5t-103.5 46.5q-66 0 -103.5 -46
t-37.5 -117t37.5 -117t103.5 -46q65 0 103.5 46.5t38.5 116.5z" />
    <glyph glyph-name="r" unicode="r" horiz-adv-x="595" 
d="M569 418q0 -23 -15.5 -38.5t-38.5 -15.5q-26 0 -45 19q-27 27 -49 37.5t-51 10.5q-60 0 -96.5 -46t-36.5 -105v-214q0 -28 -19 -47t-47 -19q-27 0 -46.5 19t-19.5 47v406q0 27 19.5 46.5t46.5 19.5q24 0 43 -17t19 -50q59 71 157 71q90 0 149 -59q30 -30 30 -65z" />
    <glyph glyph-name="s" unicode="s" horiz-adv-x="673" 
d="M583 164q0 -88 -70 -128.5t-185 -40.5q-69 0 -135 24t-100 58q-19 19 -19 42q0 21 15 37.5t38 16.5q17 0 34 -14q75 -62 180 -62q114 0 114 60q0 42 -59 54q-25 5 -78.5 14t-78.5 15q-148 34 -148 139q0 69 59.5 116t179.5 47q126 0 193 -55q19 -16 19 -42
q0 -22 -14.5 -36t-35.5 -14q-8 0 -15 3t-19 10.5t-18 10.5q-48 25 -113 25q-49 0 -78.5 -15.5t-29.5 -39.5q0 -26 19.5 -35.5t67.5 -17.5l46 -7t51 -8q102 -19 141 -58t39 -99z" />
    <glyph glyph-name="t" unicode="t" horiz-adv-x="546" 
d="M419 423h-113v-244q0 -67 56 -67q26 0 51.5 21.5t44.5 21.5q23 0 40.5 -16.5t17.5 -42.5q0 -46 -47.5 -74t-106.5 -28q-88 0 -138 53.5t-50 146.5v229h-77q-23 0 -40 17t-17 40t17 40t40 17h77v131q0 27 19.5 46.5t46.5 19.5q28 0 47 -19.5t19 -46.5v-131h113
q23 0 40 -17t17 -40t-17 -40t-40 -17z" />
    <glyph glyph-name="u" unicode="u" horiz-adv-x="708" 
d="M90 245v225q0 27 19.5 46.5t46.5 19.5t46.5 -19.5t19.5 -46.5v-222q0 -66 30.5 -104.5t92.5 -38.5t102 46.5t40 112.5v206q0 27 19.5 46.5t46.5 19.5t46.5 -19.5t19.5 -46.5v-402q0 -27 -19.5 -47.5t-46.5 -20.5q-28 0 -46 17t-20 46q-53 -69 -147 -69q-120 0 -185 65.5
t-65 185.5z" />
    <glyph glyph-name="v" unicode="v" horiz-adv-x="646" 
d="M162 502l130 -269q6 -13 17.5 -42t11.5 -32h2q0 3 11.5 32t17.5 42l130 269q17 36 59 36q27 0 46.5 -19t19.5 -47q0 -16 -7 -30l-207 -406q-19 -36 -59 -36h-24q-40 0 -59 36l-207 406q-7 14 -7 30q0 28 19.5 47t46.5 19q42 0 59 -36z" />
    <glyph glyph-name="w" unicode="w" horiz-adv-x="797" 
d="M737 472q0 -11 -3 -20l-134 -406q-7 -21 -24 -33.5t-38 -12.5h-23q-18 0 -32.5 10.5t-19.5 28.5l-37 120l-26 89h-2q-13 -57 -23 -89l-38 -120q-13 -39 -51 -39h-29q-44 0 -59 46l-134 406q-4 8 -4 20q0 28 19 47t45 19q21 0 38.5 -12.5t24.5 -33.5l67 -229l22 -104h2
q12 70 23 104l48 146q14 39 51 39q18 0 33 -11t20 -28l46 -146l25 -104h2q8 57 22 104l67 229q7 21 24.5 33.5t38.5 12.5q26 0 42.5 -19t16.5 -47z" />
    <glyph glyph-name="x" unicode="x" horiz-adv-x="660" 
d="M600 66q0 -28 -19 -47t-47 -19q-30 0 -47 20l-157 171l-157 -171q-17 -20 -47 -20q-28 0 -47 19t-19 47q0 27 19 46l161 166l-145 148q-19 21 -19 47q0 27 19.5 46.5t46.5 19.5q31 0 48 -20l140 -153l140 153q17 20 48 20q27 0 46.5 -19.5t19.5 -46.5q0 -26 -19 -47
l-145 -148l161 -166q19 -19 19 -46z" />
    <glyph glyph-name="y" unicode="y" horiz-adv-x="653" 
d="M392 264l114 237q17 36 59 36q27 0 46.5 -19t19.5 -47q0 -16 -7 -30l-282 -545q-51 -100 -170 -100q-53 0 -98 28.5t-45 66.5q0 23 15.5 41t38.5 18q19 0 45 -21t52 -21q39 0 61 50l37 82q-7 3 -13 15l-197 386q-7 14 -7 30q0 28 19.5 47t46.5 19q42 0 59 -36l114 -237
q41 -83 45 -109h2q4 26 45 109z" />
    <glyph glyph-name="z" unicode="z" horiz-adv-x="634" 
d="M542 426l-240 -264q-12 -13 -27 -26t-24 -20l-9 -7l1 -1q34 6 83 6h189q23 0 40 -17t17 -40t-17 -40t-40 -17h-387q-27 0 -46 19t-19 46q0 26 18 47l239 263q12 13 26.5 26.5t23.5 20.5l8 7l-1 1q-36 -7 -85 -7h-157q-23 0 -40 17t-17 40t17 40t40 17h360q27 0 46 -18.5
t19 -45.5t-18 -47z" />
    <glyph glyph-name="braceleft" unicode="{" horiz-adv-x="461" 
d="M147 -43v222q0 53 -48 61q-54 9 -54 57t54 57q48 8 48 61v222q0 100 59.5 155.5t157.5 55.5q60 0 60 -51t-60 -51q-51 0 -78 -30t-27 -79v-196q0 -56 -28 -92.5t-70 -51.5q42 -15 70 -51.5t28 -92.5v-196q0 -49 27 -79t78 -30q60 0 60 -51t-60 -51q-98 0 -157.5 55.5
t-59.5 155.5z" />
    <glyph glyph-name="bar" unicode="|" horiz-adv-x="308" 
d="M208 794v-994q0 -22 -16 -38t-38 -16t-38 16t-16 38v994q0 22 16 38t38 16t38 -16t16 -38z" />
    <glyph glyph-name="braceright" unicode="}" horiz-adv-x="461" 
d="M314 179v-222q0 -100 -59.5 -155.5t-157.5 -55.5q-60 0 -60 51t60 51q51 0 78 30t27 79v196q0 56 28 92.5t70 51.5q-42 15 -70 51.5t-28 92.5v196q0 49 -27 79t-78 30q-60 0 -60 51t60 51q98 0 157.5 -55.5t59.5 -155.5v-222q0 -53 48 -61q54 -9 54 -57t-54 -57
q-48 -8 -48 -61z" />
    <glyph glyph-name="asciitilde" unicode="~" 
d="M302 270q-38 38 -77 38q-28 0 -51.5 -13t-33 -25t-15.5 -24q-14 -27 -47 -27q-24 0 -41 17t-17 42q0 17 11 35q27 46 75.5 81t119.5 35q95 0 169 -77q37 -37 78 -37q66 0 99 61q14 26 47 26q24 0 41 -16.5t17 -41.5q0 -17 -11 -35q-27 -46 -75.5 -81t-119.5 -35
q-92 0 -169 77z" />
    <glyph glyph-name="uni00A0" unicode="&#xa0;" horiz-adv-x="0" 
 />
    <glyph glyph-name="exclamdown" unicode="&#xa1;" horiz-adv-x="483" 
d="M166 65q0 7 1 22t2 39t2 38l14 242q2 23 17.5 39t38.5 16t38 -16t17 -39l15 -242q5 -95 5 -97q0 -30 -22.5 -51t-52.5 -21t-52.5 20t-22.5 50zM140 627q0 43 29.5 72.5t71.5 29.5t72 -29.5t30 -72.5q0 -42 -30 -71.5t-72 -29.5t-71.5 29.5t-29.5 71.5z" />
    <glyph glyph-name="cent" unicode="&#xa2;" horiz-adv-x="742" 
d="M349 -84v82q-99 13 -162.5 89t-63.5 181t63 181.5t163 89.5v88q0 20 14 34t33 14t32.5 -14t13.5 -34v-90q105 -18 164 -102q12 -17 12 -37q0 -26 -15.5 -43.5t-39.5 -17.5q-31 0 -49 26q-31 46 -72 61v-310q44 15 78 72q15 27 44 27q24 0 42 -17.5t18 -44.5
q0 -18 -12 -38q-57 -95 -170 -113v-84q0 -19 -13.5 -33t-32.5 -14q-20 0 -33.5 13.5t-13.5 33.5zM255 268q0 -56 25 -97t69 -56v308q-44 -16 -69 -58t-25 -97z" />
    <glyph glyph-name="sterling" unicode="&#xa3;" horiz-adv-x="742" 
d="M672 103q0 -35 -28 -55q-73 -52 -152 -52q-33 0 -81 18.5t-74 18.5q-31 0 -77.5 -13.5t-56.5 -15.5q-24 -4 -36 -4q-29 0 -48 18t-19 45q0 12 4.5 23.5t9 17.5t16 17.5t14.5 15.5q41 49 41 109q0 35 -4 55h-36q-23 0 -40 16.5t-17 39.5q0 24 17 40.5t40 16.5h14
q-12 56 -12 88q0 108 68 169.5t177 61.5q74 0 125 -31.5t79 -76.5q12 -18 12 -36q0 -23 -17 -39t-40 -16q-27 0 -44 22q-14 17 -22.5 26.5t-34.5 22t-58 12.5q-106 0 -106 -116q0 -41 10 -87h113q25 0 41.5 -16.5t16.5 -40.5t-16.5 -40t-41.5 -16h-98q3 -29 3 -53
q0 -87 -61 -140l1 -1q53 40 100 40q26 0 69.5 -16t68.5 -16q18 0 32.5 4t21 7t18.5 12t14 10q18 12 33 12q27 0 44 -15.5t17 -41.5z" />
    <glyph glyph-name="currency" unicode="&#xa4;" horiz-adv-x="742" 
d="M240 485l16 -17q47 31 114 31q60 0 114 -31l16 17q17 17 38 17q24 0 39 -16q16 -15 16 -38q0 -20 -16 -38l-15 -16q35 -51 35 -121q0 -71 -34 -121l14 -14q16 -16 16 -39q0 -22 -16 -38t-39 -16q-21 0 -38 17l-15 16q-53 -31 -115 -31q-61 0 -115 32l-15 -17
q-14 -17 -38 -17q-23 0 -39 16t-16 38q0 23 16 39l15 15q-33 53 -33 119q0 69 35 121l-18 18q-15 15 -15 37q0 23 16 38q15 16 39 16q22 0 38 -17zM482 273q0 50 -32 85t-80 35q-47 0 -78.5 -35t-31.5 -85q0 -49 31.5 -84t78.5 -35q48 0 80 35t32 84z" />
    <glyph glyph-name="yen" unicode="&#xa5;" horiz-adv-x="742" 
d="M200 692l116 -179q40 -62 56 -101h2q16 41 53 99l115 181q19 31 58 31q29 0 49.5 -20.5t20.5 -49.5q0 -22 -12 -40l-170 -246h65q20 0 33 -13.5t13 -33.5q0 -19 -13.5 -32t-32.5 -13h-114q0 -37 1 -63h113q19 0 32.5 -13t13.5 -32q0 -20 -13 -33.5t-33 -13.5h-112v-50
q0 -29 -20.5 -49.5t-49.5 -20.5t-49.5 20.5t-20.5 49.5v50h-113q-20 0 -33 13.5t-13 33.5q0 19 13.5 32t32.5 13h114v63h-114q-19 0 -32.5 13t-13.5 32q0 20 13 33.5t33 13.5h65l-169 246q-12 17 -12 40q0 29 20.5 49.5t49.5 20.5q38 0 58 -31z" />
    <glyph glyph-name="brokenbar" unicode="&#xa6;" horiz-adv-x="288" 
d="M198 183v-238q0 -23 -16 -38.5t-38 -15.5t-38 15.5t-16 38.5v238q0 23 16 38.5t38 15.5t38 -15.5t16 -38.5zM198 767v-238q0 -23 -16 -38.5t-38 -15.5t-38 15.5t-16 38.5v238q0 23 16 38.5t38 15.5t38 -15.5t16 -38.5z" />
    <glyph glyph-name="section" unicode="&#xa7;" horiz-adv-x="752" 
d="M622 307q0 -73 -71 -105q46 -37 46 -107q0 -82 -58 -133t-151 -51q-73 0 -137 43t-64 98q0 22 15 37t36 15q29 0 47 -27q40 -59 101 -59q38 0 58 21t20 55q0 55 -58 69l-140 35q-55 14 -88 52t-33 95q0 36 20.5 64t54.5 42q-39 37 -39 97q0 71 56.5 126.5t152.5 55.5
q64 0 122.5 -33.5t58.5 -81.5q0 -22 -14.5 -36.5t-34.5 -14.5q-24 0 -47 21q-42 38 -82 38q-37 0 -61 -19.5t-24 -51.5q0 -48 51 -62l147 -38q60 -16 88 -58t28 -87zM500 304q0 31 -35 40l-170 43q-12 -1 -20 -12.5t-8 -23.5q0 -35 42 -45l156 -38q35 5 35 36z" />
    <glyph glyph-name="dieresis" unicode="&#xa8;" horiz-adv-x="433" 
d="M442 712q0 -34 -25 -59t-59 -25t-58.5 25t-24.5 59t24.5 59t58.5 25t59 -25t25 -59zM158 712q0 -34 -24.5 -59t-58.5 -25q-35 0 -59.5 25t-24.5 59t24.5 59t59.5 25q34 0 58.5 -25t24.5 -59z" />
    <glyph glyph-name="copyright" unicode="&#xa9;" horiz-adv-x="868" 
d="M561 518q31 -29 31 -56q0 -17 -12 -28.5t-28 -11.5q-24 0 -40 24q-24 37 -82 37q-42 0 -69.5 -31t-27.5 -78t27.5 -79t69.5 -32q21 0 40.5 10t24 15l17.5 19q19 22 38 22q17 0 29.5 -12t12.5 -30q0 -16 -10 -29q-57 -75 -152 -75q-78 0 -133 56t-55 135q0 80 54.5 136
t133.5 56q82 0 131 -48zM700 362q0 114 -79 194t-187 80t-187 -80t-79 -194t79 -194.5t187 -80.5t187 80.5t79 194.5zM798 362q0 -153 -107 -262.5t-257 -109.5t-257 109.5t-107 262.5t107 262.5t257 109.5t257 -109.5t107 -262.5z" />
    <glyph glyph-name="ordfeminine" unicode="&#xaa;" horiz-adv-x="461" 
d="M214 396q-71 0 -117.5 49t-46.5 121t46.5 121t117.5 49q53 0 84 -37q5 35 44 35q21 0 34.5 -14.5t13.5 -35.5v-236q0 -21 -13.5 -35.5t-34.5 -14.5q-17 0 -29 10t-15 27q-29 -39 -84 -39zM291 566q0 35 -19.5 59t-51.5 24t-51.5 -23.5t-19.5 -59.5q0 -35 19.5 -58.5
t51.5 -23.5t51.5 23.5t19.5 58.5z" />
    <glyph glyph-name="guillemotleft" unicode="&#xab;" horiz-adv-x="662" 
d="M347 467l-113 -199l113 -199q7 -14 7 -26q0 -19 -13 -31.5t-31 -12.5q-23 0 -36 17l-160 200q-2 2 -6 7t-5 7t-4 6t-4 7t-2.5 7t-2 8.5t-0.5 9.5q0 6 1 11.5t2 8.5t4 8.5t4 7t6.5 8.5t6.5 8l160 200q13 17 36 17q18 0 31 -12.5t13 -31.5q0 -12 -7 -26zM617 43
q0 -19 -13 -31.5t-31 -12.5q-23 0 -36 17l-160 200q-2 2 -6 7t-5 7t-4 6t-4 7t-2.5 7t-2 8.5t-0.5 9.5q0 6 1 11.5t2 8.5t4 8.5t4 7t6.5 8.5t6.5 8l160 200q13 17 36 17q18 0 31 -12.5t13 -31.5q0 -12 -7 -26l-113 -199l113 -199q7 -14 7 -26z" />
    <glyph glyph-name="logicalnot" unicode="&#xac;" 
d="M497 212h-379q-25 0 -42.5 17.5t-17.5 42.5t17.5 42.5t42.5 17.5h440q28 0 49 -21t21 -49v-151q0 -27 -19 -46.5t-46 -19.5q-28 0 -47 19.5t-19 46.5v101z" />
    <glyph glyph-name="uni00AD" unicode="&#xad;" horiz-adv-x="631" 
d="M470 226h-309q-23 0 -39.5 16.5t-16.5 39.5t16.5 39.5t39.5 16.5h309q23 0 39.5 -16.5t16.5 -39.5t-16.5 -39.5t-39.5 -16.5z" />
    <glyph glyph-name="registered" unicode="&#xae;" horiz-adv-x="868" 
d="M603 430q0 -83 -75 -104l60 -78q8 -14 8 -28q0 -20 -12 -31.5t-31 -11.5q-20 0 -36 18l-85 112h-59v-85q0 -19 -13 -32t-33 -13q-19 0 -32 13t-13 32v283q0 19 13 32t32 13h138q59 0 98.5 -31.5t39.5 -88.5zM511 428q0 38 -50 38h-88v-74h90q48 0 48 36zM700 362
q0 114 -79 194t-187 80t-187 -80t-79 -194t79 -194.5t187 -80.5t187 80.5t79 194.5zM798 362q0 -153 -107 -262.5t-257 -109.5t-257 109.5t-107 262.5t107 262.5t257 109.5t257 -109.5t107 -262.5z" />
    <glyph glyph-name="macron" unicode="&#xaf;" horiz-adv-x="446" 
d="M436 704q0 -24 -16.5 -40.5t-40.5 -16.5h-312q-24 0 -40.5 16.5t-16.5 40.5t16.5 40.5t40.5 16.5h312q24 0 40.5 -16.5t16.5 -40.5z" />
    <glyph glyph-name="degree" unicode="&#xb0;" horiz-adv-x="506" 
d="M75 555q0 73 52.5 125.5t125.5 52.5t125.5 -52.5t52.5 -125.5t-52.5 -125.5t-125.5 -52.5t-125.5 52.5t-52.5 125.5zM175 554q0 -39 20.5 -63.5t57.5 -24.5t57.5 24.5t20.5 63.5t-20.5 63.5t-57.5 24.5t-57.5 -24.5t-20.5 -63.5z" />
    <glyph glyph-name="plusminus" unicode="&#xb1;" 
d="M631 362q0 -24 -16.5 -40.5t-40.5 -16.5h-169v-95q0 -24 -16.5 -40.5t-40.5 -16.5t-40.5 16.5t-16.5 40.5v95h-169q-24 0 -40.5 16.5t-16.5 40.5t16.5 40.5t40.5 16.5h169v95q0 24 16.5 40.5t40.5 16.5t40.5 -16.5t16.5 -40.5v-95h169q24 0 40.5 -16.5t16.5 -40.5z
M631 46q0 -24 -16.5 -40.5t-40.5 -16.5h-452q-24 0 -40.5 16.5t-16.5 40.5t16.5 40.5t40.5 16.5h452q24 0 40.5 -16.5t16.5 -40.5z" />
    <glyph glyph-name="twosuperior" unicode="&#xb2;" horiz-adv-x="473" 
d="M367 322h-248q-20 0 -34.5 14.5t-14.5 36.5q0 41 15.5 72.5t46 54t56 35t66.5 28.5q21 8 34 23t13 33q0 28 -15.5 44t-43.5 16q-52 0 -60 -50q-7 -38 -49 -38q-22 0 -36.5 13t-14.5 35q0 54 48 93t114 39q71 0 115.5 -40.5t44.5 -111.5q0 -57 -31 -91.5t-93 -58.5
q-76 -30 -90 -51h177q19 0 33 -14.5t14 -34.5t-14 -33.5t-33 -13.5z" />
    <glyph glyph-name="threesuperior" unicode="&#xb3;" horiz-adv-x="458" 
d="M393 458q0 -63 -47.5 -102.5t-144.5 -39.5q-63 0 -141 34q-27 12 -27 45q0 19 13.5 33t34.5 14q13 0 23 -6q50 -29 97 -29q40 0 62.5 14t22.5 38q0 26 -21.5 39t-76.5 14q-20 0 -34 13.5t-14 33.5q0 19 14 32t34 14q41 2 59 9.5t18 24.5q0 40 -68 40q-32 0 -74 -19
q-14 -6 -25 -6q-21 0 -34 12t-13 32q0 32 32 46q58 27 114 27q79 0 126.5 -35.5t47.5 -94.5q0 -57 -48 -76q34 -14 52 -43t18 -64z" />
    <glyph glyph-name="acute" unicode="&#xb4;" horiz-adv-x="286" 
d="M294 793q0 -37 -29 -57l-190 -129q-11 -7 -23 -7q-18 0 -29.5 10t-11.5 28q0 16 12 30l147 173q21 24 53 24q29 0 50 -21.5t21 -50.5z" />
    <glyph glyph-name="mu" unicode="&#xb5;" horiz-adv-x="723" 
d="M105 -120v590q0 27 19.5 46.5t46.5 19.5t46.5 -19.5t19.5 -46.5v-222q0 -66 30.5 -104.5t92.5 -38.5t102 46.5t40 112.5v206q0 27 19.5 46.5t46.5 19.5t46.5 -19.5t19.5 -46.5v-402q0 -27 -19.5 -47.5t-46.5 -20.5q-28 0 -46 17t-20 46q-53 -69 -147 -69q-80 0 -129 30
l11 -144q2 -27 -18 -46.5t-48 -19.5q-27 0 -46.5 19.5t-19.5 46.5z" />
    <glyph glyph-name="paragraph" unicode="&#xb6;" horiz-adv-x="715" 
d="M276 57v255q-96 0 -158.5 56.5t-62.5 140.5q0 99 66 156.5t185 57.5h245q23 0 40 -17t17 -40v-609q0 -23 -17 -40t-40 -17t-39.5 17t-16.5 40v552h-106v-552q0 -23 -17 -40t-40 -17t-39.5 17t-16.5 40z" />
    <glyph glyph-name="periodcentered" unicode="&#xb7;" horiz-adv-x="426" 
d="M110 356q0 43 30 73t73 30t73 -30t30 -73t-30 -73t-73 -30t-73 30t-30 73z" />
    <glyph glyph-name="cedilla" unicode="&#xb8;" horiz-adv-x="249" 
d="M247 -109q0 -42 -33.5 -68.5t-84.5 -26.5q-71 0 -110 30q-14 10 -14 28q0 13 8.5 23t24.5 10q9 0 17 -6q32 -22 65 -22q17 0 27 8.5t10 20.5q0 10 -9 17.5t-23 7.5q-5 0 -12.5 -1t-10.5 -1q-9 0 -17 7t-8 20v84h60v-65q22 5 34 5q31 0 53.5 -19.5t22.5 -51.5z" />
    <glyph glyph-name="onesuperior" unicode="&#xb9;" horiz-adv-x="372" 
d="M283 713v-339q0 -22 -15 -37t-37 -15t-37 15t-15 37v220q0 35 4 46l-2 2q-12 -14 -20 -20l-32 -23q-17 -12 -33 -12q-25 0 -40 21q-9 14 -9 29q0 26 21 41l107 75q17 12 33 12h23q22 0 37 -15t15 -37z" />
    <glyph glyph-name="ordmasculine" unicode="&#xba;" horiz-adv-x="441" 
d="M390 566q0 -71 -49.5 -120.5t-120.5 -49.5t-120.5 49.5t-49.5 120.5t49.5 120.5t120.5 49.5t120.5 -49.5t49.5 -120.5zM291 566q0 35 -19.5 59t-51.5 24t-51.5 -24t-19.5 -59t19.5 -58.5t51.5 -23.5t51.5 23.5t19.5 58.5z" />
    <glyph glyph-name="guillemotright" unicode="&#xbb;" horiz-adv-x="662" 
d="M428 268l-113 199q-7 14 -7 26q0 19 13 31.5t31 12.5q23 0 36 -17l160 -200q2 -2 6 -7t5 -7t4 -6t4 -7t2.5 -7t2 -8.5t0.5 -9.5q0 -6 -1 -11.5t-2 -8.5t-4 -8.5t-4 -7t-6.5 -8.5t-6.5 -8l-160 -200q-13 -17 -36 -17q-18 0 -31 12.5t-13 31.5q0 12 7 26zM45 43q0 12 7 26
l113 199l-113 199q-7 14 -7 26q0 19 13 31.5t31 12.5q23 0 36 -17l160 -200q2 -2 6 -7t5 -7t4 -6t4 -7t2.5 -7t2 -8.5t0.5 -9.5q0 -6 -1 -11.5t-2 -8.5t-4 -8.5t-4 -7t-6.5 -8.5t-6.5 -8l-160 -200q-13 -17 -36 -17q-18 0 -31 12.5t-13 31.5z" />
    <glyph glyph-name="onequarter" unicode="&#xbc;" horiz-adv-x="1070" 
d="M806 740l-456 -822q-16 -29 -49 -29q-14 0 -27 7q-29 16 -29 49q0 14 7 27l456 822q16 29 49 29q14 0 27 -7q29 -16 29 -49q0 -14 -7 -27zM283 671v-339q0 -22 -15 -37t-37 -15t-37 15t-15 37v220q0 35 4 46l-2 2q-12 -14 -20 -20l-32 -23q-17 -12 -33 -12q-25 0 -40 21
q-9 14 -9 29q0 26 21 41l107 75q17 12 33 12h23q22 0 37 -15t15 -37zM975 184h3q20 0 34 -13.5t14 -32.5q0 -20 -14 -33.5t-34 -13.5h-3v-39q0 -22 -15.5 -37t-37.5 -15t-37 15t-15 37v39h-152q-21 0 -35 14.5t-14 35.5v10q0 17 15 36l178 236q15 20 39 20h21q22 0 37.5 -15
t15.5 -37v-207zM870 184v60q0 29 4 46l-2 1q-5 -12 -21 -32l-58 -75h77z" />
    <glyph glyph-name="onehalf" unicode="&#xbd;" horiz-adv-x="1124" 
d="M806 740l-456 -822q-16 -29 -49 -29q-14 0 -27 7q-29 16 -29 49q0 14 7 27l456 822q16 29 49 29q14 0 27 -7q29 -16 29 -49q0 -14 -7 -27zM283 671v-339q0 -22 -15 -37t-37 -15t-37 15t-15 37v220q0 35 4 46l-2 2q-12 -14 -20 -20l-32 -23q-17 -12 -33 -12q-25 0 -40 21
q-9 14 -9 29q0 26 21 41l107 75q17 12 33 12h23q22 0 37 -15t15 -37zM1018 0h-248q-20 0 -34.5 14.5t-14.5 36.5q0 41 15.5 72.5t46 54t56 35t66.5 28.5q21 8 34 23t13 33q0 28 -15.5 44t-43.5 16q-52 0 -60 -50q-7 -38 -49 -38q-22 0 -36.5 13t-14.5 35q0 54 48 93t114 39
q71 0 115.5 -40.5t44.5 -111.5q0 -57 -31 -91.5t-93 -58.5q-76 -30 -90 -51h177q19 0 33 -14.5t14 -34.5t-14 -33.5t-33 -13.5z" />
    <glyph glyph-name="threequarters" unicode="&#xbe;" horiz-adv-x="1117" 
d="M873 740l-456 -822q-16 -29 -49 -29q-14 0 -27 7q-29 16 -29 49q0 14 7 27l456 822q16 29 49 29q14 0 27 -7q29 -16 29 -49q0 -14 -7 -27zM393 416q0 -63 -47.5 -102.5t-144.5 -39.5q-63 0 -141 34q-27 12 -27 45q0 19 13.5 33t34.5 14q13 0 23 -6q50 -29 97 -29
q40 0 62.5 14t22.5 38q0 26 -21.5 39t-76.5 14q-20 0 -34 13.5t-14 33.5q0 19 14 32t34 14q41 2 59 9.5t18 24.5q0 40 -68 40q-32 0 -74 -19q-14 -6 -25 -6q-21 0 -34 12t-13 32q0 32 32 46q58 27 114 27q79 0 126.5 -35.5t47.5 -94.5q0 -57 -48 -76q34 -14 52 -43t18 -64z
M1022 184h3q20 0 34 -13.5t14 -32.5q0 -20 -14 -33.5t-34 -13.5h-3v-39q0 -22 -15.5 -37t-37.5 -15t-37 15t-15 37v39h-152q-21 0 -35 14.5t-14 35.5v10q0 17 15 36l178 236q15 20 39 20h21q22 0 37.5 -15t15.5 -37v-207zM917 184v60q0 29 4 46l-2 1q-5 -12 -21 -32l-58 -75
h77z" />
    <glyph glyph-name="questiondown" unicode="&#xbf;" horiz-adv-x="670" 
d="M70 175q0 54 29.5 89t89.5 65l45 22q22 11 31.5 23t13.5 34q10 54 58 54q24 0 41 -16.5t17 -42.5v-12q0 -33 -22 -64.5t-63 -51.5l-48 -23q-29 -14 -43 -29.5t-14 -41.5q0 -31 28 -55.5t88 -24.5q71 0 104.5 26t36.5 59q2 26 19.5 41.5t43.5 15.5q27 0 43.5 -17.5
t16.5 -45.5q0 -88 -82.5 -139t-181.5 -51q-114 0 -182.5 54t-68.5 131zM238 628q0 41 29 70.5t70 29.5t70.5 -29.5t29.5 -70.5q0 -40 -29.5 -69.5t-70.5 -29.5t-70 29.5t-29 69.5z" />
    <glyph glyph-name="Agrave" unicode="&#xc0;" horiz-adv-x="760" 
d="M719 68q0 -30 -19.5 -49t-48.5 -19q-49 0 -67 43l-48 115h-314l-48 -115q-18 -43 -65 -43q-27 0 -46.5 19t-19.5 49q0 16 6 30l251 578q21 47 63 47h36q42 0 63 -47l252 -578q5 -11 5 -30zM343 455l-72 -177h216l-72 177q-33 77 -34 116h-3q-1 -31 -35 -116zM279 982
q25 0 43 -11l194 -114q24 -13 24 -38q0 -16 -11 -26t-28 -10q-11 0 -14 1l-222 62q-54 14 -54 65q0 30 18.5 50.5t49.5 20.5z" />
    <glyph glyph-name="Aacute" unicode="&#xc1;" horiz-adv-x="760" 
d="M719 68q0 -30 -19.5 -49t-48.5 -19q-49 0 -67 43l-48 115h-314l-48 -115q-18 -43 -65 -43q-27 0 -46.5 19t-19.5 49q0 16 6 30l251 578q21 47 63 47h36q42 0 63 -47l252 -578q5 -11 5 -30zM343 455l-72 -177h216l-72 177q-33 77 -34 116h-3q-1 -31 -35 -116zM483 982
q31 0 49.5 -20.5t18.5 -50.5q0 -51 -54 -65l-222 -62q-3 -1 -14 -1q-17 0 -28 10t-11 26q0 25 24 38l194 114q18 11 43 11z" />
    <glyph glyph-name="Acircumflex" unicode="&#xc2;" horiz-adv-x="760" 
d="M719 68q0 -30 -19.5 -49t-48.5 -19q-49 0 -67 43l-48 115h-314l-48 -115q-18 -43 -65 -43q-27 0 -46.5 19t-19.5 49q0 16 6 30l251 578q21 47 63 47h36q42 0 63 -47l252 -578q5 -11 5 -30zM343 455l-72 -177h216l-72 177q-33 77 -34 116h-3q-1 -31 -35 -116zM526 781
l-146 71l-146 -71q-15 -7 -30 -7q-18 0 -29 10.5t-11 27.5q0 21 17 35l144 118q30 24 55 24q33 0 55 -24l144 -118q17 -14 17 -35q0 -17 -11 -27.5t-29 -10.5q-15 0 -30 7z" />
    <glyph glyph-name="Atilde" unicode="&#xc3;" horiz-adv-x="760" 
d="M719 68q0 -30 -19.5 -49t-48.5 -19q-49 0 -67 43l-48 115h-314l-48 -115q-18 -43 -65 -43q-27 0 -46.5 19t-19.5 49q0 16 6 30l251 578q21 47 63 47h36q42 0 63 -47l252 -578q5 -11 5 -30zM343 455l-72 -177h216l-72 177q-33 77 -34 116h-3q-1 -31 -35 -116zM549 956
q23 0 37 -15.5t14 -38.5q0 -15 -12 -35q-18 -30 -51.5 -47.5t-72.5 -17.5q-37 0 -85 19q-55 22 -73 22q-29 0 -61 -28q-12 -11 -33 -11q-23 0 -37 15.5t-14 38.5q0 15 12 35q18 29 52.5 47t72.5 18q36 0 84 -19q55 -22 73 -22q29 0 61 28q12 11 33 11z" />
    <glyph glyph-name="Adieresis" unicode="&#xc4;" horiz-adv-x="760" 
d="M719 68q0 -30 -19.5 -49t-48.5 -19q-49 0 -67 43l-48 115h-314l-48 -115q-18 -43 -65 -43q-27 0 -46.5 19t-19.5 49q0 16 6 30l251 578q21 47 63 47h36q42 0 63 -47l252 -578q5 -11 5 -30zM343 455l-72 -177h216l-72 177q-33 77 -34 116h-3q-1 -31 -35 -116zM604 880
q0 -34 -25 -59t-59 -25t-58.5 25t-24.5 59t24.5 59t58.5 25t59 -25t25 -59zM320 880q0 -34 -24.5 -59t-58.5 -25q-35 0 -59.5 25t-24.5 59t24.5 59t59.5 25q34 0 58.5 -25t24.5 -59z" />
    <glyph glyph-name="Aring" unicode="&#xc5;" horiz-adv-x="760" 
d="M719 68q0 -30 -19.5 -49t-48.5 -19q-49 0 -67 43l-48 115h-314l-48 -115q-18 -43 -65 -43q-27 0 -46.5 19t-19.5 49q0 16 6 30l251 578q21 47 63 47h36q42 0 63 -47l252 -578q5 -11 5 -30zM343 455l-72 -177h216l-72 177q-33 77 -34 116h-3q-1 -31 -35 -116zM247 879
q0 54 39 92.5t95 38.5t95.5 -38.5t39.5 -92.5t-39.5 -91.5t-95.5 -37.5t-95 37.5t-39 91.5zM321 879q0 -27 16.5 -44.5t43.5 -17.5t43.5 17.5t16.5 44.5t-16.5 45t-43.5 18t-43.5 -18t-16.5 -45z" />
    <glyph glyph-name="AE" unicode="&#xc6;" horiz-adv-x="814" 
d="M762 65q0 -27 -19 -46t-46 -19h-250q-29 0 -49.5 21t-20.5 49v88h-158l-49 -118q-16 -40 -63 -40q-27 0 -47 20t-20 47q0 17 6 31l273 581q20 44 65 44h313q27 0 46 -19t19 -46q0 -28 -19 -47t-46 -19h-185v-166h124q27 0 46 -18.5t19 -45.5t-19 -45.5t-46 -18.5h-124
v-167h185q27 0 46 -19t19 -47zM377 282v184q0 31 4 55l-2 1q-6 -20 -20 -50l-90 -190h108z" />
    <glyph glyph-name="Ccedilla" unicode="&#xc7;" horiz-adv-x="825" 
d="M568 -109q0 -42 -33.5 -68.5t-84.5 -26.5q-71 0 -110 30q-14 10 -14 28q0 13 8.5 23t24.5 10q9 0 17 -6q32 -22 65 -22q17 0 27 8.5t10 20.5q0 10 -9 17.5t-23 7.5q-5 0 -12.5 -1t-10.5 -1q-9 0 -17 7t-8 20v55q-136 17 -227 122t-91 247q0 154 107 262.5t259 108.5
q162 0 252 -92l31.5 -33.5t18 -28t8.5 -35.5q0 -26 -17.5 -43.5t-41.5 -17.5q-16 0 -28 6.5t-19 14.5t-18.5 22.5t-21.5 24.5q-61 61 -164 61q-98 0 -161.5 -71.5t-63.5 -178.5t64 -180t161 -73q37 0 70 11t59.5 33t38.5 34t30 33q21 24 49 24q26 0 44 -17.5t18 -44.5
q0 -26 -13 -44q-48 -67 -121.5 -106t-162.5 -42v-33q22 5 34 5q31 0 53.5 -19.5t22.5 -51.5z" />
    <glyph glyph-name="Egrave" unicode="&#xc8;" horiz-adv-x="754" 
d="M702 65q0 -27 -19 -46t-46 -19h-442q-29 0 -49.5 21t-20.5 49v583q0 29 20.5 49.5t48.5 20.5h443q27 0 46 -19t19 -46q0 -28 -19 -47t-46 -19h-372v-166h228q27 0 46 -18.5t19 -45.5t-19 -46t-46 -19h-228v-166h372q27 0 46 -19t19 -47zM311 982q25 0 43 -11l194 -114
q24 -13 24 -38q0 -16 -11 -26t-28 -10q-11 0 -14 1l-222 62q-54 14 -54 65q0 30 18.5 50.5t49.5 20.5z" />
    <glyph glyph-name="Eacute" unicode="&#xc9;" horiz-adv-x="754" 
d="M702 65q0 -27 -19 -46t-46 -19h-442q-29 0 -49.5 21t-20.5 49v583q0 29 20.5 49.5t48.5 20.5h443q27 0 46 -19t19 -46q0 -28 -19 -47t-46 -19h-372v-166h228q27 0 46 -18.5t19 -45.5t-19 -46t-46 -19h-228v-166h372q27 0 46 -19t19 -47zM514 982q31 0 49.5 -20.5
t18.5 -50.5q0 -51 -54 -65l-222 -62q-3 -1 -14 -1q-17 0 -28 10t-11 26q0 25 24 38l194 114q18 11 43 11z" />
    <glyph glyph-name="Ecircumflex" unicode="&#xca;" horiz-adv-x="754" 
d="M702 65q0 -27 -19 -46t-46 -19h-442q-29 0 -49.5 21t-20.5 49v583q0 29 20.5 49.5t48.5 20.5h443q27 0 46 -19t19 -46q0 -28 -19 -47t-46 -19h-372v-166h228q27 0 46 -18.5t19 -45.5t-19 -46t-46 -19h-228v-166h372q27 0 46 -19t19 -47zM553 781l-146 71l-146 -71
q-15 -7 -30 -7q-18 0 -29 10.5t-11 27.5q0 21 17 35l144 118q30 24 55 24q33 0 55 -24l144 -118q17 -14 17 -35q0 -17 -11 -27.5t-29 -10.5q-15 0 -30 7z" />
    <glyph glyph-name="Edieresis" unicode="&#xcb;" horiz-adv-x="754" 
d="M702 65q0 -27 -19 -46t-46 -19h-442q-29 0 -49.5 21t-20.5 49v583q0 29 20.5 49.5t48.5 20.5h443q27 0 46 -19t19 -46q0 -28 -19 -47t-46 -19h-372v-166h228q27 0 46 -18.5t19 -45.5t-19 -46t-46 -19h-228v-166h372q27 0 46 -19t19 -47zM632 880q0 -34 -25 -59t-59 -25
t-58.5 25t-24.5 59t24.5 59t58.5 25t59 -25t25 -59zM348 880q0 -34 -24.5 -59t-58.5 -25q-35 0 -59.5 25t-24.5 59t24.5 59t59.5 25q34 0 58.5 -25t24.5 -59z" />
    <glyph glyph-name="Igrave" unicode="&#xcc;" horiz-adv-x="390" 
d="M125 70v583q0 29 20.5 49.5t49.5 20.5t49.5 -20.5t20.5 -49.5v-583q0 -29 -20.5 -49.5t-49.5 -20.5t-49.5 20.5t-20.5 49.5zM87 982q25 0 43 -11l194 -114q24 -13 24 -38q0 -16 -11 -26t-28 -10q-11 0 -14 1l-222 62q-54 14 -54 65q0 30 18.5 50.5t49.5 20.5z" />
    <glyph glyph-name="Iacute" unicode="&#xcd;" horiz-adv-x="390" 
d="M105 70v583q0 29 20.5 49.5t49.5 20.5t49.5 -20.5t20.5 -49.5v-583q0 -29 -20.5 -49.5t-49.5 -20.5t-49.5 20.5t-20.5 49.5zM288 982q31 0 49.5 -20.5t18.5 -50.5q0 -51 -54 -65l-222 -62q-3 -1 -14 -1q-17 0 -28 10t-11 26q0 25 24 38l194 114q18 11 43 11z" />
    <glyph glyph-name="Icircumflex" unicode="&#xce;" horiz-adv-x="390" 
d="M125 70v583q0 29 20.5 49.5t49.5 20.5t49.5 -20.5t20.5 -49.5v-583q0 -29 -20.5 -49.5t-49.5 -20.5t-49.5 20.5t-20.5 49.5zM343 781l-146 71l-146 -71q-15 -7 -30 -7q-18 0 -29 10.5t-11 27.5q0 21 17 35l144 118q30 24 55 24q33 0 55 -24l144 -118q17 -14 17 -35
q0 -17 -11 -27.5t-29 -10.5q-15 0 -30 7z" />
    <glyph glyph-name="Idieresis" unicode="&#xcf;" horiz-adv-x="390" 
d="M125 70v583q0 29 20.5 49.5t49.5 20.5t49.5 -20.5t20.5 -49.5v-583q0 -29 -20.5 -49.5t-49.5 -20.5t-49.5 20.5t-20.5 49.5zM419 880q0 -34 -24.5 -59t-59.5 -25q-34 0 -58.5 25t-24.5 59t24.5 59t58.5 25q35 0 59.5 -25t24.5 -59zM135 880q0 -34 -24.5 -59t-58.5 -25
t-59 25t-25 59t25 59t59 25t58.5 -25t24.5 -59z" />
    <glyph glyph-name="Eth" unicode="&#xd0;" horiz-adv-x="817" 
d="M99 427h51v226q0 29 20.5 49.5t48.5 20.5h199q147 0 239 -105t92 -256t-92 -256.5t-239 -105.5h-198q-29 0 -49.5 20.5t-20.5 49.5v262h-51q-20 0 -34 14t-14 33t14.5 33.5t33.5 14.5zM290 602v-175h149q19 0 33 -14t14 -34q0 -19 -14 -33t-33 -14h-149v-211h128
q90 0 139 68.5t49 172.5t-49 172t-139 68h-128z" />
    <glyph glyph-name="Ntilde" unicode="&#xd1;" horiz-adv-x="840" 
d="M715 653v-583q0 -29 -21 -49.5t-50 -20.5h-41q-40 0 -61 34l-228 372q-44 74 -58 115l-2 -1q10 -40 10 -124v-326q0 -29 -20 -49.5t-49 -20.5q-30 0 -50 20.5t-20 49.5v583q0 29 21 49.5t50 20.5h38q39 0 61 -35l228 -370q14 -23 33.5 -62.5t24.5 -55.5l2 1q-9 40 -9 126
v326q0 29 20.5 49.5t49.5 20.5t50 -20.5t21 -49.5zM593 956q23 0 37 -15.5t14 -38.5q0 -15 -12 -35q-18 -30 -51.5 -47.5t-72.5 -17.5q-37 0 -85 19q-55 22 -73 22q-29 0 -61 -28q-12 -11 -33 -11q-23 0 -37 15.5t-14 38.5q0 15 12 35q18 29 52.5 47t72.5 18q36 0 84 -19
q55 -22 73 -22q29 0 61 28q12 11 33 11z" />
    <glyph glyph-name="Ograve" unicode="&#xd2;" horiz-adv-x="888" 
d="M810 362q0 -154 -107 -263t-258 -109q-152 0 -258.5 109t-106.5 263t107 262.5t258 108.5t258 -108.5t107 -262.5zM669 362q0 107 -63.5 179t-160.5 72t-160.5 -72t-63.5 -179t63.5 -180t160.5 -73t160.5 73t63.5 180zM342 982q25 0 43 -11l194 -114q24 -13 24 -38
q0 -16 -11 -26t-28 -10q-11 0 -14 1l-222 62q-54 14 -54 65q0 30 18.5 50.5t49.5 20.5z" />
    <glyph glyph-name="Oacute" unicode="&#xd3;" horiz-adv-x="888" 
d="M810 362q0 -154 -107 -263t-258 -109q-152 0 -258.5 109t-106.5 263t107 262.5t258 108.5t258 -108.5t107 -262.5zM669 362q0 107 -63.5 179t-160.5 72t-160.5 -72t-63.5 -179t63.5 -180t160.5 -73t160.5 73t63.5 180zM542 982q31 0 49.5 -20.5t18.5 -50.5q0 -51 -54 -65
l-222 -62q-3 -1 -14 -1q-17 0 -28 10t-11 26q0 25 24 38l194 114q18 11 43 11z" />
    <glyph glyph-name="Ocircumflex" unicode="&#xd4;" horiz-adv-x="888" 
d="M810 362q0 -154 -107 -263t-258 -109q-152 0 -258.5 109t-106.5 263t107 262.5t258 108.5t258 -108.5t107 -262.5zM669 362q0 107 -63.5 179t-160.5 72t-160.5 -72t-63.5 -179t63.5 -180t160.5 -73t160.5 73t63.5 180zM587 781l-146 71l-146 -71q-15 -7 -30 -7
q-18 0 -29 10.5t-11 27.5q0 21 17 35l144 118q30 24 55 24q33 0 55 -24l144 -118q17 -14 17 -35q0 -17 -11 -27.5t-29 -10.5q-15 0 -30 7z" />
    <glyph glyph-name="Otilde" unicode="&#xd5;" horiz-adv-x="888" 
d="M810 362q0 -154 -107 -263t-258 -109q-152 0 -258.5 109t-106.5 263t107 262.5t258 108.5t258 -108.5t107 -262.5zM669 362q0 107 -63.5 179t-160.5 72t-160.5 -72t-63.5 -179t63.5 -180t160.5 -73t160.5 73t63.5 180zM612 956q23 0 37 -15.5t14 -38.5q0 -15 -12 -35
q-18 -30 -51.5 -47.5t-72.5 -17.5q-37 0 -85 19q-55 22 -73 22q-29 0 -61 -28q-12 -11 -33 -11q-23 0 -37 15.5t-14 38.5q0 15 12 35q18 29 52.5 47t72.5 18q36 0 84 -19q55 -22 73 -22q29 0 61 28q12 11 33 11z" />
    <glyph glyph-name="Odieresis" unicode="&#xd6;" horiz-adv-x="888" 
d="M810 362q0 -154 -107 -263t-258 -109q-152 0 -258.5 109t-106.5 263t107 262.5t258 108.5t258 -108.5t107 -262.5zM669 362q0 107 -63.5 179t-160.5 72t-160.5 -72t-63.5 -179t63.5 -180t160.5 -73t160.5 73t63.5 180zM672 880q0 -34 -25 -59t-59 -25t-58.5 25t-24.5 59
t24.5 59t58.5 25t59 -25t25 -59zM388 880q0 -34 -24.5 -59t-58.5 -25q-35 0 -59.5 25t-24.5 59t24.5 59t59.5 25q34 0 58.5 -25t24.5 -59z" />
    <glyph glyph-name="multiply" unicode="&#xd7;" 
d="M601 455q0 -23 -20 -43l-147 -144l147 -145q20 -20 20 -43q0 -25 -20 -45t-45 -20t-44 19l-144 147l-145 -147q-19 -19 -43 -19q-26 0 -45.5 19.5t-19.5 45.5q0 24 19 43l148 145l-148 144q-19 19 -19 43q0 26 20 46t45 20q23 0 43 -20l145 -147l144 147q20 20 44 20
q25 0 45 -20.5t20 -45.5z" />
    <glyph glyph-name="Oslash" unicode="&#xd8;" horiz-adv-x="888" 
d="M805 362q0 -154 -107 -263t-258 -109q-82 0 -153 34q-25 -33 -56 -33q-26 0 -44.5 18t-18.5 45q0 20 15 43q-108 110 -108 265t106.5 263t258.5 108q82 0 157 -36q23 35 57 35q26 0 44.5 -18t18.5 -45q0 -20 -18 -46q106 -108 106 -261zM216 362q0 -90 43 -154l268 387
q-44 18 -87 18q-97 0 -160.5 -72t-63.5 -179zM664 362q0 84 -41 150l-266 -387q40 -16 83 -16q97 0 160.5 73t63.5 180z" />
    <glyph glyph-name="Ugrave" unicode="&#xd9;" horiz-adv-x="836" 
d="M729 653v-370q0 -127 -89 -210t-218 -83t-218 83t-89 210v370q0 29 21 49.5t50 20.5t50 -20.5t21 -49.5v-360q0 -81 44 -130.5t121 -49.5t121.5 50t44.5 130v360q0 29 21 49.5t50 20.5t49.5 -20.5t20.5 -49.5zM322 982q25 0 43 -11l194 -114q24 -13 24 -38q0 -16 -11 -26
t-28 -10q-11 0 -14 1l-222 62q-54 14 -54 65q0 30 18.5 50.5t49.5 20.5z" />
    <glyph glyph-name="Uacute" unicode="&#xda;" horiz-adv-x="836" 
d="M729 653v-370q0 -127 -89 -210t-218 -83t-218 83t-89 210v370q0 29 21 49.5t50 20.5t50 -20.5t21 -49.5v-360q0 -81 44 -130.5t121 -49.5t121.5 50t44.5 130v360q0 29 21 49.5t50 20.5t49.5 -20.5t20.5 -49.5zM525 982q31 0 49.5 -20.5t18.5 -50.5q0 -51 -54 -65
l-222 -62q-3 -1 -14 -1q-17 0 -28 10t-11 26q0 25 24 38l194 114q18 11 43 11z" />
    <glyph glyph-name="Ucircumflex" unicode="&#xdb;" horiz-adv-x="836" 
d="M729 653v-370q0 -127 -89 -210t-218 -83t-218 83t-89 210v370q0 29 21 49.5t50 20.5t50 -20.5t21 -49.5v-360q0 -81 44 -130.5t121 -49.5t121.5 50t44.5 130v360q0 29 21 49.5t50 20.5t49.5 -20.5t20.5 -49.5zM567 781l-146 71l-146 -71q-15 -7 -30 -7q-18 0 -29 10.5
t-11 27.5q0 21 17 35l144 118q30 24 55 24q33 0 55 -24l144 -118q17 -14 17 -35q0 -17 -11 -27.5t-29 -10.5q-15 0 -30 7z" />
    <glyph glyph-name="Udieresis" unicode="&#xdc;" horiz-adv-x="836" 
d="M723 653v-370q0 -127 -89 -210t-218 -83t-218 83t-89 210v370q0 29 21 49.5t50 20.5t50 -20.5t21 -49.5v-360q0 -81 44 -130.5t121 -49.5t121.5 50t44.5 130v360q0 29 21 49.5t50 20.5t49.5 -20.5t20.5 -49.5zM642 880q0 -34 -25 -59t-59 -25t-58.5 25t-24.5 59t24.5 59
t58.5 25t59 -25t25 -59zM358 880q0 -34 -24.5 -59t-58.5 -25q-35 0 -59.5 25t-24.5 59t24.5 59t59.5 25q34 0 58.5 -25t24.5 -59z" />
    <glyph glyph-name="Yacute" unicode="&#xdd;" horiz-adv-x="686" 
d="M172 692l116 -179q40 -62 56 -101h2q16 41 53 99l115 181q19 31 58 31q29 0 49.5 -20.5t20.5 -49.5q0 -22 -12 -40l-220 -320q3 -173 3 -223q0 -29 -20.5 -49.5t-49.5 -20.5t-49.5 20.5t-20.5 49.5l3 223l-220 320q-12 17 -12 40q0 29 20.5 49.5t49.5 20.5q38 0 58 -31z
M445 982q31 0 49.5 -20.5t18.5 -50.5q0 -51 -54 -65l-222 -62q-3 -1 -14 -1q-17 0 -28 10t-11 26q0 25 24 38l194 114q18 11 43 11z" />
    <glyph glyph-name="Thorn" unicode="&#xde;" horiz-adv-x="834" 
d="M783 370q0 -101 -73 -161.5t-190 -60.5h-210v-78q0 -29 -20.5 -49.5t-49.5 -20.5t-49.5 20.5t-20.5 49.5v583q0 29 20.5 49.5t49.5 20.5t49.5 -20.5t20.5 -49.5v-52h210q116 0 189.5 -65t73.5 -166zM643 374q0 46 -32 74.5t-91 28.5h-210v-205h210q59 0 91 28t32 74z" />
    <glyph glyph-name="germandbls" unicode="&#xdf;" horiz-adv-x="779" 
d="M697 221q0 -98 -65 -160t-206 -62q-49 0 -81 10q-51 16 -51 60q0 23 16.5 39.5t40.5 16.5q6 0 29 -4.5t41 -4.5q77 0 108.5 30.5t31.5 74.5q0 47 -35 75t-107 30q-26 1 -43.5 16t-17.5 40t17.5 40t43.5 16q49 1 73 24.5t24 56.5q0 40 -33 64.5t-98 24.5
q-70 0 -106.5 -32.5t-36.5 -90.5v-415q0 -28 -19 -49t-48 -21t-49.5 20.5t-20.5 49.5v422q0 107 77 169t206 62q119 0 191.5 -56.5t72.5 -147.5q0 -41 -23.5 -76t-63.5 -51q59 -16 95.5 -61t36.5 -110z" />
    <glyph glyph-name="agrave" unicode="&#xe0;" horiz-adv-x="722" 
d="M333 -5q-114 0 -188.5 78.5t-74.5 194.5q0 115 74.5 194.5t188.5 79.5q50 0 92.5 -19.5t64.5 -54.5q0 28 15 49t48 21q29 0 46.5 -19t17.5 -47v-407q0 -28 -17.5 -47t-46.5 -19q-34 0 -48.5 22t-14.5 51q-22 -35 -63.5 -56t-93.5 -21zM485 268q0 70 -38.5 116.5
t-103.5 46.5q-64 0 -102.5 -46t-38.5 -117t38 -116.5t103 -45.5q66 0 104 46t38 116zM215 793q0 29 21 50.5t50 21.5q32 0 53 -24l147 -173q12 -14 12 -30q0 -18 -11.5 -28t-29.5 -10q-13 0 -23 7l-190 129q-29 20 -29 57z" />
    <glyph glyph-name="aacute" unicode="&#xe1;" horiz-adv-x="722" 
d="M333 -5q-114 0 -188.5 78.5t-74.5 194.5q0 115 74.5 194.5t188.5 79.5q50 0 92.5 -19.5t64.5 -54.5q0 28 15 49t48 21q29 0 46.5 -19t17.5 -47v-407q0 -28 -17.5 -47t-46.5 -19q-34 0 -48.5 22t-14.5 51q-22 -35 -63.5 -56t-93.5 -21zM485 268q0 70 -38.5 116.5
t-103.5 46.5q-64 0 -102.5 -46t-38.5 -117t38 -116.5t103 -45.5q66 0 104 46t38 116zM475 793q0 -37 -29 -57l-190 -129q-10 -7 -23 -7q-18 0 -29.5 10t-11.5 28q0 16 12 30l147 173q21 24 53 24q29 0 50 -21.5t21 -50.5z" />
    <glyph glyph-name="acircumflex" unicode="&#xe2;" horiz-adv-x="722" 
d="M333 -5q-114 0 -188.5 78.5t-74.5 194.5q0 115 74.5 194.5t188.5 79.5q50 0 92.5 -19.5t64.5 -54.5q0 28 15 49t48 21q29 0 46.5 -19t17.5 -47v-407q0 -28 -17.5 -47t-46.5 -19q-34 0 -48.5 22t-14.5 51q-22 -35 -63.5 -56t-93.5 -21zM485 268q0 70 -38.5 116.5
t-103.5 46.5q-64 0 -102.5 -46t-38.5 -117t38 -116.5t103 -45.5q66 0 104 46t38 116zM482 610l-136 112l-136 -112q-13 -10 -28 -10q-19 0 -32 13.5t-13 32.5q0 17 14 32l140 161q22 24 55 24t55 -24l140 -161q14 -15 14 -32q0 -19 -13 -32.5t-32 -13.5q-15 0 -28 10z" />
    <glyph glyph-name="atilde" unicode="&#xe3;" horiz-adv-x="722" 
d="M333 -5q-114 0 -188.5 78.5t-74.5 194.5q0 115 74.5 194.5t188.5 79.5q50 0 92.5 -19.5t64.5 -54.5q0 28 15 49t48 21q29 0 46.5 -19t17.5 -47v-407q0 -28 -17.5 -47t-46.5 -19q-34 0 -48.5 22t-14.5 51q-22 -35 -63.5 -56t-93.5 -21zM485 268q0 70 -38.5 116.5
t-103.5 46.5q-64 0 -102.5 -46t-38.5 -117t38 -116.5t103 -45.5q66 0 104 46t38 116zM515 784q23 0 37 -15.5t14 -38.5q0 -15 -12 -35q-18 -30 -51.5 -47.5t-72.5 -17.5q-37 0 -85 19q-55 22 -73 22q-29 0 -61 -28q-12 -11 -33 -11q-23 0 -37 15.5t-14 38.5q0 15 12 35
q18 29 52.5 47t72.5 18q36 0 84 -19q55 -22 73 -22q29 0 61 28q12 11 33 11z" />
    <glyph glyph-name="adieresis" unicode="&#xe4;" horiz-adv-x="722" 
d="M333 -5q-114 0 -188.5 78.5t-74.5 194.5q0 115 74.5 194.5t188.5 79.5q50 0 92.5 -19.5t64.5 -54.5q0 28 15 49t48 21q29 0 46.5 -19t17.5 -47v-407q0 -28 -17.5 -47t-46.5 -19q-34 0 -48.5 22t-14.5 51q-22 -35 -63.5 -56t-93.5 -21zM485 268q0 70 -38.5 116.5
t-103.5 46.5q-64 0 -102.5 -46t-38.5 -117t38 -116.5t103 -45.5q66 0 104 46t38 116zM572 712q0 -34 -25 -59t-59 -25t-58.5 25t-24.5 59t24.5 59t58.5 25t59 -25t25 -59zM288 712q0 -34 -24.5 -59t-58.5 -25q-35 0 -59.5 25t-24.5 59t24.5 59t59.5 25q34 0 58.5 -25
t24.5 -59z" />
    <glyph glyph-name="aring" unicode="&#xe5;" horiz-adv-x="722" 
d="M333 -5q-114 0 -188.5 78.5t-74.5 194.5q0 115 74.5 194.5t188.5 79.5q50 0 92.5 -19.5t64.5 -54.5q0 28 15 49t48 21q29 0 46.5 -19t17.5 -47v-407q0 -28 -17.5 -47t-46.5 -19q-34 0 -48.5 22t-14.5 51q-22 -35 -63.5 -56t-93.5 -21zM485 268q0 70 -38.5 116.5
t-103.5 46.5q-64 0 -102.5 -46t-38.5 -117t38 -116.5t103 -45.5q66 0 104 46t38 116zM205 729q0 54 39 92.5t95 38.5t95.5 -38.5t39.5 -92.5t-39.5 -91.5t-95.5 -37.5t-95 37.5t-39 91.5zM279 729q0 -27 16.5 -44.5t43.5 -17.5t43.5 17.5t16.5 44.5t-16.5 45t-43.5 18
t-43.5 -18t-16.5 -45z" />
    <glyph glyph-name="ae" unicode="&#xe6;" horiz-adv-x="976" 
d="M414 139l1 86h-150q-69 0 -69 -59q0 -31 25.5 -49t73.5 -18q63 0 119 40zM664 439q-58 0 -90.5 -34t-34.5 -85h245q-2 52 -32.5 85.5t-87.5 33.5zM671 -5q-50 0 -99.5 21.5t-80.5 54.5q-96 -76 -196 -76q-96 0 -160.5 42t-64.5 126q0 75 53 120q46 40 133 40h159v25
q0 91 -99 91q-45 0 -117 -38q-22 -11 -37 -11q-23 0 -36 14.5t-13 37.5q0 31 27 49q75 51 172 51q132 0 179 -73q61 73 182 73q103 0 169.5 -76.5t66.5 -188.5q0 -24 -17.5 -40t-41.5 -16h-315q13 -51 48.5 -87t89.5 -36q56 0 106 41q22 19 41 19q22 0 37.5 -14.5
t15.5 -39.5q0 -38 -56.5 -73.5t-145.5 -35.5z" />
    <glyph glyph-name="ccedilla" unicode="&#xe7;" horiz-adv-x="637" 
d="M465 -109q0 -42 -33.5 -68.5t-84.5 -26.5q-71 0 -110 30q-14 10 -14 28q0 13 8.5 23t24.5 10q9 0 17 -6q32 -22 65 -22q17 0 27 8.5t10 20.5q0 10 -9 17.5t-23 7.5q-5 0 -12.5 -1t-10.5 -1q-9 0 -17 7t-8 20v60q-99 13 -162 89t-63 181q0 115 75 194.5t189 79.5
q145 0 219 -107q16 -22 16 -44q0 -24 -17.5 -39.5t-40.5 -15.5q-27 0 -46 26q-51 69 -121 69q-64 0 -103 -46.5t-39 -116.5t38.5 -115.5t103.5 -45.5q76 0 125 78q18 28 46 28q26 0 42 -17t16 -40q0 -18 -14 -43q-64 -108 -204 -117v-39q23 5 34 5q31 0 53.5 -19.5
t22.5 -51.5z" />
    <glyph glyph-name="egrave" unicode="&#xe8;" horiz-adv-x="655" 
d="M588 278q0 -22 -17 -38t-43 -16h-327q0 -46 37 -85t99 -39q13 0 25 1.5t22 5l17 6t15.5 9t11.5 8.5t11.5 9.5t9.5 8.5q18 16 41 16q24 0 40 -15.5t16 -41.5q0 -21 -14 -38q-63 -74 -192 -74q-118 0 -194 78t-76 195q0 119 75.5 196.5t190.5 77.5q108 0 180 -76t72 -188z
M203 319h258q0 44 -35.5 81.5t-88.5 37.5q-60 0 -97 -37t-37 -82zM207 793q0 29 21 50.5t50 21.5q32 0 53 -24l147 -173q12 -14 12 -30q0 -18 -11.5 -28t-29.5 -10q-13 0 -23 7l-190 129q-29 20 -29 57z" />
    <glyph glyph-name="eacute" unicode="&#xe9;" horiz-adv-x="655" 
d="M588 278q0 -22 -17 -38t-43 -16h-327q0 -46 37 -85t99 -39q13 0 25 1.5t22 5l17 6t15.5 9t11.5 8.5t11.5 9.5t9.5 8.5q18 16 41 16q24 0 40 -15.5t16 -41.5q0 -21 -14 -38q-63 -74 -192 -74q-118 0 -194 78t-76 195q0 119 75.5 196.5t190.5 77.5q108 0 180 -76t72 -188z
M203 319h258q0 44 -35.5 81.5t-88.5 37.5q-60 0 -97 -37t-37 -82zM467 793q0 -37 -29 -57l-190 -129q-10 -7 -23 -7q-18 0 -29.5 10t-11.5 28q0 16 12 30l147 173q21 24 53 24q29 0 50 -21.5t21 -50.5z" />
    <glyph glyph-name="ecircumflex" unicode="&#xea;" horiz-adv-x="655" 
d="M588 278q0 -22 -17 -38t-43 -16h-327q0 -46 37 -85t99 -39q13 0 25 1.5t22 5l17 6t15.5 9t11.5 8.5t11.5 9.5t9.5 8.5q18 16 41 16q24 0 40 -15.5t16 -41.5q0 -21 -14 -38q-63 -74 -192 -74q-118 0 -194 78t-76 195q0 119 75.5 196.5t190.5 77.5q108 0 180 -76t72 -188z
M203 319h258q0 44 -35.5 81.5t-88.5 37.5q-60 0 -97 -37t-37 -82zM471 610l-136 112l-136 -112q-13 -10 -28 -10q-19 0 -32 13.5t-13 32.5q0 17 14 32l140 161q22 24 55 24t55 -24l140 -161q14 -15 14 -32q0 -19 -13 -32.5t-32 -13.5q-15 0 -28 10z" />
    <glyph glyph-name="edieresis" unicode="&#xeb;" horiz-adv-x="655" 
d="M588 278q0 -22 -17 -38t-43 -16h-327q0 -46 37 -85t99 -39q13 0 25 1.5t22 5l17 6t15.5 9t11.5 8.5t11.5 9.5t9.5 8.5q18 16 41 16q24 0 40 -15.5t16 -41.5q0 -21 -14 -38q-63 -74 -192 -74q-118 0 -194 78t-76 195q0 119 75.5 196.5t190.5 77.5q108 0 180 -76t72 -188z
M203 319h258q0 44 -35.5 81.5t-88.5 37.5q-60 0 -97 -37t-37 -82zM561 712q0 -34 -24.5 -59t-59.5 -25q-34 0 -58.5 25t-24.5 59t24.5 59t58.5 25q35 0 59.5 -25t24.5 -59zM277 712q0 -34 -24.5 -59t-58.5 -25t-59 25t-25 59t25 59t59 25t58.5 -25t24.5 -59z" />
    <glyph glyph-name="igrave" unicode="&#xec;" horiz-adv-x="352" 
d="M242 471v-405q0 -27 -19 -46.5t-47 -19.5q-27 0 -46.5 19.5t-19.5 46.5v405q0 27 19.5 46.5t46.5 19.5q28 0 47 -19.5t19 -46.5zM29 793q0 29 21 50.5t50 21.5q32 0 53 -24l147 -173q12 -14 12 -30q0 -18 -11.5 -28t-29.5 -10q-13 0 -23 7l-190 129q-29 20 -29 57z" />
    <glyph glyph-name="iacute" unicode="&#xed;" horiz-adv-x="352" 
d="M242 471v-405q0 -27 -19 -46.5t-47 -19.5q-27 0 -46.5 19.5t-19.5 46.5v405q0 27 19.5 46.5t46.5 19.5q28 0 47 -19.5t19 -46.5zM348 793q0 -37 -29 -57l-190 -129q-11 -7 -23 -7q-18 0 -29.5 10t-11.5 28q0 16 12 30l147 173q21 24 53 24q29 0 50 -21.5t21 -50.5z" />
    <glyph glyph-name="icircumflex" unicode="&#xee;" horiz-adv-x="352" 
d="M242 471v-405q0 -27 -19 -46.5t-47 -19.5q-27 0 -46.5 19.5t-19.5 46.5v405q0 27 19.5 46.5t46.5 19.5q28 0 47 -19.5t19 -46.5zM313 611l-136 112l-136 -112q-13 -10 -28 -10q-19 0 -32 13.5t-13 32.5q0 17 14 32l140 161q22 24 55 24t55 -24l140 -161q14 -15 14 -32
q0 -19 -13 -32.5t-32 -13.5q-15 0 -28 10z" />
    <glyph glyph-name="idieresis" unicode="&#xef;" horiz-adv-x="352" 
d="M242 471v-405q0 -27 -19 -46.5t-47 -19.5q-27 0 -46.5 19.5t-19.5 46.5v405q0 27 19.5 46.5t46.5 19.5q28 0 47 -19.5t19 -46.5zM403 712q0 -34 -24.5 -59t-59.5 -25q-34 0 -58.5 25t-24.5 59t24.5 59t58.5 25q35 0 59.5 -25t24.5 -59zM119 712q0 -34 -24.5 -59
t-58.5 -25t-59 25t-25 59t25 59t59 25t58.5 -25t24.5 -59z" />
    <glyph glyph-name="eth" unicode="&#xf0;" horiz-adv-x="741" 
d="M218 651l47 33q-74 9 -95 28q-16 15 -16 36q0 26 18.5 44.5t46.5 18.5q39 0 157 -46l67 49q12 9 26 9q22 0 36 -19q9 -12 9 -27q0 -22 -19 -35l-38 -28q10 -8 20 -17q95 -95 135.5 -195t40.5 -225t-82 -204t-205 -79q-117 0 -201.5 81t-84.5 202q0 119 83.5 193.5
t202.5 74.5q58 0 99 -34q-13 36 -70 93q-12 12 -42 35l-83 -60q-11 -8 -25 -8q-23 0 -35 18q-9 13 -9 28q0 22 17 34zM513 273q0 72 -39.5 116t-105.5 44t-107 -43.5t-41 -112.5t40.5 -115.5t105.5 -46.5q64 0 105.5 46.5t41.5 111.5z" />
    <glyph glyph-name="ntilde" unicode="&#xf1;" horiz-adv-x="724" 
d="M634 301v-235q0 -27 -19.5 -46.5t-46.5 -19.5t-46.5 19.5t-19.5 46.5v222q0 66 -30.5 104.5t-92.5 38.5t-102 -46.5t-40 -112.5v-206q0 -27 -19.5 -46.5t-46.5 -19.5t-46.5 19.5t-19.5 46.5v402q0 27 19.5 47.5t46.5 20.5q28 0 47 -17.5t19 -46.5q55 70 168 70
q105 0 167 -64.5t62 -176.5zM545 784q23 0 37 -15.5t14 -38.5q0 -15 -12 -35q-18 -30 -51.5 -47.5t-72.5 -17.5q-37 0 -85 19q-55 22 -73 22q-29 0 -61 -28q-12 -11 -33 -11q-23 0 -37 15.5t-14 38.5q0 15 12 35q18 29 52.5 47t72.5 18q36 0 84 -19q55 -22 73 -22
q29 0 61 28q12 11 33 11z" />
    <glyph glyph-name="ograve" unicode="&#xf2;" horiz-adv-x="688" 
d="M617 268q0 -113 -80 -193t-194 -80q-113 0 -193 80t-80 193q0 114 80 194t193 80q114 0 194 -80t80 -194zM485 268q0 70 -38.5 116.5t-103.5 46.5t-103 -46.5t-38 -116.5t38 -116t103 -46q66 0 104 46t38 116zM215 793q0 29 21 50.5t50 21.5q32 0 53 -24l147 -173
q12 -14 12 -30q0 -18 -11.5 -28t-29.5 -10q-13 0 -23 7l-190 129q-29 20 -29 57z" />
    <glyph glyph-name="oacute" unicode="&#xf3;" horiz-adv-x="688" 
d="M617 268q0 -113 -80 -193t-194 -80q-113 0 -193 80t-80 193q0 114 80 194t193 80q114 0 194 -80t80 -194zM485 268q0 70 -38.5 116.5t-103.5 46.5t-103 -46.5t-38 -116.5t38 -116t103 -46q66 0 104 46t38 116zM475 793q0 -37 -29 -57l-190 -129q-10 -7 -23 -7
q-18 0 -29.5 10t-11.5 28q0 16 12 30l147 173q21 24 53 24q29 0 50 -21.5t21 -50.5z" />
    <glyph glyph-name="ocircumflex" unicode="&#xf4;" horiz-adv-x="688" 
d="M617 268q0 -113 -80 -193t-194 -80q-113 0 -193 80t-80 193q0 114 80 194t193 80q114 0 194 -80t80 -194zM485 268q0 70 -38.5 116.5t-103.5 46.5t-103 -46.5t-38 -116.5t38 -116t103 -46q66 0 104 46t38 116zM480 610l-136 112l-136 -112q-13 -10 -28 -10
q-19 0 -32 13.5t-13 32.5q0 17 14 32l140 161q22 24 55 24t55 -24l140 -161q14 -15 14 -32q0 -19 -13 -32.5t-32 -13.5q-15 0 -28 10z" />
    <glyph glyph-name="otilde" unicode="&#xf5;" horiz-adv-x="688" 
d="M617 268q0 -113 -80 -193t-194 -80q-113 0 -193 80t-80 193q0 114 80 194t193 80q114 0 194 -80t80 -194zM485 268q0 70 -38.5 116.5t-103.5 46.5t-103 -46.5t-38 -116.5t38 -116t103 -46q66 0 104 46t38 116zM512 784q23 0 37 -15.5t14 -38.5q0 -15 -12 -35
q-18 -30 -51.5 -47.5t-72.5 -17.5q-37 0 -85 19q-55 22 -73 22q-29 0 -61 -28q-12 -11 -33 -11q-23 0 -37 15.5t-14 38.5q0 15 12 35q18 29 52.5 47t72.5 18q36 0 84 -19q55 -22 73 -22q29 0 61 28q12 11 33 11z" />
    <glyph glyph-name="odieresis" unicode="&#xf6;" horiz-adv-x="688" 
d="M617 268q0 -113 -80 -193t-194 -80q-113 0 -193 80t-80 193q0 114 80 194t193 80q114 0 194 -80t80 -194zM485 268q0 70 -38.5 116.5t-103.5 46.5t-103 -46.5t-38 -116.5t38 -116t103 -46q66 0 104 46t38 116zM569 712q0 -34 -24.5 -59t-59.5 -25q-34 0 -58.5 25
t-24.5 59t24.5 59t58.5 25q35 0 59.5 -25t24.5 -59zM285 712q0 -34 -24.5 -59t-58.5 -25t-59 25t-25 59t25 59t59 25t58.5 -25t24.5 -59z" />
    <glyph glyph-name="divide" unicode="&#xf7;" 
d="M626 268q0 -24 -16.5 -40.5t-40.5 -16.5h-442q-24 0 -40.5 16.5t-16.5 40.5t16.5 40.5t40.5 16.5h442q24 0 40.5 -16.5t16.5 -40.5zM270 73q0 35 24.5 59.5t58.5 24.5q35 0 59.5 -24.5t24.5 -59.5q0 -34 -24.5 -58.5t-59.5 -24.5t-59 24t-24 59zM270 463q0 35 24.5 59.5
t58.5 24.5q35 0 59.5 -24.5t24.5 -59.5q0 -34 -24.5 -58.5t-59.5 -24.5t-59 24t-24 59z" />
    <glyph glyph-name="oslash" unicode="&#xf8;" horiz-adv-x="688" 
d="M549 467l-7 -10q75 -80 75 -189q0 -113 -80 -193t-194 -80q-57 0 -110 22l-9 -13q-17 -23 -46 -23q-18 0 -32 10q-24 18 -24 46q0 18 10 32l10 14q-72 77 -72 185q0 114 80 194t193 80q53 0 106 -21l8 11q17 23 46 23q18 0 32 -10q24 -18 24 -46q0 -18 -10 -32zM485 268
q0 44 -17 83l-168 -239q20 -6 43 -6q66 0 104 46t38 116zM202 268q0 -43 15 -79l165 237q-20 5 -39 5q-65 0 -103 -46.5t-38 -116.5z" />
    <glyph glyph-name="ugrave" unicode="&#xf9;" horiz-adv-x="708" 
d="M90 245v225q0 27 19.5 46.5t46.5 19.5t46.5 -19.5t19.5 -46.5v-222q0 -66 30.5 -104.5t92.5 -38.5t102 46.5t40 112.5v206q0 27 19.5 46.5t46.5 19.5t46.5 -19.5t19.5 -46.5v-402q0 -27 -19.5 -47.5t-46.5 -20.5q-28 0 -46 17t-20 46q-53 -69 -147 -69q-120 0 -185 65.5
t-65 185.5zM207 793q0 29 21 50.5t50 21.5q32 0 53 -24l147 -173q12 -14 12 -30q0 -18 -11.5 -28t-29.5 -10q-13 0 -23 7l-190 129q-29 20 -29 57z" />
    <glyph glyph-name="uacute" unicode="&#xfa;" horiz-adv-x="708" 
d="M90 245v225q0 27 19.5 46.5t46.5 19.5t46.5 -19.5t19.5 -46.5v-222q0 -66 30.5 -104.5t92.5 -38.5t102 46.5t40 112.5v206q0 27 19.5 46.5t46.5 19.5t46.5 -19.5t19.5 -46.5v-402q0 -27 -19.5 -47.5t-46.5 -20.5q-28 0 -46 17t-20 46q-53 -69 -147 -69q-120 0 -185 65.5
t-65 185.5zM475 793q0 -37 -29 -57l-190 -129q-10 -7 -23 -7q-18 0 -29.5 10t-11.5 28q0 16 12 30l147 173q21 24 53 24q29 0 50 -21.5t21 -50.5z" />
    <glyph glyph-name="ucircumflex" unicode="&#xfb;" horiz-adv-x="708" 
d="M90 245v225q0 27 19.5 46.5t46.5 19.5t46.5 -19.5t19.5 -46.5v-222q0 -66 30.5 -104.5t92.5 -38.5t102 46.5t40 112.5v206q0 27 19.5 46.5t46.5 19.5t46.5 -19.5t19.5 -46.5v-402q0 -27 -19.5 -47.5t-46.5 -20.5q-28 0 -46 17t-20 46q-53 -69 -147 -69q-120 0 -185 65.5
t-65 185.5zM480 610l-136 112l-136 -112q-13 -10 -28 -10q-19 0 -32 13.5t-13 32.5q0 17 14 32l140 161q22 24 55 24t55 -24l140 -161q14 -15 14 -32q0 -19 -13 -32.5t-32 -13.5q-15 0 -28 10z" />
    <glyph glyph-name="udieresis" unicode="&#xfc;" horiz-adv-x="708" 
d="M90 245v225q0 27 19.5 46.5t46.5 19.5t46.5 -19.5t19.5 -46.5v-222q0 -66 30.5 -104.5t92.5 -38.5t102 46.5t40 112.5v206q0 27 19.5 46.5t46.5 19.5t46.5 -19.5t19.5 -46.5v-402q0 -27 -19.5 -47.5t-46.5 -20.5q-28 0 -46 17t-20 46q-53 -69 -147 -69q-120 0 -185 65.5
t-65 185.5zM571 712q0 -34 -24.5 -59t-59.5 -25q-34 0 -58.5 25t-24.5 59t24.5 59t58.5 25q35 0 59.5 -25t24.5 -59zM287 712q0 -34 -24.5 -59t-58.5 -25t-59 25t-25 59t25 59t59 25t58.5 -25t24.5 -59z" />
    <glyph glyph-name="yacute" unicode="&#xfd;" horiz-adv-x="653" 
d="M392 264l114 237q17 36 59 36q27 0 46.5 -19t19.5 -47q0 -16 -7 -30l-282 -545q-51 -100 -170 -100q-53 0 -98 28.5t-45 66.5q0 23 15.5 41t38.5 18q19 0 45 -21t52 -21q39 0 61 50l37 82q-7 3 -13 15l-197 386q-7 14 -7 30q0 28 19.5 47t46.5 19q42 0 59 -36l114 -237
q41 -83 45 -109h2q4 26 45 109zM471 793q0 -37 -29 -57l-190 -129q-10 -7 -23 -7q-18 0 -29.5 10t-11.5 28q0 16 12 30l147 173q21 24 53 24q29 0 50 -21.5t21 -50.5z" />
    <glyph glyph-name="thorn" unicode="&#xfe;" horiz-adv-x="732" 
d="M662 269q0 -113 -80 -193.5t-193 -80.5q-90 0 -142 56v-181q0 -27 -19.5 -46.5t-46.5 -19.5t-46.5 19.5t-19.5 46.5v797q0 28 19.5 47t46.5 19t46.5 -19t19.5 -47v-180q55 55 142 55q113 0 193 -80t80 -193zM530 269q0 70 -38.5 116t-102.5 46q-66 0 -104 -46t-38 -116
t38.5 -116.5t103.5 -46.5t103 46t38 117z" />
    <glyph glyph-name="ydieresis" unicode="&#xff;" horiz-adv-x="653" 
d="M392 264l114 237q17 36 59 36q27 0 46.5 -19t19.5 -47q0 -16 -7 -30l-282 -545q-51 -100 -170 -100q-53 0 -98 28.5t-45 66.5q0 23 15.5 41t38.5 18q19 0 45 -21t52 -21q39 0 61 50l37 82q-7 3 -13 15l-197 386q-7 14 -7 30q0 28 19.5 47t46.5 19q42 0 59 -36l114 -237
q41 -83 45 -109h2q4 26 45 109zM558 712q0 -34 -25 -59t-59 -25t-58.5 25t-24.5 59t24.5 59t58.5 25t59 -25t25 -59zM274 712q0 -34 -24.5 -59t-58.5 -25q-35 0 -59.5 25t-24.5 59t24.5 59t59.5 25q34 0 58.5 -25t24.5 -59z" />
    <glyph glyph-name="Amacron" unicode="&#x100;" horiz-adv-x="760" 
d="M719 68q0 -30 -19.5 -49t-48.5 -19q-49 0 -67 43l-48 115h-314l-48 -115q-18 -43 -65 -43q-27 0 -46.5 19t-19.5 49q0 16 6 30l251 578q21 47 63 47h36q42 0 63 -47l252 -578q5 -11 5 -30zM343 455l-72 -177h216l-72 177q-33 77 -34 116h-3q-1 -31 -35 -116zM592 880
q0 -24 -16.5 -40.5t-40.5 -16.5h-312q-24 0 -40.5 16.5t-16.5 40.5t16.5 40.5t40.5 16.5h312q24 0 40.5 -16.5t16.5 -40.5z" />
    <glyph glyph-name="amacron" unicode="&#x101;" horiz-adv-x="722" 
d="M333 -5q-114 0 -188.5 78.5t-74.5 194.5q0 115 74.5 194.5t188.5 79.5q50 0 92.5 -19.5t64.5 -54.5q0 28 15 49t48 21q29 0 46.5 -19t17.5 -47v-407q0 -28 -17.5 -47t-46.5 -19q-34 0 -48.5 22t-14.5 51q-22 -35 -63.5 -56t-93.5 -21zM485 268q0 70 -38.5 116.5
t-103.5 46.5q-64 0 -102.5 -46t-38.5 -117t38 -116.5t103 -45.5q66 0 104 46t38 116zM565 704q0 -24 -16.5 -40.5t-40.5 -16.5h-312q-24 0 -40.5 16.5t-16.5 40.5t16.5 40.5t40.5 16.5h312q24 0 40.5 -16.5t16.5 -40.5z" />
    <glyph glyph-name="Abreve" unicode="&#x102;" horiz-adv-x="760" 
d="M719 68q0 -30 -19.5 -49t-48.5 -19q-49 0 -67 43l-48 115h-314l-48 -115q-18 -43 -65 -43q-27 0 -46.5 19t-19.5 49q0 16 6 30l251 578q21 47 63 47h36q42 0 63 -47l252 -578q5 -11 5 -30zM343 455l-72 -177h216l-72 177q-33 77 -34 116h-3q-1 -31 -35 -116zM379 776
q-75 0 -129 35.5t-73 103.5q-4 12 -4 26q0 22 16.5 39.5t40.5 17.5q20 0 34.5 -12t19.5 -27q7 -21 14.5 -34.5t28.5 -26t52 -12.5t52 12.5t28.5 26t14.5 34.5q5 15 19.5 27t34.5 12q24 0 40.5 -17.5t16.5 -39.5q0 -14 -4 -26q-20 -67 -74 -103t-128 -36z" />
    <glyph glyph-name="abreve" unicode="&#x103;" horiz-adv-x="722" 
d="M333 -5q-114 0 -188.5 78.5t-74.5 194.5q0 115 74.5 194.5t188.5 79.5q50 0 92.5 -19.5t64.5 -54.5q0 28 15 49t48 21q29 0 46.5 -19t17.5 -47v-407q0 -28 -17.5 -47t-46.5 -19q-34 0 -48.5 22t-14.5 51q-22 -35 -63.5 -56t-93.5 -21zM485 268q0 70 -38.5 116.5
t-103.5 46.5q-64 0 -102.5 -46t-38.5 -117t38 -116.5t103 -45.5q66 0 104 46t38 116zM351 640q-75 0 -129 35.5t-73 103.5q-4 12 -4 26q0 22 16.5 39.5t40.5 17.5q20 0 34.5 -12t19.5 -27q7 -21 14.5 -34.5t28.5 -26t52 -12.5t52 12.5t28.5 26t14.5 34.5q5 15 19.5 27
t34.5 12q24 0 40.5 -17.5t16.5 -39.5q0 -14 -4 -26q-20 -67 -74 -103t-128 -36z" />
    <glyph glyph-name="Aogonek" unicode="&#x104;" horiz-adv-x="760" 
d="M719 68q0 -28 -16.5 -46.5t-43.5 -21.5q-18 -14 -33 -38q-15 -22 -15 -47q0 -42 42 -42q10 0 27 6.5t26 6.5q15 0 25 -10.5t10 -26.5q0 -22 -21 -34q-31 -19 -79 -19q-45 0 -77.5 24t-32.5 70q0 76 80 121q-20 14 -27 32l-48 115h-314l-48 -115q-18 -43 -65 -43
q-27 0 -46.5 19t-19.5 49q0 16 6 30l251 578q21 47 63 47h36q42 0 63 -47l252 -578q5 -11 5 -30zM343 455l-72 -177h216l-72 177q-33 77 -34 116h-3q-1 -31 -35 -116z" />
    <glyph glyph-name="aogonek" unicode="&#x105;" horiz-adv-x="722" 
d="M333 -5q-114 0 -188.5 78.5t-74.5 194.5q0 115 74.5 194.5t188.5 79.5q50 0 92.5 -19.5t64.5 -54.5q0 28 15 49t48 21q29 0 46.5 -19t17.5 -47v-407q0 -27 -17 -46t-44 -20q-16 -15 -31 -37t-15 -47q0 -42 42 -42q10 0 27 6.5t26 6.5q15 0 25 -10.5t10 -26.5
q0 -22 -21 -34q-31 -19 -79 -19q-45 0 -77.5 24t-32.5 70q0 77 82 122q-22 19 -22 60q-22 -35 -63.5 -56t-93.5 -21zM485 268q0 70 -38.5 116.5t-103.5 46.5q-64 0 -102.5 -46t-38.5 -117t38 -116.5t103 -45.5q66 0 104 46t38 116z" />
    <glyph glyph-name="Cacute" unicode="&#x106;" horiz-adv-x="825" 
d="M698 641l31.5 -33.5t18 -28t8.5 -35.5q0 -26 -17.5 -43.5t-41.5 -17.5q-16 0 -28 6.5t-19 14.5t-18.5 22.5t-21.5 24.5q-61 61 -164 61q-98 0 -161.5 -71.5t-63.5 -178.5t64 -180t161 -73q37 0 70 11t59.5 33t38.5 34t30 33q21 24 49 24q26 0 44 -17.5t18 -44.5
q0 -26 -13 -44q-49 -70 -126 -109t-170 -39q-152 0 -259 109t-107 263t107 262.5t259 108.5q162 0 252 -92zM542 982q31 0 49.5 -20.5t18.5 -50.5q0 -51 -54 -65l-222 -62q-3 -1 -14 -1q-17 0 -28 10t-11 26q0 25 24 38l194 114q18 11 43 11z" />
    <glyph glyph-name="cacute" unicode="&#x107;" horiz-adv-x="637" 
d="M344 431q-64 0 -103 -46.5t-39 -116.5t38.5 -115.5t103.5 -45.5q76 0 125 78q18 28 46 28q26 0 42 -17t16 -40q0 -18 -14 -43q-69 -118 -225 -118q-114 0 -189 79t-75 194t75 194.5t189 79.5q145 0 219 -107q16 -22 16 -44q0 -24 -17.5 -39.5t-40.5 -15.5q-27 0 -46 26
q-51 69 -121 69zM487 793q0 -37 -29 -57l-190 -129q-10 -7 -23 -7q-18 0 -29.5 10t-11.5 28q0 16 12 30l147 173q21 24 53 24q29 0 50 -21.5t21 -50.5z" />
    <glyph glyph-name="Ccircumflex" unicode="&#x108;" horiz-adv-x="825" 
d="M698 641l31.5 -33.5t18 -28t8.5 -35.5q0 -26 -17.5 -43.5t-41.5 -17.5q-16 0 -28 6.5t-19 14.5t-18.5 22.5t-21.5 24.5q-61 61 -164 61q-98 0 -161.5 -71.5t-63.5 -178.5t64 -180t161 -73q37 0 70 11t59.5 33t38.5 34t30 33q21 24 49 24q26 0 44 -17.5t18 -44.5
q0 -26 -13 -44q-49 -70 -126 -109t-170 -39q-152 0 -259 109t-107 263t107 262.5t259 108.5q162 0 252 -92zM583 781l-146 71l-146 -71q-15 -7 -30 -7q-18 0 -29 10.5t-11 27.5q0 21 17 35l144 118q30 24 55 24q33 0 55 -24l144 -118q17 -14 17 -35q0 -17 -11 -27.5
t-29 -10.5q-15 0 -30 7z" />
    <glyph glyph-name="ccircumflex" unicode="&#x109;" horiz-adv-x="637" 
d="M344 431q-64 0 -103 -46.5t-39 -116.5t38.5 -115.5t103.5 -45.5q76 0 125 78q18 28 46 28q26 0 42 -17t16 -40q0 -18 -14 -43q-69 -118 -225 -118q-114 0 -189 79t-75 194t75 194.5t189 79.5q145 0 219 -107q16 -22 16 -44q0 -24 -17.5 -39.5t-40.5 -15.5q-27 0 -46 26
q-51 69 -121 69zM476 610l-136 112l-136 -112q-13 -10 -28 -10q-19 0 -32 13.5t-13 32.5q0 17 14 32l140 161q22 24 55 24t55 -24l140 -161q14 -15 14 -32q0 -19 -13 -32.5t-32 -13.5q-15 0 -28 10z" />
    <glyph glyph-name="Cdotaccent" unicode="&#x10a;" horiz-adv-x="825" 
d="M698 641l31.5 -33.5t18 -28t8.5 -35.5q0 -26 -17.5 -43.5t-41.5 -17.5q-16 0 -28 6.5t-19 14.5t-18.5 22.5t-21.5 24.5q-61 61 -164 61q-98 0 -161.5 -71.5t-63.5 -178.5t64 -180t161 -73q37 0 70 11t59.5 33t38.5 34t30 33q21 24 49 24q26 0 44 -17.5t18 -44.5
q0 -26 -13 -44q-49 -70 -126 -109t-170 -39q-152 0 -259 109t-107 263t107 262.5t259 108.5q162 0 252 -92zM536 880q0 -38 -27 -64.5t-64 -26.5t-64 26.5t-27 64.5t27 64.5t64 26.5t64 -26.5t27 -64.5z" />
    <glyph glyph-name="cdotaccent" unicode="&#x10b;" horiz-adv-x="637" 
d="M344 431q-64 0 -103 -46.5t-39 -116.5t38.5 -115.5t103.5 -45.5q76 0 125 78q18 28 46 28q26 0 42 -17t16 -40q0 -18 -14 -43q-69 -118 -225 -118q-114 0 -189 79t-75 194t75 194.5t189 79.5q145 0 219 -107q16 -22 16 -44q0 -24 -17.5 -39.5t-40.5 -15.5q-27 0 -46 26
q-51 69 -121 69zM428 720q0 -38 -27 -64.5t-64 -26.5t-64 26.5t-27 64.5t27 64.5t64 26.5t64 -26.5t27 -64.5z" />
    <glyph glyph-name="Ccaron" unicode="&#x10c;" horiz-adv-x="825" 
d="M698 641l31.5 -33.5t18 -28t8.5 -35.5q0 -26 -17.5 -43.5t-41.5 -17.5q-16 0 -28 6.5t-19 14.5t-18.5 22.5t-21.5 24.5q-61 61 -164 61q-98 0 -161.5 -71.5t-63.5 -178.5t64 -180t161 -73q37 0 70 11t59.5 33t38.5 34t30 33q21 24 49 24q26 0 44 -17.5t18 -44.5
q0 -26 -13 -44q-49 -70 -126 -109t-170 -39q-152 0 -259 109t-107 263t107 262.5t259 108.5q162 0 252 -92zM295 983l146 -71l146 71q15 7 30 7q18 0 29 -10.5t11 -27.5q0 -21 -17 -35l-144 -118q-30 -24 -55 -24q-33 0 -55 24l-144 118q-17 14 -17 35q0 17 11 27.5t29 10.5
q15 0 30 -7z" />
    <glyph glyph-name="ccaron" unicode="&#x10d;" horiz-adv-x="637" 
d="M344 431q-64 0 -103 -46.5t-39 -116.5t38.5 -115.5t103.5 -45.5q76 0 125 78q18 28 46 28q26 0 42 -17t16 -40q0 -18 -14 -43q-69 -118 -225 -118q-114 0 -189 79t-75 194t75 194.5t189 79.5q145 0 219 -107q16 -22 16 -44q0 -24 -17.5 -39.5t-40.5 -15.5q-27 0 -46 26
q-51 69 -121 69zM205 854l136 -112l136 112q13 10 28 10q19 0 32 -13.5t13 -32.5q0 -17 -14 -32l-140 -161q-22 -24 -55 -24t-55 24l-140 161q-14 15 -14 32q0 19 13 32.5t32 13.5q15 0 28 -10z" />
    <glyph glyph-name="Dcaron" unicode="&#x10e;" horiz-adv-x="797" 
d="M729 362q0 -149 -93 -255.5t-235 -106.5h-207q-28 0 -48.5 20.5t-20.5 49.5v583q0 29 20.5 49.5t48.5 20.5h207q143 0 235.5 -105.5t92.5 -255.5zM585 362q0 104 -53 172.5t-152 68.5h-115v-483h120q96 0 148 69t52 173zM241 983l146 -71l146 71q15 7 30 7q18 0 29 -10.5
t11 -27.5q0 -21 -17 -35l-144 -118q-30 -24 -55 -24q-33 0 -55 24l-144 118q-17 14 -17 35q0 17 11 27.5t29 10.5q15 0 30 -7z" />
    <glyph glyph-name="dcaron" unicode="&#x10f;" horiz-adv-x="808" 
d="M485 473v184q0 27 19.5 46.5t46.5 19.5t46.5 -19.5t19.5 -46.5v-592q0 -28 -17 -47t-46 -19q-62 0 -62 74q-55 -78 -162 -78q-113 0 -186.5 79t-73.5 195q0 117 73 195.5t187 78.5q100 0 155 -70zM485 269q0 70 -38.5 116.5t-103.5 46.5q-66 0 -103.5 -46t-37.5 -117
t37.5 -117t103.5 -46q65 0 103.5 46.5t38.5 116.5zM842 652q0 -37 -29 -63q-28 -24 -59 -38q-22 -10 -36 -10q-12 0 -22 8.5t-10 21.5q0 10 16.5 22.5t16.5 20.5q0 6 -7.5 12t-15.5 17t-8 28q0 21 21 38t53 17q35 0 57.5 -20.5t22.5 -53.5z" />
    <glyph glyph-name="Dcroat" unicode="&#x110;" horiz-adv-x="817" 
d="M99 427h51v226q0 29 20.5 49.5t48.5 20.5h199q147 0 239 -105t92 -256t-92 -256.5t-239 -105.5h-198q-29 0 -49.5 20.5t-20.5 49.5v262h-51q-20 0 -34 14t-14 33t14.5 33.5t33.5 14.5zM290 602v-175h149q19 0 33 -14t14 -34q0 -19 -14 -33t-33 -14h-149v-211h128
q90 0 139 68.5t49 172.5t-49 172t-139 68h-128z" />
    <glyph glyph-name="dcroat" unicode="&#x111;" horiz-adv-x="722" 
d="M662 543h-45v-477q0 -28 -18 -47t-45 -19t-45.5 18t-18.5 54q-21 -36 -61.5 -56.5t-91.5 -20.5q-116 0 -191.5 78t-75.5 186q0 114 74 188.5t189 74.5q49 0 90.5 -20.5t61.5 -53.5v95h-109q-23 0 -40 17t-17 40t17 40t40 17h108q0 27 19 46.5t47 19.5q27 0 46.5 -19.5
t19.5 -46.5h46q23 0 40 -17t17 -40t-17 -40t-40 -17zM485 259q0 63 -38.5 107.5t-103.5 44.5t-103 -44.5t-38 -107.5t38 -108t103 -45t103.5 45t38.5 108z" />
    <glyph glyph-name="Emacron" unicode="&#x112;" horiz-adv-x="754" 
d="M702 65q0 -27 -19 -46t-46 -19h-442q-29 0 -49.5 21t-20.5 49v583q0 29 20.5 49.5t48.5 20.5h443q27 0 46 -19t19 -46q0 -28 -19 -47t-46 -19h-372v-166h228q27 0 46 -18.5t19 -45.5t-19 -46t-46 -19h-228v-166h372q27 0 46 -19t19 -47zM627 880q0 -24 -16.5 -40.5
t-40.5 -16.5h-312q-24 0 -40.5 16.5t-16.5 40.5t16.5 40.5t40.5 16.5h312q24 0 40.5 -16.5t16.5 -40.5z" />
    <glyph glyph-name="emacron" unicode="&#x113;" horiz-adv-x="655" 
d="M588 278q0 -22 -17 -38t-43 -16h-327q0 -46 37 -85t99 -39q13 0 25 1.5t22 5l17 6t15.5 9t11.5 8.5t11.5 9.5t9.5 8.5q18 16 41 16q24 0 40 -15.5t16 -41.5q0 -21 -14 -38q-63 -74 -192 -74q-118 0 -194 78t-76 195q0 119 75.5 196.5t190.5 77.5q108 0 180 -76t72 -188z
M203 319h258q0 44 -35.5 81.5t-88.5 37.5q-60 0 -97 -37t-37 -82zM546 704q0 -24 -16.5 -40.5t-40.5 -16.5h-312q-24 0 -40.5 16.5t-16.5 40.5t16.5 40.5t40.5 16.5h312q24 0 40.5 -16.5t16.5 -40.5z" />
    <glyph glyph-name="Ebreve" unicode="&#x114;" horiz-adv-x="754" 
d="M702 65q0 -27 -19 -46t-46 -19h-442q-29 0 -49.5 21t-20.5 49v583q0 29 20.5 49.5t48.5 20.5h443q27 0 46 -19t19 -46q0 -28 -19 -47t-46 -19h-372v-166h228q27 0 46 -18.5t19 -45.5t-19 -46t-46 -19h-228v-166h372q27 0 46 -19t19 -47zM411 776q-75 0 -129 35.5
t-73 103.5q-4 12 -4 26q0 22 16.5 39.5t40.5 17.5q20 0 34.5 -12t19.5 -27q7 -21 14.5 -34.5t28.5 -26t52 -12.5t52 12.5t28.5 26t14.5 34.5q5 15 19.5 27t34.5 12q24 0 40.5 -17.5t16.5 -39.5q0 -14 -4 -26q-20 -67 -74 -103t-128 -36z" />
    <glyph glyph-name="ebreve" unicode="&#x115;" horiz-adv-x="655" 
d="M588 278q0 -22 -17 -38t-43 -16h-327q0 -46 37 -85t99 -39q13 0 25 1.5t22 5l17 6t15.5 9t11.5 8.5t11.5 9.5t9.5 8.5q18 16 41 16q24 0 40 -15.5t16 -41.5q0 -21 -14 -38q-63 -74 -192 -74q-118 0 -194 78t-76 195q0 119 75.5 196.5t190.5 77.5q108 0 180 -76t72 -188z
M203 319h258q0 44 -35.5 81.5t-88.5 37.5q-60 0 -97 -37t-37 -82zM335 640q-75 0 -129 35.5t-73 103.5q-4 12 -4 26q0 22 16.5 39.5t40.5 17.5q20 0 34.5 -12t19.5 -27q7 -21 14.5 -34.5t28.5 -26t52 -12.5t52 12.5t28.5 26t14.5 34.5q5 15 19.5 27t34.5 12q24 0 40.5 -17.5
t16.5 -39.5q0 -14 -4 -26q-20 -67 -74 -103t-128 -36z" />
    <glyph glyph-name="Edotaccent" unicode="&#x116;" horiz-adv-x="754" 
d="M702 65q0 -27 -19 -46t-46 -19h-442q-29 0 -49.5 21t-20.5 49v583q0 29 20.5 49.5t48.5 20.5h443q27 0 46 -19t19 -46q0 -28 -19 -47t-46 -19h-372v-166h228q27 0 46 -18.5t19 -45.5t-19 -46t-46 -19h-228v-166h372q27 0 46 -19t19 -47zM504 880q0 -38 -27 -64.5
t-64 -26.5t-64 26.5t-27 64.5t27 64.5t64 26.5t64 -26.5t27 -64.5z" />
    <glyph glyph-name="edotaccent" unicode="&#x117;" horiz-adv-x="655" 
d="M588 278q0 -22 -17 -38t-43 -16h-327q0 -46 37 -85t99 -39q13 0 25 1.5t22 5l17 6t15.5 9t11.5 8.5t11.5 9.5t9.5 8.5q18 16 41 16q24 0 40 -15.5t16 -41.5q0 -21 -14 -38q-63 -74 -192 -74q-118 0 -194 78t-76 195q0 119 75.5 196.5t190.5 77.5q108 0 180 -76t72 -188z
M203 319h258q0 44 -35.5 81.5t-88.5 37.5q-60 0 -97 -37t-37 -82zM423 720q0 -38 -26.5 -64.5t-64.5 -26.5t-64.5 26.5t-26.5 64.5t26.5 64.5t64.5 26.5t64.5 -26.5t26.5 -64.5z" />
    <glyph glyph-name="Eogonek" unicode="&#x118;" horiz-adv-x="754" 
d="M702 65q0 -27 -19 -46t-46 -19h-176q-15 -13 -32 -38q-15 -23 -15 -47q0 -42 42 -42q10 0 27 6.5t26 6.5q15 0 25 -10.5t10 -26.5q0 -22 -21 -34q-31 -19 -79 -19q-45 0 -77.5 24t-32.5 70q0 67 62 110h-201q-29 0 -49.5 21t-20.5 49v583q0 29 20.5 49.5t48.5 20.5h443
q27 0 46 -19t19 -46q0 -28 -19 -47t-46 -19h-372v-166h228q27 0 46 -18.5t19 -45.5t-19 -46t-46 -19h-228v-166h372q27 0 46 -19t19 -47z" />
    <glyph glyph-name="eogonek" unicode="&#x119;" horiz-adv-x="655" 
d="M588 278q0 -22 -17 -38t-43 -16h-327q0 -46 37 -85t99 -39q13 0 25 1.5t22 5l17 6t15.5 9t11.5 8.5t11.5 9.5t9.5 8.5q18 16 41 16q24 0 40 -15.5t16 -41.5q0 -21 -14 -38q-59 -68 -176 -73q-11 -11 -27 -34q-15 -23 -15 -47q0 -42 42 -42q10 0 27 6.5t26 6.5
q15 0 25 -10.5t10 -26.5q0 -22 -21 -34q-31 -19 -79 -19q-45 0 -77.5 24t-32.5 70q0 65 60 109q-100 15 -162 90t-62 179q0 119 75.5 196.5t190.5 77.5q108 0 180 -76t72 -188zM203 319h258q0 44 -35.5 81.5t-88.5 37.5q-60 0 -97 -37t-37 -82z" />
    <glyph glyph-name="Ecaron" unicode="&#x11a;" horiz-adv-x="754" 
d="M702 65q0 -27 -19 -46t-46 -19h-442q-29 0 -49.5 21t-20.5 49v583q0 29 20.5 49.5t48.5 20.5h443q27 0 46 -19t19 -46q0 -28 -19 -47t-46 -19h-372v-166h228q27 0 46 -18.5t19 -45.5t-19 -46t-46 -19h-228v-166h372q27 0 46 -19t19 -47zM259 983l146 -71l146 71
q15 7 30 7q18 0 29 -10.5t11 -27.5q0 -21 -17 -35l-144 -118q-30 -24 -55 -24q-33 0 -55 24l-144 118q-17 14 -17 35q0 17 11 27.5t29 10.5q15 0 30 -7z" />
    <glyph glyph-name="ecaron" unicode="&#x11b;" horiz-adv-x="655" 
d="M588 278q0 -22 -17 -38t-43 -16h-327q0 -46 37 -85t99 -39q13 0 25 1.5t22 5l17 6t15.5 9t11.5 8.5t11.5 9.5t9.5 8.5q18 16 41 16q24 0 40 -15.5t16 -41.5q0 -21 -14 -38q-63 -74 -192 -74q-118 0 -194 78t-76 195q0 119 75.5 196.5t190.5 77.5q108 0 180 -76t72 -188z
M203 319h258q0 44 -35.5 81.5t-88.5 37.5q-60 0 -97 -37t-37 -82zM195 854l136 -112l136 112q13 10 28 10q19 0 32 -13.5t13 -32.5q0 -17 -14 -32l-140 -161q-22 -24 -55 -24t-55 24l-140 161q-14 15 -14 32q0 19 13 32.5t32 13.5q15 0 28 -10z" />
    <glyph glyph-name="Gcircumflex" unicode="&#x11c;" horiz-adv-x="824" 
d="M604 285h-171q-25 0 -42.5 17.5t-17.5 42.5q0 26 17.5 43.5t42.5 17.5h232q28 0 47 -17.5t19 -44.5v-221q-111 -133 -286 -133q-159 0 -262 105t-103 267q0 160 104 265.5t263 105.5q153 0 233 -89q33 -35 33 -65q0 -29 -17.5 -45t-42.5 -16q-7 0 -12.5 1t-11 3.5t-9 4.5
t-9 7t-7.5 7t-8.5 9t-7.5 9q-48 53 -143 53q-99 0 -161 -69t-62 -181t62 -182t161 -70q94 0 159 60v115zM588 781l-146 71l-146 -71q-15 -7 -30 -7q-18 0 -29 10.5t-11 27.5q0 21 17 35l144 118q30 24 55 24q33 0 55 -24l144 -118q17 -14 17 -35q0 -17 -11 -27.5t-29 -10.5
q-15 0 -30 7z" />
    <glyph glyph-name="gcircumflex" unicode="&#x11d;" horiz-adv-x="722" 
d="M617 471v-446q0 -117 -77 -173t-205 -56q-32 0 -77.5 9.5t-89.5 35.5t-44 62q0 26 16 41.5t42 15.5q15 0 36.5 -13t53.5 -26.5t71 -13.5q73 0 107.5 31t34.5 83v68q-20 -33 -61.5 -53.5t-90.5 -20.5q-115 0 -189 74.5t-74 188.5q0 108 75.5 186t191.5 78q51 0 91.5 -20.5
t61.5 -56.5q0 36 18.5 54t45.5 18t45 -19t18 -47zM485 278q0 63 -38.5 108t-103.5 45t-103 -45t-38 -108t38 -107.5t103 -44.5t103.5 44.5t38.5 107.5zM475 610l-136 112l-136 -112q-13 -10 -28 -10q-19 0 -32 13.5t-13 32.5q0 17 14 32l140 161q22 24 55 24t55 -24
l140 -161q14 -15 14 -32q0 -19 -13 -32.5t-32 -13.5q-15 0 -28 10z" />
    <glyph glyph-name="Gbreve" unicode="&#x11e;" horiz-adv-x="824" 
d="M604 285h-171q-25 0 -42.5 17.5t-17.5 42.5q0 26 17.5 43.5t42.5 17.5h232q28 0 47 -17.5t19 -44.5v-221q-111 -133 -286 -133q-159 0 -262 105t-103 267q0 160 104 265.5t263 105.5q153 0 233 -89q33 -35 33 -65q0 -29 -17.5 -45t-42.5 -16q-7 0 -12.5 1t-11 3.5t-9 4.5
t-9 7t-7.5 7t-8.5 9t-7.5 9q-48 53 -143 53q-99 0 -161 -69t-62 -181t62 -182t161 -70q94 0 159 60v115zM445 776q-75 0 -129 35.5t-73 103.5q-4 12 -4 26q0 22 16.5 39.5t40.5 17.5q20 0 34.5 -12t19.5 -27q7 -21 14.5 -34.5t28.5 -26t52 -12.5t52 12.5t28.5 26t14.5 34.5
q5 15 19.5 27t34.5 12q24 0 40.5 -17.5t16.5 -39.5q0 -14 -4 -26q-20 -67 -74 -103t-128 -36z" />
    <glyph glyph-name="gbreve" unicode="&#x11f;" horiz-adv-x="722" 
d="M617 471v-446q0 -117 -77 -173t-205 -56q-32 0 -77.5 9.5t-89.5 35.5t-44 62q0 26 16 41.5t42 15.5q15 0 36.5 -13t53.5 -26.5t71 -13.5q73 0 107.5 31t34.5 83v68q-20 -33 -61.5 -53.5t-90.5 -20.5q-115 0 -189 74.5t-74 188.5q0 108 75.5 186t191.5 78q51 0 91.5 -20.5
t61.5 -56.5q0 36 18.5 54t45.5 18t45 -19t18 -47zM485 278q0 63 -38.5 108t-103.5 45t-103 -45t-38 -108t38 -107.5t103 -44.5t103.5 44.5t38.5 107.5zM344 640q-75 0 -129 35.5t-73 103.5q-4 12 -4 26q0 22 16.5 39.5t40.5 17.5q20 0 34.5 -12t19.5 -27q7 -21 14.5 -34.5
t28.5 -26t52 -12.5t52 12.5t28.5 26t14.5 34.5q5 15 19.5 27t34.5 12q24 0 40.5 -17.5t16.5 -39.5q0 -14 -4 -26q-20 -67 -74 -103t-128 -36z" />
    <glyph glyph-name="Gdotaccent" unicode="&#x120;" horiz-adv-x="824" 
d="M604 285h-171q-25 0 -42.5 17.5t-17.5 42.5q0 26 17.5 43.5t42.5 17.5h232q28 0 47 -17.5t19 -44.5v-221q-111 -133 -286 -133q-159 0 -262 105t-103 267q0 160 104 265.5t263 105.5q153 0 233 -89q33 -35 33 -65q0 -29 -17.5 -45t-42.5 -16q-7 0 -12.5 1t-11 3.5t-9 4.5
t-9 7t-7.5 7t-8.5 9t-7.5 9q-48 53 -143 53q-99 0 -161 -69t-62 -181t62 -182t161 -70q94 0 159 60v115zM533 880q0 -38 -26.5 -64.5t-64.5 -26.5t-64.5 26.5t-26.5 64.5t26.5 64.5t64.5 26.5t64.5 -26.5t26.5 -64.5z" />
    <glyph glyph-name="gdotaccent" unicode="&#x121;" horiz-adv-x="722" 
d="M617 471v-446q0 -117 -77 -173t-205 -56q-32 0 -77.5 9.5t-89.5 35.5t-44 62q0 26 16 41.5t42 15.5q15 0 36.5 -13t53.5 -26.5t71 -13.5q73 0 107.5 31t34.5 83v68q-20 -33 -61.5 -53.5t-90.5 -20.5q-115 0 -189 74.5t-74 188.5q0 108 75.5 186t191.5 78q51 0 91.5 -20.5
t61.5 -56.5q0 36 18.5 54t45.5 18t45 -19t18 -47zM485 278q0 63 -38.5 108t-103.5 45t-103 -45t-38 -108t38 -107.5t103 -44.5t103.5 44.5t38.5 107.5zM434 720q0 -38 -27 -64.5t-64 -26.5t-64 26.5t-27 64.5t27 64.5t64 26.5t64 -26.5t27 -64.5z" />
    <glyph glyph-name="Gcommaaccent" unicode="&#x122;" horiz-adv-x="824" 
d="M604 285h-171q-25 0 -42.5 17.5t-17.5 42.5q0 26 17.5 43.5t42.5 17.5h232q28 0 47 -17.5t19 -44.5v-221q-111 -133 -286 -133q-159 0 -262 105t-103 267q0 160 104 265.5t263 105.5q153 0 233 -89q33 -35 33 -65q0 -29 -17.5 -45t-42.5 -16q-7 0 -12.5 1t-11 3.5t-9 4.5
t-9 7t-7.5 7t-8.5 9t-7.5 9q-48 53 -143 53q-99 0 -161 -69t-62 -181t62 -182t161 -70q94 0 159 60v115zM516 -104q0 -37 -29 -63q-28 -24 -59 -38q-22 -10 -36 -10q-12 0 -22 8.5t-10 21.5q0 10 16.5 22.5t16.5 20.5q0 6 -7.5 12t-15.5 17t-8 28q0 21 21 38t53 17
q35 0 57.5 -20.5t22.5 -53.5z" />
    <glyph glyph-name="gcommaaccent" unicode="&#x123;" horiz-adv-x="722" 
d="M617 471v-446q0 -117 -77 -173t-205 -56q-32 0 -77.5 9.5t-89.5 35.5t-44 62q0 26 16 41.5t42 15.5q15 0 36.5 -13t53.5 -26.5t71 -13.5q73 0 107.5 31t34.5 83v68q-20 -33 -61.5 -53.5t-90.5 -20.5q-115 0 -189 74.5t-74 188.5q0 108 75.5 186t191.5 78q51 0 91.5 -20.5
t61.5 -56.5q0 36 18.5 54t45.5 18t45 -19t18 -47zM485 278q0 63 -38.5 108t-103.5 45t-103 -45t-38 -108t38 -107.5t103 -44.5t103.5 44.5t38.5 107.5zM269 670q0 40 32 69q31 28 65 42q24 11 39 11q14 0 25 -9t11 -24q0 -11 -18.5 -24.5t-18.5 -22.5q0 -6 8.5 -13t17 -19
t8.5 -31q0 -24 -23 -42.5t-58 -18.5q-39 0 -63.5 22.5t-24.5 59.5z" />
    <glyph glyph-name="Hcircumflex" unicode="&#x124;" horiz-adv-x="832" 
d="M707 70q0 -29 -20.5 -49.5t-49.5 -20.5t-49.5 20.5t-20.5 49.5v230h-302v-230q0 -29 -20.5 -49.5t-49.5 -20.5t-49.5 20.5t-20.5 49.5v583q0 29 20.5 49.5t49.5 20.5t49.5 -20.5t20.5 -49.5v-230h302v230q0 29 20.5 49.5t49.5 20.5t49.5 -20.5t20.5 -49.5v-583zM559 781
l-146 71l-146 -71q-15 -7 -30 -7q-18 0 -29 10.5t-11 27.5q0 21 17 35l144 118q30 24 55 24q33 0 55 -24l144 -118q17 -14 17 -35q0 -17 -11 -27.5t-29 -10.5q-15 0 -30 7z" />
    <glyph glyph-name="hcircumflex" unicode="&#x125;" horiz-adv-x="724" 
d="M634 293v-227q0 -27 -19.5 -46.5t-46.5 -19.5q-28 0 -47 19.5t-19 46.5v206q0 72 -31.5 115.5t-95.5 43.5q-62 0 -100 -46.5t-38 -112.5v-206q0 -27 -19 -46.5t-47 -19.5q-27 0 -46.5 19.5t-19.5 46.5v591q0 27 19.5 46.5t46.5 19.5q28 0 47 -19.5t19 -46.5v-184
q59 69 164 69q109 0 171 -68t62 -181zM314 781l-146 71l-146 -71q-15 -7 -30 -7q-18 0 -29 10.5t-11 27.5q0 21 17 35l144 118q30 24 55 24q33 0 55 -24l144 -118q17 -14 17 -35q0 -17 -11 -27.5t-29 -10.5q-15 0 -30 7z" />
    <glyph glyph-name="Hbar" unicode="&#x126;" horiz-adv-x="848" 
d="M715 70q0 -29 -20.5 -49.5t-49.5 -20.5t-49.5 20.5t-20.5 49.5v198h-302v-198q0 -29 -20.5 -49.5t-49.5 -20.5t-49.5 20.5t-20.5 49.5v406h-44q-26 0 -44 18t-18 43t18.5 43.5t43.5 18.5h44v54q0 29 20.5 49.5t49.5 20.5t49.5 -20.5t20.5 -49.5v-54h302v54
q0 29 20.5 49.5t49.5 20.5t49.5 -20.5t20.5 -49.5v-54h44q25 0 43.5 -18.5t18.5 -43.5t-18 -43t-44 -18h-44v-406zM273 391h302v85h-302v-85z" />
    <glyph glyph-name="hbar" unicode="&#x127;" horiz-adv-x="724" 
d="M345 538h-108v-105q59 69 164 69q109 0 171 -68t62 -181v-187q0 -27 -19.5 -46.5t-46.5 -19.5q-28 0 -47 19.5t-19 46.5v166q0 72 -31.5 115.5t-95.5 43.5q-62 0 -100 -46.5t-38 -112.5v-166q0 -27 -19 -46.5t-47 -19.5q-27 0 -46.5 19.5t-19.5 46.5v472h-46
q-23 0 -40 17t-17 40t17 40t40 17h46v5q0 27 19.5 46.5t46.5 19.5q28 0 47 -19.5t19 -46.5v-5h108q23 0 40 -17t17 -40t-17 -40t-40 -17z" />
    <glyph glyph-name="Itilde" unicode="&#x128;" horiz-adv-x="390" 
d="M125 70v583q0 29 20.5 49.5t49.5 20.5t49.5 -20.5t20.5 -49.5v-583q0 -29 -20.5 -49.5t-49.5 -20.5t-49.5 20.5t-20.5 49.5zM364 956q23 0 37 -15.5t14 -38.5q0 -15 -12 -35q-18 -30 -51.5 -47.5t-72.5 -17.5q-37 0 -85 19q-55 22 -73 22q-29 0 -61 -28q-12 -11 -33 -11
q-23 0 -37 15.5t-14 38.5q0 15 12 35q18 29 52.5 47t72.5 18q36 0 84 -19q55 -22 73 -22q29 0 61 28q12 11 33 11z" />
    <glyph glyph-name="itilde" unicode="&#x129;" horiz-adv-x="352" 
d="M242 471v-405q0 -27 -19 -46.5t-47 -19.5q-27 0 -46.5 19.5t-19.5 46.5v405q0 27 19.5 46.5t46.5 19.5q28 0 47 -19.5t19 -46.5zM349 784q23 0 37 -15.5t14 -38.5q0 -15 -12 -35q-18 -30 -51.5 -47.5t-72.5 -17.5q-37 0 -85 19q-55 22 -73 22q-29 0 -61 -28
q-12 -11 -33 -11q-23 0 -37 15.5t-14 38.5q0 15 12 35q18 29 52.5 47t72.5 18q36 0 84 -19q55 -22 73 -22q29 0 61 28q12 11 33 11z" />
    <glyph glyph-name="Imacron" unicode="&#x12a;" horiz-adv-x="390" 
d="M125 70v583q0 29 20.5 49.5t49.5 20.5t49.5 -20.5t20.5 -49.5v-583q0 -29 -20.5 -49.5t-49.5 -20.5t-49.5 20.5t-20.5 49.5zM406 880q0 -24 -16.5 -40.5t-40.5 -16.5h-312q-24 0 -40.5 16.5t-16.5 40.5t16.5 40.5t40.5 16.5h312q24 0 40.5 -16.5t16.5 -40.5z" />
    <glyph glyph-name="imacron" unicode="&#x12b;" horiz-adv-x="352" 
d="M242 471v-405q0 -27 -19 -46.5t-47 -19.5q-27 0 -46.5 19.5t-19.5 46.5v405q0 27 19.5 46.5t46.5 19.5q28 0 47 -19.5t19 -46.5zM390 704q0 -24 -16.5 -40.5t-40.5 -16.5h-312q-24 0 -40.5 16.5t-16.5 40.5t16.5 40.5t40.5 16.5h312q24 0 40.5 -16.5t16.5 -40.5z" />
    <glyph glyph-name="Ibreve" unicode="&#x12c;" horiz-adv-x="390" 
d="M125 70v583q0 29 20.5 49.5t49.5 20.5t49.5 -20.5t20.5 -49.5v-583q0 -29 -20.5 -49.5t-49.5 -20.5t-49.5 20.5t-20.5 49.5zM193 776q-75 0 -129 35.5t-73 103.5q-4 12 -4 26q0 22 16.5 39.5t40.5 17.5q20 0 34.5 -12t19.5 -27q7 -21 14.5 -34.5t28.5 -26t52 -12.5
t52 12.5t28.5 26t14.5 34.5q5 15 19.5 27t34.5 12q24 0 40.5 -17.5t16.5 -39.5q0 -14 -4 -26q-20 -67 -74 -103t-128 -36z" />
    <glyph glyph-name="ibreve" unicode="&#x12d;" horiz-adv-x="352" 
d="M242 471v-405q0 -27 -19 -46.5t-47 -19.5q-27 0 -46.5 19.5t-19.5 46.5v405q0 27 19.5 46.5t46.5 19.5q28 0 47 -19.5t19 -46.5zM177 640q-75 0 -129 35.5t-73 103.5q-4 12 -4 26q0 22 16.5 39.5t40.5 17.5q20 0 34.5 -12t19.5 -27q7 -21 14.5 -34.5t28.5 -26t52 -12.5
t52 12.5t28.5 26t14.5 34.5q5 15 19.5 27t34.5 12q24 0 40.5 -17.5t16.5 -39.5q0 -14 -4 -26q-20 -67 -74 -103t-128 -36z" />
    <glyph glyph-name="Iogonek" unicode="&#x12e;" horiz-adv-x="390" 
d="M125 70v583q0 29 20.5 49.5t49.5 20.5t49.5 -20.5t20.5 -49.5v-583q0 -27 -17.5 -46.5t-43.5 -23.5q-20 -17 -33 -38q-15 -22 -15 -47q0 -42 42 -42q10 0 27 6.5t26 6.5q15 0 25 -10.5t10 -26.5q0 -22 -21 -34q-31 -19 -79 -19q-45 0 -77.5 24t-32.5 70q0 76 80 121
q-31 21 -31 59z" />
    <glyph glyph-name="iogonek" unicode="&#x12f;" horiz-adv-x="352" 
d="M242 471v-405q0 -26 -17.5 -45t-43.5 -21q-15 -13 -32 -38q-15 -22 -15 -47q0 -42 42 -42q10 0 27 6.5t26 6.5q15 0 25 -10.5t10 -26.5q0 -22 -21 -34q-31 -19 -79 -19q-45 0 -77.5 24t-32.5 70q0 77 83 123q-27 19 -27 53v405q0 27 19.5 46.5t46.5 19.5q28 0 47 -19.5
t19 -46.5zM267 720q0 -38 -26.5 -64.5t-64.5 -26.5t-64.5 26.5t-26.5 64.5t26.5 64.5t64.5 26.5t64.5 -26.5t26.5 -64.5z" />
    <glyph glyph-name="Idotaccent" unicode="&#x130;" horiz-adv-x="390" 
d="M125 70v583q0 29 20.5 49.5t49.5 20.5t49.5 -20.5t20.5 -49.5v-583q0 -29 -20.5 -49.5t-49.5 -20.5t-49.5 20.5t-20.5 49.5zM284 880q0 -38 -27 -64.5t-64 -26.5t-64 26.5t-27 64.5t27 64.5t64 26.5t64 -26.5t27 -64.5z" />
    <glyph glyph-name="dotlessi" unicode="&#x131;" horiz-adv-x="352" 
d="M242 471v-405q0 -27 -19 -46.5t-47 -19.5q-27 0 -46.5 19.5t-19.5 46.5v405q0 27 19.5 46.5t46.5 19.5q28 0 47 -19.5t19 -46.5z" />
    <glyph glyph-name="IJ" unicode="&#x132;" horiz-adv-x="1006" 
d="M125 70v583q0 29 20.5 49.5t49.5 20.5t49.5 -20.5t20.5 -49.5v-583q0 -29 -20.5 -49.5t-49.5 -20.5t-49.5 20.5t-20.5 49.5zM906 653v-431q0 -111 -65 -171.5t-179 -60.5q-85 0 -143 33t-88 79q-11 16 -11 38q0 27 16 44t42 17q24 0 48 -24q23 -23 35.5 -33.5t40 -22
t60.5 -11.5q55 0 79.5 27.5t24.5 84.5v431q0 29 20.5 49.5t49.5 20.5t49.5 -20.5t20.5 -49.5z" />
    <glyph glyph-name="ij" unicode="&#x133;" horiz-adv-x="683" 
d="M267 720q0 -38 -26.5 -64.5t-64.5 -26.5t-64.5 26.5t-26.5 64.5t26.5 64.5t64.5 26.5t64.5 -26.5t26.5 -64.5zM242 471v-405q0 -27 -19 -46.5t-47 -19.5q-27 0 -46.5 19.5t-19.5 46.5v405q0 27 19.5 46.5t46.5 19.5q28 0 47 -19.5t19 -46.5zM618 720q0 -38 -26.5 -64.5
t-63.5 -26.5q-38 0 -64.5 26.5t-26.5 64.5t26.5 64.5t64.5 26.5q37 0 63.5 -26.5t26.5 -64.5zM462 -23v494q0 27 19.5 46.5t46.5 19.5q28 0 47 -19.5t19 -46.5v-478q0 -93 -48.5 -145t-136.5 -52q-29 0 -63.5 10t-64 34.5t-29.5 57.5q0 26 17.5 42.5t40.5 16.5
q19 0 42.5 -21.5t49.5 -21.5q27 0 43.5 16.5t16.5 46.5z" />
    <glyph glyph-name="Jcircumflex" unicode="&#x134;" horiz-adv-x="616" 
d="M516 653v-431q0 -111 -65 -171.5t-179 -60.5q-85 0 -143 33t-88 79q-11 16 -11 38q0 27 16 44t42 17q24 0 48 -24q23 -23 35.5 -33.5t40 -22t60.5 -11.5q55 0 79.5 27.5t24.5 84.5v431q0 29 20.5 49.5t49.5 20.5t49.5 -20.5t20.5 -49.5zM596 781l-146 71l-146 -71
q-15 -7 -30 -7q-18 0 -29 10.5t-11 27.5q0 21 17 35l144 118q30 24 55 24q33 0 55 -24l144 -118q17 -14 17 -35q0 -17 -11 -27.5t-29 -10.5q-15 0 -30 7z" />
    <glyph glyph-name="jcircumflex" unicode="&#x135;" horiz-adv-x="456" 
d="M235 -23v494q0 27 19.5 46.5t46.5 19.5q28 0 47 -19.5t19 -46.5v-478q0 -93 -48.5 -145t-136.5 -52q-29 0 -63.5 10t-64 34.5t-29.5 57.5q0 26 17.5 42.5t40.5 16.5q19 0 42.5 -21.5t49.5 -21.5q27 0 43.5 16.5t16.5 46.5zM437 610l-136 112l-136 -112q-13 -10 -28 -10
q-19 0 -32 13.5t-13 32.5q0 17 14 32l140 161q22 24 55 24t55 -24l140 -161q14 -15 14 -32q0 -19 -13 -32.5t-32 -13.5q-15 0 -28 10z" />
    <glyph glyph-name="Kcommaaccent" unicode="&#x136;" horiz-adv-x="835" 
d="M766 70q0 -32 -24 -53q-22 -17 -46 -17q-34 0 -53 24l-246 294l-132 -121v-127q0 -29 -20.5 -49.5t-49.5 -20.5t-49.5 20.5t-20.5 49.5v583q0 29 20.5 49.5t49.5 20.5t49.5 -20.5t20.5 -49.5v-297q34 43 81 88l258 257q21 21 47 21t48 -22q20 -22 20 -46q0 -26 -22 -48
l-204 -196l256 -294q17 -20 17 -46zM488 -94q0 -37 -29 -63q-28 -24 -59 -38q-23 -10 -36 -10q-12 0 -22 8.5t-10 21.5q0 10 16.5 22.5t16.5 20.5q0 6 -7.5 12t-15.5 17t-8 28q0 21 21 38t53 17q35 0 57.5 -20.5t22.5 -53.5z" />
    <glyph glyph-name="kcommaaccent" unicode="&#x137;" horiz-adv-x="657" 
d="M605 64q0 -28 -19 -47q-21 -19 -47 -19q-28 0 -47 20l-189 201l-66 -52v-101q0 -27 -19.5 -46.5t-46.5 -19.5t-46.5 19.5t-19.5 46.5v591q0 27 19.5 46.5t46.5 19.5t46.5 -19.5t19.5 -46.5v-334l254 200q16 13 39 13q33 0 51 -24q13 -16 13 -38q0 -32 -25 -51l-168 -129
l185 -183q19 -19 19 -47zM414 -94q0 -37 -29 -63q-28 -24 -59 -38q-22 -10 -36 -10q-12 0 -22 8.5t-10 21.5q0 10 16.5 22.5t16.5 20.5q0 6 -7.5 12t-15.5 17t-8 28q0 21 21 38t53 17q35 0 57.5 -20.5t22.5 -53.5z" />
    <glyph glyph-name="kgreenlandic" unicode="&#x138;" horiz-adv-x="657" 
d="M605 64q0 -28 -19 -47q-21 -19 -47 -19q-28 0 -47 20l-189 201l-66 -52v-101q0 -27 -19.5 -46.5t-46.5 -19.5t-46.5 19.5t-19.5 46.5v405q0 27 19.5 46.5t46.5 19.5t46.5 -19.5t19.5 -46.5v-148l254 200q16 13 39 13q33 0 51 -24q13 -16 13 -38q0 -32 -25 -51l-168 -129
l185 -183q19 -19 19 -47z" />
    <glyph glyph-name="Lacute" unicode="&#x139;" horiz-adv-x="698" 
d="M685 65q0 -27 -19.5 -46t-46.5 -19h-424q-29 0 -49.5 21t-20.5 49v583q0 29 20.5 49.5t49.5 20.5t50 -20.5t21 -49.5v-522h353q27 0 46.5 -19t19.5 -47zM288 982q31 0 49.5 -20.5t18.5 -50.5q0 -51 -54 -65l-222 -62q-3 -1 -14 -1q-17 0 -28 10t-11 26q0 25 24 38
l194 114q18 11 43 11z" />
    <glyph glyph-name="lacute" unicode="&#x13a;" horiz-adv-x="362" 
d="M247 657v-591q0 -27 -19 -46.5t-47 -19.5q-27 0 -46.5 19.5t-19.5 46.5v591q0 27 19.5 46.5t46.5 19.5q28 0 47 -19.5t19 -46.5zM272 982q31 0 49.5 -20.5t18.5 -50.5q0 -51 -54 -65l-222 -62q-3 -1 -14 -1q-17 0 -28 10t-11 26q0 25 24 38l194 114q18 11 43 11z" />
    <glyph glyph-name="Lcommaaccent" unicode="&#x13b;" horiz-adv-x="698" 
d="M685 65q0 -27 -19.5 -46t-46.5 -19h-424q-29 0 -49.5 21t-20.5 49v583q0 29 20.5 49.5t49.5 20.5t50 -20.5t21 -49.5v-522h353q27 0 46.5 -19t19.5 -47zM481 -94q0 -37 -29 -63q-28 -24 -59 -38q-22 -10 -36 -10q-12 0 -22 8.5t-10 21.5q0 10 16.5 22.5t16.5 20.5
q0 6 -8 12t-15.5 17t-7.5 28q0 21 21 38t53 17q35 0 57.5 -20.5t22.5 -53.5z" />
    <glyph glyph-name="lcommaaccent" unicode="&#x13c;" horiz-adv-x="362" 
d="M247 657v-591q0 -27 -19 -46.5t-47 -19.5q-27 0 -46.5 19.5t-19.5 46.5v591q0 27 19.5 46.5t46.5 19.5q28 0 47 -19.5t19 -46.5zM258 -94q0 -37 -29 -63q-28 -24 -59 -38q-23 -10 -36 -10q-12 0 -22 8.5t-10 21.5q0 10 16.5 22.5t16.5 20.5q0 6 -7.5 12t-15.5 17t-8 28
q0 21 21 38t53 17q35 0 57.5 -20.5t22.5 -53.5z" />
    <glyph glyph-name="Lcaron" unicode="&#x13d;" horiz-adv-x="698" 
d="M685 65q0 -27 -19.5 -46t-46.5 -19h-424q-29 0 -49.5 21t-20.5 49v583q0 29 20.5 49.5t49.5 20.5t50 -20.5t21 -49.5v-522h353q27 0 46.5 -19t19.5 -47zM545 652q0 -37 -29 -63q-28 -24 -59 -38q-23 -10 -36 -10q-12 0 -22 8.5t-10 21.5q0 10 16.5 22.5t16.5 20.5
q0 6 -8 12t-15.5 17t-7.5 28q0 21 21 38t53 17q35 0 57.5 -20.5t22.5 -53.5z" />
    <glyph glyph-name="lcaron" unicode="&#x13e;" horiz-adv-x="438" 
d="M247 657v-591q0 -27 -19 -46.5t-47 -19.5q-27 0 -46.5 19.5t-19.5 46.5v591q0 27 19.5 46.5t46.5 19.5q28 0 47 -19.5t19 -46.5zM472 652q0 -37 -29 -63q-28 -24 -59 -38q-22 -10 -36 -10q-12 0 -22 8.5t-10 21.5q0 10 16.5 22.5t16.5 20.5q0 6 -7.5 12t-15.5 17t-8 28
q0 21 21 38t53 17q35 0 57.5 -20.5t22.5 -53.5z" />
    <glyph glyph-name="Ldot" unicode="&#x13f;" horiz-adv-x="698" 
d="M685 65q0 -27 -19.5 -46t-46.5 -19h-424q-29 0 -49.5 21t-20.5 49v583q0 29 20.5 49.5t49.5 20.5t50 -20.5t21 -49.5v-522h353q27 0 46.5 -19t19.5 -47zM555 401q0 -37 -26.5 -64t-64.5 -27t-64.5 27t-26.5 64t26.5 64t64.5 27t64.5 -27t26.5 -64z" />
    <glyph glyph-name="ldot" unicode="&#x140;" horiz-adv-x="541" 
d="M247 657v-591q0 -27 -19 -46.5t-47 -19.5q-27 0 -46.5 19.5t-19.5 46.5v591q0 27 19.5 46.5t46.5 19.5q28 0 47 -19.5t19 -46.5zM541 310q0 -38 -26.5 -64.5t-64.5 -26.5t-64.5 26.5t-26.5 64.5t26.5 64.5t64.5 26.5t64.5 -26.5t26.5 -64.5z" />
    <glyph glyph-name="Lslash" unicode="&#x141;" horiz-adv-x="727" 
d="M52 333l103 51v269q0 29 20.5 49.5t49.5 20.5t49.5 -20.5t20.5 -49.5v-197l103 54q10 6 24 6q31 0 43 -24q5 -10 5 -20q0 -31 -29 -46l-146 -75v-228h354q25 0 43.5 -18.5t18.5 -43.5t-18 -43t-44 -18h-424q-29 0 -49.5 20.5t-20.5 49.5v208l-60 -29q-12 -5 -21 -5
q-29 0 -42 26q-5 9 -5 22q0 28 25 41z" />
    <glyph glyph-name="lslash" unicode="&#x142;" horiz-adv-x="513" 
d="M200 65v232l-93 -47q-11 -6 -22 -6q-28 0 -41 26q-5 9 -5 22q0 28 25 41l136 69v255q0 27 19.5 46.5t46.5 19.5q28 0 47 -19.5t19 -46.5v-186l80 42q12 5 21 5q29 0 43 -25q5 -12 5 -21q0 -30 -25 -42l-124 -64v-301q0 -27 -19 -46.5t-47 -19.5q-27 0 -46.5 19.5
t-19.5 46.5z" />
    <glyph glyph-name="Nacute" unicode="&#x143;" horiz-adv-x="840" 
d="M715 653v-583q0 -29 -21 -49.5t-50 -20.5h-41q-40 0 -61 34l-228 372q-44 74 -58 115l-2 -1q10 -40 10 -124v-326q0 -29 -20 -49.5t-49 -20.5q-30 0 -50 20.5t-20 49.5v583q0 29 21 49.5t50 20.5h38q39 0 61 -35l228 -370q14 -23 33.5 -62.5t24.5 -55.5l2 1q-9 40 -9 126
v326q0 29 20.5 49.5t49.5 20.5t50 -20.5t21 -49.5zM528 982q31 0 49.5 -20.5t18.5 -50.5q0 -51 -54 -65l-222 -62q-3 -1 -14 -1q-17 0 -28 10t-11 26q0 25 24 38l194 114q18 11 43 11z" />
    <glyph glyph-name="nacute" unicode="&#x144;" horiz-adv-x="724" 
d="M634 301v-235q0 -27 -19.5 -46.5t-46.5 -19.5t-46.5 19.5t-19.5 46.5v222q0 66 -30.5 104.5t-92.5 38.5t-102 -46.5t-40 -112.5v-206q0 -27 -19.5 -46.5t-46.5 -19.5t-46.5 19.5t-19.5 46.5v402q0 27 19.5 47.5t46.5 20.5q28 0 47 -17.5t19 -46.5q55 70 168 70
q105 0 167 -64.5t62 -176.5zM526 793q0 -37 -29 -57l-190 -129q-10 -7 -23 -7q-18 0 -29.5 10t-11.5 28q0 16 12 30l147 173q21 24 53 24q29 0 50 -21.5t21 -50.5z" />
    <glyph glyph-name="Ncommaaccent" unicode="&#x145;" horiz-adv-x="840" 
d="M715 653v-583q0 -29 -21 -49.5t-50 -20.5h-41q-40 0 -61 34l-228 372q-44 74 -58 115l-2 -1q10 -40 10 -124v-326q0 -29 -20 -49.5t-49 -20.5q-30 0 -50 20.5t-20 49.5v583q0 29 21 49.5t50 20.5h38q39 0 61 -35l228 -370q14 -23 33.5 -62.5t24.5 -55.5l2 1q-9 40 -9 126
v326q0 29 20.5 49.5t49.5 20.5t50 -20.5t21 -49.5zM487 -94q0 -37 -29 -63q-28 -24 -59 -38q-23 -10 -36 -10q-12 0 -22 8.5t-10 21.5q0 10 16.5 22.5t16.5 20.5q0 6 -8 12t-15.5 17t-7.5 28q0 21 21 38t53 17q35 0 57.5 -20.5t22.5 -53.5z" />
    <glyph glyph-name="ncommaaccent" unicode="&#x146;" horiz-adv-x="724" 
d="M634 301v-235q0 -27 -19.5 -46.5t-46.5 -19.5t-46.5 19.5t-19.5 46.5v222q0 66 -30.5 104.5t-92.5 38.5t-102 -46.5t-40 -112.5v-206q0 -27 -19.5 -46.5t-46.5 -19.5t-46.5 19.5t-19.5 46.5v402q0 27 19.5 47.5t46.5 20.5q28 0 47 -17.5t19 -46.5q55 70 168 70
q105 0 167 -64.5t62 -176.5zM441 -94q0 -37 -29 -63q-28 -24 -59 -38q-23 -10 -36 -10q-12 0 -22 8.5t-10 21.5q0 10 16.5 22.5t16.5 20.5q0 6 -8 12t-15.5 17t-7.5 28q0 21 21 38t53 17q35 0 57.5 -20.5t22.5 -53.5z" />
    <glyph glyph-name="Ncaron" unicode="&#x147;" horiz-adv-x="840" 
d="M715 653v-583q0 -29 -21 -49.5t-50 -20.5h-41q-40 0 -61 34l-228 372q-44 74 -58 115l-2 -1q10 -40 10 -124v-326q0 -29 -20 -49.5t-49 -20.5q-30 0 -50 20.5t-20 49.5v583q0 29 21 49.5t50 20.5h38q39 0 61 -35l228 -370q14 -23 33.5 -62.5t24.5 -55.5l2 1q-9 40 -9 126
v326q0 29 20.5 49.5t49.5 20.5t50 -20.5t21 -49.5zM281 983l146 -71l146 71q15 7 30 7q18 0 29 -10.5t11 -27.5q0 -21 -17 -35l-144 -118q-30 -24 -55 -24q-33 0 -55 24l-144 118q-17 14 -17 35q0 17 11 27.5t29 10.5q15 0 30 -7z" />
    <glyph glyph-name="ncaron" unicode="&#x148;" horiz-adv-x="724" 
d="M634 301v-235q0 -27 -19.5 -46.5t-46.5 -19.5t-46.5 19.5t-19.5 46.5v222q0 66 -30.5 104.5t-92.5 38.5t-102 -46.5t-40 -112.5v-206q0 -27 -19.5 -46.5t-46.5 -19.5t-46.5 19.5t-19.5 46.5v402q0 27 19.5 47.5t46.5 20.5q28 0 47 -17.5t19 -46.5q55 70 168 70
q105 0 167 -64.5t62 -176.5zM245 854l136 -112l136 112q13 10 28 10q19 0 32 -13.5t13 -32.5q0 -17 -14 -32l-140 -161q-22 -24 -55 -24t-55 24l-140 161q-14 15 -14 32q0 19 13 32.5t32 13.5q15 0 28 -10z" />
    <glyph glyph-name="napostrophe" unicode="&#x149;" horiz-adv-x="724" 
d="M634 301v-235q0 -27 -19.5 -46.5t-46.5 -19.5t-46.5 19.5t-19.5 46.5v222q0 66 -30.5 104.5t-92.5 38.5t-102 -46.5t-40 -112.5v-206q0 -27 -19.5 -46.5t-46.5 -19.5t-46.5 19.5t-19.5 46.5v402q0 27 19.5 47.5t46.5 20.5q28 0 47 -17.5t19 -46.5q55 70 168 70
q105 0 167 -64.5t62 -176.5zM247 703q0 -37 -29 -63q-28 -24 -59 -38q-22 -10 -36 -10q-12 0 -22 8.5t-10 21.5q0 10 16.5 22.5t16.5 20.5q0 6 -8 12t-15.5 17t-7.5 28q0 21 21 38t53 17q35 0 57.5 -20.5t22.5 -53.5z" />
    <glyph glyph-name="Eng" unicode="&#x14a;" horiz-adv-x="840" 
d="M715 653v-630q0 -109 -65.5 -170.5t-167.5 -61.5q-79 0 -134 25t-81 66q-11 16 -11 38q0 27 16 44t42 17q27 0 48 -24q41 -46 118 -46q39 0 63.5 22.5t29.5 65.5l-259 407q-41 63 -58 115l-2 -1q10 -40 10 -124v-326q0 -29 -20 -49.5t-49 -20.5q-30 0 -50 20.5t-20 49.5
v583q0 29 21 49.5t50 20.5h38q39 0 61 -35l228 -370q14 -23 33.5 -62.5t24.5 -55.5l2 1q-9 40 -9 126v326q0 29 20.5 49.5t49.5 20.5t50 -20.5t21 -49.5z" />
    <glyph glyph-name="eng" unicode="&#x14b;" horiz-adv-x="724" 
d="M502 -23v311q0 66 -30.5 104.5t-92.5 38.5t-102 -46.5t-40 -112.5v-206q0 -27 -19.5 -46.5t-46.5 -19.5t-46.5 19.5t-19.5 46.5v402q0 27 19.5 47.5t46.5 20.5q28 0 47 -17.5t19 -46.5q55 70 168 70q105 0 167 -64.5t62 -176.5v-308q0 -93 -48.5 -145t-136.5 -52
q-29 0 -63.5 10t-64 34.5t-29.5 57.5q0 26 17.5 42.5t40.5 16.5q19 0 42.5 -21.5t49.5 -21.5q27 0 43.5 16.5t16.5 46.5z" />
    <glyph glyph-name="Omacron" unicode="&#x14c;" horiz-adv-x="888" 
d="M810 362q0 -154 -107 -263t-258 -109q-152 0 -258.5 109t-106.5 263t107 262.5t258 108.5t258 -108.5t107 -262.5zM669 362q0 107 -63.5 179t-160.5 72t-160.5 -72t-63.5 -179t63.5 -180t160.5 -73t160.5 73t63.5 180zM657 880q0 -24 -16.5 -40.5t-40.5 -16.5h-312
q-24 0 -40.5 16.5t-16.5 40.5t16.5 40.5t40.5 16.5h312q24 0 40.5 -16.5t16.5 -40.5z" />
    <glyph glyph-name="omacron" unicode="&#x14d;" horiz-adv-x="688" 
d="M617 268q0 -113 -80 -193t-194 -80q-113 0 -193 80t-80 193q0 114 80 194t193 80q114 0 194 -80t80 -194zM485 268q0 70 -38.5 116.5t-103.5 46.5t-103 -46.5t-38 -116.5t38 -116t103 -46q66 0 104 46t38 116zM557 704q0 -24 -16.5 -40.5t-40.5 -16.5h-312
q-24 0 -40.5 16.5t-16.5 40.5t16.5 40.5t40.5 16.5h312q24 0 40.5 -16.5t16.5 -40.5z" />
    <glyph glyph-name="Obreve" unicode="&#x14e;" horiz-adv-x="888" 
d="M810 362q0 -154 -107 -263t-258 -109q-152 0 -258.5 109t-106.5 263t107 262.5t258 108.5t258 -108.5t107 -262.5zM669 362q0 107 -63.5 179t-160.5 72t-160.5 -72t-63.5 -179t63.5 -180t160.5 -73t160.5 73t63.5 180zM445 776q-75 0 -129 35.5t-73 103.5q-4 12 -4 26
q0 22 16.5 39.5t40.5 17.5q20 0 34.5 -12t19.5 -27q7 -21 14.5 -34.5t28.5 -26t52 -12.5t52 12.5t28.5 26t14.5 34.5q5 15 19.5 27t34.5 12q24 0 40.5 -17.5t16.5 -39.5q0 -14 -4 -26q-20 -67 -74 -103t-128 -36z" />
    <glyph glyph-name="obreve" unicode="&#x14f;" horiz-adv-x="688" 
d="M617 268q0 -113 -80 -193t-194 -80q-113 0 -193 80t-80 193q0 114 80 194t193 80q114 0 194 -80t80 -194zM485 268q0 70 -38.5 116.5t-103.5 46.5t-103 -46.5t-38 -116.5t38 -116t103 -46q66 0 104 46t38 116zM343 640q-75 0 -129 35.5t-73 103.5q-4 12 -4 26
q0 22 16.5 39.5t40.5 17.5q20 0 34.5 -12t19.5 -27q7 -21 14.5 -34.5t28.5 -26t52 -12.5t52 12.5t28.5 26t14.5 34.5q5 15 19.5 27t34.5 12q24 0 40.5 -17.5t16.5 -39.5q0 -14 -4 -26q-20 -67 -74 -103t-128 -36z" />
    <glyph glyph-name="Ohungarumlaut" unicode="&#x150;" horiz-adv-x="888" 
d="M810 362q0 -154 -107 -263t-258 -109q-152 0 -258.5 109t-106.5 263t107 262.5t258 108.5t258 -108.5t107 -262.5zM669 362q0 107 -63.5 179t-160.5 72t-160.5 -72t-63.5 -179t63.5 -180t160.5 -73t160.5 73t63.5 180zM385 975q31 0 49.5 -19.5t18.5 -48.5q0 -53 -55 -68
l-176 -48q-10 -2 -18 -2q-36 0 -36 36q0 21 24 38l150 99q20 13 43 13zM649 975q31 0 49.5 -19.5t18.5 -48.5q0 -53 -55 -68l-176 -48q-10 -2 -18 -2q-36 0 -36 36q0 21 24 38l150 99q20 13 43 13z" />
    <glyph glyph-name="ohungarumlaut" unicode="&#x151;" horiz-adv-x="688" 
d="M617 268q0 -113 -80 -193t-194 -80q-113 0 -193 80t-80 193q0 114 80 194t193 80q114 0 194 -80t80 -194zM485 268q0 70 -38.5 116.5t-103.5 46.5t-103 -46.5t-38 -116.5t38 -116t103 -46q66 0 104 46t38 116zM375 795q0 -34 -30 -56l-182 -132q-10 -7 -23 -7
q-18 0 -29.5 10t-11.5 28q0 16 13 31l142 171q21 25 57 25q28 0 46 -20.5t18 -49.5zM607 795q0 -34 -30 -56l-182 -132q-11 -7 -23 -7q-18 0 -29.5 10t-11.5 28q0 16 13 31l142 171q21 25 57 25q28 0 46 -20.5t18 -49.5z" />
    <glyph glyph-name="OE" unicode="&#x152;" horiz-adv-x="842" 
d="M790 65q0 -27 -19.5 -46t-45.5 -19h-349q-130 0 -210.5 105.5t-80.5 256.5t80.5 256t210.5 105h348q28 0 47 -19t19 -46q0 -28 -19 -47t-47 -19h-179v-166h118q28 0 47 -18.5t19 -45.5t-19 -45.5t-47 -18.5h-118v-167h179q28 0 47 -19t19 -47zM405 131v461h-29
q-60 0 -105.5 -59t-45.5 -171t45.5 -171.5t105.5 -59.5h29z" />
    <glyph glyph-name="oe" unicode="&#x153;" horiz-adv-x="1070" 
d="M1003 278q0 -22 -17 -38t-43 -16h-327q0 -46 37 -85t99 -39q13 0 25 1.5t22 5l17 6t15.5 9t11.5 8.5t11.5 9.5t9.5 8.5q18 16 41 16q24 0 40 -15.5t16 -41.5q0 -21 -14 -38q-63 -74 -192 -74q-130 0 -207 92q-81 -92 -205 -92q-113 0 -193 80t-80 193q0 114 80 194
t193 80q123 0 205 -92q76 92 203 92q108 0 180 -76t72 -188zM485 268q0 70 -38.5 116.5t-103.5 46.5t-103 -46.5t-38 -116.5t38 -116t103 -46q66 0 104 46t38 116zM618 319h258q0 44 -35.5 81.5t-88.5 37.5q-60 0 -97 -37t-37 -82z" />
    <glyph glyph-name="Racute" unicode="&#x154;" horiz-adv-x="823" 
d="M741 499q0 -79 -45 -134t-124 -74l141 -183q14 -18 14 -42q0 -30 -18.5 -48t-47.5 -18q-34 0 -56 28l-182 242h-157v-200q0 -29 -21 -49.5t-50 -20.5t-49.5 20.5t-20.5 49.5v583q0 29 20.5 49.5t49.5 20.5h283q113 0 188 -58t75 -166zM598 496q0 101 -128 101h-204v-201
h209q123 0 123 100zM525 982q31 0 49.5 -20.5t18.5 -50.5q0 -51 -54 -65l-222 -62q-3 -1 -14 -1q-17 0 -28 10t-11 26q0 25 24 38l194 114q18 11 43 11z" />
    <glyph glyph-name="racute" unicode="&#x155;" horiz-adv-x="595" 
d="M569 418q0 -23 -15.5 -38.5t-38.5 -15.5q-26 0 -45 19q-27 27 -49 37.5t-51 10.5q-60 0 -96.5 -46t-36.5 -105v-214q0 -28 -19 -47t-47 -19q-27 0 -46.5 19t-19.5 47v406q0 27 19.5 46.5t46.5 19.5q24 0 43 -17t19 -50q59 71 157 71q90 0 149 -59q30 -30 30 -65zM501 793
q0 -37 -29 -57l-190 -129q-10 -7 -23 -7q-18 0 -29.5 10t-11.5 28q0 16 12 30l147 173q21 24 53 24q29 0 50 -21.5t21 -50.5z" />
    <glyph glyph-name="Rcommaaccent" unicode="&#x156;" horiz-adv-x="823" 
d="M741 499q0 -79 -45 -134t-124 -74l141 -183q14 -18 14 -42q0 -30 -18.5 -48t-47.5 -18q-34 0 -56 28l-182 242h-157v-200q0 -29 -21 -49.5t-50 -20.5t-49.5 20.5t-20.5 49.5v583q0 29 20.5 49.5t49.5 20.5h283q113 0 188 -58t75 -166zM598 496q0 101 -128 101h-204v-201
h209q123 0 123 100zM485 -94q0 -37 -29 -63q-28 -24 -59 -38q-22 -10 -36 -10q-12 0 -22 8.5t-10 21.5q0 10 16.5 22.5t16.5 20.5q0 6 -8 12t-15.5 17t-7.5 28q0 21 21 38t53 17q35 0 57.5 -20.5t22.5 -53.5z" />
    <glyph glyph-name="rcommaaccent" unicode="&#x157;" horiz-adv-x="595" 
d="M569 418q0 -23 -15.5 -38.5t-38.5 -15.5q-26 0 -45 19q-27 27 -49 37.5t-51 10.5q-60 0 -96.5 -46t-36.5 -105v-214q0 -28 -19 -47t-47 -19q-27 0 -46.5 19t-19.5 47v406q0 27 19.5 46.5t46.5 19.5q24 0 43 -17t19 -50q59 71 157 71q90 0 149 -59q30 -30 30 -65zM250 -94
q0 -37 -29 -63q-28 -24 -59 -38q-22 -10 -36 -10q-12 0 -22 8.5t-10 21.5q0 10 16.5 22.5t16.5 20.5q0 6 -7.5 12t-15.5 17t-8 28q0 21 21 38t53 17q35 0 57.5 -20.5t22.5 -53.5z" />
    <glyph glyph-name="Rcaron" unicode="&#x158;" horiz-adv-x="823" 
d="M741 499q0 -79 -45 -134t-124 -74l141 -183q14 -18 14 -42q0 -30 -18.5 -48t-47.5 -18q-34 0 -56 28l-182 242h-157v-200q0 -29 -21 -49.5t-50 -20.5t-49.5 20.5t-20.5 49.5v583q0 29 20.5 49.5t49.5 20.5h283q113 0 188 -58t75 -166zM598 496q0 101 -128 101h-204v-201
h209q123 0 123 100zM267 983l146 -71l146 71q15 7 30 7q18 0 29 -10.5t11 -27.5q0 -21 -17 -35l-144 -118q-30 -24 -55 -24q-33 0 -55 24l-144 118q-17 14 -17 35q0 17 11 27.5t29 10.5q15 0 30 -7z" />
    <glyph glyph-name="rcaron" unicode="&#x159;" horiz-adv-x="595" 
d="M569 418q0 -23 -15.5 -38.5t-38.5 -15.5q-26 0 -45 19q-27 27 -49 37.5t-51 10.5q-60 0 -96.5 -46t-36.5 -105v-214q0 -28 -19 -47t-47 -19q-27 0 -46.5 19t-19.5 47v406q0 27 19.5 46.5t46.5 19.5q24 0 43 -17t19 -50q59 71 157 71q90 0 149 -59q30 -30 30 -65zM171 854
l136 -112l136 112q13 10 28 10q19 0 32 -13.5t13 -32.5q0 -17 -14 -32l-140 -161q-22 -24 -55 -24t-55 24l-140 161q-14 15 -14 32q0 19 13 32.5t32 13.5q15 0 28 -10z" />
    <glyph glyph-name="Sacute" unicode="&#x15a;" horiz-adv-x="768" 
d="M700 218q0 -104 -78 -165.5t-216 -61.5q-203 0 -310 117q-16 19 -16 46q0 28 18.5 45t46.5 17q23 0 47 -24q84 -83 213 -83q65 0 108.5 30.5t43.5 73.5q0 35 -26.5 57.5t-90.5 34.5q-15 3 -67 11t-74 12q-203 44 -203 195q0 87 78.5 148t220.5 61t239 -68q35 -24 35 -61
q0 -24 -18 -41.5t-42 -17.5q-21 0 -53 22q-73 50 -155 50q-79 0 -121.5 -25.5t-42.5 -60.5q0 -59 87 -77q16 -4 52.5 -10l74.5 -12t47 -8q96 -18 149 -70t53 -135zM485 982q31 0 49.5 -20.5t18.5 -50.5q0 -51 -54 -65l-222 -62q-3 -1 -14 -1q-17 0 -28 10t-11 26q0 25 24 38
l194 114q18 11 43 11z" />
    <glyph glyph-name="sacute" unicode="&#x15b;" horiz-adv-x="673" 
d="M583 164q0 -88 -70 -128.5t-185 -40.5q-69 0 -135 24t-100 58q-19 19 -19 42q0 21 15 37.5t38 16.5q17 0 34 -14q75 -62 180 -62q114 0 114 60q0 42 -59 54q-25 5 -78.5 14t-78.5 15q-148 34 -148 139q0 69 59.5 116t179.5 47q126 0 193 -55q19 -16 19 -42
q0 -22 -14.5 -36t-35.5 -14q-8 0 -15 3t-19 10.5t-18 10.5q-48 25 -113 25q-49 0 -78.5 -15.5t-29.5 -39.5q0 -26 19.5 -35.5t67.5 -17.5l46 -7t51 -8q102 -19 141 -58t39 -99zM476 793q0 -37 -29 -57l-190 -129q-10 -7 -23 -7q-18 0 -29.5 10t-11.5 28q0 16 12 30l147 173
q21 24 53 24q29 0 50 -21.5t21 -50.5z" />
    <glyph glyph-name="Scircumflex" unicode="&#x15c;" horiz-adv-x="768" 
d="M700 218q0 -104 -78 -165.5t-216 -61.5q-203 0 -310 117q-16 19 -16 46q0 28 18.5 45t46.5 17q23 0 47 -24q84 -83 213 -83q65 0 108.5 30.5t43.5 73.5q0 35 -26.5 57.5t-90.5 34.5q-15 3 -67 11t-74 12q-203 44 -203 195q0 87 78.5 148t220.5 61t239 -68q35 -24 35 -61
q0 -24 -18 -41.5t-42 -17.5q-21 0 -53 22q-73 50 -155 50q-79 0 -121.5 -25.5t-42.5 -60.5q0 -59 87 -77q16 -4 52.5 -10l74.5 -12t47 -8q96 -18 149 -70t53 -135zM525 781l-146 71l-146 -71q-15 -7 -30 -7q-18 0 -29 10.5t-11 27.5q0 21 17 35l144 118q30 24 55 24
q33 0 55 -24l144 -118q17 -14 17 -35q0 -17 -11 -27.5t-29 -10.5q-15 0 -30 7z" />
    <glyph glyph-name="scircumflex" unicode="&#x15d;" horiz-adv-x="673" 
d="M583 164q0 -88 -70 -128.5t-185 -40.5q-69 0 -135 24t-100 58q-19 19 -19 42q0 21 15 37.5t38 16.5q17 0 34 -14q75 -62 180 -62q114 0 114 60q0 42 -59 54q-25 5 -78.5 14t-78.5 15q-148 34 -148 139q0 69 59.5 116t179.5 47q126 0 193 -55q19 -16 19 -42
q0 -22 -14.5 -36t-35.5 -14q-8 0 -15 3t-19 10.5t-18 10.5q-48 25 -113 25q-49 0 -78.5 -15.5t-29.5 -39.5q0 -26 19.5 -35.5t67.5 -17.5l46 -7t51 -8q102 -19 141 -58t39 -99zM466 610l-136 112l-136 -112q-13 -10 -28 -10q-19 0 -32 13.5t-13 32.5q0 17 14 32l140 161
q22 24 55 24t55 -24l140 -161q14 -15 14 -32q0 -19 -13 -32.5t-32 -13.5q-15 0 -28 10z" />
    <glyph glyph-name="Scedilla" unicode="&#x15e;" horiz-adv-x="768" 
d="M510 -109q0 -42 -33.5 -68.5t-84.5 -26.5q-71 0 -110 30q-14 10 -14 28q0 13 8.5 23t24.5 10q9 0 17 -6q32 -22 65 -22q17 0 27 8.5t10 20.5q0 10 -9 17.5t-23 7.5q-5 0 -12.5 -1t-10.5 -1q-9 0 -17 7t-8 20v57q-158 17 -244 113q-16 19 -16 46q0 28 18.5 45t46.5 17
q23 0 47 -24q84 -83 213 -83q65 0 108.5 30.5t43.5 73.5q0 35 -26.5 57.5t-90.5 34.5q-15 3 -67 11t-74 12q-203 44 -203 195q0 87 78.5 148t220.5 61t239 -68q35 -24 35 -61q0 -24 -18 -41.5t-42 -17.5q-21 0 -53 22q-73 50 -155 50q-79 0 -121.5 -25.5t-42.5 -60.5
q0 -59 87 -77q16 -4 52.5 -10l74.5 -12t47 -8q96 -18 149 -70t53 -135q0 -104 -78 -165.5t-216 -61.5h-6v-34q22 5 34 5q31 0 53.5 -19.5t22.5 -51.5z" />
    <glyph glyph-name="scedilla" unicode="&#x15f;" horiz-adv-x="673" 
d="M458 -109q0 -42 -33.5 -68.5t-84.5 -26.5q-71 0 -110 30q-14 10 -14 28q0 13 8.5 23t24.5 10q9 0 17 -6q32 -22 65 -22q17 0 27 8.5t10 20.5q0 10 -9 17.5t-23 7.5q-5 0 -12.5 -1t-10.5 -1q-9 0 -17 7t-8 20v59q-59 6 -112.5 28.5t-82.5 51.5q-19 19 -19 42q0 21 15 37.5
t38 16.5q17 0 34 -14q75 -62 180 -62q114 0 114 60q0 42 -59 54q-25 5 -78.5 14t-78.5 15q-148 34 -148 139q0 69 59.5 116t179.5 47q126 0 193 -55q19 -16 19 -42q0 -22 -14.5 -36t-35.5 -14q-8 0 -15 3t-19 10.5t-18 10.5q-48 25 -113 25q-49 0 -78.5 -15.5t-29.5 -39.5
q0 -26 19.5 -35.5t67.5 -17.5l46 -7t51 -8q102 -19 141 -58t39 -99q0 -84 -64 -124.5t-171 -43.5v-39q22 5 34 5q31 0 53.5 -19.5t22.5 -51.5z" />
    <glyph glyph-name="Scaron" unicode="&#x160;" horiz-adv-x="768" 
d="M700 218q0 -104 -78 -165.5t-216 -61.5q-203 0 -310 117q-16 19 -16 46q0 28 18.5 45t46.5 17q23 0 47 -24q84 -83 213 -83q65 0 108.5 30.5t43.5 73.5q0 35 -26.5 57.5t-90.5 34.5q-15 3 -67 11t-74 12q-203 44 -203 195q0 87 78.5 148t220.5 61t239 -68q35 -24 35 -61
q0 -24 -18 -41.5t-42 -17.5q-21 0 -53 22q-73 50 -155 50q-79 0 -121.5 -25.5t-42.5 -60.5q0 -59 87 -77q16 -4 52.5 -10l74.5 -12t47 -8q96 -18 149 -70t53 -135zM248 983l146 -71l146 71q15 7 30 7q18 0 29 -10.5t11 -27.5q0 -21 -17 -35l-144 -118q-30 -24 -55 -24
q-33 0 -55 24l-144 118q-17 14 -17 35q0 17 11 27.5t29 10.5q15 0 30 -7z" />
    <glyph glyph-name="scaron" unicode="&#x161;" horiz-adv-x="673" 
d="M583 164q0 -88 -70 -128.5t-185 -40.5q-69 0 -135 24t-100 58q-19 19 -19 42q0 21 15 37.5t38 16.5q17 0 34 -14q75 -62 180 -62q114 0 114 60q0 42 -59 54q-25 5 -78.5 14t-78.5 15q-148 34 -148 139q0 69 59.5 116t179.5 47q126 0 193 -55q19 -16 19 -42
q0 -22 -14.5 -36t-35.5 -14q-8 0 -15 3t-19 10.5t-18 10.5q-48 25 -113 25q-49 0 -78.5 -15.5t-29.5 -39.5q0 -26 19.5 -35.5t67.5 -17.5l46 -7t51 -8q102 -19 141 -58t39 -99zM203 854l136 -112l136 112q13 10 28 10q19 0 32 -13.5t13 -32.5q0 -17 -14 -32l-140 -161
q-22 -24 -55 -24t-55 24l-140 161q-14 15 -14 32q0 19 13 32.5t32 13.5q15 0 28 -10z" />
    <glyph glyph-name="uni0162" unicode="&#x162;" horiz-adv-x="650" 
d="M470 -109q0 -42 -33.5 -68.5t-84.5 -26.5q-71 0 -110 30q-14 10 -14 28q0 13 8.5 23t24.5 10q9 0 17 -6q32 -22 65 -22q17 0 27 8.5t10 20.5q0 10 -9 17.5t-23 7.5q-5 0 -12.5 -1t-10.5 -1q-9 0 -17 7t-8 20v68q-40 18 -40 64v530h-156q-26 0 -44 18t-18 43t18 43.5
t44 18.5h452q26 0 44 -18.5t18 -43.5t-18 -43t-44 -18h-156v-530q0 -46 -40 -64v-49q22 5 34 5q31 0 53.5 -19.5t22.5 -51.5z" />
    <glyph glyph-name="uni0163" unicode="&#x163;" horiz-adv-x="546" 
d="M485 -109q0 -42 -33.5 -68.5t-84.5 -26.5q-71 0 -110 30q-14 10 -14 28q0 13 8.5 23t24.5 10q9 0 17 -6q32 -22 65 -22q17 0 27 8.5t10 20.5q0 10 -9 17.5t-23 7.5q-5 0 -12.5 -1t-10.5 -1q-9 0 -17 7t-8 20v61q-67 13 -104 64t-37 131v229h-77q-23 0 -40 17t-17 40
t17 40t40 17h77v131q0 27 19.5 46.5t46.5 19.5q28 0 47 -19.5t19 -46.5v-131h113q23 0 40 -17t17 -40t-17 -40t-40 -17h-113v-244q0 -67 56 -67q26 0 51.5 21.5t44.5 21.5q23 0 40.5 -16.5t17.5 -42.5q0 -43 -42.5 -70.5t-98.5 -30.5v-38q23 5 34 5q31 0 53.5 -19.5
t22.5 -51.5z" />
    <glyph glyph-name="Tcaron" unicode="&#x164;" horiz-adv-x="650" 
d="M104 723h452q26 0 44 -18.5t18 -43.5t-18 -43t-44 -18h-156v-530q0 -29 -20.5 -49.5t-49.5 -20.5t-49.5 20.5t-20.5 49.5v530h-156q-26 0 -44 18t-18 43t18 43.5t44 18.5zM181 983l146 -71l146 71q15 7 30 7q18 0 29 -10.5t11 -27.5q0 -21 -17 -35l-144 -118
q-30 -24 -55 -24q-33 0 -55 24l-144 118q-17 14 -17 35q0 17 11 27.5t29 10.5q15 0 30 -7z" />
    <glyph glyph-name="tcaron" unicode="&#x165;" horiz-adv-x="546" 
d="M419 423h-113v-244q0 -67 56 -67q26 0 51.5 21.5t44.5 21.5q23 0 40.5 -16.5t17.5 -42.5q0 -46 -47.5 -74t-106.5 -28q-88 0 -138 53.5t-50 146.5v229h-77q-23 0 -40 17t-17 40t17 40t40 17h77v131q0 27 19.5 46.5t46.5 19.5q28 0 47 -19.5t19 -46.5v-131h113
q23 0 40 -17t17 -40t-17 -40t-40 -17zM528 725q0 -37 -29 -63q-28 -24 -59 -38q-23 -10 -36 -10q-12 0 -22 8.5t-10 21.5q0 10 16.5 22.5t16.5 20.5q0 6 -7.5 12t-15.5 17t-8 28q0 21 21 38t53 17q35 0 57.5 -20.5t22.5 -53.5z" />
    <glyph glyph-name="Tbar" unicode="&#x166;" horiz-adv-x="650" 
d="M487 319h-92v-249q0 -29 -20.5 -49.5t-49.5 -20.5t-49.5 20.5t-20.5 49.5v249h-92q-26 0 -44 18t-18 43q0 26 18.5 44t43.5 18h92v158h-156q-26 0 -44 18t-18 43t18.5 43.5t43.5 18.5h452q25 0 43.5 -18.5t18.5 -43.5t-18 -43t-44 -18h-156v-158h92q25 0 43.5 -18
t18.5 -44q0 -25 -18 -43t-44 -18z" />
    <glyph glyph-name="tbar" unicode="&#x167;" horiz-adv-x="546" 
d="M409 347q23 0 40 -17t17 -40t-17 -40t-40 -17h-103v-54q0 -67 56 -67q26 0 51.5 21.5t44.5 21.5q23 0 40.5 -16.5t17.5 -42.5q0 -46 -47.5 -74t-106.5 -28q-88 0 -138 53.5t-50 146.5v39h-77q-23 0 -40 17t-17 40t17 40t40 17h77v76h-77q-23 0 -40 17t-17 40t17 40t40 17
h77v131q0 27 19.5 46.5t46.5 19.5q28 0 47 -19.5t19 -46.5v-131h113q23 0 40 -17t17 -40t-17 -40t-40 -17h-113v-76h103z" />
    <glyph glyph-name="Utilde" unicode="&#x168;" horiz-adv-x="836" 
d="M729 653v-370q0 -127 -89 -210t-218 -83t-218 83t-89 210v370q0 29 21 49.5t50 20.5t50 -20.5t21 -49.5v-360q0 -81 44 -130.5t121 -49.5t121.5 50t44.5 130v360q0 29 21 49.5t50 20.5t49.5 -20.5t20.5 -49.5zM595 956q23 0 37 -15.5t14 -38.5q0 -15 -12 -35
q-18 -30 -51.5 -47.5t-72.5 -17.5q-37 0 -85 19q-55 22 -73 22q-29 0 -61 -28q-12 -11 -33 -11q-23 0 -37 15.5t-14 38.5q0 15 12 35q18 29 52.5 47t72.5 18q36 0 84 -19q55 -22 73 -22q29 0 61 28q12 11 33 11z" />
    <glyph glyph-name="utilde" unicode="&#x169;" horiz-adv-x="708" 
d="M90 245v225q0 27 19.5 46.5t46.5 19.5t46.5 -19.5t19.5 -46.5v-222q0 -66 30.5 -104.5t92.5 -38.5t102 46.5t40 112.5v206q0 27 19.5 46.5t46.5 19.5t46.5 -19.5t19.5 -46.5v-402q0 -27 -19.5 -47.5t-46.5 -20.5q-28 0 -46 17t-20 46q-53 -69 -147 -69q-120 0 -185 65.5
t-65 185.5zM510 784q23 0 37 -15.5t14 -38.5q0 -15 -12 -35q-18 -30 -51.5 -47.5t-72.5 -17.5q-37 0 -85 19q-55 22 -73 22q-29 0 -61 -28q-12 -11 -33 -11q-23 0 -37 15.5t-14 38.5q0 15 12 35q18 29 52.5 47t72.5 18q36 0 84 -19q55 -22 73 -22q29 0 61 28q12 11 33 11z
" />
    <glyph glyph-name="Umacron" unicode="&#x16a;" horiz-adv-x="836" 
d="M729 653v-370q0 -127 -89 -210t-218 -83t-218 83t-89 210v370q0 29 21 49.5t50 20.5t50 -20.5t21 -49.5v-360q0 -81 44 -130.5t121 -49.5t121.5 50t44.5 130v360q0 29 21 49.5t50 20.5t49.5 -20.5t20.5 -49.5zM639 880q0 -24 -16.5 -40.5t-40.5 -16.5h-312
q-24 0 -40.5 16.5t-16.5 40.5t16.5 40.5t40.5 16.5h312q24 0 40.5 -16.5t16.5 -40.5z" />
    <glyph glyph-name="umacron" unicode="&#x16b;" horiz-adv-x="708" 
d="M90 245v225q0 27 19.5 46.5t46.5 19.5t46.5 -19.5t19.5 -46.5v-222q0 -66 30.5 -104.5t92.5 -38.5t102 46.5t40 112.5v206q0 27 19.5 46.5t46.5 19.5t46.5 -19.5t19.5 -46.5v-402q0 -27 -19.5 -47.5t-46.5 -20.5q-28 0 -46 17t-20 46q-53 -69 -147 -69q-120 0 -185 65.5
t-65 185.5zM555 704q0 -24 -16.5 -40.5t-40.5 -16.5h-312q-24 0 -40.5 16.5t-16.5 40.5t16.5 40.5t40.5 16.5h312q24 0 40.5 -16.5t16.5 -40.5z" />
    <glyph glyph-name="Ubreve" unicode="&#x16c;" horiz-adv-x="836" 
d="M729 653v-370q0 -127 -89 -210t-218 -83t-218 83t-89 210v370q0 29 21 49.5t50 20.5t50 -20.5t21 -49.5v-360q0 -81 44 -130.5t121 -49.5t121.5 50t44.5 130v360q0 29 21 49.5t50 20.5t49.5 -20.5t20.5 -49.5zM424 776q-75 0 -129 35.5t-73 103.5q-4 12 -4 26
q0 22 16.5 39.5t40.5 17.5q20 0 34.5 -12t19.5 -27q7 -21 14.5 -34.5t28.5 -26t52 -12.5t52 12.5t28.5 26t14.5 34.5q5 15 19.5 27t34.5 12q24 0 40.5 -17.5t16.5 -39.5q0 -14 -4 -26q-20 -67 -74 -103t-128 -36z" />
    <glyph glyph-name="ubreve" unicode="&#x16d;" horiz-adv-x="708" 
d="M90 245v225q0 27 19.5 46.5t46.5 19.5t46.5 -19.5t19.5 -46.5v-222q0 -66 30.5 -104.5t92.5 -38.5t102 46.5t40 112.5v206q0 27 19.5 46.5t46.5 19.5t46.5 -19.5t19.5 -46.5v-402q0 -27 -19.5 -47.5t-46.5 -20.5q-28 0 -46 17t-20 46q-53 -69 -147 -69q-120 0 -185 65.5
t-65 185.5zM338 640q-75 0 -129 35.5t-73 103.5q-4 12 -4 26q0 22 16.5 39.5t40.5 17.5q20 0 34.5 -12t19.5 -27q7 -21 14.5 -34.5t28.5 -26t52 -12.5t52 12.5t28.5 26t14.5 34.5q5 15 19.5 27t34.5 12q24 0 40.5 -17.5t16.5 -39.5q0 -14 -4 -26q-20 -67 -74 -103t-128 -36z
" />
    <glyph glyph-name="Uring" unicode="&#x16e;" horiz-adv-x="836" 
d="M729 653v-370q0 -127 -89 -210t-218 -83t-218 83t-89 210v370q0 29 21 49.5t50 20.5t50 -20.5t21 -49.5v-360q0 -81 44 -130.5t121 -49.5t121.5 50t44.5 130v360q0 29 21 49.5t50 20.5t49.5 -20.5t20.5 -49.5zM292 879q0 54 39 92.5t95 38.5t95.5 -38.5t39.5 -92.5
t-39.5 -91.5t-95.5 -37.5t-95 37.5t-39 91.5zM366 879q0 -27 16.5 -44.5t43.5 -17.5t43.5 17.5t16.5 44.5t-16.5 45t-43.5 18t-43.5 -18t-16.5 -45z" />
    <glyph glyph-name="uring" unicode="&#x16f;" horiz-adv-x="708" 
d="M90 245v225q0 27 19.5 46.5t46.5 19.5t46.5 -19.5t19.5 -46.5v-222q0 -66 30.5 -104.5t92.5 -38.5t102 46.5t40 112.5v206q0 27 19.5 46.5t46.5 19.5t46.5 -19.5t19.5 -46.5v-402q0 -27 -19.5 -47.5t-46.5 -20.5q-28 0 -46 17t-20 46q-53 -69 -147 -69q-120 0 -185 65.5
t-65 185.5zM204 729q0 54 39 92.5t95 38.5t95.5 -38.5t39.5 -92.5t-39.5 -91.5t-95.5 -37.5t-95 37.5t-39 91.5zM278 729q0 -27 16.5 -44.5t43.5 -17.5t43.5 17.5t16.5 44.5t-16.5 45t-43.5 18t-43.5 -18t-16.5 -45z" />
    <glyph glyph-name="Uhungarumlaut" unicode="&#x170;" horiz-adv-x="836" 
d="M729 653v-370q0 -127 -89 -210t-218 -83t-218 83t-89 210v370q0 29 21 49.5t50 20.5t50 -20.5t21 -49.5v-360q0 -81 44 -130.5t121 -49.5t121.5 50t44.5 130v360q0 29 21 49.5t50 20.5t49.5 -20.5t20.5 -49.5zM359 975q31 0 49.5 -19.5t18.5 -48.5q0 -53 -55 -68
l-176 -48q-10 -2 -18 -2q-36 0 -36 36q0 21 24 38l150 99q20 13 43 13zM623 975q31 0 49.5 -19.5t18.5 -48.5q0 -53 -55 -68l-176 -48q-10 -2 -18 -2q-36 0 -36 36q0 21 24 38l150 99q20 13 43 13z" />
    <glyph glyph-name="uhungarumlaut" unicode="&#x171;" horiz-adv-x="708" 
d="M90 245v225q0 27 19.5 46.5t46.5 19.5t46.5 -19.5t19.5 -46.5v-222q0 -66 30.5 -104.5t92.5 -38.5t102 46.5t40 112.5v206q0 27 19.5 46.5t46.5 19.5t46.5 -19.5t19.5 -46.5v-402q0 -27 -19.5 -47.5t-46.5 -20.5q-28 0 -46 17t-20 46q-53 -69 -147 -69q-120 0 -185 65.5
t-65 185.5zM373 795q0 -34 -30 -56l-182 -132q-10 -7 -23 -7q-18 0 -29.5 10t-11.5 28q0 16 13 31l142 171q21 25 57 25q28 0 46 -20.5t18 -49.5zM605 795q0 -34 -30 -56l-182 -132q-11 -7 -23 -7q-18 0 -29.5 10t-11.5 28q0 16 13 31l142 171q21 25 57 25q28 0 46 -20.5
t18 -49.5z" />
    <glyph glyph-name="Uogonek" unicode="&#x172;" horiz-adv-x="836" 
d="M729 653v-370q0 -123 -83 -204.5t-207 -87.5q-12 -14 -22 -29q-15 -23 -15 -47q0 -42 42 -42q10 0 27 6.5t26 6.5q15 0 25 -10.5t10 -26.5q0 -22 -21 -34q-31 -19 -79 -19q-45 0 -77.5 24t-32.5 70q0 60 53 103q-113 15 -186.5 95t-73.5 195v370q0 29 21 49.5t50 20.5
t50 -20.5t21 -49.5v-360q0 -81 44 -130.5t121 -49.5t121.5 50t44.5 130v360q0 29 21 49.5t50 20.5t49.5 -20.5t20.5 -49.5z" />
    <glyph glyph-name="uogonek" unicode="&#x173;" horiz-adv-x="708" 
d="M90 245v225q0 27 19.5 46.5t46.5 19.5t46.5 -19.5t19.5 -46.5v-222q0 -66 30.5 -104.5t92.5 -38.5t102 46.5t40 112.5v206q0 27 19.5 46.5t46.5 19.5t46.5 -19.5t19.5 -46.5v-402q0 -24 -15.5 -43t-38.5 -24q-21 -18 -34 -39q-15 -22 -15 -47q0 -42 42 -42q10 0 27 6.5
t26 6.5q15 0 25 -10.5t10 -26.5q0 -22 -21 -34q-31 -19 -79 -19q-45 0 -77.5 24t-32.5 70q0 75 79 120q-25 17 -28 53q-53 -69 -147 -69q-120 0 -185 65.5t-65 185.5z" />
    <glyph glyph-name="Wcircumflex" unicode="&#x174;" horiz-adv-x="853" 
d="M777 653q0 -4 -2 -16l-140 -582q-6 -23 -23 -39t-41 -16h-26q-23 0 -39.5 14.5t-20.5 36.5l-36 186q-15 73 -19 118h-2q-2 -30 -21 -118l-41 -186q-5 -21 -21 -36t-39 -15h-32q-24 0 -41 16t-23 39l-138 581q-2 12 -2 16q0 31 19.5 51t48.5 20q27 0 46 -15t24 -40
l72 -368q16 -87 20 -134h2q1 51 18 134l54 251q5 20 19.5 32.5t35.5 12.5q43 0 53 -45l59 -250q17 -71 19 -135h2q4 72 16 134l70 368q4 25 22 40t42 15q29 0 47 -20t18 -50zM571 781l-146 71l-146 -71q-15 -7 -30 -7q-18 0 -29 10.5t-11 27.5q0 21 17 35l144 118
q30 24 55 24q33 0 55 -24l144 -118q17 -14 17 -35q0 -17 -11 -27.5t-29 -10.5q-15 0 -30 7z" />
    <glyph glyph-name="wcircumflex" unicode="&#x175;" horiz-adv-x="797" 
d="M737 472q0 -11 -3 -20l-134 -406q-7 -21 -24 -33.5t-38 -12.5h-23q-18 0 -32.5 10.5t-19.5 28.5l-37 120l-26 89h-2q-13 -57 -23 -89l-38 -120q-13 -39 -51 -39h-29q-44 0 -59 46l-134 406q-4 8 -4 20q0 28 19 47t45 19q21 0 38.5 -12.5t24.5 -33.5l67 -229l22 -104h2
q12 70 23 104l48 146q14 39 51 39q18 0 33 -11t20 -28l46 -146l25 -104h2q8 57 22 104l67 229q7 21 24.5 33.5t38.5 12.5q26 0 42.5 -19t16.5 -47zM537 610l-136 112l-136 -112q-13 -10 -28 -10q-19 0 -32 13.5t-13 32.5q0 17 14 32l140 161q22 24 55 24t55 -24l140 -161
q14 -15 14 -32q0 -19 -13 -32.5t-32 -13.5q-15 0 -28 10z" />
    <glyph glyph-name="Ycircumflex" unicode="&#x176;" horiz-adv-x="686" 
d="M172 692l116 -179q40 -62 56 -101h2q16 41 53 99l115 181q19 31 58 31q29 0 49.5 -20.5t20.5 -49.5q0 -22 -12 -40l-220 -320q3 -173 3 -223q0 -29 -20.5 -49.5t-49.5 -20.5t-49.5 20.5t-20.5 49.5l3 223l-220 320q-12 17 -12 40q0 29 20.5 49.5t49.5 20.5q38 0 58 -31z
M487 781l-146 71l-146 -71q-15 -7 -30 -7q-18 0 -29 10.5t-11 27.5q0 21 17 35l144 118q30 24 55 24q33 0 55 -24l144 -118q17 -14 17 -35q0 -17 -11 -27.5t-29 -10.5q-15 0 -30 7z" />
    <glyph glyph-name="ycircumflex" unicode="&#x177;" horiz-adv-x="653" 
d="M392 264l114 237q17 36 59 36q27 0 46.5 -19t19.5 -47q0 -16 -7 -30l-282 -545q-51 -100 -170 -100q-53 0 -98 28.5t-45 66.5q0 23 15.5 41t38.5 18q19 0 45 -21t52 -21q39 0 61 50l37 82q-7 3 -13 15l-197 386q-7 14 -7 30q0 28 19.5 47t46.5 19q42 0 59 -36l114 -237
q41 -83 45 -109h2q4 26 45 109zM477 610l-136 112l-136 -112q-13 -10 -28 -10q-19 0 -32 13.5t-13 32.5q0 17 14 32l140 161q22 24 55 24t55 -24l140 -161q14 -15 14 -32q0 -19 -13 -32.5t-32 -13.5q-15 0 -28 10z" />
    <glyph glyph-name="Ydieresis" unicode="&#x178;" horiz-adv-x="686" 
d="M172 692l116 -179q40 -62 56 -101h2q16 41 53 99l115 181q19 31 58 31q29 0 49.5 -20.5t20.5 -49.5q0 -22 -12 -40l-220 -320q3 -173 3 -223q0 -29 -20.5 -49.5t-49.5 -20.5t-49.5 20.5t-20.5 49.5l3 223l-220 320q-12 17 -12 40q0 29 20.5 49.5t49.5 20.5q38 0 58 -31z
M567 898q0 -34 -24.5 -59t-59.5 -25q-34 0 -58.5 25t-24.5 59t24.5 59t58.5 25q35 0 59.5 -25t24.5 -59zM283 898q0 -34 -24.5 -59t-58.5 -25t-59 25t-25 59t25 59t59 25t58.5 -25t24.5 -59z" />
    <glyph glyph-name="Zacute" unicode="&#x179;" horiz-adv-x="726" 
d="M653 609l-335 -416q-38 -47 -78 -74l1 -2q62 12 118 12h249q27 0 46 -18.5t19 -46.5q0 -27 -19 -45.5t-46 -18.5h-483q-30 0 -47.5 20.5t-17.5 48.5q0 25 15 45l336 416q39 48 75 72l-1 2q-52 -10 -115 -10h-221q-27 0 -46.5 19t-19.5 46t19.5 45.5t46.5 18.5h450
q29 0 49.5 -20t20.5 -49q0 -26 -16 -45zM468 982q31 0 49.5 -20.5t18.5 -50.5q0 -51 -54 -65l-222 -62q-3 -1 -14 -1q-17 0 -28 10t-11 26q0 25 24 38l194 114q18 11 43 11z" />
    <glyph glyph-name="zacute" unicode="&#x17a;" horiz-adv-x="634" 
d="M542 426l-240 -264q-12 -13 -27 -26t-24 -20l-9 -7l1 -1q34 6 83 6h189q23 0 40 -17t17 -40t-17 -40t-40 -17h-387q-27 0 -46 19t-19 46q0 26 18 47l239 263q12 13 26.5 26.5t23.5 20.5l8 7l-1 1q-36 -7 -85 -7h-157q-23 0 -40 17t-17 40t17 40t40 17h360q27 0 46 -18.5
t19 -45.5t-18 -47zM470 793q0 -37 -29 -57l-190 -129q-10 -7 -23 -7q-18 0 -29.5 10t-11.5 28q0 16 12 30l147 173q21 24 53 24q29 0 50 -21.5t21 -50.5z" />
    <glyph glyph-name="Zdotaccent" unicode="&#x17b;" horiz-adv-x="726" 
d="M653 609l-335 -416q-38 -47 -78 -74l1 -2q62 12 118 12h249q27 0 46 -18.5t19 -46.5q0 -27 -19 -45.5t-46 -18.5h-483q-30 0 -47.5 20.5t-17.5 48.5q0 25 15 45l336 416q39 48 75 72l-1 2q-52 -10 -115 -10h-221q-27 0 -46.5 19t-19.5 46t19.5 45.5t46.5 18.5h450
q29 0 49.5 -20t20.5 -49q0 -26 -16 -45zM455 880q0 -38 -26.5 -64.5t-64.5 -26.5t-64.5 26.5t-26.5 64.5t26.5 64.5t64.5 26.5t64.5 -26.5t26.5 -64.5z" />
    <glyph glyph-name="zdotaccent" unicode="&#x17c;" horiz-adv-x="634" 
d="M542 426l-240 -264q-12 -13 -27 -26t-24 -20l-9 -7l1 -1q34 6 83 6h189q23 0 40 -17t17 -40t-17 -40t-40 -17h-387q-27 0 -46 19t-19 46q0 26 18 47l239 263q12 13 26.5 26.5t23.5 20.5l8 7l-1 1q-36 -7 -85 -7h-157q-23 0 -40 17t-17 40t17 40t40 17h360q27 0 46 -18.5
t19 -45.5t-18 -47zM409 720q0 -38 -26.5 -64.5t-64.5 -26.5t-64.5 26.5t-26.5 64.5t26.5 64.5t64.5 26.5t64.5 -26.5t26.5 -64.5z" />
    <glyph glyph-name="Zcaron" unicode="&#x17d;" horiz-adv-x="726" 
d="M653 609l-335 -416q-38 -47 -78 -74l1 -2q62 12 118 12h249q27 0 46 -18.5t19 -46.5q0 -27 -19 -45.5t-46 -18.5h-483q-30 0 -47.5 20.5t-17.5 48.5q0 25 15 45l336 416q39 48 75 72l-1 2q-52 -10 -115 -10h-221q-27 0 -46.5 19t-19.5 46t19.5 45.5t46.5 18.5h450
q29 0 49.5 -20t20.5 -49q0 -26 -16 -45zM226 983l146 -71l146 71q15 7 30 7q18 0 29 -10.5t11 -27.5q0 -21 -17 -35l-144 -118q-30 -24 -55 -24q-33 0 -55 24l-144 118q-17 14 -17 35q0 17 11 27.5t29 10.5q15 0 30 -7z" />
    <glyph glyph-name="zcaron" unicode="&#x17e;" horiz-adv-x="634" 
d="M542 426l-240 -264q-12 -13 -27 -26t-24 -20l-9 -7l1 -1q34 6 83 6h189q23 0 40 -17t17 -40t-17 -40t-40 -17h-387q-27 0 -46 19t-19 46q0 26 18 47l239 263q12 13 26.5 26.5t23.5 20.5l8 7l-1 1q-36 -7 -85 -7h-157q-23 0 -40 17t-17 40t17 40t40 17h360q27 0 46 -18.5
t19 -45.5t-18 -47zM186 854l136 -112l136 112q13 10 28 10q19 0 32 -13.5t13 -32.5q0 -17 -14 -32l-140 -161q-22 -24 -55 -24t-55 24l-140 161q-14 15 -14 32q0 19 13 32.5t32 13.5q15 0 28 -10z" />
    <glyph glyph-name="florin" unicode="&#x192;" horiz-adv-x="742" 
d="M721 631q0 -23 -15 -39.5t-37 -16.5q-21 0 -39 16q-3 2 -9 8t-8.5 7.5l-8 5t-9 5t-9.5 2.5t-13 1q-26 0 -42 -18t-21 -43l-17 -83h63q25 0 42.5 -17.5t17.5 -42.5t-17.5 -42.5t-42.5 -17.5h-88l-70 -357q-17 -87 -60 -131.5t-122 -44.5q-50 0 -96 21t-71 61
q-10 17 -10 35q0 23 15.5 39.5t37.5 16.5q23 0 41 -16q2 -2 11 -10t11.5 -10t9.5 -8t10.5 -7.5l9.5 -4t11.5 -3.5t11.5 -1q40 0 56 59l70 361h-68q-25 0 -42.5 17.5t-17.5 42.5t17.5 42.5t42.5 17.5h92l19 90q16 76 70 121t127 45q42 0 79 -17t57 -47q11 -17 11 -37z" />
    <glyph glyph-name="Aringacute" unicode="&#x1fa;" horiz-adv-x="760" 
d="M719 68q0 -30 -19.5 -49t-48.5 -19q-49 0 -67 43l-48 115h-314l-48 -115q-18 -43 -65 -43q-27 0 -46.5 19t-19.5 49q0 16 6 30l259 593q-61 38 -61 109q0 54 39 92.5t95 38.5t95.5 -38.5t39.5 -92.5q0 -70 -62 -109l260 -593q5 -11 5 -30zM481 1119q31 0 49.5 -20.5
t18.5 -50.5q0 -51 -54 -65l-222 -62q-3 -1 -14 -1q-17 0 -28 10t-11 26q0 25 24 38l194 114q18 11 43 11zM343 455l-72 -177h216l-72 177q-33 77 -34 116h-3q-1 -31 -35 -116zM321 800q0 -27 16.5 -44.5t43.5 -17.5t43.5 17.5t16.5 44.5t-16.5 45t-43.5 18t-43.5 -18
t-16.5 -45z" />
    <glyph glyph-name="aringacute" unicode="&#x1fb;" horiz-adv-x="722" 
d="M333 -5q-114 0 -188.5 78.5t-74.5 194.5q0 115 74.5 194.5t188.5 79.5q50 0 92.5 -19.5t64.5 -54.5q0 28 15 49t48 21q29 0 46.5 -19t17.5 -47v-407q0 -28 -17.5 -47t-46.5 -19q-34 0 -48.5 22t-14.5 51q-22 -35 -63.5 -56t-93.5 -21zM485 268q0 70 -38.5 116.5
t-103.5 46.5q-64 0 -102.5 -46t-38.5 -117t38 -116.5t103 -45.5q66 0 104 46t38 116zM205 719q0 54 39 92.5t95 38.5t95.5 -38.5t39.5 -92.5t-39.5 -91.5t-95.5 -37.5t-95 37.5t-39 91.5zM279 719q0 -27 16.5 -44.5t43.5 -17.5t43.5 17.5t16.5 44.5t-16.5 45t-43.5 18
t-43.5 -18t-16.5 -45zM442 1062q31 0 49.5 -20.5t18.5 -50.5q0 -51 -54 -65l-222 -62q-3 -1 -14 -1q-17 0 -28 10t-11 26q0 25 24 38l194 114q18 11 43 11z" />
    <glyph glyph-name="AEacute" unicode="&#x1fc;" horiz-adv-x="814" 
d="M762 65q0 -27 -19 -46t-46 -19h-250q-29 0 -49.5 21t-20.5 49v88h-158l-49 -118q-16 -40 -63 -40q-27 0 -47 20t-20 47q0 17 6 31l273 581q20 44 65 44h313q27 0 46 -19t19 -46q0 -28 -19 -47t-46 -19h-185v-166h124q27 0 46 -18.5t19 -45.5t-19 -45.5t-46 -18.5h-124
v-167h185q27 0 46 -19t19 -47zM377 282v184q0 31 4 55l-2 1q-6 -20 -20 -50l-90 -190h108zM575 982q31 0 49.5 -20.5t18.5 -50.5q0 -51 -54 -65l-222 -62q-3 -1 -14 -1q-17 0 -28 10t-11 26q0 25 24 38l194 114q18 11 43 11z" />
    <glyph glyph-name="aeacute" unicode="&#x1fd;" horiz-adv-x="976" 
d="M414 139l1 86h-150q-69 0 -69 -59q0 -31 25.5 -49t73.5 -18q63 0 119 40zM664 439q-58 0 -90.5 -34t-34.5 -85h245q-2 52 -32.5 85.5t-87.5 33.5zM671 -5q-50 0 -99.5 21.5t-80.5 54.5q-96 -76 -196 -76q-96 0 -160.5 42t-64.5 126q0 75 53 120q46 40 133 40h159v25
q0 91 -99 91q-45 0 -117 -38q-22 -11 -37 -11q-23 0 -36 14.5t-13 37.5q0 31 27 49q75 51 172 51q132 0 179 -73q61 73 182 73q103 0 169.5 -76.5t66.5 -188.5q0 -24 -17.5 -40t-41.5 -16h-315q13 -51 48.5 -87t89.5 -36q56 0 106 41q22 19 41 19q22 0 37.5 -14.5
t15.5 -39.5q0 -38 -56.5 -73.5t-145.5 -35.5zM650 793q0 -37 -29 -57l-190 -129q-11 -7 -23 -7q-18 0 -29.5 10t-11.5 28q0 16 12 30l147 173q21 24 53 24q29 0 50 -21.5t21 -50.5z" />
    <glyph glyph-name="Oslashacute" unicode="&#x1fe;" horiz-adv-x="888" 
d="M805 362q0 -154 -107 -263t-258 -109q-82 0 -153 34q-25 -33 -56 -33q-26 0 -44.5 18t-18.5 45q0 20 15 43q-108 110 -108 265t106.5 263t258.5 108q82 0 157 -36q23 35 57 35q26 0 44.5 -18t18.5 -45q0 -20 -18 -46q106 -108 106 -261zM216 362q0 -90 43 -154l268 387
q-44 18 -87 18q-97 0 -160.5 -72t-63.5 -179zM664 362q0 84 -41 150l-266 -387q40 -16 83 -16q97 0 160.5 73t63.5 180zM538 982q31 0 49.5 -20.5t18.5 -50.5q0 -51 -54 -65l-222 -62q-3 -1 -14 -1q-17 0 -28 10t-11 26q0 25 24 38l194 114q18 11 43 11z" />
    <glyph glyph-name="oslashacute" unicode="&#x1ff;" horiz-adv-x="688" 
d="M549 467l-7 -10q75 -80 75 -189q0 -113 -80 -193t-194 -80q-57 0 -110 22l-9 -13q-17 -23 -46 -23q-18 0 -32 10q-24 18 -24 46q0 18 10 32l10 14q-72 77 -72 185q0 114 80 194t193 80q53 0 106 -21l8 11q17 23 46 23q18 0 32 -10q24 -18 24 -46q0 -18 -10 -32zM485 268
q0 44 -17 83l-168 -239q20 -6 43 -6q66 0 104 46t38 116zM202 268q0 -43 15 -79l165 237q-20 5 -39 5q-65 0 -103 -46.5t-38 -116.5zM475 793q0 -37 -29 -57l-190 -129q-10 -7 -23 -7q-18 0 -29.5 10t-11.5 28q0 16 12 30l147 173q21 24 53 24q29 0 50 -21.5t21 -50.5z" />
    <glyph glyph-name="uni0218" unicode="&#x218;" horiz-adv-x="768" 
d="M700 218q0 -104 -78 -165.5t-216 -61.5q-203 0 -310 117q-16 19 -16 46q0 28 18.5 45t46.5 17q23 0 47 -24q84 -83 213 -83q65 0 108.5 30.5t43.5 73.5q0 35 -26.5 57.5t-90.5 34.5q-15 3 -67 11t-74 12q-203 44 -203 195q0 87 78.5 148t220.5 61t239 -68q35 -24 35 -61
q0 -24 -18 -41.5t-42 -17.5q-21 0 -53 22q-73 50 -155 50q-79 0 -121.5 -25.5t-42.5 -60.5q0 -59 87 -77q16 -4 52.5 -10l74.5 -12t47 -8q96 -18 149 -70t53 -135zM474 -104q0 -37 -29 -63q-28 -24 -59 -38q-23 -10 -36 -10q-12 0 -22 8.5t-10 21.5q0 10 16.5 22.5
t16.5 20.5q0 6 -7.5 12t-15.5 17t-8 28q0 21 21 38t53 17q35 0 57.5 -20.5t22.5 -53.5z" />
    <glyph glyph-name="uni0219" unicode="&#x219;" horiz-adv-x="673" 
d="M583 164q0 -88 -70 -128.5t-185 -40.5q-69 0 -135 24t-100 58q-19 19 -19 42q0 21 15 37.5t38 16.5q17 0 34 -14q75 -62 180 -62q114 0 114 60q0 42 -59 54q-25 5 -78.5 14t-78.5 15q-148 34 -148 139q0 69 59.5 116t179.5 47q126 0 193 -55q19 -16 19 -42
q0 -22 -14.5 -36t-35.5 -14q-8 0 -15 3t-19 10.5t-18 10.5q-48 25 -113 25q-49 0 -78.5 -15.5t-29.5 -39.5q0 -26 19.5 -35.5t67.5 -17.5l46 -7t51 -8q102 -19 141 -58t39 -99zM417 -104q0 -37 -29 -63q-28 -24 -59 -38q-23 -10 -36 -10q-12 0 -22 8.5t-10 21.5
q0 10 16.5 22.5t16.5 20.5q0 6 -8 12t-15.5 17t-7.5 28q0 21 21 38t53 17q35 0 57.5 -20.5t22.5 -53.5z" />
    <glyph glyph-name="uni021A" unicode="&#x21a;" horiz-adv-x="650" 
d="M104 723h452q26 0 44 -18.5t18 -43.5t-18 -43t-44 -18h-156v-530q0 -29 -20.5 -49.5t-49.5 -20.5t-49.5 20.5t-20.5 49.5v530h-156q-26 0 -44 18t-18 43t18 43.5t44 18.5zM404 -94q0 -37 -29 -63q-28 -24 -59 -38q-22 -10 -36 -10q-12 0 -22 8.5t-10 21.5q0 10 16.5 22.5
t16.5 20.5q0 6 -7.5 12t-15.5 17t-8 28q0 21 21 38t53 17q35 0 57.5 -20.5t22.5 -53.5z" />
    <glyph glyph-name="uni021B" unicode="&#x21b;" horiz-adv-x="546" 
d="M419 423h-113v-244q0 -67 56 -67q26 0 51.5 21.5t44.5 21.5q23 0 40.5 -16.5t17.5 -42.5q0 -46 -47.5 -74t-106.5 -28q-88 0 -138 53.5t-50 146.5v229h-77q-23 0 -40 17t-17 40t17 40t40 17h77v131q0 27 19.5 46.5t46.5 19.5q28 0 47 -19.5t19 -46.5v-131h113
q23 0 40 -17t17 -40t-17 -40t-40 -17zM431 -94q0 -37 -29 -63q-28 -24 -59 -38q-22 -10 -36 -10q-12 0 -22 8.5t-10 21.5q0 10 16.5 22.5t16.5 20.5q0 6 -8 12t-15.5 17t-7.5 28q0 21 21 38t53 17q35 0 57.5 -20.5t22.5 -53.5z" />
    <glyph glyph-name="circumflex" unicode="&#x2c6;" horiz-adv-x="436" 
d="M354 610l-136 112l-136 -112q-13 -10 -28 -10q-19 0 -32 13.5t-13 32.5q0 17 14 32l140 161q22 24 55 24t55 -24l140 -161q14 -15 14 -32q0 -19 -13 -32.5t-32 -13.5q-15 0 -28 10z" />
    <glyph glyph-name="caron" unicode="&#x2c7;" horiz-adv-x="436" 
d="M82 854l136 -112l136 112q13 10 28 10q19 0 32 -13.5t13 -32.5q0 -17 -14 -32l-140 -161q-22 -24 -55 -24t-55 24l-140 161q-14 15 -14 32q0 19 13 32.5t32 13.5q15 0 28 -10z" />
    <glyph glyph-name="breve" unicode="&#x2d8;" horiz-adv-x="432" 
d="M216 640q-75 0 -129 35.5t-73 103.5q-4 12 -4 26q0 22 16.5 39.5t40.5 17.5q20 0 34.5 -12t19.5 -27q7 -21 14.5 -34.5t28.5 -26t52 -12.5t52 12.5t28.5 26t14.5 34.5q5 15 19.5 27t34.5 12q24 0 40.5 -17.5t16.5 -39.5q0 -14 -4 -26q-20 -67 -74 -103t-128 -36z" />
    <glyph glyph-name="dotaccent" unicode="&#x2d9;" horiz-adv-x="314" 
d="M248 720q0 -38 -27 -64.5t-64 -26.5t-64 26.5t-27 64.5t27 64.5t64 26.5t64 -26.5t27 -64.5z" />
    <glyph glyph-name="ring" unicode="&#x2da;" horiz-adv-x="289" 
d="M10 729q0 54 39 92.5t95 38.5t95.5 -38.5t39.5 -92.5t-39.5 -91.5t-95.5 -37.5t-95 37.5t-39 91.5zM84 729q0 -27 16.5 -44.5t43.5 -17.5t43.5 17.5t16.5 44.5t-16.5 45t-43.5 18t-43.5 -18t-16.5 -45z" />
    <glyph glyph-name="ogonek" unicode="&#x2db;" horiz-adv-x="216" 
d="M111 22h54q-41 -31 -60 -60q-15 -22 -15 -47q0 -42 42 -42q10 0 27 6.5t26 6.5q15 0 25 -10.5t10 -26.5q0 -22 -21 -34q-31 -19 -79 -19q-45 0 -77.5 24t-32.5 70q0 85 101 132z" />
    <glyph glyph-name="tilde" unicode="&#x2dc;" horiz-adv-x="459" 
d="M398 784q23 0 37 -15.5t14 -38.5q0 -15 -12 -35q-18 -30 -51.5 -47.5t-72.5 -17.5q-37 0 -85 19q-55 22 -73 22q-29 0 -61 -28q-12 -11 -33 -11q-23 0 -37 15.5t-14 38.5q0 15 12 35q18 29 52.5 47t72.5 18q36 0 84 -19q55 -22 73 -22q29 0 61 28q12 11 33 11z" />
    <glyph glyph-name="hungarumlaut" unicode="&#x2dd;" horiz-adv-x="513" 
d="M279 795q0 -34 -30 -56l-182 -132q-10 -7 -23 -7q-18 0 -29.5 10t-11.5 28q0 16 13 31l142 171q21 25 57 25q28 0 46 -20.5t18 -49.5zM511 795q0 -34 -30 -56l-182 -132q-11 -7 -23 -7q-18 0 -29.5 10t-11.5 28q0 16 13 31l142 171q21 25 57 25q28 0 46 -20.5t18 -49.5z
" />
    <glyph glyph-name="uni0394" unicode="&#x394;" horiz-adv-x="783" 
d="M723 76q0 -45 -42 -63q-13 -6 -27 -6h-529q-26 0 -45.5 21t-19.5 48q0 14 6 27l246 569q20 44 61 44h35q42 0 61 -43l248 -570q6 -13 6 -27zM559 129l-170 413l-170 -413h340z" />
    <glyph glyph-name="uni03A9" unicode="&#x3a9;" horiz-adv-x="801" 
d="M405 626q-84 0 -130 -54t-46 -139q0 -124 100 -174q36 -19 36 -53v-140q0 -27 -19 -46.5t-46 -19.5h-136q-26 0 -43.5 17.5t-17.5 42.5t17.5 42t43.5 17h90v65q-73 38 -116 104.5t-43 147.5q0 124 89.5 210.5t220.5 86.5t220.5 -86.5t89.5 -210.5q0 -81 -43 -147.5
t-116 -104.5v-65h90q26 0 43.5 -17t17.5 -42t-17.5 -42.5t-43.5 -17.5h-136q-27 0 -46 19.5t-19 46.5v140q0 34 36 53q100 50 100 174q0 85 -46 139t-130 54z" />
    <glyph glyph-name="uni03BC" unicode="&#x3bc;" horiz-adv-x="723" 
d="M105 -120v590q0 27 19.5 46.5t46.5 19.5t46.5 -19.5t19.5 -46.5v-222q0 -66 30.5 -104.5t92.5 -38.5t102 46.5t40 112.5v206q0 27 19.5 46.5t46.5 19.5t46.5 -19.5t19.5 -46.5v-402q0 -27 -19.5 -47.5t-46.5 -20.5q-28 0 -46 17t-20 46q-53 -69 -147 -69q-80 0 -129 30
l11 -144q2 -27 -18 -46.5t-48 -19.5q-27 0 -46.5 19.5t-19.5 46.5z" />
    <glyph glyph-name="pi" unicode="&#x3c0;" horiz-adv-x="781" 
d="M694 61q0 -25 -17.5 -43t-42.5 -18q-78 0 -130 51.5t-52 129.5v229h-122v-349q0 -25 -17 -43t-42 -18t-42.5 18t-17.5 43v349h-83q-26 0 -44.5 18.5t-18.5 44.5t18.5 45t44.5 19h515q26 0 45 -19t19 -45t-19 -44.5t-45 -18.5h-65v-229q0 -25 16.5 -42.5t39.5 -17.5
q25 0 42.5 -18t17.5 -42z" />
    <glyph glyph-name="Wgrave" unicode="&#x1e80;" horiz-adv-x="853" 
d="M777 653q0 -4 -2 -16l-140 -582q-6 -23 -23 -39t-41 -16h-26q-23 0 -39.5 14.5t-20.5 36.5l-36 186q-15 73 -19 118h-2q-2 -30 -21 -118l-41 -186q-5 -21 -21 -36t-39 -15h-32q-24 0 -41 16t-23 39l-138 581q-2 12 -2 16q0 31 19.5 51t48.5 20q27 0 46 -15t24 -40
l72 -368q16 -87 20 -134h2q1 51 18 134l54 251q5 20 19.5 32.5t35.5 12.5q43 0 53 -45l59 -250q17 -71 19 -135h2q4 72 16 134l70 368q4 25 22 40t42 15q29 0 47 -20t18 -50zM329 982q25 0 43 -11l194 -114q24 -13 24 -38q0 -16 -11 -26t-28 -10q-11 0 -14 1l-222 62
q-54 14 -54 65q0 30 18.5 50.5t49.5 20.5z" />
    <glyph glyph-name="wgrave" unicode="&#x1e81;" horiz-adv-x="797" 
d="M737 472q0 -11 -3 -20l-134 -406q-7 -21 -24 -33.5t-38 -12.5h-23q-18 0 -32.5 10.5t-19.5 28.5l-37 120l-26 89h-2q-13 -57 -23 -89l-38 -120q-13 -39 -51 -39h-29q-44 0 -59 46l-134 406q-4 8 -4 20q0 28 19 47t45 19q21 0 38.5 -12.5t24.5 -33.5l67 -229l22 -104h2
q12 70 23 104l48 146q14 39 51 39q18 0 33 -11t20 -28l46 -146l25 -104h2q8 57 22 104l67 229q7 21 24.5 33.5t38.5 12.5q26 0 42.5 -19t16.5 -47zM254 793q0 29 21 50.5t50 21.5q32 0 53 -24l147 -173q12 -14 12 -30q0 -18 -11.5 -28t-29.5 -10q-12 0 -23 7l-190 129
q-29 20 -29 57z" />
    <glyph glyph-name="Wacute" unicode="&#x1e82;" horiz-adv-x="853" 
d="M777 653q0 -4 -2 -16l-140 -582q-6 -23 -23 -39t-41 -16h-26q-23 0 -39.5 14.5t-20.5 36.5l-36 186q-15 73 -19 118h-2q-2 -30 -21 -118l-41 -186q-5 -21 -21 -36t-39 -15h-32q-24 0 -41 16t-23 39l-138 581q-2 12 -2 16q0 31 19.5 51t48.5 20q27 0 46 -15t24 -40
l72 -368q16 -87 20 -134h2q1 51 18 134l54 251q5 20 19.5 32.5t35.5 12.5q43 0 53 -45l59 -250q17 -71 19 -135h2q4 72 16 134l70 368q4 25 22 40t42 15q29 0 47 -20t18 -50zM530 982q31 0 49.5 -20.5t18.5 -50.5q0 -51 -54 -65l-222 -62q-3 -1 -14 -1q-17 0 -28 10t-11 26
q0 25 24 38l194 114q18 11 43 11z" />
    <glyph glyph-name="wacute" unicode="&#x1e83;" horiz-adv-x="797" 
d="M737 472q0 -11 -3 -20l-134 -406q-7 -21 -24 -33.5t-38 -12.5h-23q-18 0 -32.5 10.5t-19.5 28.5l-37 120l-26 89h-2q-13 -57 -23 -89l-38 -120q-13 -39 -51 -39h-29q-44 0 -59 46l-134 406q-4 8 -4 20q0 28 19 47t45 19q21 0 38.5 -12.5t24.5 -33.5l67 -229l22 -104h2
q12 70 23 104l48 146q14 39 51 39q18 0 33 -11t20 -28l46 -146l25 -104h2q8 57 22 104l67 229q7 21 24.5 33.5t38.5 12.5q26 0 42.5 -19t16.5 -47zM553 793q0 -37 -29 -57l-190 -129q-10 -7 -23 -7q-18 0 -29.5 10t-11.5 28q0 16 12 30l147 173q21 24 53 24q29 0 50 -21.5
t21 -50.5z" />
    <glyph glyph-name="Wdieresis" unicode="&#x1e84;" horiz-adv-x="853" 
d="M780 653q0 -4 -2 -16l-140 -582q-6 -23 -23 -39t-41 -16h-26q-23 0 -39.5 14.5t-20.5 36.5l-36 186q-15 73 -19 118h-2q-2 -30 -21 -118l-41 -186q-5 -21 -21 -36t-39 -15h-32q-24 0 -41 16t-23 39l-138 581q-2 12 -2 16q0 31 19.5 51t48.5 20q27 0 46 -15t24 -40
l72 -368q16 -87 20 -134h2q1 51 18 134l54 251q5 20 19.5 32.5t35.5 12.5q43 0 53 -45l59 -250q17 -71 19 -135h2q4 72 16 134l70 368q4 25 22 40t42 15q29 0 47 -20t18 -50zM659 880q0 -34 -24.5 -59t-59.5 -25q-34 0 -58.5 25t-24.5 59t24.5 59t58.5 25q35 0 59.5 -25
t24.5 -59zM375 880q0 -34 -24.5 -59t-58.5 -25t-59 25t-25 59t25 59t59 25t58.5 -25t24.5 -59z" />
    <glyph glyph-name="wdieresis" unicode="&#x1e85;" horiz-adv-x="797" 
d="M737 472q0 -11 -3 -20l-134 -406q-7 -21 -24 -33.5t-38 -12.5h-23q-18 0 -32.5 10.5t-19.5 28.5l-37 120l-26 89h-2q-13 -57 -23 -89l-38 -120q-13 -39 -51 -39h-29q-44 0 -59 46l-134 406q-4 8 -4 20q0 28 19 47t45 19q21 0 38.5 -12.5t24.5 -33.5l67 -229l22 -104h2
q12 70 23 104l48 146q14 39 51 39q18 0 33 -11t20 -28l46 -146l25 -104h2q8 57 22 104l67 229q7 21 24.5 33.5t38.5 12.5q26 0 42.5 -19t16.5 -47zM626 712q0 -34 -25 -59t-59 -25t-58.5 25t-24.5 59t24.5 59t58.5 25t59 -25t25 -59zM342 712q0 -34 -24.5 -59t-58.5 -25
q-35 0 -59.5 25t-24.5 59t24.5 59t59.5 25q34 0 58.5 -25t24.5 -59z" />
    <glyph glyph-name="Ygrave" unicode="&#x1ef2;" horiz-adv-x="686" 
d="M172 692l116 -179q40 -62 56 -101h2q16 41 53 99l115 181q19 31 58 31q29 0 49.5 -20.5t20.5 -49.5q0 -22 -12 -40l-220 -320q3 -173 3 -223q0 -29 -20.5 -49.5t-49.5 -20.5t-49.5 20.5t-20.5 49.5l3 223l-220 320q-12 17 -12 40q0 29 20.5 49.5t49.5 20.5q38 0 58 -31z
M242 982q25 0 43 -11l194 -114q24 -13 24 -38q0 -16 -11 -26t-28 -10q-11 0 -14 1l-222 62q-54 14 -54 65q0 30 18.5 50.5t49.5 20.5z" />
    <glyph glyph-name="ygrave" unicode="&#x1ef3;" horiz-adv-x="653" 
d="M392 264l114 237q17 36 59 36q27 0 46.5 -19t19.5 -47q0 -16 -7 -30l-282 -545q-51 -100 -170 -100q-53 0 -98 28.5t-45 66.5q0 23 15.5 41t38.5 18q19 0 45 -21t52 -21q39 0 61 50l37 82q-7 3 -13 15l-197 386q-7 14 -7 30q0 28 19.5 47t46.5 19q42 0 59 -36l114 -237
q41 -83 45 -109h2q4 26 45 109zM193 793q0 29 21 50.5t50 21.5q32 0 53 -24l147 -173q12 -14 12 -30q0 -18 -11.5 -28t-29.5 -10q-12 0 -23 7l-190 129q-29 20 -29 57z" />
    <glyph glyph-name="enspace" unicode="&#x2002;" horiz-adv-x="500" 
 />
    <glyph glyph-name="emspace" unicode="&#x2003;" horiz-adv-x="1000" 
 />
    <glyph glyph-name="threeperemspace" unicode="&#x2004;" horiz-adv-x="333" 
 />
    <glyph glyph-name="fourperemspace" unicode="&#x2005;" horiz-adv-x="250" 
 />
    <glyph glyph-name="thinspace" unicode="&#x2009;" horiz-adv-x="133" 
 />
    <glyph glyph-name="hairspace" unicode="&#x200a;" horiz-adv-x="75" 
 />
    <glyph glyph-name="endash" unicode="&#x2013;" horiz-adv-x="626" 
d="M551 219h-475q-23 0 -39.5 16.5t-16.5 39.5t16.5 39.5t39.5 16.5h475q23 0 39.5 -16.5t16.5 -39.5t-16.5 -39.5t-39.5 -16.5z" />
    <glyph glyph-name="emdash" unicode="&#x2014;" horiz-adv-x="1450" 
d="M1284 219h-1118q-23 0 -39.5 16.5t-16.5 39.5t16.5 39.5t39.5 16.5h1118q23 0 39.5 -16.5t16.5 -39.5t-16.5 -39.5t-39.5 -16.5z" />
    <glyph glyph-name="quoteleft" unicode="&#x2018;" horiz-adv-x="426" 
d="M211 344q-49 0 -79 40q-28 37 -28 95q0 37 17.5 81.5t43.5 76.5q46 57 90 86q19 12 34 12q17 0 28.5 -11.5t11.5 -28.5q0 -22 -24 -38q-25 -16 -48.5 -44.5t-23.5 -51.5q0 -13 12 -16q29 -9 50 -36t21 -62q0 -43 -30.5 -73t-74.5 -30z" />
    <glyph glyph-name="quoteright" unicode="&#x2019;" horiz-adv-x="426" 
d="M215 728q49 0 79 -40q28 -37 28 -95q0 -37 -17.5 -81.5t-43.5 -76.5q-46 -57 -90 -86q-19 -12 -34 -12q-17 0 -28.5 11.5t-11.5 28.5q0 22 24 38q25 16 48.5 44.5t23.5 51.5q0 13 -12 16q-29 9 -50 36t-21 62q0 43 30.5 73t74.5 30z" />
    <glyph glyph-name="quotesinglbase" unicode="&#x201a;" horiz-adv-x="426" 
d="M215 201q49 0 79 -40q28 -37 28 -95q0 -37 -17.5 -81.5t-43.5 -76.5q-46 -57 -90 -86q-19 -12 -34 -12q-17 0 -28.5 12t-11.5 28q0 22 24 38q25 16 48.5 44.5t23.5 51.5q0 13 -12 16q-29 9 -50 36t-21 62q0 43 30.5 73t74.5 30z" />
    <glyph glyph-name="quotedblleft" unicode="&#x201c;" horiz-adv-x="679" 
d="M464 344q-49 0 -79 40q-28 37 -28 95q0 37 17.5 81.5t43.5 76.5q46 57 90 86q19 12 34 12q16 0 28 -11.5t12 -28.5q0 -22 -24 -38q-25 -16 -48.5 -44.5t-23.5 -51.5q0 -13 12 -16q29 -9 50 -36t21 -62q0 -43 -30.5 -73t-74.5 -30zM211 344q-49 0 -79 40q-28 37 -28 95
q0 37 17.5 81.5t43.5 76.5q46 57 90 86q19 12 34 12q17 0 28.5 -11.5t11.5 -28.5q0 -22 -24 -38q-25 -16 -48.5 -44.5t-23.5 -51.5q0 -13 12 -16q29 -9 50 -36t21 -62q0 -43 -30.5 -73t-74.5 -30z" />
    <glyph glyph-name="quotedblright" unicode="&#x201d;" horiz-adv-x="679" 
d="M215 728q49 0 79 -40q28 -37 28 -95q0 -37 -17.5 -81.5t-43.5 -76.5q-46 -57 -90 -86q-19 -12 -34 -12q-17 0 -28.5 11.5t-11.5 28.5q0 22 24 38q25 16 48.5 44.5t23.5 51.5q0 13 -12 16q-29 9 -50 36t-21 62q0 43 30.5 73t74.5 30zM468 728q49 0 79 -40q28 -37 28 -95
q0 -37 -17.5 -81.5t-43.5 -76.5q-46 -57 -90 -86q-19 -12 -34 -12q-16 0 -28 11.5t-12 28.5q0 22 24 38q25 16 48.5 44.5t23.5 51.5q0 13 -12 16q-29 9 -50 36t-21 62q0 43 30.5 73t74.5 30z" />
    <glyph glyph-name="quotedblbase" unicode="&#x201e;" horiz-adv-x="679" 
d="M215 201q49 0 79 -40q28 -37 28 -95q0 -37 -17.5 -81.5t-43.5 -76.5q-46 -57 -90 -86q-19 -12 -34 -12q-17 0 -28.5 12t-11.5 28q0 22 24 38q25 16 48.5 44.5t23.5 51.5q0 13 -12 16q-29 9 -50 36t-21 62q0 43 30.5 73t74.5 30zM468 201q49 0 79 -40q28 -37 28 -95
q0 -37 -17.5 -81.5t-43.5 -76.5q-46 -57 -90 -86q-19 -12 -34 -12q-16 0 -28 12t-12 28q0 22 24 38q25 16 48.5 44.5t23.5 51.5q0 13 -12 16q-29 9 -50 36t-21 62q0 43 30.5 73t74.5 30z" />
    <glyph glyph-name="dagger" unicode="&#x2020;" horiz-adv-x="720" 
d="M304 536v130q0 23 16.5 40t39.5 17t40 -17t17 -40v-130h145q22 0 37.5 -15t15.5 -35q0 -21 -15.5 -36.5t-37.5 -15.5h-145v-377q0 -23 -17 -40t-40 -17t-39.5 17t-16.5 40v377h-146q-22 0 -37.5 15.5t-15.5 36.5q0 20 15.5 35t37.5 15h146z" />
    <glyph glyph-name="daggerdbl" unicode="&#x2021;" horiz-adv-x="720" 
d="M304 188h-146q-22 0 -37.5 15t-15.5 35q0 21 15.5 36.5t37.5 15.5h146v144h-146q-22 0 -37.5 15.5t-15.5 36.5q0 20 15.5 35t37.5 15h146v130q0 23 16.5 40t39.5 17t40 -17t17 -40v-130h145q22 0 37.5 -15t15.5 -35q0 -21 -15.5 -36.5t-37.5 -15.5h-145v-144h145
q22 0 37.5 -15.5t15.5 -36.5q0 -20 -15.5 -35t-37.5 -15h-145v-131q0 -23 -17 -40t-40 -17t-39.5 17t-16.5 40v131z" />
    <glyph glyph-name="bullet" unicode="&#x2022;" horiz-adv-x="578" 
d="M473 361q0 -77 -53.5 -130.5t-130.5 -53.5q-76 0 -130 54t-54 130t54 130t130 54t130 -54t54 -130z" />
    <glyph glyph-name="ellipsis" unicode="&#x2026;" horiz-adv-x="1028" 
d="M60 98q0 43 30 73t73 30t73 -30t30 -73t-30 -73t-73 -30t-73 30t-30 73zM386 98q0 43 30 73t73 30t73 -30t30 -73t-30 -73t-73 -30t-73 30t-30 73zM712 98q0 43 30 73t73 30t73 -30t30 -73t-30 -73t-73 -30t-73 30t-30 73z" />
    <glyph glyph-name="perthousand" unicode="&#x2030;" horiz-adv-x="1322" 
d="M848 163q0 -70 -49 -119t-119 -49t-119 49t-49 119t49 119t119 49t119 -49t49 -119zM426 562q0 -70 -50 -120.5t-121 -50.5t-121 50.5t-50 120.5q0 71 50 121t121 50t121 -50t50 -121zM739 740l-456 -822q-16 -29 -49 -29q-14 0 -27 7q-29 16 -29 49q0 14 7 27l456 822
q16 29 49 29q14 0 27 -7q29 -16 29 -49q0 -14 -7 -27zM188 562q0 -31 19 -53.5t48 -22.5t48 22.5t19 53.5t-19 53.5t-48 22.5t-48 -22.5t-19 -53.5zM613 163q0 -31 19 -53.5t48 -22.5t48 22.5t19 53.5t-19 53.5t-48 22.5t-48 -22.5t-19 -53.5zM1238 163q0 -70 -49 -119
t-119 -49t-119 49t-49 119t49 119t119 49t119 -49t49 -119zM1003 163q0 -31 19 -53.5t48 -22.5t48 22.5t19 53.5t-19 53.5t-48 22.5t-48 -22.5t-19 -53.5z" />
    <glyph glyph-name="guilsinglleft" unicode="&#x2039;" horiz-adv-x="399" 
d="M347 467l-113 -199l113 -199q7 -14 7 -26q0 -19 -13 -31.5t-31 -12.5q-23 0 -36 17l-160 200q-2 2 -6 7t-5 7t-4 6t-4 7t-2.5 7t-2 8.5t-0.5 9.5q0 6 1 11.5t2 8.5t4 8.5t4 7t6.5 8.5t6.5 8l160 200q13 17 36 17q18 0 31 -12.5t13 -31.5q0 -12 -7 -26z" />
    <glyph glyph-name="guilsinglright" unicode="&#x203a;" horiz-adv-x="399" 
d="M45 43q0 12 7 26l113 199l-113 199q-7 14 -7 26q0 19 13 31.5t31 12.5q23 0 36 -17l160 -200q2 -2 6 -7t5 -7t4 -6t4 -7t2.5 -7t2 -8.5t0.5 -9.5q0 -6 -1 -11.5t-2 -8.5t-4 -8.5t-4 -7t-6.5 -8.5t-6.5 -8l-160 -200q-13 -17 -36 -17q-18 0 -31 12.5t-13 31.5z" />
    <glyph glyph-name="fraction" unicode="&#x2044;" horiz-adv-x="295" 
d="M424 740l-456 -822q-16 -29 -49 -29q-14 0 -27 7q-29 16 -29 49q0 14 7 27l456 822q16 29 49 29q14 0 27 -7q29 -16 29 -49q0 -14 -7 -27z" />
    <glyph glyph-name="Euro" unicode="&#x20ac;" horiz-adv-x="846" 
d="M471 249h-207q27 -64 80.5 -102t122.5 -38q37 0 70 11t59.5 33t38.5 34t30 33q21 24 49 24q26 0 44 -17.5t18 -44.5q0 -26 -13 -44q-49 -70 -126 -109t-170 -39q-122 0 -217.5 72t-131.5 187h-38q-20 0 -33 13.5t-13 33.5q0 19 13.5 32t32.5 13h21v21q0 28 2 42h-23
q-19 0 -32.5 13t-13.5 32q0 20 13 33.5t33 13.5h45q40 106 133 171.5t209 65.5q162 0 252 -92l31.5 -33.5t18 -28t8.5 -35.5q0 -26 -17.5 -43.5t-41.5 -17.5q-16 0 -28 6.5t-19 14.5t-18.5 22.5t-21.5 24.5q-61 61 -164 61q-62 0 -112.5 -31t-80.5 -85h197q20 0 33 -13.5
t13 -33.5q0 -19 -13.5 -32t-32.5 -13h-226q-3 -21 -3 -42v-21h229q19 0 32.5 -13t13.5 -32q0 -20 -13 -33.5t-33 -13.5z" />
    <glyph glyph-name="trademark" unicode="&#x2122;" horiz-adv-x="864" 
d="M756 680v-289q0 -18 -12.5 -30t-30.5 -12t-29.5 12.5t-11.5 29.5v122q0 27 7 72h-1q-10 -26 -28 -65l-28 -59q-9 -19 -31 -19q-21 0 -31 19l-28 59q-14 30 -26 65h-1q5 -70 5 -72v-122q0 -18 -11 -30t-29 -12t-28.5 12t-10.5 30v289q0 18 12 30.5t30 12.5h17q26 0 35 -23
l47 -111q19 -45 19 -50h1q0 7 19 50l48 111q11 23 36 23h19q17 0 29.5 -12.5t12.5 -30.5zM386 683q0 -17 -12 -28.5t-28 -11.5h-69v-252q0 -17 -12 -29.5t-30 -12.5q-17 0 -29.5 12.5t-12.5 29.5v252h-68q-17 0 -28.5 11.5t-11.5 28.5t11.5 28.5t28.5 11.5h221
q16 0 28 -11.5t12 -28.5z" />
    <glyph glyph-name="Omega" unicode="&#x2126;" horiz-adv-x="801" 
d="M405 626q-84 0 -130 -54t-46 -139q0 -124 100 -174q36 -19 36 -53v-140q0 -27 -19 -46.5t-46 -19.5h-136q-26 0 -43.5 17.5t-17.5 42.5t17.5 42t43.5 17h90v65q-73 38 -116 104.5t-43 147.5q0 124 89.5 210.5t220.5 86.5t220.5 -86.5t89.5 -210.5q0 -81 -43 -147.5
t-116 -104.5v-65h90q26 0 43.5 -17t17.5 -42t-17.5 -42.5t-43.5 -17.5h-136q-27 0 -46 19.5t-19 46.5v140q0 34 36 53q100 50 100 174q0 85 -46 139t-130 54z" />
    <glyph glyph-name="onethird" unicode="&#x2153;" horiz-adv-x="1144" 
d="M806 740l-456 -822q-16 -29 -49 -29q-14 0 -27 7q-29 16 -29 49q0 14 7 27l456 822q16 29 49 29q14 0 27 -7q29 -16 29 -49q0 -14 -7 -27zM283 671v-339q0 -22 -15 -37t-37 -15t-37 15t-15 37v220q0 35 4 46l-2 2q-12 -14 -20 -20l-32 -23q-17 -12 -33 -12q-25 0 -40 21
q-9 14 -9 29q0 26 21 41l107 75q17 12 33 12h23q22 0 37 -15t15 -37zM1079 136q0 -63 -47.5 -102.5t-144.5 -39.5q-63 0 -141 34q-27 12 -27 45q0 19 13.5 33t34.5 14q13 0 23 -6q50 -29 97 -29q40 0 62.5 14t22.5 38q0 26 -21.5 39t-76.5 14q-20 0 -34 13.5t-14 33.5
q0 19 14 32t34 14q41 2 59 9.5t18 24.5q0 40 -68 40q-32 0 -74 -19q-14 -6 -25 -6q-21 0 -34 12t-13 32q0 32 32 46q58 27 114 27q79 0 126.5 -35.5t47.5 -94.5q0 -57 -48 -76q34 -14 52 -43t18 -64z" />
    <glyph glyph-name="twothirds" unicode="&#x2154;" horiz-adv-x="1231" 
d="M898 740l-456 -822q-16 -29 -49 -29q-14 0 -27 7q-29 16 -29 49q0 14 7 27l456 822q16 29 49 29q14 0 27 -7q29 -16 29 -49q0 -14 -7 -27zM367 280h-248q-20 0 -34.5 14.5t-14.5 36.5q0 41 15.5 72.5t46 54t56 35t66.5 28.5q21 8 34 23t13 33q0 28 -15.5 44t-43.5 16
q-52 0 -60 -50q-7 -38 -49 -38q-22 0 -36.5 13t-14.5 35q0 54 48 93t114 39q71 0 115.5 -40.5t44.5 -111.5q0 -57 -31 -91.5t-93 -58.5q-76 -30 -90 -51h177q19 0 33 -14.5t14 -34.5t-14 -33.5t-33 -13.5zM1166 136q0 -63 -47.5 -102.5t-144.5 -39.5q-63 0 -141 34
q-27 12 -27 45q0 19 13.5 33t34.5 14q12 0 23 -6q50 -29 97 -29q40 0 62.5 14t22.5 38q0 26 -21.5 39t-76.5 14q-20 0 -34 13.5t-14 33.5q0 19 14 32t34 14q41 2 59 9.5t18 24.5q0 40 -68 40q-32 0 -74 -19q-14 -6 -25 -6q-21 0 -34 12t-13 32q0 32 32 46q58 27 114 27
q79 0 126.5 -35.5t47.5 -94.5q0 -57 -48 -76q34 -14 52 -43t18 -64z" />
    <glyph glyph-name="oneeighth" unicode="&#x215b;" horiz-adv-x="1128" 
d="M806 740l-456 -822q-16 -29 -49 -29q-14 0 -27 7q-29 16 -29 49q0 14 7 27l456 822q16 29 49 29q14 0 27 -7q29 -16 29 -49q0 -14 -7 -27zM283 671v-339q0 -22 -15 -37t-37 -15t-37 15t-15 37v220q0 35 4 46l-2 2q-12 -14 -20 -20l-32 -23q-17 -12 -33 -12q-25 0 -40 21
q-9 14 -9 29q0 26 21 41l107 75q17 12 33 12h23q22 0 37 -15t15 -37zM1070 141q0 -68 -50.5 -107t-127.5 -39q-76 0 -127.5 39t-51.5 107q0 71 61 102q-38 27 -38 74q0 59 44 95t112 36t111.5 -36t43.5 -95q0 -45 -38 -72q28 -13 44.5 -41.5t16.5 -62.5zM967 141
q0 52 -75 52t-75 -52q0 -56 75 -56q39 0 57 16t18 40zM945 319q0 8 -3 16t-16 16t-34 8q-31 0 -42.5 -13t-11.5 -27q0 -40 53 -40q54 0 54 40z" />
    <glyph glyph-name="threeeighths" unicode="&#x215c;" horiz-adv-x="1182" 
d="M872 740l-456 -822q-16 -29 -49 -29q-14 0 -27 7q-29 16 -29 49q0 14 7 27l456 822q16 29 49 29q14 0 27 -7q29 -16 29 -49q0 -14 -7 -27zM393 416q0 -63 -47.5 -102.5t-144.5 -39.5q-63 0 -141 34q-27 12 -27 45q0 19 13.5 33t34.5 14q13 0 23 -6q50 -29 97 -29
q40 0 62.5 14t22.5 38q0 26 -21.5 39t-76.5 14q-20 0 -34 13.5t-14 33.5q0 19 14 32t34 14q41 2 59 9.5t18 24.5q0 40 -68 40q-32 0 -74 -19q-14 -6 -25 -6q-21 0 -34 12t-13 32q0 32 32 46q58 27 114 27q79 0 126.5 -35.5t47.5 -94.5q0 -57 -48 -76q34 -14 52 -43t18 -64z
M1124 141q0 -68 -50.5 -107t-127.5 -39q-76 0 -127.5 39t-51.5 107q0 71 61 102q-38 27 -38 74q0 59 44 95t112 36t111.5 -36t43.5 -95q0 -45 -38 -72q28 -13 44.5 -41.5t16.5 -62.5zM1021 141q0 52 -75 52t-75 -52q0 -56 75 -56q39 0 57 16t18 40zM999 319q0 8 -3 16
t-16 16t-34 8q-31 0 -42.5 -13t-11.5 -27q0 -40 53 -40q54 0 54 40z" />
    <glyph glyph-name="fiveeighths" unicode="&#x215d;" horiz-adv-x="1186" 
d="M875 740l-456 -822q-16 -29 -49 -29q-14 0 -27 7q-29 16 -29 49q0 14 7 27l456 822q16 29 49 29q14 0 27 -7q29 -16 29 -49q0 -14 -7 -27zM410 433q0 -70 -49 -114.5t-127 -44.5q-62 0 -114 27q-33 17 -33 49q0 20 13 32.5t33 12.5q13 0 29 -8q42 -21 70 -21q72 0 72 69
q0 29 -18 48t-46 19q-46 0 -71 -32q-12 -15 -31 -15q-6 0 -16 3l-34 12q-21 7 -21 32q0 13 2 25l17 151q2 21 16.5 33t35.5 12h199q19 0 34 -14.5t15 -34.5q0 -21 -13.5 -33.5t-35.5 -12.5h-159q-4 -42 -7 -57l2 -2q30 22 75 22q70 0 116 -42.5t46 -115.5zM1128 141
q0 -68 -50.5 -107t-127.5 -39q-76 0 -127.5 39t-51.5 107q0 71 61 102q-38 27 -38 74q0 59 44 95t112 36t111.5 -36t43.5 -95q0 -45 -38 -72q28 -13 44.5 -41.5t16.5 -62.5zM1025 141q0 52 -75 52t-75 -52q0 -56 75 -56q39 0 57 16t18 40zM1003 319q0 8 -3 16t-16 16t-34 8
q-31 0 -42.5 -13t-11.5 -27q0 -40 53 -40q54 0 54 40z" />
    <glyph glyph-name="seveneighths" unicode="&#x215e;" horiz-adv-x="1094" 
d="M769 740l-456 -822q-16 -29 -49 -29q-14 0 -27 7q-29 16 -29 49q0 14 7 27l456 822q16 29 49 29q14 0 27 -7q29 -16 29 -49q0 -14 -7 -27zM341 723q22 0 36 -14.5t14 -33.5q0 -13 -5 -26q-30 -84 -111 -178q-54 -62 -59 -140q-1 -22 -15 -36.5t-36 -14.5t-36.5 15
t-14.5 37q0 95 79 198l32 40t27 34t15 24h-179q-20 0 -33 13.5t-13 33.5t13.5 34t32.5 14h253zM1036 141q0 -68 -50.5 -107t-127.5 -39q-76 0 -127.5 39t-51.5 107q0 71 61 102q-38 27 -38 74q0 59 44 95t112 36t111.5 -36t43.5 -95q0 -45 -38 -72q28 -13 44.5 -41.5
t16.5 -62.5zM933 141q0 52 -75 52t-75 -52q0 -56 75 -56q39 0 57 16t18 40zM911 319q0 8 -3 16t-16 16t-34 8q-31 0 -42.5 -13t-11.5 -27q0 -40 53 -40q54 0 54 40z" />
    <glyph glyph-name="arrowleft" unicode="&#x2190;" horiz-adv-x="980" 
d="M368 398h479q21 0 37 -16t16 -37t-16 -37t-37 -16h-478q-82 0 -130 8l-2 -3q37 -29 67 -62l105 -118q14 -15 14 -36t-15 -37t-37 -16q-26 0 -40 18l1 -1l-236 262q-16 18 -16 38q0 19 16 37l235 263q16 17 40 17q22 0 37 -16t15 -37t-14 -36l-106 -118q-30 -33 -67 -62
l2 -3q48 8 130 8z" />
    <glyph glyph-name="arrowup" unicode="&#x2191;" horiz-adv-x="980" 
d="M543 476v-479q0 -21 -16 -37t-37 -16t-37 16t-16 37v478q0 82 8 130l-3 2q-29 -37 -62 -67l-118 -105q-15 -14 -36 -14t-37 15t-16 37q0 26 18 40l-1 -1l262 236q18 16 38 16q19 0 37 -16l263 -235q17 -16 17 -40q0 -22 -16 -37t-37 -15t-36 14l-118 106q-33 30 -62 67
l-3 -2q8 -48 8 -130z" />
    <glyph glyph-name="arrowright" unicode="&#x2192;" horiz-adv-x="980" 
d="M133 398h479q82 0 130 -8l2 3q-37 29 -67 62l-106 118q-14 15 -14 36t15 37t37 16q24 0 40 -17l235 -263q16 -18 16 -37q0 -20 -16 -38l-236 -262l1 1q-14 -18 -40 -18q-22 0 -37 16t-15 37t14 36l105 118q30 33 67 62l-2 3q-48 -8 -130 -8h-478q-21 0 -37 16t-16 37
t16 37t37 16z" />
    <glyph glyph-name="arrowdown" unicode="&#x2193;" horiz-adv-x="980" 
d="M437 217v479q0 21 16 37t37 16t37 -16t16 -37v-478q0 -82 -8 -130l3 -2q29 37 62 67l118 105q15 14 36 14t37 -15t16 -37q0 -26 -18 -40l1 1l-262 -236q-18 -16 -38 -16q-19 0 -37 16l-263 235q-17 16 -17 40q0 22 16 37t37 15t36 -14l118 -106q33 -30 62 -67l3 2
q-8 48 -8 130z" />
    <glyph glyph-name="uni2196" unicode="&#x2196;" horiz-adv-x="980" 
d="M166 233l18 354q4 27 15 38t38 15l352 18q21 0 40 -14q16 -16 16 -38q0 -19 -15 -36.5t-36 -17.5l-149 -8q-62 -3 -95 1l-2 -4q35 -25 99 -89l333 -333q15 -15 15 -38q0 -17 -13 -34q-16 -18 -40 -18q-22 0 -37 15l-337 337q-52 53 -85 96l-4 -1q4 -50 2 -87l-9 -159
q0 -20 -16 -36q-15 -15 -38 -15q-20 0 -36 14t-16 40z" />
    <glyph glyph-name="uni2197" unicode="&#x2197;" horiz-adv-x="980" 
d="M778 587l18 -354q0 -26 -16 -40t-36 -14q-23 0 -38 15q-16 16 -16 36l-9 159q-2 37 2 87l-4 1q-33 -43 -85 -96l-337 -337q-15 -15 -37 -15q-24 0 -40 18q-13 17 -13 34q0 23 15 38l333 333q64 64 99 89l-2 4q-33 -4 -95 -1l-149 8q-21 0 -36 17.5t-15 36.5q0 22 16 38
q19 14 40 14l352 -18q27 -4 38 -15t15 -38z" />
    <glyph glyph-name="uni2198" unicode="&#x2198;" horiz-adv-x="980" 
d="M796 455l-18 -354q-4 -27 -15 -38t-38 -15l-352 -18q-21 0 -40 14q-16 16 -16 38q0 19 15 36.5t36 17.5l149 8q62 3 95 -1l2 4q-35 25 -99 89l-333 333q-15 15 -15 38q0 17 13 34q16 18 40 18q22 0 37 -15l337 -337q52 -53 85 -96l4 1q-4 50 -2 87l9 159q0 20 16 36
q15 15 38 15q20 0 36 -14t16 -40z" />
    <glyph glyph-name="uni2199" unicode="&#x2199;" horiz-adv-x="980" 
d="M186 101l-18 354q0 26 16 40t36 14q23 0 38 -15q16 -16 16 -36l9 -159q2 -37 -2 -87l4 -1q33 43 85 96l337 337q15 15 37 15q24 0 40 -18q13 -17 13 -34q0 -23 -15 -38l-333 -333q-64 -64 -99 -89l2 -4q33 4 95 1l149 -8q21 0 36 -17.5t15 -36.5q0 -22 -16 -38
q-19 -14 -40 -14l-352 18q-27 4 -38 15t-15 38z" />
    <glyph glyph-name="partialdiff" unicode="&#x2202;" horiz-adv-x="669" 
d="M418 461l4 3q-49 97 -205 137q-22 6 -37 23t-15 42q0 27 19.5 46.5t46.5 19.5q15 0 33 -6q43 -12 100 -41.5t102 -72.5q70 -68 103 -171q24 -74 24 -181q0 -101 -58 -174q-75 -95 -199 -95q-104 0 -180 69.5t-76 180.5q0 106 68 177t182 71q53 0 88 -28zM460 246
q0 59 -33 98t-91 39q-59 0 -91 -38.5t-32 -103.5q0 -58 34 -97.5t89 -39.5q62 0 93 38t31 104z" />
    <glyph glyph-name="Delta" unicode="&#x2206;" horiz-adv-x="783" 
d="M723 69q0 -45 -42 -63q-13 -6 -27 -6h-529q-26 0 -45.5 21t-19.5 48q0 13 6 27l246 576q20 44 61 44h35q42 0 61 -43l248 -577q6 -14 6 -27zM559 122l-170 420l-170 -420h340z" />
    <glyph glyph-name="product" unicode="&#x220f;" horiz-adv-x="803" 
d="M687 843v-972q0 -27 -19 -46t-46 -19t-46 19t-19 46v911h-312v-911q0 -27 -19 -46t-46 -19t-46 19t-19 46v972q0 27 19 46t46 19h442q27 0 46 -19t19 -46z" />
    <glyph glyph-name="summation" unicode="&#x2211;" horiz-adv-x="677" 
d="M622 -129q0 -27 -19 -46t-46 -19h-444q-30 0 -50 17.5t-20 46.5q0 18 16 42l285 448l-278 443q-15 24 -15 42q0 30 19 46.5t50 16.5h427q26 0 44.5 -18.5t18.5 -45.5t-18.5 -45.5t-44.5 -18.5h-315l241 -386q10 -17 10 -34q0 -19 -10 -34l-248 -391h332q27 0 46 -19
t19 -45z" />
    <glyph glyph-name="minus" unicode="&#x2212;" 
d="M126 324h444q23 0 39.5 -16.5t16.5 -39.5t-16.5 -39.5t-39.5 -16.5h-444q-23 0 -39.5 16.5t-16.5 39.5t16.5 39.5t39.5 16.5z" />
    <glyph glyph-name="uni2219" unicode="&#x2219;" horiz-adv-x="426" 
d="M110 356q0 43 30 73t73 30t73 -30t30 -73t-30 -73t-73 -30t-73 30t-30 73z" />
    <glyph glyph-name="radical" unicode="&#x221a;" 
d="M706 832l-257 -979q-6 -21 -22 -34t-37 -13h-30q-42 0 -61 44l-134 303l-52 -28q-15 -6 -28 -6q-26 0 -43 19t-17 45q0 36 36 55q1 0 12 6.5l21.5 12.5t26.5 14t29.5 14t26.5 10.5t20 4.5q44 0 62 -42l80 -196q24 -59 27 -95h4q8 60 18 95l214 799q4 18 19 29t33 11
q22 0 38 -15t16 -39q0 -5 -2 -15z" />
    <glyph glyph-name="infinity" unicode="&#x221e;" horiz-adv-x="822" 
d="M737 268q0 -68 -48.5 -116t-116.5 -48q-60 0 -106 38l-56 47l-60 -50q-43 -35 -102 -35q-68 0 -116 48t-48 116t48 116.5t116 48.5q63 0 108 -39l54 -46l57 48q43 37 105 37q68 0 116.5 -48.5t48.5 -116.5zM632 268q0 28 -17 45.5t-43 17.5q-21 0 -44 -20l-47 -42l51 -45
q21 -18 40 -18q26 0 43 17.5t17 44.5zM188 268q0 -27 17 -44.5t43 -17.5q19 0 40 18l51 45l-47 42q-23 20 -44 20q-26 0 -43 -17.5t-17 -45.5z" />
    <glyph glyph-name="uni2224" unicode="&#x2224;" horiz-adv-x="426" 
d="M110 356q0 43 30 73t73 30t73 -30t30 -73t-30 -73t-73 -30t-73 30t-30 73z" />
    <glyph glyph-name="logicaland" unicode="&#x2227;" horiz-adv-x="426" 
d="M110 356q0 43 30 73t73 30t73 -30t30 -73t-30 -73t-73 -30t-73 30t-30 73z" />
    <glyph glyph-name="integral" unicode="&#x222b;" horiz-adv-x="744" 
d="M273 -85q36 0 41 50q1 14 1 71v644q0 104 42 166t132 62q66 0 112.5 -35t46.5 -82q0 -26 -15 -42.5t-44 -16.5q-39 0 -56 35q-15 32 -41 32q-19 0 -30 -14.5t-13 -33.5q-3 -33 -3 -73v-643q0 -104 -42 -166.5t-131 -62.5q-62 0 -110 36t-48 82q0 26 17 43t43 17
q21 0 33 -10.5t25 -33.5q15 -25 40 -25z" />
    <glyph glyph-name="approxequal" unicode="&#x2248;" 
d="M302 344q-34 34 -79 34q-58 0 -94 -58q-17 -27 -51 -27q-24 0 -41 17t-17 42q0 17 11 35q27 46 75.5 81t119.5 35q95 0 169 -77q34 -34 79 -34q58 0 94 58q17 27 51 27q24 0 41 -17t17 -42q0 -17 -11 -35q-27 -46 -75.5 -81t-119.5 -35q-92 0 -169 77zM302 110
q-34 34 -79 34q-58 0 -94 -58q-17 -27 -51 -27q-24 0 -41 17t-17 42q0 17 11 35q27 46 75.5 81t119.5 35q95 0 169 -77q34 -34 79 -34q58 0 94 58q17 27 51 27q24 0 41 -17t17 -42q0 -17 -11 -35q-27 -46 -75.5 -81t-119.5 -35q-92 0 -169 77z" />
    <glyph glyph-name="notequal" unicode="&#x2260;" 
d="M498 481q0 -11 -5 -23l-9 -19h85q24 0 40.5 -16.5t16.5 -40.5t-16.5 -40.5t-40.5 -16.5h-136l-46 -100h182q24 0 40.5 -16.5t16.5 -40.5t-16.5 -40.5t-40.5 -16.5h-233l-36 -79q-14 -32 -51 -32q-14 0 -23 5q-33 17 -33 51q0 10 5 23l14 32h-85q-24 0 -40.5 16.5
t-16.5 40.5t16.5 40.5t40.5 16.5h137l46 100h-183q-24 0 -40.5 16.5t-16.5 40.5t16.5 40.5t40.5 16.5h234l30 65q14 33 51 33q11 0 23 -5q33 -14 33 -51z" />
    <glyph glyph-name="lessequal" unicode="&#x2264;" 
d="M601 46q0 -24 -16.5 -40.5t-40.5 -16.5h-392q-24 0 -40.5 16.5t-16.5 40.5t16.5 40.5t40.5 16.5h392q24 0 40.5 -16.5t16.5 -40.5zM95 346v32q0 17 14 32.5t30 21.5l385 136q9 3 18 3q25 0 42 -17t17 -42q0 -18 -10.5 -34t-29.5 -22l-208 -62q-63 -19 -125 -31v-2
q59 -11 125 -31l208 -62q19 -6 29.5 -22t10.5 -34q0 -25 -17 -42t-42 -17q-9 0 -18 3l-385 136q-16 6 -30 21.5t-14 32.5z" />
    <glyph glyph-name="greaterequal" unicode="&#x2265;" 
d="M95 46q0 24 16.5 40.5t40.5 16.5h392q24 0 40.5 -16.5t16.5 -40.5t-16.5 -40.5t-40.5 -16.5h-392q-24 0 -40.5 16.5t-16.5 40.5zM601 378v-32q0 -17 -14 -32.5t-30 -21.5l-385 -136q-9 -3 -18 -3q-25 0 -42 17t-17 42q0 18 10.5 34t29.5 22l208 62q66 20 125 31v2
q-62 12 -125 31l-208 62q-19 6 -29.5 22t-10.5 34q0 25 17 42t42 17q9 0 18 -3l385 -136q16 -6 30 -21.5t14 -32.5z" />
    <glyph glyph-name="dotmath" unicode="&#x22c5;" horiz-adv-x="426" 
d="M110 356q0 43 30 73t73 30t73 -30t30 -73t-30 -73t-73 -30t-73 30t-30 73z" />
    <glyph glyph-name="lozenge" unicode="&#x25ca;" horiz-adv-x="675" 
d="M485 360l-147 246l-148 -246l148 -246zM620 361q0 -9 -6 -20l-218 -360q-20 -31 -58 -31t-58 31l-218 360q-7 12 -7 20t7 20l218 360q20 31 58 31t58 -31l218 -360q6 -11 6 -20z" />
    <glyph glyph-name="commaaccent" unicode="&#xf6c3;" horiz-adv-x="300" 
d="M230 -94q0 -37 -29 -63q-28 -24 -59 -38q-22 -10 -36 -10q-12 0 -22 8.5t-10 21.5q0 10 16.5 22.5t16.5 20.5q0 6 -7.5 12t-15.5 17t-8 28q0 21 21 38t53 17q35 0 57.5 -20.5t22.5 -53.5z" />
    <glyph glyph-name="uniF8FF" unicode="&#xf8ff;" horiz-adv-x="823" 
d="M40 361q0 154 108.5 263t262.5 109t263 -109t109 -263t-109 -262.5t-263 -108.5t-262.5 108.5t-108.5 262.5z" />
    <glyph glyph-name="guillemotright.case" horiz-adv-x="662" 
d="M428 348l-113 199q-7 14 -7 26q0 19 13 31.5t31 12.5q23 0 36 -17l160 -200q2 -2 6 -7t5 -7t4 -6t4 -7t2.5 -7t2 -8.5t0.5 -9.5q0 -6 -1 -11.5t-2 -8.5t-4 -8.5t-4 -7t-6.5 -8.5t-6.5 -8l-160 -200q-13 -17 -36 -17q-18 0 -31 12.5t-13 31.5q0 12 7 26zM45 123q0 12 7 26
l113 199l-113 199q-7 14 -7 26q0 19 13 31.5t31 12.5q23 0 36 -17l160 -200q2 -2 6 -7t5 -7t4 -6t4 -7t2.5 -7t2 -8.5t0.5 -9.5q0 -6 -1 -11.5t-2 -8.5t-4 -8.5t-4 -7t-6.5 -8.5t-6.5 -8l-160 -200q-13 -17 -36 -17q-18 0 -31 12.5t-13 31.5z" />
    <glyph glyph-name="guilsinglright.case" horiz-adv-x="399" 
d="M45 123q0 12 7 26l113 199l-113 199q-7 14 -7 26q0 19 13 31.5t31 12.5q23 0 36 -17l160 -200q2 -2 6 -7t5 -7t4 -6t4 -7t2.5 -7t2 -8.5t0.5 -9.5q0 -6 -1 -11.5t-2 -8.5t-4 -8.5t-4 -7t-6.5 -8.5t-6.5 -8l-160 -200q-13 -17 -36 -17q-18 0 -31 12.5t-13 31.5z" />
    <glyph glyph-name="guillemotleft.case" horiz-adv-x="662" 
d="M347 547l-113 -199l113 -199q7 -14 7 -26q0 -19 -13 -31.5t-31 -12.5q-23 0 -36 17l-160 200q-2 2 -6 7t-5 7t-4 6t-4 7t-2.5 7t-2 8.5t-0.5 9.5q0 6 1 11.5t2 8.5t4 8.5t4 7t6.5 8.5t6.5 8l160 200q13 17 36 17q18 0 31 -12.5t13 -31.5q0 -12 -7 -26zM617 123
q0 -19 -13 -31.5t-31 -12.5q-23 0 -36 17l-160 200q-2 2 -6 7t-5 7t-4 6t-4 7t-2.5 7t-2 8.5t-0.5 9.5q0 6 1 11.5t2 8.5t4 8.5t4 7t6.5 8.5t6.5 8l160 200q13 17 36 17q18 0 31 -12.5t13 -31.5q0 -12 -7 -26l-113 -199l113 -199q7 -14 7 -26z" />
    <glyph glyph-name="guilsinglleft.case" horiz-adv-x="399" 
d="M347 547l-113 -199l113 -199q7 -14 7 -26q0 -19 -13 -31.5t-31 -12.5q-23 0 -36 17l-160 200q-2 2 -6 7t-5 7t-4 6t-4 7t-2.5 7t-2 8.5t-0.5 9.5q0 6 1 11.5t2 8.5t4 8.5t4 7t6.5 8.5t6.5 8l160 200q13 17 36 17q18 0 31 -12.5t13 -31.5q0 -12 -7 -26z" />
    <glyph glyph-name="bracketleft.case" horiz-adv-x="385" 
d="M388 -137q0 -24 -17 -40.5t-41 -16.5h-181q-23 0 -38.5 16t-15.5 38v994q0 22 15.5 38t38.5 16h181q24 0 41 -16t17 -40t-17 -40t-41 -16h-127v-878h127q24 0 41 -15t17 -40z" />
    <glyph glyph-name="braceleft.case" horiz-adv-x="461" 
d="M147 17v222q0 53 -48 61q-54 9 -54 57t54 57q48 8 48 61v222q0 100 59.5 155.5t157.5 55.5q60 0 60 -51t-60 -51q-51 0 -78 -30t-27 -79v-196q0 -56 -28 -92.5t-70 -51.5q42 -15 70 -51.5t28 -92.5v-196q0 -49 27 -79t78 -30q60 0 60 -51t-60 -51q-98 0 -157.5 55.5
t-59.5 155.5z" />
    <glyph glyph-name="parenleft.case" horiz-adv-x="354" 
d="M197 356q0 -128 41.5 -249t113.5 -207q15 -19 15 -37q0 -24 -15 -41t-39 -17q-27 0 -43 19q-88 101 -141.5 243t-53.5 289t53.5 289t141.5 243q16 19 43 19q24 0 39 -17t15 -41q0 -18 -15 -37q-72 -86 -113.5 -207t-41.5 -249z" />
    <glyph glyph-name="bracketright.case" horiz-adv-x="385" 
d="M-3 -137q0 25 17 40t41 15h127v878h-127q-24 0 -41 16t-17 40t17 40t41 16h181q22 0 38 -16t16 -38v-994q0 -22 -16 -38t-38 -16h-181q-24 0 -41 16.5t-17 40.5z" />
    <glyph glyph-name="braceright.case" horiz-adv-x="461" 
d="M314 239v-222q0 -100 -59.5 -155.5t-157.5 -55.5q-60 0 -60 51t60 51q51 0 78 30t27 79v196q0 56 28 92.5t70 51.5q-42 15 -70 51.5t-28 92.5v196q0 49 -27 79t-78 30q-60 0 -60 51t60 51q98 0 157.5 -55.5t59.5 -155.5v-222q0 -53 48 -61q54 -9 54 -57t-54 -57
q-48 -8 -48 -61z" />
    <glyph glyph-name="parenright.case" horiz-adv-x="354" 
d="M157 356q0 128 -41.5 249t-113.5 207q-15 19 -15 37q0 24 15 41t39 17q27 0 43 -19q88 -101 141.5 -243t53.5 -289t-53.5 -289t-141.5 -243q-16 -19 -43 -19q-24 0 -39 17t-15 41q0 18 15 37q72 86 113.5 207t41.5 249z" />
    <glyph glyph-name="uni00AD.case" horiz-adv-x="631" 
d="M470 299h-309q-23 0 -39.5 16.5t-16.5 39.5t16.5 39.5t39.5 16.5h309q23 0 39.5 -16.5t16.5 -39.5t-16.5 -39.5t-39.5 -16.5z" />
    <glyph glyph-name="endash.case" horiz-adv-x="626" 
d="M546 299h-470q-23 0 -39.5 16.5t-16.5 39.5t16.5 39.5t39.5 16.5h470q23 0 39.5 -16.5t16.5 -39.5t-16.5 -39.5t-39.5 -16.5z" />
    <glyph glyph-name="emdash.case" horiz-adv-x="1450" 
d="M1284 299h-1118q-23 0 -39.5 16.5t-16.5 39.5t16.5 39.5t39.5 16.5h1118q23 0 39.5 -16.5t16.5 -39.5t-16.5 -39.5t-39.5 -16.5z" />
    <glyph glyph-name="hyphen.case" horiz-adv-x="631" 
d="M470 299h-309q-23 0 -39.5 16.5t-16.5 39.5t16.5 39.5t39.5 16.5h309q23 0 39.5 -16.5t16.5 -39.5t-16.5 -39.5t-39.5 -16.5z" />
    <glyph glyph-name="zero.plf" horiz-adv-x="742" 
d="M662 362q0 -151 -80.5 -261t-210.5 -110t-210.5 110t-80.5 261t80.5 261t210.5 110t210.5 -110t80.5 -261zM522 362q0 121 -43.5 187.5t-107.5 66.5t-107.5 -66.5t-43.5 -187.5t43.5 -187.5t107.5 -66.5t107.5 66.5t43.5 187.5z" />
    <glyph glyph-name="one.plf" horiz-adv-x="574" 
d="M435 653v-583q0 -29 -20.5 -49.5t-49.5 -20.5t-49.5 20.5t-20.5 49.5v443q0 32 5 48l-2 1q-17 -17 -50 -39l-76 -54q-18 -12 -38 -12q-34 0 -54 28q-12 18 -12 38q0 34 28 54l191 134q18 12 38 12h40q29 0 49.5 -20.5t20.5 -49.5z" />
    <glyph glyph-name="two.plf" horiz-adv-x="742" 
d="M595 0h-426q-27 0 -46.5 19t-19.5 47v3q0 52 19.5 96.5t45 73t73.5 57.5t79 43.5t88 37.5q42 17 68 47t26 68q0 57 -32.5 90t-89.5 33q-60 0 -89 -31.5t-35 -70.5q-8 -50 -64 -50q-29 0 -48 17t-19 46q0 84 76 145.5t182 61.5q114 0 185.5 -64.5t71.5 -176.5
q0 -91 -51 -147t-150 -93q-101 -38 -149 -79q-30 -26 -35 -48h340q25 0 43.5 -19t18.5 -45q0 -25 -18 -43t-44 -18z" />
    <glyph glyph-name="three.plf" horiz-adv-x="717" 
d="M622 215q0 -100 -76.5 -162.5t-233.5 -62.5q-114 0 -235 56q-36 17 -36 59q0 26 18 43.5t44 17.5q14 0 30 -8q96 -51 179 -51q79 0 122.5 30t43.5 80q0 55 -42.5 81.5t-147.5 28.5q-26 1 -44 18t-18 43q0 25 18 42t44 18q81 2 117 20t36 59t-34.5 64.5t-103.5 23.5
q-72 0 -136 -35q-16 -9 -33 -9q-27 0 -44.5 16t-17.5 41q0 43 40 61q95 44 191 44q129 0 204.5 -55t75.5 -148q0 -42 -26 -78.5t-70 -56.5q62 -17 98.5 -68t36.5 -112z" />
    <glyph glyph-name="four.plf" horiz-adv-x="691" 
d="M543 280h27q26 0 44 -18t18 -44q0 -25 -18 -43t-44 -18h-27v-87q0 -29 -20.5 -49.5t-49.5 -20.5t-49.5 20.5t-20.5 49.5v87h-282q-27 0 -46 19t-19 47v17q0 23 21 50l306 407q20 26 53 26h37q29 0 49.5 -20.5t20.5 -49.5v-373zM403 280v199q0 27 4 50l-3 1
q-10 -20 -27 -42l-126 -167q-18 -24 -39 -42l2 -3q17 4 45 4h144z" />
    <glyph glyph-name="five.plf" horiz-adv-x="742" 
d="M650 243q0 -112 -79 -182.5t-204 -70.5q-100 0 -188 45q-46 23 -46 65q0 26 16 42.5t42 16.5q15 0 27 -6q5 -2 22.5 -11.5t26.5 -13l25.5 -9.5t34 -8.5t37.5 -2.5q143 0 143 139q0 60 -36.5 98t-93.5 38q-85 0 -137 -63q-15 -19 -38 -19q-11 0 -22 4l-59 20q-23 8 -23 39
q0 15 3 36l30 265q3 28 22.5 43t48.5 15h341q27 0 46 -19t19 -46q0 -26 -18 -42t-46 -16h-291l-9 -78q-7 -56 -12 -75l2 -1q56 51 156 51q112 0 186 -68.5t74 -185.5z" />
    <glyph glyph-name="six.plf" horiz-adv-x="742" 
d="M667 270q0 -124 -84.5 -200.5t-202.5 -76.5q-122 0 -204 79t-82 202q0 121 38 218t112 171q49 50 135.5 98t146.5 48q28 0 46.5 -18t18.5 -46q0 -48 -55 -63q-193 -51 -260 -173l2 -2q53 38 126 38q109 0 186 -75t77 -200zM527 270q0 68 -41 113.5t-106 45.5
q-66 0 -106 -44t-40 -115q0 -65 41 -112t105 -47q65 0 106 45.5t41 113.5z" />
    <glyph glyph-name="seven.plf" horiz-adv-x="658" 
d="M612 624q-24 -76 -66 -139.5t-123 -160.5q-98 -118 -106 -254q-2 -30 -20.5 -50t-47.5 -20t-48.5 20.5t-19.5 49.5q0 162 132 330l37 45.5l41.5 51t35 49t32.5 56.5l-1 2q-23 -4 -52 -4h-289q-25 0 -43 18t-18 43q0 26 18 44t43 18h435q29 0 47.5 -18t18.5 -44
q0 -21 -6 -37z" />
    <glyph glyph-name="eight.plf" horiz-adv-x="742" 
d="M658 224q0 -108 -81.5 -170.5t-204.5 -62.5q-122 0 -205 62.5t-83 170.5q0 58 31.5 105t81.5 70q-74 49 -74 128q0 92 69.5 148.5t178.5 56.5t178.5 -56.5t69.5 -148.5q0 -80 -76 -128q52 -20 83.5 -67.5t31.5 -107.5zM483 530q0 12 -4 24.5t-14 28t-34.5 25.5t-59.5 10
t-59.5 -10t-34.5 -25.5t-14 -28t-4 -24.5q0 -13 2.5 -23.5t11.5 -27.5t34 -27t63 -10q113 0 113 88zM521 224q0 109 -149 109q-46 0 -78 -10.5t-46.5 -28t-20.5 -34.5t-6 -36q0 -50 36 -83.5t114 -33.5t114 33.5t36 83.5z" />
    <glyph glyph-name="nine.plf" horiz-adv-x="742" 
d="M79 456q0 124 84.5 200.5t202.5 76.5q122 0 204 -79t82 -202q0 -121 -38 -218t-112 -171q-49 -50 -135.5 -98t-146.5 -48q-28 0 -46.5 18t-18.5 46q0 48 55 63q193 51 260 173l-2 2q-53 -38 -126 -38q-109 0 -186 75t-77 200zM219 456q0 -68 41 -113.5t106 -45.5
q66 0 106 44t40 115q0 65 -41 112t-105 47q-65 0 -106 -45.5t-41 -113.5z" />
    <glyph glyph-name="bar.case" horiz-adv-x="308" 
d="M208 855v-994q0 -23 -16 -38.5t-38 -15.5t-38 15.5t-16 38.5v994q0 23 16 38.5t38 15.5t38 -15.5t16 -38.5z" />
    <glyph glyph-name="minus.case" 
d="M126 407h444q23 0 39.5 -16.5t16.5 -39.5t-16.5 -39.5t-39.5 -16.5h-444q-23 0 -39.5 16.5t-16.5 39.5t16.5 39.5t39.5 16.5z" />
    <glyph glyph-name="multiply.case" 
d="M601 536q0 -23 -20 -43l-147 -144l147 -145q20 -20 20 -43q0 -25 -20 -45t-45 -20t-44 19l-144 147l-145 -147q-19 -19 -43 -19q-26 0 -45.5 20t-19.5 45q0 24 19 43l148 145l-148 144q-19 19 -19 43q0 26 20 46t45 20q23 0 43 -20l145 -147l144 147q20 20 44 20
q25 0 45 -20.5t20 -45.5z" />
    <glyph glyph-name="plus.case" 
d="M411 292v-141q0 -26 -18.5 -44.5t-44.5 -18.5t-44.5 18.5t-18.5 44.5v141h-159q-23 0 -39.5 16.5t-16.5 39.5t16.5 39.5t39.5 16.5h159v142q0 26 18.5 44.5t44.5 18.5t44.5 -18.5t18.5 -44.5v-142h159q23 0 39.5 -16.5t16.5 -39.5t-16.5 -39.5t-39.5 -16.5h-159z" />
    <glyph glyph-name="less.case" 
d="M332 305l240 -110q34 -16 34 -59q0 -25 -18 -43t-43 -18q-19 0 -32 7l-397 192q-46 22 -46 65v17q0 43 46 65l397 192q13 7 33 7q25 0 42.5 -18t17.5 -43q0 -43 -34 -59l-240 -111q-23 -11 -65 -25.5t-55 -15.5v-2q12 -1 55 -16t65 -25z" />
    <glyph glyph-name="equal.case" 
d="M570 406h-444q-23 0 -39.5 16.5t-16.5 39.5t16.5 39.5t39.5 16.5h444q23 0 39.5 -16.5t16.5 -39.5t-16.5 -39.5t-39.5 -16.5zM570 192h-444q-23 0 -39.5 16.5t-16.5 39.5t16.5 39.5t39.5 16.5h444q23 0 39.5 -16.5t16.5 -39.5t-16.5 -39.5t-39.5 -16.5z" />
    <glyph glyph-name="greater.case" 
d="M124 195l240 110q22 10 65 25t55 16v2q-13 1 -55 15.5t-65 25.5l-240 111q-34 16 -34 59q0 25 17.5 43t42.5 18q20 0 33 -7l397 -192q46 -22 46 -65v-17q0 -43 -46 -65l-397 -192q-13 -7 -32 -7q-25 0 -43 18t-18 43q0 43 34 59z" />
    <glyph glyph-name="at.case" horiz-adv-x="776" 
d="M698 424v-252q0 -26 -16.5 -42.5t-38.5 -16.5q-49 0 -57 51q-33 -45 -94 -45q-78 0 -127.5 53t-49.5 145q0 113 85 176q51 38 172 38q-7 77 -37 110.5t-94 33.5q-200 0 -200 -342q0 -137 58.5 -230.5t156.5 -93.5q20 0 40 5t28.5 9t29.5 15.5t22 12.5q16 9 32 9
q25 0 41.5 -17.5t16.5 -40.5q0 -32 -26 -49q-89 -61 -184 -61q-155 0 -250.5 123t-95.5 321q0 220 91 334.5t245 114.5q126 0 189 -85.5t63 -275.5zM577 264v165q-18 2 -27 2q-46 0 -79 -28t-33 -81q0 -39 19 -61t55 -22t65 25z" />
    <glyph glyph-name="notequal.case" 
d="M498 561q0 -11 -5 -23l-9 -19h85q24 0 40.5 -16.5t16.5 -40.5t-16.5 -40.5t-40.5 -16.5h-136l-46 -100h182q24 0 40.5 -16.5t16.5 -40.5t-16.5 -40.5t-40.5 -16.5h-233l-36 -79q-14 -32 -51 -32q-14 0 -23 5q-33 17 -33 51q0 10 5 23l14 32h-85q-24 0 -40.5 16.5
t-16.5 40.5t16.5 40.5t40.5 16.5h137l46 100h-183q-24 0 -40.5 16.5t-16.5 40.5t16.5 40.5t40.5 16.5h234l30 65q14 33 51 33q11 0 23 -5q33 -14 33 -51z" />
    <glyph glyph-name="plusminus.case" 
d="M631 442q0 -24 -16.5 -40.5t-40.5 -16.5h-169v-95q0 -24 -16.5 -40.5t-40.5 -16.5t-40.5 16.5t-16.5 40.5v95h-169q-24 0 -40.5 16.5t-16.5 40.5t16.5 40.5t40.5 16.5h169v95q0 24 16.5 40.5t40.5 16.5t40.5 -16.5t16.5 -40.5v-95h169q24 0 40.5 -16.5t16.5 -40.5z
M631 126q0 -24 -16.5 -40.5t-40.5 -16.5h-452q-24 0 -40.5 16.5t-16.5 40.5t16.5 40.5t40.5 16.5h452q24 0 40.5 -16.5t16.5 -40.5z" />
    <glyph glyph-name="lessequal.case" 
d="M601 126q0 -24 -16.5 -40.5t-40.5 -16.5h-392q-24 0 -40.5 16.5t-16.5 40.5t16.5 40.5t40.5 16.5h392q24 0 40.5 -16.5t16.5 -40.5zM95 426v32q0 17 14 32.5t30 21.5l385 136q9 3 18 3q25 0 42 -17t17 -42q0 -18 -10.5 -34t-29.5 -22l-208 -62q-63 -19 -125 -31v-2
q59 -11 125 -31l208 -62q19 -6 29.5 -22t10.5 -34q0 -25 -17 -42t-42 -17q-9 0 -18 3l-385 136q-16 6 -30 21.5t-14 32.5z" />
    <glyph glyph-name="greaterequal.case" 
d="M95 126q0 24 16.5 40.5t40.5 16.5h392q24 0 40.5 -16.5t16.5 -40.5t-16.5 -40.5t-40.5 -16.5h-392q-24 0 -40.5 16.5t-16.5 40.5zM601 458v-32q0 -17 -14 -32.5t-30 -21.5l-385 -136q-9 -3 -18 -3q-25 0 -42 17t-17 42q0 18 10.5 34t29.5 22l208 62q66 20 125 31v2
q-62 12 -125 31l-208 62q-19 6 -29.5 22t-10.5 34q0 25 17 42t42 17q9 0 18 -3l385 -136q16 -6 30 -21.5t14 -32.5z" />
    <glyph glyph-name="logicalnot.case" 
d="M497 286h-375q-27 0 -45.5 18.5t-18.5 47.5t18 47t45 18h437q29 0 49.5 -21.5t20.5 -53.5v-151q0 -27 -19 -46.5t-46 -19.5q-28 0 -47 19.5t-19 46.5v95z" />
    <glyph glyph-name="approxequal.case" 
d="M302 424q-34 34 -79 34q-58 0 -94 -58q-17 -27 -51 -27q-24 0 -41 17t-17 42q0 17 11 35q27 46 75.5 81t119.5 35q95 0 169 -77q34 -34 79 -34q58 0 94 58q17 27 51 27q24 0 41 -17t17 -42q0 -17 -11 -35q-27 -46 -75.5 -81t-119.5 -35q-92 0 -169 77zM302 190
q-34 34 -79 34q-58 0 -94 -58q-17 -27 -51 -27q-24 0 -41 17t-17 42q0 17 11 35q27 46 75.5 81t119.5 35q95 0 169 -77q34 -34 79 -34q58 0 94 58q17 27 51 27q24 0 41 -17t17 -42q0 -17 -11 -35q-27 -46 -75.5 -81t-119.5 -35q-92 0 -169 77z" />
    <glyph glyph-name="acute.cap" horiz-adv-x="286" 
d="M242 982q31 0 49.5 -20.5t18.5 -50.5q0 -51 -54 -65l-222 -62q-3 -1 -14 -1q-17 0 -28 10t-11 26q0 25 24 38l194 114q18 11 43 11z" />
    <glyph glyph-name="grave.cap" horiz-adv-x="286" 
d="M41 982q25 0 43 -11l194 -114q24 -13 24 -38q0 -16 -11 -26t-28 -10q-11 0 -14 1l-222 62q-54 14 -54 65q0 30 18.5 50.5t49.5 20.5z" />
    <glyph glyph-name="dieresis.cap" horiz-adv-x="433" 
d="M442 880q0 -34 -25 -59t-59 -25t-58.5 25t-24.5 59t24.5 59t58.5 25t59 -25t25 -59zM158 880q0 -34 -24.5 -59t-58.5 -25q-35 0 -59.5 25t-24.5 59t24.5 59t59.5 25q34 0 58.5 -25t24.5 -59z" />
    <glyph glyph-name="circumflex.cap" horiz-adv-x="436" 
d="M364 781l-146 71l-146 -71q-15 -7 -30 -7q-18 0 -29 10.5t-11 27.5q0 21 17 35l144 118q30 24 55 24q33 0 55 -24l144 -118q17 -14 17 -35q0 -17 -11 -27.5t-29 -10.5q-15 0 -30 7z" />
    <glyph glyph-name="tilde.cap" horiz-adv-x="459" 
d="M398 956q23 0 37 -15.5t14 -38.5q0 -15 -12 -35q-18 -30 -51.5 -47.5t-72.5 -17.5q-37 0 -85 19q-55 22 -73 22q-29 0 -61 -28q-12 -11 -33 -11q-23 0 -37 15.5t-14 38.5q0 15 12 35q18 29 52.5 47t72.5 18q36 0 84 -19q55 -22 73 -22q29 0 61 28q12 11 33 11z" />
    <glyph glyph-name="macron.cap" horiz-adv-x="446" 
d="M436 880q0 -24 -16.5 -40.5t-40.5 -16.5h-312q-24 0 -40.5 16.5t-16.5 40.5t16.5 40.5t40.5 16.5h312q24 0 40.5 -16.5t16.5 -40.5z" />
    <glyph glyph-name="breve.cap" horiz-adv-x="432" 
d="M216 776q-75 0 -129 35.5t-73 103.5q-4 12 -4 26q0 22 16.5 39.5t40.5 17.5q20 0 34.5 -12t19.5 -27q7 -21 14.5 -34.5t28.5 -26t52 -12.5t52 12.5t28.5 26t14.5 34.5q5 15 19.5 27t34.5 12q24 0 40.5 -17.5t16.5 -39.5q0 -14 -4 -26q-20 -67 -74 -103t-128 -36z" />
    <glyph glyph-name="dotaccent.cap" horiz-adv-x="314" 
d="M248 880q0 -38 -27 -64.5t-64 -26.5t-64 26.5t-27 64.5t27 64.5t64 26.5t64 -26.5t27 -64.5z" />
    <glyph glyph-name="ring.cap" horiz-adv-x="289" 
d="M10 879q0 54 39 92.5t95 38.5t95.5 -38.5t39.5 -92.5t-39.5 -91.5t-95.5 -37.5t-95 37.5t-39 91.5zM84 879q0 -27 16.5 -44.5t43.5 -17.5t43.5 17.5t16.5 44.5t-16.5 45t-43.5 18t-43.5 -18t-16.5 -45z" />
    <glyph glyph-name="hungarumlaut.cap" horiz-adv-x="513" 
d="M233 975q31 0 49.5 -19.5t18.5 -48.5q0 -53 -55 -68l-176 -48q-10 -2 -18 -2q-36 0 -36 36q0 21 24 38l150 99q20 13 43 13zM497 975q31 0 49.5 -19.5t18.5 -48.5q0 -53 -55 -68l-176 -48q-10 -2 -18 -2q-36 0 -36 36q0 21 24 38l150 99q20 13 43 13z" />
    <glyph glyph-name="caron.cap" horiz-adv-x="436" 
d="M72 983l146 -71l146 71q15 7 30 7q18 0 29 -10.5t11 -27.5q0 -21 -17 -35l-144 -118q-30 -24 -55 -24q-33 0 -55 24l-144 118q-17 14 -17 35q0 17 11 27.5t29 10.5q15 0 30 -7z" />
    <glyph glyph-name="zero.sup" horiz-adv-x="473" 
d="M417 620q0 -92 -50 -159t-130 -67t-130.5 67t-50.5 159t50.5 160t130.5 68t130 -67.5t50 -160.5zM312 620q0 65 -21.5 101t-53.5 36q-33 0 -54.5 -36t-21.5 -101t21.5 -100t54.5 -35q32 0 53.5 35t21.5 100z" />
    <glyph glyph-name="four.sup" horiz-adv-x="443" 
d="M348 583h3q20 0 34 -13.5t14 -32.5q0 -20 -14 -33.5t-34 -13.5h-3v-39q0 -22 -15.5 -37t-37.5 -15t-37 15t-15 37v39h-152q-21 0 -35 14.5t-14 35.5v10q0 16 15 36l178 236q15 20 39 20h21q22 0 37.5 -15t15.5 -37v-207zM243 583v60q0 29 4 46l-2 1q-5 -11 -21 -32
l-58 -75h77z" />
    <glyph glyph-name="five.sup" horiz-adv-x="473" 
d="M410 552q0 -70 -49 -114.5t-127 -44.5q-62 0 -114 27q-33 16 -33 49q0 20 13 32.5t33 12.5q13 0 29 -8q42 -21 70 -21q72 0 72 69q0 29 -18 48t-46 19q-46 0 -71 -32q-12 -15 -31 -15q-6 0 -16 3l-34 12q-21 7 -21 32q0 13 2 25l17 151q2 21 16.5 33t35.5 12h199
q19 0 34 -15t15 -34q0 -21 -13.5 -33.5t-35.5 -12.5h-159q-4 -42 -7 -57l2 -2q30 22 75 22q70 0 116 -42.5t46 -115.5z" />
    <glyph glyph-name="six.sup" horiz-adv-x="473" 
d="M420 567q0 -77 -52.5 -124.5t-125.5 -47.5q-76 0 -127 49t-51 125q0 70 23 131q24 59 68 103q31 31 83 59.5t89 28.5q21 0 35 -13.5t14 -34.5q0 -36 -40 -48q-78 -22 -131 -70l1 -2q27 12 57 12q63 0 110 -45t47 -123zM315 567q0 35 -20 57.5t-53 22.5t-53 -22t-20 -58
q0 -33 20.5 -56.5t52.5 -23.5t52.5 23t20.5 57z" />
    <glyph glyph-name="seven.sup" horiz-adv-x="423" 
d="M341 842q22 0 36 -14.5t14 -33.5q0 -13 -5 -26q-30 -84 -111 -178q-54 -62 -59 -140q-1 -22 -15 -36.5t-36 -14.5t-36.5 15t-14.5 37q0 95 79 198l32 40t27 34t15 24h-179q-20 0 -33 13.5t-13 33.5t13.5 34t32.5 14h253z" />
    <glyph glyph-name="eight.sup" horiz-adv-x="473" 
d="M415 540q0 -68 -50.5 -107t-127.5 -39q-76 0 -127.5 39t-51.5 107q0 35 17 62t44 40q-38 27 -38 74q0 59 44 95t112 36t111.5 -36t43.5 -95q0 -45 -38 -72q28 -13 44.5 -41.5t16.5 -62.5zM312 540q0 52 -75 52t-75 -52q0 -56 75 -56q39 0 57 16t18 40zM290 718q0 8 -3 16
t-16 16t-34 8q-31 0 -42.5 -13t-11.5 -27q0 -40 53 -40q54 0 54 40z" />
    <glyph glyph-name="nine.sup" horiz-adv-x="473" 
d="M55 676q0 77 52.5 124.5t125.5 47.5q76 0 127 -49t51 -125q0 -70 -23 -131q-24 -59 -68 -103q-31 -31 -83 -59.5t-89 -28.5q-21 0 -35 13.5t-14 34.5q0 36 40 48q78 22 131 70l-1 2q-27 -12 -57 -12q-63 0 -110 45t-47 123zM160 676q0 -35 20 -57.5t53 -22.5t53 22t20 58
q0 33 -20.5 56.5t-52.5 23.5t-52.5 -23t-20.5 -57z" />
    <glyph glyph-name="plus.sup" horiz-adv-x="446" 
d="M271 568v-69q0 -20 -14 -34.5t-34 -14.5t-34 14.5t-14 34.5v69h-81q-19 0 -31.5 13t-12.5 32q0 18 12.5 30.5t31.5 12.5h81v72q0 20 14 33.5t34 13.5t34 -13.5t14 -33.5v-72h81q19 0 31.5 -12.5t12.5 -30.5q0 -19 -12.5 -32t-31.5 -13h-81z" />
    <glyph glyph-name="minus.sup" horiz-adv-x="446" 
d="M94 658h258q19 0 31.5 -12.5t12.5 -30.5q0 -19 -12.5 -32t-31.5 -13h-258q-19 0 -31.5 13t-12.5 32q0 18 12.5 30.5t31.5 12.5z" />
    <glyph glyph-name="equal.sup" horiz-adv-x="446" 
d="M352 635h-258q-19 0 -31.5 12.5t-12.5 30.5q0 19 12.5 32t31.5 13h258q19 0 31.5 -13t12.5 -32q0 -18 -12.5 -30.5t-31.5 -12.5zM352 510h-258q-19 0 -31.5 13t-12.5 32q0 18 12.5 30.5t31.5 12.5h258q19 0 31.5 -12.5t12.5 -30.5q0 -19 -12.5 -32t-31.5 -13z" />
    <glyph glyph-name="parenleft.sup" horiz-adv-x="240" 
d="M144 618q0 -155 87 -258q12 -14 12 -29q0 -19 -12 -32t-31 -13q-20 0 -33 14q-53 61 -85 146t-32 172q0 86 32 170.5t84 145.5q13 14 34 14q19 0 31 -12.5t12 -32.5q0 -14 -11 -29q-41 -48 -64.5 -116.5t-23.5 -139.5z" />
    <glyph glyph-name="parenright.sup" horiz-adv-x="240" 
d="M96 618q0 71 -23.5 139.5t-64.5 116.5q-11 15 -11 29q0 20 12 32.5t31 12.5q21 0 34 -14q52 -61 84 -145.5t32 -170.5q0 -87 -32 -172t-85 -146q-13 -14 -33 -14q-19 0 -31 13t-12 32q0 15 12 29q87 103 87 258z" />
    <glyph glyph-name="n.sup" horiz-adv-x="462" 
d="M400 586v-137q0 -21 -14.5 -35.5t-34.5 -14.5q-21 0 -35.5 14.5t-14.5 35.5v129q0 71 -60 71q-31 0 -51 -23.5t-20 -57.5v-119q0 -21 -14.5 -35.5t-34.5 -14.5q-21 0 -35.5 14.5t-14.5 35.5v233q0 20 14.5 36t35.5 16q16 0 30 -9.5t15 -27.5q33 39 90 39q66 0 105 -40
t39 -110z" />
    <glyph glyph-name="zero.sub" horiz-adv-x="473" 
d="M417 83q0 -92 -50 -159t-130 -67t-130.5 67t-50.5 159t50.5 160t130.5 68t130 -67.5t50 -160.5zM312 83q0 65 -21.5 101t-53.5 36q-33 0 -54.5 -36t-21.5 -101t21.5 -100t54.5 -35q32 0 53.5 35t21.5 100z" />
    <glyph glyph-name="one.sub" horiz-adv-x="372" 
d="M283 253v-339q0 -22 -15 -37t-37 -15t-37 15t-15 37v220q0 35 4 46l-2 2q-12 -14 -20 -20l-32 -23q-17 -12 -33 -12q-25 0 -40 21q-9 14 -9 29q0 26 21 41l107 75q17 12 33 12h23q22 0 37 -15t15 -37z" />
    <glyph glyph-name="two.sub" horiz-adv-x="473" 
d="M367 -138h-248q-20 0 -34.5 14.5t-14.5 36.5q0 41 15.5 72.5t46 54t56 35t66.5 28.5q21 8 34 23t13 33q0 28 -15.5 44t-43.5 16q-52 0 -60 -50q-7 -38 -49 -38q-22 0 -36.5 13t-14.5 35q0 54 48 93t114 39q71 0 115.5 -40.5t44.5 -111.5q0 -57 -31 -91.5t-93 -58.5
q-76 -30 -90 -51h177q19 0 33 -14.5t14 -34.5t-14 -33.5t-33 -13.5z" />
    <glyph glyph-name="three.sub" horiz-adv-x="458" 
d="M393 -2q0 -63 -47.5 -102.5t-144.5 -39.5q-63 0 -141 34q-27 12 -27 45q0 19 13.5 33t34.5 14q13 0 23 -6q50 -29 97 -29q40 0 62.5 14t22.5 38q0 26 -21.5 39t-76.5 14q-20 0 -34 13.5t-14 33.5q0 19 14 32t34 14q41 2 59 9.5t18 24.5q0 40 -68 40q-32 0 -74 -19
q-14 -6 -25 -6q-21 0 -34 12t-13 32q0 32 32 46q58 27 114 27q79 0 126.5 -35.5t47.5 -94.5q0 -57 -48 -76q34 -14 52 -43t18 -64z" />
    <glyph glyph-name="four.sub" horiz-adv-x="443" 
d="M348 46h3q20 0 34 -13.5t14 -32.5q0 -20 -14 -33.5t-34 -13.5h-3v-39q0 -22 -15.5 -37t-37.5 -15t-37 15t-15 37v39h-152q-21 0 -35 14.5t-14 35.5v10q0 16 15 36l178 236q15 20 39 20h21q22 0 37.5 -15t15.5 -37v-207zM243 46v60q0 29 4 46l-2 1q-5 -11 -21 -32l-58 -75
h77z" />
    <glyph glyph-name="five.sub" horiz-adv-x="473" 
d="M410 15q0 -70 -49 -114.5t-127 -44.5q-62 0 -114 27q-33 17 -33 49q0 20 13 32.5t33 12.5q13 0 29 -8q42 -21 70 -21q72 0 72 69q0 29 -18 48t-46 19q-46 0 -71 -32q-12 -15 -31 -15q-6 0 -16 3l-34 12q-21 7 -21 32q0 13 2 25l17 151q2 21 16.5 33t35.5 12h199
q19 0 34 -14.5t15 -34.5q0 -21 -13.5 -33.5t-35.5 -12.5h-159q-4 -42 -7 -57l2 -2q30 22 75 22q70 0 116 -42.5t46 -115.5z" />
    <glyph glyph-name="six.sub" horiz-adv-x="473" 
d="M420 30q0 -77 -52.5 -124.5t-125.5 -47.5q-76 0 -127 49t-51 125q0 70 23 131q24 59 68 103q31 31 83 59.5t89 28.5q21 0 35 -13.5t14 -34.5q0 -36 -40 -48q-78 -22 -131 -70l1 -2q27 12 57 12q63 0 110 -45t47 -123zM315 30q0 35 -20 57.5t-53 22.5t-53 -22t-20 -58
q0 -33 20.5 -56.5t52.5 -23.5t52.5 23t20.5 57z" />
    <glyph glyph-name="seven.sub" horiz-adv-x="423" 
d="M341 305q22 0 36 -14.5t14 -33.5q0 -13 -5 -26q-30 -84 -111 -178q-54 -62 -59 -140q-1 -22 -15 -36.5t-36 -14.5t-36.5 15t-14.5 37q0 95 79 198l32 40t27 34t15 24h-179q-20 0 -33 13.5t-13 33.5t13.5 34t32.5 14h253z" />
    <glyph glyph-name="eight.sub" horiz-adv-x="473" 
d="M415 3q0 -68 -50.5 -107t-127.5 -39q-76 0 -127.5 39t-51.5 107q0 71 61 102q-38 27 -38 74q0 59 44 95t112 36t111.5 -36t43.5 -95q0 -45 -38 -72q28 -13 44.5 -41.5t16.5 -62.5zM312 3q0 52 -75 52t-75 -52q0 -56 75 -56q39 0 57 16t18 40zM290 181q0 8 -3 16t-16 16
t-34 8q-31 0 -42.5 -13t-11.5 -27q0 -40 53 -40q54 0 54 40z" />
    <glyph glyph-name="nine.sub" horiz-adv-x="473" 
d="M55 139q0 77 52.5 124.5t125.5 47.5q76 0 127 -49t51 -125q0 -70 -23 -131q-24 -59 -68 -103q-31 -31 -83 -59.5t-89 -28.5q-21 0 -35 13.5t-14 34.5q0 36 40 48q78 22 131 70l-1 2q-27 -12 -57 -12q-63 0 -110 45t-47 123zM160 139q0 -35 20 -57.5t53 -22.5t53 22t20 58
q0 33 -20.5 56.5t-52.5 23.5t-52.5 -23t-20.5 -57z" />
    <glyph glyph-name="plus.sub" horiz-adv-x="446" 
d="M271 31v-69q0 -20 -14 -34.5t-34 -14.5t-34 14.5t-14 34.5v69h-81q-19 0 -31.5 13t-12.5 32q0 18 12.5 30.5t31.5 12.5h81v72q0 20 14 33.5t34 13.5t34 -13.5t14 -33.5v-72h81q19 0 31.5 -12.5t12.5 -30.5q0 -19 -12.5 -32t-31.5 -13h-81z" />
    <glyph glyph-name="minus.sub" horiz-adv-x="446" 
d="M94 121h258q19 0 31.5 -12.5t12.5 -30.5q0 -19 -12.5 -32t-31.5 -13h-258q-19 0 -31.5 13t-12.5 32q0 18 12.5 30.5t31.5 12.5z" />
    <glyph glyph-name="equal.sub" horiz-adv-x="446" 
d="M352 98h-258q-19 0 -31.5 12.5t-12.5 30.5q0 19 12.5 32t31.5 13h258q19 0 31.5 -13t12.5 -32q0 -18 -12.5 -30.5t-31.5 -12.5zM352 -27h-258q-19 0 -31.5 13t-12.5 32q0 18 12.5 30.5t31.5 12.5h258q19 0 31.5 -12.5t12.5 -30.5q0 -19 -12.5 -32t-31.5 -13z" />
    <glyph glyph-name="parenleft.sub" horiz-adv-x="240" 
d="M144 81q0 -155 87 -258q12 -14 12 -29q0 -19 -12 -32t-31 -13q-20 0 -33 14q-53 61 -85 146t-32 172q0 86 32 170.5t84 145.5q13 14 34 14q19 0 31 -12.5t12 -32.5q0 -14 -11 -29q-41 -48 -64.5 -116.5t-23.5 -139.5z" />
    </font>
</defs>
</svg>
